M48
METRIC,LZ,000.000
;FILE_FORMAT=3:3
;TYPE=PLATED
;Layer: PTH_Through
;EasyEDA v6.5.34, 2023-09-21 21:59:44
;1037e3338c1a49738aad6bad4f376bef,8e72fd04a6c14d66a7e837eb9aaabff2,10
;Gerber Generator version 0.2
;Holesize 1 = 0.306 mm
T01C0.306
;Holesize 2 = 0.310 mm
T02C0.310
;Holesize 3 = 0.701 mm
T03C0.701
;Holesize 4 = 0.800 mm
T04C0.800
;Holesize 5 = 0.801 mm
T05C0.801
;Holesize 6 = 0.813 mm
T06C0.813
;Holesize 7 = 1.021 mm
T07C1.021
;Holesize 8 = 1.200 mm
T08C1.200
;Holesize 9 = 1.681 mm
T09C1.681
;Holesize 10 = 3.501 mm
T10C3.501
%
G05
G90
T01
X080000Y002413
X080000Y-002286
X082413Y000000
X077587Y000000
X081651Y001651
X078221Y001651
X078221Y-001651
X081651Y-001651
X-000000Y002413
X-000000Y-002286
X002413Y000000
X-002413Y000000
X001651Y001651
X-001778Y001651
X-001778Y-001651
X001651Y-001651
X-000000Y082413
X-000000Y077714
X002413Y080000
X-002413Y080000
X001651Y081651
X-001778Y081651
X-001778Y078349
X001651Y078349
X080000Y082413
X080000Y077714
X082413Y080000
X077587Y080000
X081651Y081651
X078222Y081651
X078222Y078349
X081651Y078349
T02
X014447Y011006
X014447Y010006
X014447Y009006
X023300Y012300
X030000Y014200
X031600Y012200
X032400Y012900
X077000Y007600
X008800Y002800
X009800Y002800
X010800Y002800
X009000Y017000
X010000Y017000
X011000Y017000
X045000Y020800
X046300Y020800
X076100Y022900
X078800Y022900
X078800Y005200
X071800Y-000300
X071800Y-001500
X041000Y003900
X041800Y003900
X042600Y003900
X043400Y003900
X044200Y003900
T03
X-001338Y005608G85X-000538Y005608
X-001338Y014248G85X-000538Y014248
X002462Y005608G85X003262Y005608
X002462Y014248G85X003262Y014248
T04
X-002050Y020800G85X-002050Y022000
X009650Y020800G85X009650Y022000
T05
X021697Y082400G85X021702Y082400
X024237Y082400G85X024242Y082400
X026777Y082400G85X026782Y082400
X029317Y082400G85X029322Y082400
X031857Y082400G85X031862Y082400
X034397Y082400G85X034402Y082400
X036937Y082400G85X036942Y082400
X039477Y082400G85X039482Y082400
X042017Y082400G85X042022Y082400
X044557Y082400G85X044562Y082400
X047097Y082400G85X047102Y082400
X049637Y082400G85X049642Y082400
X052177Y082400G85X052182Y082400
X054717Y082400G85X054722Y082400
X057257Y082400G85X057262Y082400
X059797Y082400G85X059802Y082400
T06
X001925Y056237
X001925Y058777
X001925Y061317
X001925Y063857
X001925Y066397
X001925Y068937
X001925Y071477
X001925Y074017
X009545Y074017
X009545Y071477
X009545Y068937
X009545Y066397
X009545Y063857
X009545Y061317
X009545Y058777
X009545Y056237
X023551Y056237
X023551Y058777
X023551Y061317
X023551Y063857
X023551Y066397
X023551Y068937
X023551Y071477
X023551Y074017
X031171Y074017
X031171Y071477
X031171Y068937
X031171Y066397
X031171Y063857
X031171Y061317
X031171Y058777
X031171Y056237
X048570Y056237
X048570Y058777
X048570Y061317
X048570Y063857
X048570Y066397
X048570Y068937
X048570Y071477
X048570Y074017
X056190Y074017
X056190Y071477
X056190Y068937
X056190Y066397
X056190Y063857
X056190Y061317
X056190Y058777
X056190Y056237
X069017Y056237
X069017Y058777
X069017Y061317
X069017Y063857
X069017Y066397
X069017Y068937
X069017Y071477
X069017Y074017
X076637Y074017
X076637Y071477
X076637Y068937
X076637Y066397
X076637Y063857
X076637Y061317
X076637Y058777
X076637Y056237
T07
X082100Y021600
X017000Y-001200
X009800Y-001200
T08
X006800Y021400
X003800Y021400
X000800Y021400
T09
X006865Y047714
X012351Y038900
X012224Y043396
X006865Y030086
X012224Y034404
X010853Y031077
X010853Y046723
X002852Y046723
X001175Y043396
X001048Y038900
X001175Y034404
X002852Y031077
X027265Y047714
X032751Y038900
X032624Y043396
X027265Y030086
X032624Y034404
X031253Y031077
X031253Y046723
X023252Y046723
X021575Y043396
X021448Y038900
X021575Y034404
X023252Y031077
X052665Y047714
X058151Y038900
X058024Y043396
X052665Y030086
X058024Y034404
X056653Y031077
X056653Y046723
X048652Y046723
X046975Y043396
X046848Y038900
X046975Y034404
X048652Y031077
X072865Y047714
X078351Y038900
X078224Y043396
X072865Y030086
X078224Y034404
X076853Y031077
X076853Y046723
X068852Y046723
X067175Y043396
X067048Y038900
X067175Y034404
X068852Y031077
T10
X080000Y000000
X-000000Y000000
X-000000Y080000
X080000Y080000
M30
