M48
METRIC,LZ,000.000
;FILE_FORMAT=3:3
;TYPE=PLATED
;Layer: PTH_Through_Via
;EasyEDA v6.5.34, 2023-09-21 21:59:44
;1037e3338c1a49738aad6bad4f376bef,8e72fd04a6c14d66a7e837eb9aaabff2,10
;Gerber Generator version 0.2
;Holesize 1 = 0.310 mm
T01C0.310
%
G05
G90
T01
X014447Y011006
X014447Y010006
X014447Y009006
X023300Y012300
X030000Y014200
X031600Y012200
X032400Y012900
X077000Y007600
X008800Y002800
X009800Y002800
X010800Y002800
X009000Y017000
X010000Y017000
X011000Y017000
X045000Y020800
X046300Y020800
X076100Y022900
X078800Y022900
X078800Y005200
X071800Y-000300
X071800Y-001500
X041000Y003900
X041800Y003900
X042600Y003900
X043400Y003900
X044200Y003900
M30
