G04 Layer: BottomSolderMaskLayer*
G04 EasyEDA v6.5.34, 2023-09-21 21:59:44*
G04 1037e3338c1a49738aad6bad4f376bef,8e72fd04a6c14d66a7e837eb9aaabff2,10*
G04 Gerber Generator version 0.2*
G04 Scale: 100 percent, Rotated: No, Reflected: No *
G04 Dimensions in millimeters *
G04 leading zeros omitted , absolute positions ,4 integer and 5 decimal *
%FSLAX45Y45*%
%MOMM*%

%AMMACRO1*1,1,$1,$2,$3*1,1,$1,$4,$5*1,1,$1,0-$2,0-$3*1,1,$1,0-$4,0-$5*20,1,$1,$2,$3,$4,$5,0*20,1,$1,$4,$5,0-$2,0-$3,0*20,1,$1,0-$2,0-$3,0-$4,0-$5,0*20,1,$1,0-$4,0-$5,$2,$3,0*4,1,4,$2,$3,$4,$5,0-$2,0-$3,0-$4,0-$5,$2,$3,0*%
%ADD10C,1.7272*%
%ADD11C,2.6416*%
%ADD12O,1.6015970000000002X2.9015944*%
%ADD13C,2.1016*%
%ADD14MACRO1,0.1016X-0.7499X0.7499X0.7499X0.7499*%
%ADD15C,1.6015*%
%ADD16MACRO1,0.2032X1.0909X-0.6058X-1.0909X-0.6058*%
%ADD17O,2.0015962000000003X1.2015978000000003*%
%ADD18C,6.2032*%
%ADD19C,0.6100*%

%LPD*%
D10*
G01*
X8209983Y2159995D03*
G01*
X1700001Y-119999D03*
G01*
X980013Y-119999D03*
D11*
G01*
X686503Y4771369D03*
G01*
X1235143Y3889989D03*
G01*
X1222443Y4339569D03*
G01*
X686503Y3008609D03*
G01*
X1222443Y3440409D03*
G01*
X1085283Y3107669D03*
G01*
X1085283Y4672309D03*
G01*
X285183Y4672309D03*
G01*
X117543Y4339569D03*
G01*
X104843Y3889989D03*
G01*
X117543Y3440409D03*
G01*
X285183Y3107669D03*
G01*
X2726504Y4771369D03*
G01*
X3275144Y3889989D03*
G01*
X3262444Y4339569D03*
G01*
X2726504Y3008609D03*
G01*
X3262444Y3440409D03*
G01*
X3125284Y3107669D03*
G01*
X3125284Y4672309D03*
G01*
X2325184Y4672309D03*
G01*
X2157544Y4339569D03*
G01*
X2144844Y3889989D03*
G01*
X2157544Y3440409D03*
G01*
X2325184Y3107669D03*
G01*
X5266504Y4771369D03*
G01*
X5815144Y3889989D03*
G01*
X5802444Y4339569D03*
G01*
X5266504Y3008609D03*
G01*
X5802444Y3440409D03*
G01*
X5665284Y3107669D03*
G01*
X5665284Y4672309D03*
G01*
X4865184Y4672309D03*
G01*
X4697544Y4339569D03*
G01*
X4684844Y3889989D03*
G01*
X4697544Y3440409D03*
G01*
X4865184Y3107669D03*
G01*
X7286490Y4771369D03*
G01*
X7835130Y3889989D03*
G01*
X7822430Y4339569D03*
G01*
X7286490Y3008609D03*
G01*
X7822430Y3440409D03*
G01*
X7685270Y3107669D03*
G01*
X7685270Y4672309D03*
G01*
X6885170Y4672309D03*
G01*
X6717530Y4339569D03*
G01*
X6704830Y3889989D03*
G01*
X6717530Y3440409D03*
G01*
X6885170Y3107669D03*
D12*
G01*
X-204985Y2140005D03*
G01*
X964989Y2140005D03*
D13*
G01*
X680001Y2140005D03*
G01*
X380001Y2140005D03*
G01*
X80002Y2140005D03*
D14*
G01*
X2169988Y8239983D03*
D15*
G01*
X2423990Y8239993D03*
G01*
X2677990Y8239993D03*
G01*
X2931990Y8239993D03*
G01*
X3185990Y8239993D03*
G01*
X3439990Y8239993D03*
G01*
X3693990Y8239993D03*
G01*
X3947990Y8239993D03*
G01*
X4201990Y8239993D03*
G01*
X4455990Y8239993D03*
G01*
X4709990Y8239993D03*
G01*
X4963990Y8239993D03*
G01*
X5217990Y8239993D03*
G01*
X5471990Y8239993D03*
G01*
X5725990Y8239993D03*
G01*
X5979990Y8239993D03*
D16*
G01*
X192498Y5623687D03*
G01*
X192498Y5877687D03*
G01*
X192498Y6131687D03*
G01*
X192498Y6385687D03*
G01*
X192498Y6639687D03*
G01*
X192498Y6893687D03*
G01*
X192498Y7147687D03*
G01*
X192498Y7401687D03*
G01*
X954498Y7401687D03*
G01*
X954498Y7147687D03*
G01*
X954498Y6893687D03*
G01*
X954498Y6639687D03*
G01*
X954498Y6385687D03*
G01*
X954498Y6131687D03*
G01*
X954498Y5877687D03*
G01*
X954498Y5623687D03*
G01*
X2355105Y5623687D03*
G01*
X2355105Y5877687D03*
G01*
X2355105Y6131687D03*
G01*
X2355105Y6385687D03*
G01*
X2355105Y6639687D03*
G01*
X2355105Y6893687D03*
G01*
X2355105Y7147687D03*
G01*
X2355105Y7401687D03*
G01*
X3117105Y7401687D03*
G01*
X3117105Y7147687D03*
G01*
X3117105Y6893687D03*
G01*
X3117105Y6639687D03*
G01*
X3117105Y6385687D03*
G01*
X3117105Y6131687D03*
G01*
X3117105Y5877687D03*
G01*
X3117105Y5623687D03*
G01*
X4857005Y5623687D03*
G01*
X4857005Y5877687D03*
G01*
X4857005Y6131687D03*
G01*
X4857005Y6385687D03*
G01*
X4857005Y6639687D03*
G01*
X4857005Y6893687D03*
G01*
X4857005Y7147687D03*
G01*
X4857005Y7401687D03*
G01*
X5619005Y7401687D03*
G01*
X5619005Y7147687D03*
G01*
X5619005Y6893687D03*
G01*
X5619005Y6639687D03*
G01*
X5619005Y6385687D03*
G01*
X5619005Y6131687D03*
G01*
X5619005Y5877687D03*
G01*
X5619005Y5623687D03*
G01*
X6901705Y5623687D03*
G01*
X6901705Y5877687D03*
G01*
X6901705Y6131687D03*
G01*
X6901705Y6385687D03*
G01*
X6901705Y6639687D03*
G01*
X6901705Y6893687D03*
G01*
X6901705Y7147687D03*
G01*
X6901705Y7401687D03*
G01*
X7663705Y7401687D03*
G01*
X7663705Y7147687D03*
G01*
X7663705Y6893687D03*
G01*
X7663705Y6639687D03*
G01*
X7663705Y6385687D03*
G01*
X7663705Y6131687D03*
G01*
X7663705Y5877687D03*
G01*
X7663705Y5623687D03*
D17*
G01*
X-93809Y560837D03*
G01*
X-93809Y1424818D03*
G01*
X286199Y560837D03*
G01*
X286199Y1424818D03*
D18*
G01*
X7999976Y5D03*
D19*
G01*
X7999976Y241305D03*
G01*
X7999976Y-228594D03*
G01*
X8241276Y5D03*
G01*
X7758676Y5D03*
G01*
X8165076Y165105D03*
G01*
X7822176Y165105D03*
G01*
X7822176Y-165094D03*
G01*
X8165076Y-165094D03*
D18*
G01*
X-7Y5D03*
D19*
G01*
X-7Y241305D03*
G01*
X-7Y-228594D03*
G01*
X241292Y5D03*
G01*
X-241307Y5D03*
G01*
X165092Y165105D03*
G01*
X-177807Y165105D03*
G01*
X-177807Y-165094D03*
G01*
X165092Y-165094D03*
D18*
G01*
X-7Y7999963D03*
D19*
G01*
X-7Y8241263D03*
G01*
X-7Y7771363D03*
G01*
X241292Y7999963D03*
G01*
X-241307Y7999963D03*
G01*
X165092Y8165063D03*
G01*
X-177807Y8165063D03*
G01*
X-177807Y7834863D03*
G01*
X165092Y7834863D03*
D18*
G01*
X7999976Y7999989D03*
D19*
G01*
X7999976Y8241289D03*
G01*
X7999976Y7771389D03*
G01*
X8241276Y7999989D03*
G01*
X7758676Y7999989D03*
G01*
X8165076Y8165089D03*
G01*
X7822176Y8165089D03*
G01*
X7822176Y7834889D03*
G01*
X8165076Y7834889D03*
M02*
