G04 Layer: BottomSilkscreenLayer*
G04 EasyEDA v6.5.34, 2023-09-21 21:59:44*
G04 1037e3338c1a49738aad6bad4f376bef,8e72fd04a6c14d66a7e837eb9aaabff2,10*
G04 Gerber Generator version 0.2*
G04 Scale: 100 percent, Rotated: No, Reflected: No *
G04 Dimensions in millimeters *
G04 leading zeros omitted , absolute positions ,4 integer and 5 decimal *
%FSLAX45Y45*%
%MOMM*%

%ADD10C,0.2032*%
%ADD11C,0.1500*%

%LPD*%
D10*
X5399953Y-69489D02*
G01*
X5344581Y-199029D01*
X5289209Y-69489D02*
G01*
X5344581Y-199029D01*
X5218851Y-152801D02*
G01*
X5228249Y-161945D01*
X5218851Y-171089D01*
X5209707Y-161945D01*
X5218851Y-152801D01*
X5139603Y-51201D02*
G01*
X5139603Y-41803D01*
X5130205Y-23515D01*
X5121061Y-14117D01*
X5102519Y-4973D01*
X5065689Y-4973D01*
X5047147Y-14117D01*
X5038003Y-23515D01*
X5028605Y-41803D01*
X5028605Y-60345D01*
X5038003Y-78887D01*
X5056291Y-106573D01*
X5148747Y-199029D01*
X5019461Y-199029D01*
X4939959Y-4973D02*
G01*
X4838359Y-4973D01*
X4893731Y-78887D01*
X4866045Y-78887D01*
X4847757Y-88031D01*
X4838359Y-97429D01*
X4829215Y-125115D01*
X4829215Y-143403D01*
X4838359Y-171089D01*
X4856901Y-189631D01*
X4884587Y-199029D01*
X4912273Y-199029D01*
X4939959Y-189631D01*
X4949357Y-180487D01*
X4958501Y-161945D01*
X4712883Y-4973D02*
G01*
X4740569Y-14117D01*
X4759111Y-41803D01*
X4768255Y-88031D01*
X4768255Y-115717D01*
X4759111Y-161945D01*
X4740569Y-189631D01*
X4712883Y-199029D01*
X4694341Y-199029D01*
X4666655Y-189631D01*
X4648113Y-161945D01*
X4638969Y-115717D01*
X4638969Y-88031D01*
X4648113Y-41803D01*
X4666655Y-14117D01*
X4694341Y-4973D01*
X4712883Y-4973D01*
X4457867Y-69489D02*
G01*
X4467011Y-97429D01*
X4485553Y-115717D01*
X4513239Y-125115D01*
X4522637Y-125115D01*
X4550323Y-115717D01*
X4568611Y-97429D01*
X4578009Y-69489D01*
X4578009Y-60345D01*
X4568611Y-32659D01*
X4550323Y-14117D01*
X4522637Y-4973D01*
X4513239Y-4973D01*
X4485553Y-14117D01*
X4467011Y-32659D01*
X4457867Y-69489D01*
X4457867Y-115717D01*
X4467011Y-161945D01*
X4485553Y-189631D01*
X4513239Y-199029D01*
X4531781Y-199029D01*
X4559467Y-189631D01*
X4568611Y-171089D01*
X4387763Y-152801D02*
G01*
X4396907Y-161945D01*
X4387763Y-171089D01*
X4378365Y-161945D01*
X4387763Y-152801D01*
X4317405Y-69489D02*
G01*
X4317405Y-199029D01*
X4317405Y-106573D02*
G01*
X4289719Y-78887D01*
X4271431Y-69489D01*
X4243491Y-69489D01*
X4225203Y-78887D01*
X4215805Y-106573D01*
X4215805Y-199029D01*
X4154845Y-4973D02*
G01*
X4145701Y-14117D01*
X4136557Y-4973D01*
X4145701Y4170D01*
X4154845Y-4973D01*
X4145701Y-69489D02*
G01*
X4145701Y-199029D01*
X4075597Y-69489D02*
G01*
X3973997Y-199029D01*
X3973997Y-69489D02*
G01*
X4075597Y-199029D01*
X3913037Y-4973D02*
G01*
X3903639Y-14117D01*
X3894495Y-4973D01*
X3903639Y4170D01*
X3913037Y-4973D01*
X3903639Y-69489D02*
G01*
X3903639Y-199029D01*
X3833535Y-125115D02*
G01*
X3722791Y-125115D01*
X3722791Y-106573D01*
X3731935Y-88031D01*
X3741079Y-78887D01*
X3759621Y-69489D01*
X3787307Y-69489D01*
X3805849Y-78887D01*
X3824391Y-97429D01*
X3833535Y-125115D01*
X3833535Y-143403D01*
X3824391Y-171089D01*
X3805849Y-189631D01*
X3787307Y-199029D01*
X3759621Y-199029D01*
X3741079Y-189631D01*
X3722791Y-171089D01*
X3661831Y-4973D02*
G01*
X3661831Y-199029D01*
X3661831Y-4973D02*
G01*
X3578519Y-4973D01*
X3550833Y-14117D01*
X3541689Y-23515D01*
X3532291Y-41803D01*
X3532291Y-69489D01*
X3541689Y-88031D01*
X3550833Y-97429D01*
X3578519Y-106573D01*
X3661831Y-106573D01*
X3425357Y-69489D02*
G01*
X3443645Y-78887D01*
X3462187Y-97429D01*
X3471331Y-125115D01*
X3471331Y-143403D01*
X3462187Y-171089D01*
X3443645Y-189631D01*
X3425357Y-199029D01*
X3397671Y-199029D01*
X3379129Y-189631D01*
X3360587Y-171089D01*
X3351443Y-143403D01*
X3351443Y-125115D01*
X3360587Y-97429D01*
X3379129Y-78887D01*
X3397671Y-69489D01*
X3425357Y-69489D01*
X3290483Y-69489D02*
G01*
X3253399Y-199029D01*
X3216569Y-69489D02*
G01*
X3253399Y-199029D01*
X3216569Y-69489D02*
G01*
X3179485Y-199029D01*
X3142655Y-69489D02*
G01*
X3179485Y-199029D01*
X3081695Y-125115D02*
G01*
X2970951Y-125115D01*
X2970951Y-106573D01*
X2980095Y-88031D01*
X2989239Y-78887D01*
X3007781Y-69489D01*
X3035467Y-69489D01*
X3054009Y-78887D01*
X3072551Y-97429D01*
X3081695Y-125115D01*
X3081695Y-143403D01*
X3072551Y-171089D01*
X3054009Y-189631D01*
X3035467Y-199029D01*
X3007781Y-199029D01*
X2989239Y-189631D01*
X2970951Y-171089D01*
X2909991Y-69489D02*
G01*
X2909991Y-199029D01*
X2909991Y-125115D02*
G01*
X2900593Y-97429D01*
X2882051Y-78887D01*
X2863763Y-69489D01*
X2836077Y-69489D01*
X4169991Y7845031D02*
G01*
X4169991Y7651069D01*
X4169991Y7845031D02*
G01*
X4086865Y7845031D01*
X4059156Y7835795D01*
X4049918Y7826560D01*
X4040682Y7808086D01*
X4040682Y7789613D01*
X4049918Y7771140D01*
X4059156Y7761904D01*
X4086865Y7752669D01*
X4169991Y7752669D02*
G01*
X4086865Y7752669D01*
X4059156Y7743431D01*
X4049918Y7734195D01*
X4040682Y7715722D01*
X4040682Y7688013D01*
X4049918Y7669540D01*
X4059156Y7660304D01*
X4086865Y7651069D01*
X4169991Y7651069D01*
X3979722Y7845031D02*
G01*
X3970487Y7835795D01*
X3961249Y7845031D01*
X3970487Y7854269D01*
X3979722Y7845031D01*
X3970487Y7780378D02*
G01*
X3970487Y7651069D01*
X3798689Y7752669D02*
G01*
X3807927Y7771140D01*
X3835636Y7780378D01*
X3863345Y7780378D01*
X3891053Y7771140D01*
X3900289Y7752669D01*
X3891053Y7734195D01*
X3872580Y7724960D01*
X3826398Y7715722D01*
X3807927Y7706486D01*
X3798689Y7688013D01*
X3798689Y7678778D01*
X3807927Y7660304D01*
X3835636Y7651069D01*
X3863345Y7651069D01*
X3891053Y7660304D01*
X3900289Y7678778D01*
D11*
X-305577Y7303757D02*
G01*
X-247395Y7303757D01*
X-236486Y7307392D01*
X-232851Y7311029D01*
X-229214Y7318301D01*
X-229214Y7325573D01*
X-232851Y7332847D01*
X-236486Y7336482D01*
X-247395Y7340119D01*
X-254668Y7340119D01*
X-305577Y7279756D02*
G01*
X-229214Y7279756D01*
X-229214Y7279756D02*
G01*
X-229214Y7236119D01*
X-287395Y7157575D02*
G01*
X-294667Y7161209D01*
X-301942Y7168484D01*
X-305577Y7175756D01*
X-305577Y7190303D01*
X-301942Y7197575D01*
X-294667Y7204847D01*
X-287395Y7208484D01*
X-276486Y7212119D01*
X-258305Y7212119D01*
X-247395Y7208484D01*
X-240123Y7204847D01*
X-232851Y7197575D01*
X-229214Y7190303D01*
X-229214Y7175756D01*
X-232851Y7168484D01*
X-240123Y7161209D01*
X-247395Y7157575D01*
X-305577Y7097212D02*
G01*
X-247395Y7097212D01*
X-236486Y7100846D01*
X-232851Y7104484D01*
X-229214Y7111756D01*
X-229214Y7119030D01*
X-232851Y7126302D01*
X-236486Y7129937D01*
X-247395Y7133574D01*
X-254668Y7133574D01*
X-305577Y7073211D02*
G01*
X-229214Y7073211D01*
X-229214Y7073211D02*
G01*
X-229214Y7029574D01*
X-287395Y6951030D02*
G01*
X-294667Y6954667D01*
X-301942Y6961939D01*
X-305577Y6969211D01*
X-305577Y6983757D01*
X-301942Y6991029D01*
X-294667Y6998301D01*
X-287395Y7001939D01*
X-276486Y7005573D01*
X-258305Y7005573D01*
X-247395Y7001939D01*
X-240123Y6998301D01*
X-232851Y6991029D01*
X-229214Y6983757D01*
X-229214Y6969211D01*
X-232851Y6961939D01*
X-240123Y6954667D01*
X-247395Y6951030D01*
X-305577Y6890666D02*
G01*
X-247395Y6890666D01*
X-236486Y6894301D01*
X-232851Y6897938D01*
X-229214Y6905210D01*
X-229214Y6912485D01*
X-232851Y6919757D01*
X-236486Y6923392D01*
X-247395Y6927029D01*
X-254668Y6927029D01*
X-305577Y6866666D02*
G01*
X-229214Y6866666D01*
X-229214Y6866666D02*
G01*
X-229214Y6823029D01*
X-287395Y6744484D02*
G01*
X-294667Y6748122D01*
X-301942Y6755394D01*
X-305577Y6762666D01*
X-305577Y6777212D01*
X-301942Y6784484D01*
X-294667Y6791756D01*
X-287395Y6795394D01*
X-276486Y6799031D01*
X-258305Y6799031D01*
X-247395Y6795394D01*
X-240123Y6791756D01*
X-232851Y6784484D01*
X-229214Y6777212D01*
X-229214Y6762666D01*
X-232851Y6755394D01*
X-240123Y6748122D01*
X-247395Y6744484D01*
X-305577Y6684121D02*
G01*
X-247395Y6684121D01*
X-236486Y6687756D01*
X-232851Y6691393D01*
X-229214Y6698665D01*
X-229214Y6705940D01*
X-232851Y6713212D01*
X-236486Y6716849D01*
X-247395Y6720484D01*
X-254668Y6720484D01*
X-305577Y6660121D02*
G01*
X-229214Y6660121D01*
X-229214Y6660121D02*
G01*
X-229214Y6616484D01*
X-287395Y6537939D02*
G01*
X-294667Y6541576D01*
X-301942Y6548848D01*
X-305577Y6556120D01*
X-305577Y6570667D01*
X-301942Y6577939D01*
X-294667Y6585211D01*
X-287395Y6588848D01*
X-276486Y6592486D01*
X-258305Y6592486D01*
X-247395Y6588848D01*
X-240123Y6585211D01*
X-232851Y6577939D01*
X-229214Y6570667D01*
X-229214Y6556120D01*
X-232851Y6548848D01*
X-240123Y6541576D01*
X-247395Y6537939D01*
M02*
