G04 Layer: BottomLayer*
G04 EasyEDA v6.5.34, 2023-09-21 21:59:44*
G04 1037e3338c1a49738aad6bad4f376bef,8e72fd04a6c14d66a7e837eb9aaabff2,10*
G04 Gerber Generator version 0.2*
G04 Scale: 100 percent, Rotated: No, Reflected: No *
G04 Dimensions in millimeters *
G04 leading zeros omitted , absolute positions ,4 integer and 5 decimal *
%FSLAX45Y45*%
%MOMM*%

%ADD10C,0.3000*%
%ADD11C,0.5000*%
%ADD12C,1.5240*%
%ADD13C,2.5400*%
%ADD14O,1.499997X2.7999944*%
%ADD15C,2.0000*%
%ADD16R,1.4999X1.4999*%
%ADD17C,1.4999*%
%ADD18R,2.1819X1.2116*%
%ADD19O,1.8999962X1.0999978000000001*%
%ADD20C,6.0000*%
%ADD21C,0.6100*%
%ADD22C,0.6200*%
%ADD23C,0.0171*%

%LPD*%
G36*
X-389839Y-399999D02*
G01*
X-393750Y-399237D01*
X-397052Y-397052D01*
X-399237Y-393750D01*
X-399999Y-389839D01*
X-399999Y8389823D01*
X-399237Y8393684D01*
X-397052Y8396986D01*
X-393750Y8399221D01*
X-389839Y8399983D01*
X8389823Y8399983D01*
X8393684Y8399221D01*
X8396986Y8396986D01*
X8399170Y8393684D01*
X8399983Y8389823D01*
X8399983Y-389839D01*
X8399170Y-393750D01*
X8396986Y-397052D01*
X8393684Y-399237D01*
X8389823Y-399999D01*
G37*

%LPC*%
G36*
X8006232Y-325831D02*
G01*
X8031480Y-324358D01*
X8056524Y-320954D01*
X8081213Y-315620D01*
X8105444Y-308356D01*
X8129016Y-299262D01*
X8151825Y-288340D01*
X8173720Y-275691D01*
X8194548Y-261416D01*
X8214207Y-245567D01*
X8232597Y-228193D01*
X8249564Y-209499D01*
X8265058Y-189534D01*
X8278977Y-168402D01*
X8291169Y-146253D01*
X8301634Y-123240D01*
X8310270Y-99517D01*
X8317026Y-75184D01*
X8321903Y-50342D01*
X8324850Y-25247D01*
X8325815Y0D01*
X8324850Y25247D01*
X8321903Y50342D01*
X8317026Y75133D01*
X8310270Y99517D01*
X8301634Y123240D01*
X8291169Y146253D01*
X8278977Y168402D01*
X8265058Y189484D01*
X8249564Y209499D01*
X8232597Y228193D01*
X8214207Y245516D01*
X8194548Y261416D01*
X8173720Y275691D01*
X8151825Y288340D01*
X8129016Y299262D01*
X8105444Y308356D01*
X8081213Y315569D01*
X8056524Y320954D01*
X8031480Y324358D01*
X8006232Y325831D01*
X7980984Y325323D01*
X7955838Y322884D01*
X7930946Y318516D01*
X7906461Y312216D01*
X7882534Y304038D01*
X7859369Y294030D01*
X7836966Y282244D01*
X7815580Y268732D01*
X7795310Y253644D01*
X7776311Y237032D01*
X7758582Y218998D01*
X7742326Y199644D01*
X7727645Y179070D01*
X7714589Y157429D01*
X7703261Y134874D01*
X7693710Y111455D01*
X7685989Y87376D01*
X7680147Y62788D01*
X7676235Y37846D01*
X7674305Y12649D01*
X7674305Y-12649D01*
X7676235Y-37846D01*
X7680147Y-62788D01*
X7685989Y-87426D01*
X7693710Y-111455D01*
X7703261Y-134874D01*
X7714589Y-157429D01*
X7727645Y-179070D01*
X7742326Y-199644D01*
X7758582Y-218998D01*
X7776311Y-237032D01*
X7795310Y-253695D01*
X7815580Y-268782D01*
X7836966Y-282244D01*
X7859369Y-294030D01*
X7882534Y-304038D01*
X7906461Y-312216D01*
X7930946Y-318516D01*
X7955838Y-322884D01*
X7980984Y-325374D01*
G37*
G36*
X6299Y-325831D02*
G01*
X31495Y-324358D01*
X56540Y-320954D01*
X81280Y-315620D01*
X105460Y-308356D01*
X129032Y-299262D01*
X151841Y-288340D01*
X173736Y-275691D01*
X194564Y-261416D01*
X214274Y-245567D01*
X232664Y-228193D01*
X249631Y-209499D01*
X265125Y-189534D01*
X278993Y-168402D01*
X291185Y-146253D01*
X301650Y-123240D01*
X310286Y-99517D01*
X317093Y-75184D01*
X321970Y-50342D01*
X324866Y-25247D01*
X325882Y0D01*
X324866Y25247D01*
X321970Y50342D01*
X317093Y75133D01*
X310286Y99517D01*
X301650Y123240D01*
X291185Y146253D01*
X278993Y168402D01*
X265125Y189484D01*
X249631Y209499D01*
X232664Y228193D01*
X214274Y245516D01*
X194564Y261416D01*
X173736Y275691D01*
X151841Y288340D01*
X129032Y299262D01*
X105460Y308356D01*
X81280Y315569D01*
X56540Y320954D01*
X31495Y324358D01*
X6299Y325831D01*
X-18999Y325323D01*
X-44145Y322884D01*
X-69037Y318516D01*
X-93522Y312216D01*
X-117398Y304038D01*
X-140614Y294030D01*
X-162966Y282244D01*
X-184353Y268732D01*
X-204622Y253644D01*
X-223672Y237032D01*
X-241350Y218998D01*
X-257606Y199644D01*
X-272338Y179070D01*
X-285394Y157429D01*
X-296722Y134874D01*
X-306273Y111455D01*
X-313994Y87376D01*
X-319836Y62788D01*
X-323748Y37846D01*
X-325678Y12649D01*
X-325678Y-12649D01*
X-323748Y-37846D01*
X-319836Y-62788D01*
X-313994Y-87426D01*
X-306273Y-111455D01*
X-296722Y-134874D01*
X-285394Y-157429D01*
X-272338Y-179070D01*
X-257606Y-199644D01*
X-241350Y-218998D01*
X-223672Y-237032D01*
X-204622Y-253695D01*
X-184353Y-268782D01*
X-162966Y-282244D01*
X-140614Y-294030D01*
X-117398Y-304038D01*
X-93522Y-312216D01*
X-69037Y-318516D01*
X-44145Y-322884D01*
X-18999Y-325374D01*
G37*
G36*
X1699971Y-222097D02*
G01*
X1713585Y-221183D01*
X1726946Y-218440D01*
X1739849Y-213969D01*
X1751990Y-207822D01*
X1763268Y-200101D01*
X1773377Y-190957D01*
X1782165Y-180543D01*
X1789480Y-169062D01*
X1795221Y-156718D01*
X1799285Y-143662D01*
X1801571Y-130200D01*
X1802028Y-116585D01*
X1800656Y-103022D01*
X1797456Y-89763D01*
X1792579Y-77012D01*
X1786026Y-65074D01*
X1777949Y-54102D01*
X1768449Y-44297D01*
X1757730Y-35864D01*
X1745996Y-28905D01*
X1733448Y-23571D01*
X1720291Y-19964D01*
X1706778Y-18135D01*
X1693164Y-18135D01*
X1679651Y-19964D01*
X1666493Y-23571D01*
X1653946Y-28905D01*
X1642211Y-35864D01*
X1631492Y-44297D01*
X1622044Y-54102D01*
X1613916Y-65074D01*
X1607362Y-77012D01*
X1602486Y-89763D01*
X1599336Y-103022D01*
X1597964Y-116585D01*
X1598422Y-130200D01*
X1600657Y-143662D01*
X1604721Y-156718D01*
X1610461Y-169062D01*
X1617776Y-180543D01*
X1626616Y-190957D01*
X1636725Y-200101D01*
X1647952Y-207822D01*
X1660143Y-213969D01*
X1672996Y-218440D01*
X1686356Y-221183D01*
G37*
G36*
X3360369Y149098D02*
G01*
X7489748Y149098D01*
X7494371Y149301D01*
X7498791Y149860D01*
X7503109Y150825D01*
X7507376Y152146D01*
X7511440Y153873D01*
X7515402Y155905D01*
X7519162Y158292D01*
X7522667Y160985D01*
X7526121Y164134D01*
X7635798Y273812D01*
X7638948Y277266D01*
X7641640Y280771D01*
X7644028Y284530D01*
X7646060Y288493D01*
X7647787Y292608D01*
X7649108Y296824D01*
X7650073Y301142D01*
X7650632Y305562D01*
X7650886Y310235D01*
X7650886Y634695D01*
X7651648Y638606D01*
X7653832Y641908D01*
X7716520Y704545D01*
X7718450Y706069D01*
X7729778Y711555D01*
X7737551Y717296D01*
X7744206Y724255D01*
X7749590Y732282D01*
X7753603Y741070D01*
X7755991Y750366D01*
X7756855Y759968D01*
X7755991Y769620D01*
X7753603Y778916D01*
X7749590Y787704D01*
X7744206Y795731D01*
X7737551Y802690D01*
X7729778Y808431D01*
X7721142Y812749D01*
X7711948Y815594D01*
X7702397Y816813D01*
X7692745Y816406D01*
X7683296Y814374D01*
X7674356Y810768D01*
X7666126Y805738D01*
X7658912Y799338D01*
X7652816Y791819D01*
X7648143Y783437D01*
X7647127Y780542D01*
X7644739Y776782D01*
X7564120Y696163D01*
X7560970Y692708D01*
X7558278Y689203D01*
X7555890Y685444D01*
X7553807Y681532D01*
X7552131Y677418D01*
X7550810Y673150D01*
X7549845Y668832D01*
X7549235Y664413D01*
X7549032Y659790D01*
X7549032Y335280D01*
X7548270Y331419D01*
X7546086Y328117D01*
X7471816Y253898D01*
X7468565Y251663D01*
X7464653Y250901D01*
X3385464Y250901D01*
X3381552Y251663D01*
X3378301Y253898D01*
X2395423Y1236726D01*
X2393188Y1240028D01*
X2392426Y1243939D01*
X2393188Y1247800D01*
X2395423Y1251102D01*
X2398725Y1253337D01*
X2402586Y1254099D01*
X2813913Y1254099D01*
X2817774Y1253337D01*
X2821076Y1251102D01*
X2823311Y1247800D01*
X2824073Y1243939D01*
X2824073Y1210259D01*
X2824734Y1204214D01*
X2826664Y1198778D01*
X2829712Y1193850D01*
X2831846Y1191463D01*
X2911449Y1111859D01*
X2916174Y1108049D01*
X2921406Y1105560D01*
X2927045Y1104290D01*
X2930245Y1104087D01*
X3179673Y1104087D01*
X3185718Y1104747D01*
X3191205Y1106678D01*
X3196132Y1109776D01*
X3198469Y1111859D01*
X3348075Y1261465D01*
X3351885Y1266240D01*
X3354425Y1271422D01*
X3355695Y1277112D01*
X3355898Y1280261D01*
X3355898Y1565198D01*
X3356559Y1568907D01*
X3358591Y1572107D01*
X3361893Y1576222D01*
X3364382Y1581454D01*
X3365703Y1587093D01*
X3365703Y1592884D01*
X3364382Y1598523D01*
X3361893Y1603756D01*
X3358286Y1608328D01*
X3353765Y1611934D01*
X3348532Y1614424D01*
X3342843Y1615744D01*
X3340404Y1615846D01*
X3336696Y1616811D01*
X3333597Y1619046D01*
X3331514Y1622247D01*
X3330803Y1626006D01*
X3330803Y2624683D01*
X3331565Y2628595D01*
X3333800Y2631897D01*
X3338068Y2636113D01*
X3341319Y2638298D01*
X3345230Y2639060D01*
X8069630Y2639060D01*
X8078927Y2639872D01*
X8087461Y2642158D01*
X8095538Y2645918D01*
X8102803Y2650998D01*
X8109051Y2657246D01*
X8114131Y2664510D01*
X8117890Y2672588D01*
X8120176Y2681122D01*
X8120989Y2690418D01*
X8120989Y6369710D01*
X8120786Y6374333D01*
X8120227Y6378752D01*
X8119262Y6383070D01*
X8117941Y6387338D01*
X8116214Y6391402D01*
X8114182Y6395364D01*
X8111794Y6399123D01*
X8109102Y6402628D01*
X8105952Y6406083D01*
X7836509Y6675526D01*
X7833055Y6678675D01*
X7829550Y6681368D01*
X7825790Y6683756D01*
X7821828Y6685788D01*
X7817764Y6687515D01*
X7813700Y6688785D01*
X7806994Y6690004D01*
X7803032Y6691630D01*
X7800136Y6694779D01*
X7798765Y6698894D01*
X7797952Y6706006D01*
X7796072Y6711492D01*
X7792974Y6716369D01*
X7788909Y6720484D01*
X7783982Y6723532D01*
X7778546Y6725462D01*
X7772196Y6726174D01*
X7555179Y6726174D01*
X7548829Y6725462D01*
X7543393Y6723532D01*
X7538466Y6720484D01*
X7534402Y6716369D01*
X7531303Y6711492D01*
X7529423Y6706006D01*
X7528712Y6699707D01*
X7528712Y6579666D01*
X7529423Y6573367D01*
X7531303Y6567881D01*
X7534402Y6563004D01*
X7538466Y6558889D01*
X7543393Y6555841D01*
X7548829Y6553911D01*
X7555179Y6553200D01*
X7772196Y6553200D01*
X7778546Y6553911D01*
X7783982Y6555841D01*
X7788909Y6558889D01*
X7791805Y6561836D01*
X7795107Y6564020D01*
X7799019Y6564782D01*
X7802880Y6564020D01*
X7806181Y6561836D01*
X8016189Y6351778D01*
X8018424Y6348526D01*
X8019186Y6344615D01*
X8019186Y2751023D01*
X8018424Y2747162D01*
X8016189Y2743860D01*
X8012887Y2741625D01*
X8009026Y2740863D01*
X6310985Y2740863D01*
X6307124Y2741625D01*
X6303822Y2743860D01*
X6301587Y2747162D01*
X6300825Y2751023D01*
X6300825Y6129934D01*
X6300622Y6134608D01*
X6300063Y6138976D01*
X6299098Y6143345D01*
X6297777Y6147562D01*
X6296050Y6151676D01*
X6294018Y6155588D01*
X6291630Y6159347D01*
X6288938Y6162852D01*
X6285738Y6166307D01*
X5776315Y6675526D01*
X5772861Y6678675D01*
X5769305Y6681368D01*
X5765749Y6683654D01*
X5759754Y6686499D01*
X5756706Y6688734D01*
X5754674Y6691934D01*
X5754014Y6695643D01*
X5754014Y6699707D01*
X5753252Y6706006D01*
X5751372Y6711492D01*
X5748274Y6716369D01*
X5744210Y6720484D01*
X5739282Y6723532D01*
X5733846Y6725462D01*
X5727496Y6726174D01*
X5510479Y6726174D01*
X5504129Y6725462D01*
X5498693Y6723532D01*
X5493766Y6720484D01*
X5489702Y6716369D01*
X5486603Y6711492D01*
X5484723Y6706006D01*
X5484012Y6699707D01*
X5484012Y6579666D01*
X5484723Y6573367D01*
X5486603Y6567881D01*
X5489702Y6563004D01*
X5493766Y6558889D01*
X5498693Y6555841D01*
X5504129Y6553911D01*
X5510479Y6553200D01*
X5727496Y6553200D01*
X5733846Y6553911D01*
X5739282Y6555841D01*
X5743397Y6557721D01*
X5746800Y6557924D01*
X5750052Y6556959D01*
X5752846Y6554978D01*
X6196025Y6112002D01*
X6198260Y6108700D01*
X6199022Y6104839D01*
X6199022Y2751023D01*
X6198260Y2747162D01*
X6196025Y2743860D01*
X6192723Y2741625D01*
X6188862Y2740863D01*
X4060799Y2740863D01*
X4056938Y2741625D01*
X4053636Y2743860D01*
X4051401Y2747162D01*
X4050639Y2751023D01*
X4050639Y5889904D01*
X4050436Y5894527D01*
X4049877Y5898946D01*
X4048912Y5903264D01*
X4047591Y5907532D01*
X4045864Y5911596D01*
X4043832Y5915558D01*
X4041444Y5919317D01*
X4038752Y5922822D01*
X4035602Y5926277D01*
X3286353Y6675526D01*
X3282899Y6678675D01*
X3279394Y6681368D01*
X3275634Y6683756D01*
X3271672Y6685788D01*
X3267608Y6687515D01*
X3263442Y6688785D01*
X3260242Y6689445D01*
X3256330Y6691172D01*
X3253435Y6694322D01*
X3252165Y6698386D01*
X3251352Y6706057D01*
X3249472Y6711492D01*
X3246374Y6716369D01*
X3242310Y6720484D01*
X3237382Y6723532D01*
X3231946Y6725462D01*
X3225596Y6726174D01*
X3008579Y6726174D01*
X3002229Y6725462D01*
X2996793Y6723532D01*
X2991866Y6720484D01*
X2987802Y6716369D01*
X2984703Y6711492D01*
X2982823Y6706006D01*
X2982112Y6699707D01*
X2982112Y6579666D01*
X2982823Y6573367D01*
X2984703Y6567881D01*
X2987802Y6563004D01*
X2991866Y6558889D01*
X2996793Y6555841D01*
X3002229Y6553911D01*
X3008579Y6553200D01*
X3225596Y6553200D01*
X3231946Y6553911D01*
X3237382Y6555841D01*
X3242310Y6558889D01*
X3246729Y6562242D01*
X3250641Y6563004D01*
X3254502Y6562242D01*
X3257803Y6560058D01*
X3945839Y5871972D01*
X3948074Y5868720D01*
X3948836Y5864809D01*
X3948836Y2751023D01*
X3948074Y2747162D01*
X3945839Y2743860D01*
X3942537Y2741625D01*
X3938676Y2740863D01*
X3320237Y2740863D01*
X3315766Y2740660D01*
X3311194Y2740101D01*
X3307029Y2739186D01*
X3302609Y2737764D01*
X3298698Y2736189D01*
X3294583Y2734056D01*
X3290976Y2731770D01*
X3287318Y2728925D01*
X3284016Y2725928D01*
X3244189Y2686354D01*
X3240887Y2682798D01*
X3238296Y2679446D01*
X3235807Y2675534D01*
X3233826Y2671775D01*
X3232048Y2667457D01*
X3230778Y2663444D01*
X3229762Y2658922D01*
X3229203Y2654706D01*
X3229000Y2649829D01*
X3229000Y1626057D01*
X3228238Y1622196D01*
X3226003Y1618894D01*
X3222701Y1616659D01*
X3218840Y1615897D01*
X2410409Y1615897D01*
X2404059Y1615490D01*
X2399538Y1615897D01*
X1750923Y1615897D01*
X1747062Y1616659D01*
X1743760Y1618894D01*
X1741525Y1622196D01*
X1740763Y1626057D01*
X1740763Y5989980D01*
X1740560Y5994603D01*
X1740001Y5999022D01*
X1739036Y6003340D01*
X1737715Y6007608D01*
X1735988Y6011672D01*
X1733956Y6015634D01*
X1731568Y6019393D01*
X1728876Y6022898D01*
X1725726Y6026353D01*
X1092454Y6659575D01*
X1090269Y6662877D01*
X1089507Y6666788D01*
X1089507Y6699707D01*
X1088745Y6706006D01*
X1086866Y6711492D01*
X1083767Y6716369D01*
X1079703Y6720484D01*
X1074775Y6723532D01*
X1069340Y6725462D01*
X1062990Y6726174D01*
X845972Y6726174D01*
X839622Y6725462D01*
X834186Y6723532D01*
X829259Y6720484D01*
X825195Y6716369D01*
X822096Y6711492D01*
X820216Y6706006D01*
X819505Y6699707D01*
X819505Y6579666D01*
X820216Y6573367D01*
X822096Y6567881D01*
X825195Y6563004D01*
X829259Y6558889D01*
X834186Y6555841D01*
X839622Y6553911D01*
X845972Y6553200D01*
X1050645Y6553200D01*
X1054557Y6552438D01*
X1057808Y6550202D01*
X1635963Y5972048D01*
X1638198Y5968796D01*
X1638960Y5964885D01*
X1638960Y1599844D01*
X1638198Y1595932D01*
X1635963Y1592630D01*
X1351838Y1308506D01*
X1348028Y1303782D01*
X1345539Y1298549D01*
X1344218Y1292910D01*
X1344066Y1289710D01*
X1344066Y720547D01*
X1344777Y714248D01*
X1346708Y708761D01*
X1349756Y703884D01*
X1353870Y699770D01*
X1358747Y696722D01*
X1364234Y694791D01*
X1370533Y694080D01*
X1699666Y694080D01*
X1705711Y694740D01*
X1711198Y696671D01*
X1716125Y699770D01*
X1718513Y701903D01*
X2255977Y1239367D01*
X2259228Y1241552D01*
X2263140Y1242314D01*
X2267051Y1241552D01*
X2270302Y1239367D01*
X2272538Y1236065D01*
X2273300Y1232154D01*
X2273300Y1225143D01*
X2274925Y1215644D01*
X2278126Y1206550D01*
X2282850Y1198118D01*
X2288895Y1190599D01*
X2296160Y1184249D01*
X2304338Y1179169D01*
X2310180Y1176832D01*
X2313533Y1174597D01*
X3323996Y164134D01*
X3327450Y160985D01*
X3330956Y158292D01*
X3334715Y155905D01*
X3338677Y153873D01*
X3342741Y152146D01*
X3347008Y150825D01*
X3351326Y149860D01*
X3355746Y149301D01*
G37*
G36*
X246532Y479907D02*
G01*
X325780Y479907D01*
X337667Y480771D01*
X348945Y483209D01*
X359765Y487273D01*
X369874Y492810D01*
X379120Y499719D01*
X387299Y507847D01*
X394208Y517093D01*
X399745Y527253D01*
X403758Y538073D01*
X406196Y549351D01*
X407060Y560832D01*
X406196Y572363D01*
X403758Y583641D01*
X399745Y594461D01*
X394208Y604570D01*
X387299Y613816D01*
X379120Y621944D01*
X369874Y628904D01*
X359765Y634390D01*
X348945Y638454D01*
X337667Y640892D01*
X325780Y641756D01*
X246532Y641756D01*
X234645Y640892D01*
X223367Y638454D01*
X212547Y634390D01*
X202438Y628904D01*
X193192Y621944D01*
X185013Y613816D01*
X178104Y604570D01*
X172567Y594461D01*
X168554Y583641D01*
X166116Y572363D01*
X165252Y560832D01*
X166116Y549351D01*
X168554Y538073D01*
X172567Y527253D01*
X178104Y517093D01*
X185013Y507847D01*
X193192Y499719D01*
X202438Y492810D01*
X212547Y487273D01*
X223367Y483209D01*
X234645Y480771D01*
G37*
G36*
X-133502Y479907D02*
G01*
X-54203Y479907D01*
X-42316Y480771D01*
X-31038Y483209D01*
X-20269Y487273D01*
X-10109Y492810D01*
X-863Y499719D01*
X7264Y507847D01*
X14173Y517093D01*
X19710Y527253D01*
X23774Y538073D01*
X26212Y549351D01*
X27025Y560832D01*
X26212Y572363D01*
X23774Y583641D01*
X19710Y594461D01*
X14173Y604570D01*
X7264Y613816D01*
X-863Y621944D01*
X-10109Y628904D01*
X-20269Y634390D01*
X-31038Y638454D01*
X-42316Y640892D01*
X-54203Y641756D01*
X-133502Y641756D01*
X-145338Y640892D01*
X-156616Y638454D01*
X-167436Y634390D01*
X-177596Y628904D01*
X-186791Y621944D01*
X-194970Y613816D01*
X-201879Y604570D01*
X-207416Y594461D01*
X-211429Y583641D01*
X-213918Y572363D01*
X-214731Y560832D01*
X-213918Y549351D01*
X-211429Y538073D01*
X-207416Y527253D01*
X-201879Y517093D01*
X-194970Y507847D01*
X-186791Y499719D01*
X-177596Y492810D01*
X-167436Y487273D01*
X-156616Y483209D01*
X-145338Y480771D01*
G37*
G36*
X-133502Y1343914D02*
G01*
X-54203Y1343914D01*
X-42316Y1344777D01*
X-31038Y1347216D01*
X-20269Y1351280D01*
X-10109Y1356766D01*
X-863Y1363726D01*
X7264Y1371854D01*
X14173Y1381099D01*
X19710Y1391208D01*
X23774Y1402029D01*
X26212Y1413306D01*
X27025Y1424838D01*
X26212Y1436319D01*
X23774Y1447596D01*
X19710Y1458417D01*
X14173Y1468577D01*
X7264Y1477822D01*
X-863Y1485950D01*
X-10109Y1492859D01*
X-20269Y1498396D01*
X-31038Y1502460D01*
X-42316Y1504899D01*
X-54203Y1505762D01*
X-133502Y1505762D01*
X-145338Y1504899D01*
X-156616Y1502460D01*
X-167436Y1498396D01*
X-177596Y1492859D01*
X-186791Y1485950D01*
X-194970Y1477822D01*
X-201879Y1468577D01*
X-207416Y1458417D01*
X-211429Y1447596D01*
X-213918Y1436319D01*
X-214731Y1424838D01*
X-213918Y1413306D01*
X-211429Y1402029D01*
X-207416Y1391208D01*
X-201879Y1381099D01*
X-194970Y1371854D01*
X-186791Y1363726D01*
X-177596Y1356766D01*
X-167436Y1351280D01*
X-156616Y1347216D01*
X-145338Y1344777D01*
G37*
G36*
X246532Y1343914D02*
G01*
X325780Y1343914D01*
X337667Y1344777D01*
X348945Y1347216D01*
X359765Y1351280D01*
X369874Y1356766D01*
X379120Y1363726D01*
X387299Y1371854D01*
X394208Y1381099D01*
X399745Y1391208D01*
X403758Y1402029D01*
X406196Y1413306D01*
X407060Y1424838D01*
X406196Y1436319D01*
X403758Y1447596D01*
X399745Y1458417D01*
X394208Y1468577D01*
X387299Y1477822D01*
X379120Y1485950D01*
X369874Y1492859D01*
X359765Y1498396D01*
X348945Y1502460D01*
X337667Y1504899D01*
X325780Y1505762D01*
X246532Y1505762D01*
X234645Y1504899D01*
X223367Y1502460D01*
X212547Y1498396D01*
X202438Y1492859D01*
X193192Y1485950D01*
X185013Y1477822D01*
X178104Y1468577D01*
X172567Y1458417D01*
X168554Y1447596D01*
X166116Y1436319D01*
X165252Y1424838D01*
X166116Y1413306D01*
X168554Y1402029D01*
X172567Y1391208D01*
X178104Y1381099D01*
X185013Y1371854D01*
X193192Y1363726D01*
X202438Y1356766D01*
X212547Y1351280D01*
X223367Y1347216D01*
X234645Y1344777D01*
G37*
G36*
X964996Y1974088D02*
G01*
X978153Y1974951D01*
X991108Y1977542D01*
X1003553Y1981809D01*
X1015390Y1987600D01*
X1026363Y1994966D01*
X1036319Y2003653D01*
X1045006Y2013559D01*
X1052322Y2024532D01*
X1058164Y2036368D01*
X1062431Y2048865D01*
X1064971Y2061819D01*
X1065885Y2075332D01*
X1065885Y2204669D01*
X1064971Y2218182D01*
X1062431Y2231085D01*
X1058164Y2243582D01*
X1052322Y2255418D01*
X1045006Y2266391D01*
X1036319Y2276348D01*
X1026363Y2285034D01*
X1015390Y2292350D01*
X1003553Y2298192D01*
X991108Y2302459D01*
X978153Y2304999D01*
X964996Y2305862D01*
X951788Y2304999D01*
X938885Y2302459D01*
X926388Y2298192D01*
X914552Y2292350D01*
X903579Y2285034D01*
X893622Y2276348D01*
X884936Y2266391D01*
X877620Y2255418D01*
X871778Y2243582D01*
X867511Y2231085D01*
X864971Y2218182D01*
X864057Y2204669D01*
X864057Y2075332D01*
X864971Y2061819D01*
X867511Y2048865D01*
X871778Y2036368D01*
X877620Y2024532D01*
X884936Y2013559D01*
X893622Y2003653D01*
X903579Y1994966D01*
X914552Y1987600D01*
X926388Y1981809D01*
X938885Y1977542D01*
X951788Y1974951D01*
G37*
G36*
X-205028Y1974088D02*
G01*
X-191871Y1974951D01*
X-178917Y1977542D01*
X-166420Y1981809D01*
X-154584Y1987600D01*
X-143611Y1994966D01*
X-133705Y2003653D01*
X-124968Y2013559D01*
X-117652Y2024532D01*
X-111810Y2036368D01*
X-107594Y2048865D01*
X-105003Y2061819D01*
X-104139Y2075332D01*
X-104139Y2204669D01*
X-105003Y2218182D01*
X-107594Y2231085D01*
X-111810Y2243582D01*
X-117652Y2255418D01*
X-124968Y2266391D01*
X-133705Y2276348D01*
X-143611Y2285034D01*
X-154584Y2292350D01*
X-166420Y2298192D01*
X-178917Y2302459D01*
X-191871Y2304999D01*
X-205028Y2305862D01*
X-218186Y2304999D01*
X-231140Y2302459D01*
X-243636Y2298192D01*
X-255473Y2292350D01*
X-266446Y2285034D01*
X-276352Y2276348D01*
X-285089Y2266391D01*
X-292404Y2255418D01*
X-298246Y2243582D01*
X-302463Y2231085D01*
X-305054Y2218182D01*
X-305917Y2204669D01*
X-305917Y2075332D01*
X-305054Y2061819D01*
X-302463Y2048865D01*
X-298246Y2036368D01*
X-292404Y2024532D01*
X-285089Y2013559D01*
X-276352Y2003653D01*
X-266446Y1994966D01*
X-255473Y1987600D01*
X-243636Y1981809D01*
X-231140Y1977542D01*
X-218186Y1974951D01*
G37*
G36*
X679958Y2014118D02*
G01*
X695147Y2015032D01*
X710082Y2017775D01*
X724611Y2022297D01*
X738479Y2028545D01*
X751484Y2036368D01*
X763473Y2045766D01*
X774192Y2056536D01*
X783590Y2068474D01*
X791464Y2081479D01*
X797661Y2095347D01*
X802182Y2109876D01*
X804926Y2124811D01*
X805840Y2140000D01*
X804926Y2155190D01*
X802182Y2170125D01*
X797661Y2184654D01*
X791464Y2198522D01*
X783590Y2211527D01*
X774192Y2223465D01*
X763473Y2234234D01*
X751484Y2243582D01*
X738479Y2251456D01*
X724611Y2257704D01*
X710082Y2262225D01*
X695147Y2264968D01*
X679958Y2265883D01*
X664819Y2264968D01*
X649833Y2262225D01*
X635304Y2257704D01*
X621487Y2251456D01*
X608482Y2243582D01*
X596493Y2234234D01*
X585724Y2223465D01*
X576376Y2211527D01*
X568502Y2198522D01*
X562254Y2184654D01*
X557733Y2170125D01*
X554990Y2155190D01*
X554075Y2140000D01*
X554990Y2124811D01*
X557733Y2109876D01*
X562254Y2095347D01*
X568502Y2081479D01*
X576376Y2068474D01*
X585724Y2056536D01*
X596493Y2045766D01*
X608482Y2036368D01*
X621487Y2028545D01*
X635304Y2022297D01*
X649833Y2017775D01*
X664819Y2015032D01*
G37*
G36*
X79959Y2014118D02*
G01*
X95148Y2015032D01*
X110083Y2017775D01*
X124612Y2022297D01*
X138480Y2028545D01*
X151485Y2036368D01*
X163474Y2045766D01*
X174193Y2056536D01*
X183591Y2068474D01*
X191465Y2081479D01*
X197662Y2095347D01*
X202184Y2109876D01*
X204927Y2124811D01*
X205841Y2140000D01*
X204927Y2155190D01*
X202184Y2170125D01*
X197662Y2184654D01*
X191465Y2198522D01*
X183591Y2211527D01*
X174193Y2223465D01*
X163474Y2234234D01*
X151485Y2243582D01*
X138480Y2251456D01*
X124612Y2257704D01*
X110083Y2262225D01*
X95148Y2264968D01*
X79959Y2265883D01*
X64820Y2264968D01*
X49834Y2262225D01*
X35306Y2257704D01*
X21488Y2251456D01*
X8483Y2243582D01*
X-3505Y2234234D01*
X-14274Y2223465D01*
X-23622Y2211527D01*
X-31495Y2198522D01*
X-37744Y2184654D01*
X-42265Y2170125D01*
X-45008Y2155190D01*
X-45923Y2140000D01*
X-45008Y2124811D01*
X-42265Y2109876D01*
X-37744Y2095347D01*
X-31495Y2081479D01*
X-23622Y2068474D01*
X-14274Y2056536D01*
X-3505Y2045766D01*
X8483Y2036368D01*
X21488Y2028545D01*
X35306Y2022297D01*
X49834Y2017775D01*
X64820Y2015032D01*
G37*
G36*
X8209940Y2057907D02*
G01*
X8223554Y2058822D01*
X8236915Y2061514D01*
X8249818Y2066036D01*
X8261959Y2072182D01*
X8273237Y2079904D01*
X8283346Y2089048D01*
X8292134Y2099462D01*
X8299500Y2110943D01*
X8305241Y2123287D01*
X8309254Y2136343D01*
X8311540Y2149754D01*
X8311997Y2163419D01*
X8310625Y2176983D01*
X8307476Y2190242D01*
X8302548Y2202942D01*
X8295995Y2214930D01*
X8287918Y2225903D01*
X8278418Y2235708D01*
X8267750Y2244140D01*
X8256016Y2251100D01*
X8243468Y2256434D01*
X8230311Y2260041D01*
X8216798Y2261870D01*
X8203133Y2261870D01*
X8189620Y2260041D01*
X8176463Y2256434D01*
X8163915Y2251100D01*
X8152180Y2244140D01*
X8141462Y2235708D01*
X8132013Y2225903D01*
X8123936Y2214930D01*
X8117382Y2202942D01*
X8112455Y2190242D01*
X8109305Y2176983D01*
X8107934Y2163419D01*
X8108391Y2149754D01*
X8110677Y2136343D01*
X8114690Y2123287D01*
X8120430Y2110943D01*
X8127796Y2099462D01*
X8136585Y2089048D01*
X8146694Y2079904D01*
X8157921Y2072182D01*
X8170113Y2066036D01*
X8182965Y2061514D01*
X8196376Y2058822D01*
G37*
G36*
X7290663Y2855772D02*
G01*
X7307478Y2857144D01*
X7323988Y2860395D01*
X7340092Y2865424D01*
X7355484Y2872181D01*
X7370114Y2880614D01*
X7383678Y2890570D01*
X7396073Y2902000D01*
X7407148Y2914700D01*
X7416698Y2928569D01*
X7424724Y2943352D01*
X7431074Y2958947D01*
X7435646Y2975152D01*
X7438440Y2991815D01*
X7439355Y3008630D01*
X7438440Y3025444D01*
X7435646Y3042056D01*
X7431074Y3058261D01*
X7424724Y3073857D01*
X7416698Y3088690D01*
X7407148Y3102508D01*
X7396073Y3115208D01*
X7383678Y3126638D01*
X7370114Y3136595D01*
X7355484Y3145028D01*
X7340092Y3151784D01*
X7323988Y3156813D01*
X7307478Y3160064D01*
X7290663Y3161436D01*
X7273848Y3160979D01*
X7257135Y3158693D01*
X7240828Y3154527D01*
X7225030Y3148634D01*
X7210044Y3141014D01*
X7195921Y3131820D01*
X7182916Y3121101D01*
X7171181Y3109010D01*
X7160818Y3095752D01*
X7152030Y3081375D01*
X7144816Y3066135D01*
X7139330Y3050235D01*
X7135672Y3033776D01*
X7133793Y3017012D01*
X7133793Y3000197D01*
X7135672Y2983433D01*
X7139330Y2967024D01*
X7144816Y2951073D01*
X7152030Y2935833D01*
X7160818Y2921508D01*
X7171181Y2908198D01*
X7182916Y2896108D01*
X7195921Y2885440D01*
X7210044Y2876194D01*
X7225030Y2868574D01*
X7240828Y2862681D01*
X7257135Y2858566D01*
X7273848Y2856230D01*
G37*
G36*
X2730703Y2855772D02*
G01*
X2747467Y2857144D01*
X2764028Y2860395D01*
X2780080Y2865424D01*
X2795524Y2872181D01*
X2810103Y2880614D01*
X2823667Y2890570D01*
X2836062Y2902000D01*
X2847136Y2914700D01*
X2856738Y2928569D01*
X2864764Y2943352D01*
X2871063Y2958947D01*
X2875686Y2975152D01*
X2878429Y2991815D01*
X2879394Y3008630D01*
X2878429Y3025444D01*
X2875686Y3042056D01*
X2871063Y3058261D01*
X2864764Y3073857D01*
X2856738Y3088690D01*
X2847136Y3102508D01*
X2836062Y3115208D01*
X2823667Y3126638D01*
X2810103Y3136595D01*
X2795524Y3145028D01*
X2780080Y3151784D01*
X2764028Y3156813D01*
X2747467Y3160064D01*
X2730703Y3161436D01*
X2713837Y3160979D01*
X2697175Y3158693D01*
X2680817Y3154527D01*
X2665069Y3148634D01*
X2650032Y3141014D01*
X2635910Y3131820D01*
X2622905Y3121101D01*
X2611170Y3109010D01*
X2600858Y3095752D01*
X2592019Y3081375D01*
X2584805Y3066135D01*
X2579370Y3050235D01*
X2575661Y3033776D01*
X2573832Y3017012D01*
X2573832Y3000197D01*
X2575661Y2983433D01*
X2579370Y2967024D01*
X2584805Y2951073D01*
X2592019Y2935833D01*
X2600858Y2921508D01*
X2611170Y2908198D01*
X2622905Y2896108D01*
X2635910Y2885440D01*
X2650032Y2876194D01*
X2665069Y2868574D01*
X2680817Y2862681D01*
X2697175Y2858566D01*
X2713837Y2856230D01*
G37*
G36*
X5270703Y2855772D02*
G01*
X5287467Y2857144D01*
X5304028Y2860395D01*
X5320080Y2865424D01*
X5335524Y2872181D01*
X5350103Y2880614D01*
X5363667Y2890570D01*
X5376062Y2902000D01*
X5387136Y2914700D01*
X5396738Y2928569D01*
X5404764Y2943352D01*
X5411063Y2958947D01*
X5415686Y2975152D01*
X5418429Y2991815D01*
X5419344Y3008630D01*
X5418429Y3025444D01*
X5415686Y3042056D01*
X5411063Y3058261D01*
X5404764Y3073857D01*
X5396738Y3088690D01*
X5387136Y3102508D01*
X5376062Y3115208D01*
X5363667Y3126638D01*
X5350103Y3136595D01*
X5335524Y3145028D01*
X5320080Y3151784D01*
X5304028Y3156813D01*
X5287467Y3160064D01*
X5270703Y3161436D01*
X5253837Y3160979D01*
X5237175Y3158693D01*
X5220817Y3154527D01*
X5205069Y3148634D01*
X5190032Y3141014D01*
X5175910Y3131820D01*
X5162905Y3121101D01*
X5151170Y3109010D01*
X5140807Y3095752D01*
X5132019Y3081375D01*
X5124805Y3066135D01*
X5119370Y3050235D01*
X5115661Y3033776D01*
X5113832Y3017012D01*
X5113832Y3000197D01*
X5115661Y2983433D01*
X5119370Y2967024D01*
X5124805Y2951073D01*
X5132019Y2935833D01*
X5140807Y2921508D01*
X5151170Y2908198D01*
X5162905Y2896108D01*
X5175910Y2885440D01*
X5190032Y2876194D01*
X5205069Y2868574D01*
X5220817Y2862681D01*
X5237175Y2858566D01*
X5253837Y2856230D01*
G37*
G36*
X690676Y2855772D02*
G01*
X707491Y2857144D01*
X724001Y2860395D01*
X740105Y2865424D01*
X755497Y2872181D01*
X770128Y2880614D01*
X783691Y2890570D01*
X796086Y2902000D01*
X807161Y2914700D01*
X816711Y2928569D01*
X824737Y2943352D01*
X831087Y2958947D01*
X835660Y2975152D01*
X838453Y2991815D01*
X839368Y3008630D01*
X838453Y3025444D01*
X835660Y3042056D01*
X831087Y3058261D01*
X824737Y3073857D01*
X816711Y3088690D01*
X807161Y3102508D01*
X796086Y3115208D01*
X783691Y3126638D01*
X770128Y3136595D01*
X755497Y3145028D01*
X740105Y3151784D01*
X724001Y3156813D01*
X707491Y3160064D01*
X690676Y3161436D01*
X673862Y3160979D01*
X657148Y3158693D01*
X640842Y3154527D01*
X625043Y3148634D01*
X610057Y3141014D01*
X595934Y3131820D01*
X582930Y3121101D01*
X571195Y3109010D01*
X560832Y3095752D01*
X552043Y3081375D01*
X544830Y3066135D01*
X539343Y3050235D01*
X535686Y3033776D01*
X533806Y3017012D01*
X533806Y3000197D01*
X535686Y2983433D01*
X539343Y2967024D01*
X544830Y2951073D01*
X552043Y2935833D01*
X560832Y2921508D01*
X571195Y2908198D01*
X582930Y2896108D01*
X595934Y2885440D01*
X610057Y2876194D01*
X625043Y2868574D01*
X640842Y2862681D01*
X657148Y2858566D01*
X673862Y2856230D01*
G37*
G36*
X1089456Y2954832D02*
G01*
X1106271Y2956204D01*
X1122781Y2959455D01*
X1138885Y2964484D01*
X1154277Y2971241D01*
X1168908Y2979674D01*
X1182471Y2989630D01*
X1194866Y3001060D01*
X1205941Y3013760D01*
X1215491Y3027629D01*
X1223518Y3042412D01*
X1229868Y3058007D01*
X1234440Y3074212D01*
X1237234Y3090875D01*
X1238148Y3107690D01*
X1237234Y3124504D01*
X1234440Y3141116D01*
X1229868Y3157321D01*
X1223518Y3172917D01*
X1215491Y3187750D01*
X1205941Y3201568D01*
X1194866Y3214268D01*
X1182471Y3225698D01*
X1168908Y3235655D01*
X1154277Y3244088D01*
X1138885Y3250844D01*
X1122781Y3255873D01*
X1106271Y3259124D01*
X1089456Y3260496D01*
X1072642Y3260039D01*
X1055928Y3257753D01*
X1039621Y3253587D01*
X1023823Y3247694D01*
X1008837Y3240074D01*
X994714Y3230880D01*
X981710Y3220161D01*
X969975Y3208070D01*
X959612Y3194812D01*
X950823Y3180435D01*
X943610Y3165195D01*
X938123Y3149295D01*
X934466Y3132836D01*
X932586Y3116072D01*
X932586Y3099257D01*
X934466Y3082493D01*
X938123Y3066084D01*
X943610Y3050133D01*
X950823Y3034893D01*
X959612Y3020568D01*
X969975Y3007258D01*
X981710Y2995168D01*
X994714Y2984500D01*
X1008837Y2975254D01*
X1023823Y2967634D01*
X1039621Y2961741D01*
X1055928Y2957626D01*
X1072642Y2955290D01*
G37*
G36*
X5669483Y2954832D02*
G01*
X5686247Y2956204D01*
X5702808Y2959455D01*
X5718860Y2964484D01*
X5734304Y2971241D01*
X5748883Y2979674D01*
X5762447Y2989630D01*
X5774842Y3001060D01*
X5785916Y3013760D01*
X5795518Y3027629D01*
X5803544Y3042412D01*
X5809843Y3058007D01*
X5814466Y3074212D01*
X5817209Y3090875D01*
X5818124Y3107690D01*
X5817209Y3124504D01*
X5814466Y3141116D01*
X5809843Y3157321D01*
X5803544Y3172917D01*
X5795518Y3187750D01*
X5785916Y3201568D01*
X5774842Y3214268D01*
X5762447Y3225698D01*
X5748883Y3235655D01*
X5734304Y3244088D01*
X5718860Y3250844D01*
X5702808Y3255873D01*
X5686247Y3259124D01*
X5669483Y3260496D01*
X5652617Y3260039D01*
X5635955Y3257753D01*
X5619597Y3253587D01*
X5603849Y3247694D01*
X5588812Y3240074D01*
X5574690Y3230880D01*
X5561685Y3220161D01*
X5549950Y3208070D01*
X5539587Y3194812D01*
X5530799Y3180435D01*
X5523585Y3165195D01*
X5518150Y3149295D01*
X5514441Y3132836D01*
X5512612Y3116072D01*
X5512612Y3099257D01*
X5514441Y3082493D01*
X5518150Y3066084D01*
X5523585Y3050133D01*
X5530799Y3034893D01*
X5539587Y3020568D01*
X5549950Y3007258D01*
X5561685Y2995168D01*
X5574690Y2984500D01*
X5588812Y2975254D01*
X5603849Y2967634D01*
X5619597Y2961741D01*
X5635955Y2957626D01*
X5652617Y2955290D01*
G37*
G36*
X3129483Y2954832D02*
G01*
X3146247Y2956204D01*
X3162808Y2959455D01*
X3178860Y2964484D01*
X3194304Y2971241D01*
X3208883Y2979674D01*
X3222447Y2989630D01*
X3234842Y3001060D01*
X3245916Y3013760D01*
X3255517Y3027629D01*
X3263544Y3042412D01*
X3269843Y3058007D01*
X3274466Y3074212D01*
X3277209Y3090875D01*
X3278174Y3107690D01*
X3277209Y3124504D01*
X3274466Y3141116D01*
X3269843Y3157321D01*
X3263544Y3172917D01*
X3255517Y3187750D01*
X3245916Y3201568D01*
X3234842Y3214268D01*
X3222447Y3225698D01*
X3208883Y3235655D01*
X3194304Y3244088D01*
X3178860Y3250844D01*
X3162808Y3255873D01*
X3146247Y3259124D01*
X3129483Y3260496D01*
X3112617Y3260039D01*
X3095955Y3257753D01*
X3079597Y3253587D01*
X3063849Y3247694D01*
X3048812Y3240074D01*
X3034690Y3230880D01*
X3021685Y3220161D01*
X3009950Y3208070D01*
X2999638Y3194812D01*
X2990799Y3180435D01*
X2983585Y3165195D01*
X2978150Y3149295D01*
X2974441Y3132836D01*
X2972612Y3116072D01*
X2972612Y3099257D01*
X2974441Y3082493D01*
X2978150Y3066084D01*
X2983585Y3050133D01*
X2990799Y3034893D01*
X2999638Y3020568D01*
X3009950Y3007258D01*
X3021685Y2995168D01*
X3034690Y2984500D01*
X3048812Y2975254D01*
X3063849Y2967634D01*
X3079597Y2961741D01*
X3095955Y2957626D01*
X3112617Y2955290D01*
G37*
G36*
X2329383Y2954832D02*
G01*
X2346147Y2956204D01*
X2362708Y2959455D01*
X2378760Y2964484D01*
X2394204Y2971241D01*
X2408783Y2979674D01*
X2422347Y2989630D01*
X2434742Y3001060D01*
X2445816Y3013760D01*
X2455418Y3027629D01*
X2463444Y3042412D01*
X2469743Y3058007D01*
X2474366Y3074212D01*
X2477109Y3090875D01*
X2478074Y3107690D01*
X2477109Y3124504D01*
X2474366Y3141116D01*
X2469743Y3157321D01*
X2463444Y3172917D01*
X2455418Y3187750D01*
X2445816Y3201568D01*
X2434742Y3214268D01*
X2422347Y3225698D01*
X2408783Y3235655D01*
X2394204Y3244088D01*
X2378760Y3250844D01*
X2362708Y3255873D01*
X2346147Y3259124D01*
X2329383Y3260496D01*
X2312517Y3260039D01*
X2295855Y3257753D01*
X2279497Y3253587D01*
X2263749Y3247694D01*
X2248712Y3240074D01*
X2234590Y3230880D01*
X2221585Y3220161D01*
X2209850Y3208070D01*
X2199538Y3194812D01*
X2190699Y3180435D01*
X2183485Y3165195D01*
X2178050Y3149295D01*
X2174341Y3132836D01*
X2172512Y3116072D01*
X2172512Y3099257D01*
X2174341Y3082493D01*
X2178050Y3066084D01*
X2183485Y3050133D01*
X2190699Y3034893D01*
X2199538Y3020568D01*
X2209850Y3007258D01*
X2221585Y2995168D01*
X2234590Y2984500D01*
X2248712Y2975254D01*
X2263749Y2967634D01*
X2279497Y2961741D01*
X2295855Y2957626D01*
X2312517Y2955290D01*
G37*
G36*
X7689443Y2954832D02*
G01*
X7706258Y2956204D01*
X7722768Y2959455D01*
X7738872Y2964484D01*
X7754264Y2971241D01*
X7768894Y2979674D01*
X7782458Y2989630D01*
X7794853Y3001060D01*
X7805928Y3013760D01*
X7815478Y3027629D01*
X7823504Y3042412D01*
X7829854Y3058007D01*
X7834426Y3074212D01*
X7837220Y3090875D01*
X7838135Y3107690D01*
X7837220Y3124504D01*
X7834426Y3141116D01*
X7829854Y3157321D01*
X7823504Y3172917D01*
X7815478Y3187750D01*
X7805928Y3201568D01*
X7794853Y3214268D01*
X7782458Y3225698D01*
X7768894Y3235655D01*
X7754264Y3244088D01*
X7738872Y3250844D01*
X7722768Y3255873D01*
X7706258Y3259124D01*
X7689443Y3260496D01*
X7672628Y3260039D01*
X7655915Y3257753D01*
X7639608Y3253587D01*
X7623809Y3247694D01*
X7608824Y3240074D01*
X7594701Y3230880D01*
X7581696Y3220161D01*
X7569962Y3208070D01*
X7559598Y3194812D01*
X7550810Y3180435D01*
X7543596Y3165195D01*
X7538110Y3149295D01*
X7534452Y3132836D01*
X7532573Y3116072D01*
X7532573Y3099257D01*
X7534452Y3082493D01*
X7538110Y3066084D01*
X7543596Y3050133D01*
X7550810Y3034893D01*
X7559598Y3020568D01*
X7569962Y3007258D01*
X7581696Y2995168D01*
X7594701Y2984500D01*
X7608824Y2975254D01*
X7623809Y2967634D01*
X7639608Y2961741D01*
X7655915Y2957626D01*
X7672628Y2955290D01*
G37*
G36*
X289356Y2954832D02*
G01*
X306171Y2956204D01*
X322681Y2959455D01*
X338785Y2964484D01*
X354177Y2971241D01*
X368808Y2979674D01*
X382371Y2989630D01*
X394766Y3001060D01*
X405841Y3013760D01*
X415391Y3027629D01*
X423418Y3042412D01*
X429768Y3058007D01*
X434340Y3074212D01*
X437134Y3090875D01*
X438048Y3107690D01*
X437134Y3124504D01*
X434340Y3141116D01*
X429768Y3157321D01*
X423418Y3172917D01*
X415391Y3187750D01*
X405841Y3201568D01*
X394766Y3214268D01*
X382371Y3225698D01*
X368808Y3235655D01*
X354177Y3244088D01*
X338785Y3250844D01*
X322681Y3255873D01*
X306171Y3259124D01*
X289356Y3260496D01*
X272542Y3260039D01*
X255828Y3257753D01*
X239521Y3253587D01*
X223723Y3247694D01*
X208737Y3240074D01*
X194614Y3230880D01*
X181610Y3220161D01*
X169875Y3208070D01*
X159512Y3194812D01*
X150723Y3180435D01*
X143510Y3165195D01*
X138023Y3149295D01*
X134366Y3132836D01*
X132486Y3116072D01*
X132486Y3099257D01*
X134366Y3082493D01*
X138023Y3066084D01*
X143510Y3050133D01*
X150723Y3034893D01*
X159512Y3020568D01*
X169875Y3007258D01*
X181610Y2995168D01*
X194614Y2984500D01*
X208737Y2975254D01*
X223723Y2967634D01*
X239521Y2961741D01*
X255828Y2957626D01*
X272542Y2955290D01*
G37*
G36*
X6889343Y2954832D02*
G01*
X6906158Y2956204D01*
X6922668Y2959455D01*
X6938772Y2964484D01*
X6954164Y2971241D01*
X6968794Y2979674D01*
X6982358Y2989630D01*
X6994753Y3001060D01*
X7005828Y3013760D01*
X7015378Y3027629D01*
X7023404Y3042412D01*
X7029754Y3058007D01*
X7034326Y3074212D01*
X7037120Y3090875D01*
X7038035Y3107690D01*
X7037120Y3124504D01*
X7034326Y3141116D01*
X7029754Y3157321D01*
X7023404Y3172917D01*
X7021728Y3176066D01*
X7020509Y3180181D01*
X7021118Y3184448D01*
X7023455Y3188106D01*
X7108545Y3273044D01*
X7113930Y3279648D01*
X7117740Y3286709D01*
X7120077Y3294379D01*
X7120890Y3302812D01*
X7120890Y4722622D01*
X7121702Y4726584D01*
X7123988Y4729937D01*
X7127443Y4732070D01*
X7131405Y4732782D01*
X7135368Y4731816D01*
X7138619Y4729378D01*
X7140651Y4725924D01*
X7144816Y4713833D01*
X7152030Y4698593D01*
X7160818Y4684268D01*
X7171181Y4670958D01*
X7182916Y4658868D01*
X7195921Y4648200D01*
X7210044Y4638954D01*
X7225030Y4631334D01*
X7240828Y4625441D01*
X7257135Y4621326D01*
X7273848Y4618990D01*
X7290663Y4618532D01*
X7307478Y4619904D01*
X7323988Y4623155D01*
X7340092Y4628184D01*
X7355484Y4634941D01*
X7370114Y4643374D01*
X7383678Y4653330D01*
X7396073Y4664760D01*
X7407148Y4677460D01*
X7416698Y4691329D01*
X7424724Y4706112D01*
X7431074Y4721707D01*
X7435646Y4737912D01*
X7438440Y4754575D01*
X7439355Y4771390D01*
X7438440Y4788204D01*
X7435646Y4804816D01*
X7431074Y4821021D01*
X7424724Y4836617D01*
X7416698Y4851450D01*
X7409789Y4861458D01*
X7408164Y4865370D01*
X7408265Y4869637D01*
X7410145Y4873498D01*
X7413396Y4876241D01*
X7417511Y4877358D01*
X7421727Y4876749D01*
X7425334Y4874412D01*
X7546949Y4752695D01*
X7549235Y4749292D01*
X7549896Y4745228D01*
X7548930Y4741214D01*
X7543596Y4729835D01*
X7538110Y4713935D01*
X7534452Y4697476D01*
X7532573Y4680712D01*
X7532573Y4663897D01*
X7534452Y4647133D01*
X7538110Y4630724D01*
X7543596Y4614773D01*
X7550810Y4599533D01*
X7559598Y4585208D01*
X7569962Y4571898D01*
X7581696Y4559808D01*
X7594701Y4549140D01*
X7608824Y4539894D01*
X7623809Y4532274D01*
X7639608Y4526381D01*
X7655915Y4522266D01*
X7672628Y4519930D01*
X7689443Y4519472D01*
X7706258Y4520844D01*
X7722768Y4524095D01*
X7738872Y4529124D01*
X7754264Y4535881D01*
X7768894Y4544314D01*
X7782458Y4554270D01*
X7794853Y4565700D01*
X7805928Y4578400D01*
X7815478Y4592269D01*
X7823504Y4607052D01*
X7829854Y4622647D01*
X7834426Y4638852D01*
X7837220Y4655515D01*
X7838135Y4672330D01*
X7837220Y4689144D01*
X7834426Y4705756D01*
X7829854Y4721961D01*
X7823504Y4737557D01*
X7815478Y4752390D01*
X7805928Y4766208D01*
X7794853Y4778908D01*
X7782458Y4790338D01*
X7768894Y4800295D01*
X7754264Y4808728D01*
X7738872Y4815484D01*
X7722768Y4820513D01*
X7706258Y4823764D01*
X7689443Y4825136D01*
X7672628Y4824679D01*
X7655915Y4822393D01*
X7639608Y4818227D01*
X7623809Y4812334D01*
X7616596Y4808677D01*
X7612532Y4807559D01*
X7608366Y4808270D01*
X7604810Y4810556D01*
X7283907Y5131663D01*
X7281672Y5134965D01*
X7280909Y5138826D01*
X7280909Y6939381D01*
X7280097Y6947865D01*
X7277760Y6955536D01*
X7274001Y6962597D01*
X7268565Y6969150D01*
X7061504Y7176211D01*
X7054951Y7181646D01*
X7047890Y7185406D01*
X7043877Y7186625D01*
X7040168Y7188708D01*
X7037578Y7192162D01*
X7036714Y7196328D01*
X7036714Y7207707D01*
X7035952Y7214006D01*
X7034072Y7219492D01*
X7030974Y7224369D01*
X7026909Y7228484D01*
X7021982Y7231532D01*
X7016546Y7233462D01*
X7010196Y7234174D01*
X6793179Y7234174D01*
X6786829Y7233462D01*
X6781393Y7231532D01*
X6776466Y7228484D01*
X6772402Y7224369D01*
X6769303Y7219492D01*
X6767423Y7214006D01*
X6766712Y7207707D01*
X6766712Y7087666D01*
X6767423Y7081367D01*
X6769303Y7075881D01*
X6772402Y7071004D01*
X6776466Y7066889D01*
X6781393Y7063841D01*
X6786829Y7061911D01*
X6793179Y7061200D01*
X7010196Y7061200D01*
X7016546Y7061911D01*
X7021982Y7063841D01*
X7026909Y7066889D01*
X7030974Y7071004D01*
X7034428Y7075220D01*
X7037628Y7076846D01*
X7041235Y7077252D01*
X7044740Y7076389D01*
X7047738Y7074306D01*
X7196124Y6925919D01*
X7198359Y6922617D01*
X7199122Y6918756D01*
X7199122Y5118201D01*
X7199934Y5109718D01*
X7202271Y5102047D01*
X7206030Y5094986D01*
X7211415Y5088432D01*
X7389774Y4909972D01*
X7392111Y4906365D01*
X7392720Y4902098D01*
X7391552Y4897932D01*
X7388707Y4894681D01*
X7384846Y4892852D01*
X7380528Y4892852D01*
X7376566Y4894580D01*
X7370114Y4899355D01*
X7355484Y4907788D01*
X7340092Y4914544D01*
X7323988Y4919573D01*
X7307478Y4922824D01*
X7290663Y4924196D01*
X7273848Y4923739D01*
X7257135Y4921453D01*
X7240828Y4917287D01*
X7225030Y4911394D01*
X7210044Y4903774D01*
X7195921Y4894580D01*
X7182916Y4883861D01*
X7171181Y4871770D01*
X7160818Y4858512D01*
X7152030Y4844135D01*
X7144816Y4828895D01*
X7139330Y4812995D01*
X7135672Y4796536D01*
X7134301Y4784090D01*
X7132929Y4780026D01*
X7130034Y4776876D01*
X7126122Y4775200D01*
X7121855Y4775301D01*
X7117994Y4777130D01*
X7115200Y4780432D01*
X7113981Y4782769D01*
X7108545Y4789322D01*
X6723837Y5174081D01*
X6721652Y5177383D01*
X6720840Y5181244D01*
X6720840Y5758738D01*
X6721652Y5762599D01*
X6723837Y5765901D01*
X6758482Y5800547D01*
X6761784Y5802731D01*
X6765645Y5803493D01*
X6769557Y5802731D01*
X6772859Y5800547D01*
X6776466Y5796889D01*
X6781393Y5793841D01*
X6786829Y5791911D01*
X6793179Y5791200D01*
X7010196Y5791200D01*
X7016546Y5791911D01*
X7021982Y5793841D01*
X7026909Y5796889D01*
X7030974Y5801004D01*
X7034072Y5805881D01*
X7035952Y5811367D01*
X7036714Y5817666D01*
X7036714Y5937707D01*
X7035952Y5944006D01*
X7034072Y5949492D01*
X7030974Y5954369D01*
X7026909Y5958484D01*
X7021982Y5961532D01*
X7016546Y5963462D01*
X7010196Y5964174D01*
X6793179Y5964174D01*
X6786829Y5963462D01*
X6781393Y5961532D01*
X6776466Y5958484D01*
X6772402Y5954369D01*
X6769303Y5949492D01*
X6767423Y5944006D01*
X6766712Y5937707D01*
X6766712Y5923940D01*
X6766052Y5920384D01*
X6764172Y5917234D01*
X6761327Y5914999D01*
X6755028Y5911646D01*
X6748475Y5906211D01*
X6651396Y5809132D01*
X6645960Y5802579D01*
X6642201Y5795518D01*
X6639864Y5787847D01*
X6639052Y5779363D01*
X6639052Y5160619D01*
X6639864Y5152136D01*
X6642201Y5144465D01*
X6645960Y5137404D01*
X6651396Y5130850D01*
X6950354Y4831842D01*
X6952589Y4828489D01*
X6953351Y4824577D01*
X6952538Y4820666D01*
X6950303Y4817364D01*
X6946950Y4815230D01*
X6942988Y4814468D01*
X6938772Y4815484D01*
X6922668Y4820513D01*
X6906158Y4823764D01*
X6889343Y4825136D01*
X6872528Y4824679D01*
X6855815Y4822393D01*
X6839508Y4818227D01*
X6823709Y4812334D01*
X6808724Y4804714D01*
X6794601Y4795520D01*
X6781596Y4784801D01*
X6769862Y4772710D01*
X6759498Y4759452D01*
X6750710Y4745075D01*
X6743496Y4729835D01*
X6738010Y4713935D01*
X6734352Y4697476D01*
X6732473Y4680712D01*
X6732473Y4663897D01*
X6734352Y4647133D01*
X6738010Y4630724D01*
X6743496Y4614773D01*
X6750710Y4599533D01*
X6759498Y4585208D01*
X6769862Y4571898D01*
X6781596Y4559808D01*
X6794601Y4549140D01*
X6808724Y4539894D01*
X6823709Y4532274D01*
X6839508Y4526381D01*
X6855815Y4522266D01*
X6872528Y4519930D01*
X6889343Y4519472D01*
X6906158Y4520844D01*
X6922668Y4524095D01*
X6938772Y4529124D01*
X6954164Y4535881D01*
X6968794Y4544314D01*
X6982358Y4554270D01*
X6994753Y4565700D01*
X7005828Y4578400D01*
X7015378Y4592269D01*
X7020001Y4600752D01*
X7022896Y4604054D01*
X7026960Y4605883D01*
X7031431Y4605731D01*
X7035393Y4603750D01*
X7038136Y4600244D01*
X7039102Y4595876D01*
X7039102Y3323539D01*
X7038289Y3319627D01*
X7036104Y3316325D01*
X6965746Y3246069D01*
X6962394Y3243834D01*
X6958431Y3243122D01*
X6954469Y3243935D01*
X6938772Y3250844D01*
X6922668Y3255873D01*
X6906158Y3259124D01*
X6889343Y3260496D01*
X6872528Y3260039D01*
X6855815Y3257753D01*
X6839508Y3253587D01*
X6823709Y3247694D01*
X6808724Y3240074D01*
X6794601Y3230880D01*
X6781596Y3220161D01*
X6769862Y3208070D01*
X6759498Y3194812D01*
X6750710Y3180435D01*
X6743496Y3165195D01*
X6738010Y3149295D01*
X6734352Y3132836D01*
X6732473Y3116072D01*
X6732473Y3099257D01*
X6734352Y3082493D01*
X6738010Y3066084D01*
X6743496Y3050133D01*
X6750710Y3034893D01*
X6759498Y3020568D01*
X6769862Y3007258D01*
X6781596Y2995168D01*
X6794601Y2984500D01*
X6808724Y2975254D01*
X6823709Y2967634D01*
X6839508Y2961741D01*
X6855815Y2957626D01*
X6872528Y2955290D01*
G37*
G36*
X4869383Y2954832D02*
G01*
X4886147Y2956204D01*
X4902708Y2959455D01*
X4918760Y2964484D01*
X4934204Y2971241D01*
X4948783Y2979674D01*
X4962347Y2989630D01*
X4974742Y3001060D01*
X4985816Y3013760D01*
X4995418Y3027629D01*
X5003444Y3042412D01*
X5009743Y3058007D01*
X5014366Y3074212D01*
X5017109Y3090875D01*
X5018024Y3107690D01*
X5017109Y3124504D01*
X5014366Y3141116D01*
X5009743Y3157321D01*
X5003444Y3172917D01*
X5001717Y3176117D01*
X5000498Y3180232D01*
X5001107Y3184499D01*
X5003444Y3188157D01*
X5088483Y3273044D01*
X5093868Y3279648D01*
X5097678Y3286709D01*
X5100015Y3294379D01*
X5100828Y3302812D01*
X5100828Y4722774D01*
X5101640Y4726787D01*
X5103926Y4730089D01*
X5107381Y4732274D01*
X5111343Y4732934D01*
X5115306Y4732020D01*
X5118557Y4729581D01*
X5120589Y4726076D01*
X5124805Y4713833D01*
X5132019Y4698593D01*
X5140807Y4684268D01*
X5151170Y4670958D01*
X5162905Y4658868D01*
X5175910Y4648200D01*
X5190032Y4638954D01*
X5205069Y4631334D01*
X5220817Y4625441D01*
X5237175Y4621326D01*
X5253837Y4618990D01*
X5270703Y4618532D01*
X5287467Y4619904D01*
X5304028Y4623155D01*
X5320080Y4628184D01*
X5335524Y4634941D01*
X5350103Y4643374D01*
X5363667Y4653330D01*
X5376062Y4664760D01*
X5387136Y4677460D01*
X5396738Y4691329D01*
X5404764Y4706112D01*
X5411063Y4721707D01*
X5415686Y4737912D01*
X5418429Y4754575D01*
X5419344Y4771390D01*
X5418429Y4788204D01*
X5415686Y4804816D01*
X5411063Y4821021D01*
X5404764Y4836617D01*
X5396738Y4851450D01*
X5389930Y4861204D01*
X5388305Y4865166D01*
X5388406Y4869434D01*
X5390286Y4873294D01*
X5393537Y4875987D01*
X5397652Y4877155D01*
X5401868Y4876495D01*
X5405475Y4874209D01*
X5526938Y4752695D01*
X5529173Y4749241D01*
X5529884Y4745177D01*
X5528919Y4741164D01*
X5523585Y4729835D01*
X5518150Y4713935D01*
X5514441Y4697476D01*
X5512612Y4680712D01*
X5512612Y4663897D01*
X5514441Y4647133D01*
X5518150Y4630724D01*
X5523585Y4614773D01*
X5530799Y4599533D01*
X5539587Y4585208D01*
X5549950Y4571898D01*
X5561685Y4559808D01*
X5574690Y4549140D01*
X5588812Y4539894D01*
X5603849Y4532274D01*
X5619597Y4526381D01*
X5635955Y4522266D01*
X5652617Y4519930D01*
X5669483Y4519472D01*
X5686247Y4520844D01*
X5702808Y4524095D01*
X5718860Y4529124D01*
X5734304Y4535881D01*
X5748883Y4544314D01*
X5762447Y4554270D01*
X5774842Y4565700D01*
X5785916Y4578400D01*
X5795518Y4592269D01*
X5803544Y4607052D01*
X5809843Y4622647D01*
X5814466Y4638852D01*
X5817209Y4655515D01*
X5818124Y4672330D01*
X5817209Y4689144D01*
X5814466Y4705756D01*
X5809843Y4721961D01*
X5803544Y4737557D01*
X5795518Y4752390D01*
X5785916Y4766208D01*
X5774842Y4778908D01*
X5762447Y4790338D01*
X5748883Y4800295D01*
X5734304Y4808728D01*
X5718860Y4815484D01*
X5702808Y4820513D01*
X5686247Y4823764D01*
X5669483Y4825136D01*
X5652617Y4824679D01*
X5635955Y4822393D01*
X5619597Y4818227D01*
X5603849Y4812334D01*
X5596534Y4808626D01*
X5592470Y4807559D01*
X5588304Y4808220D01*
X5584799Y4810506D01*
X5263845Y5131663D01*
X5261610Y5134965D01*
X5260848Y5138826D01*
X5260848Y6909409D01*
X5260035Y6917893D01*
X5257698Y6925564D01*
X5253939Y6932625D01*
X5248503Y6939178D01*
X5011470Y7176211D01*
X5004917Y7181646D01*
X4997348Y7185659D01*
X4994503Y7187946D01*
X4992624Y7191044D01*
X4992014Y7194651D01*
X4992014Y7207707D01*
X4991252Y7214006D01*
X4989372Y7219492D01*
X4986274Y7224369D01*
X4982210Y7228484D01*
X4977282Y7231532D01*
X4971846Y7233462D01*
X4965496Y7234174D01*
X4748479Y7234174D01*
X4742129Y7233462D01*
X4736693Y7231532D01*
X4731766Y7228484D01*
X4727702Y7224369D01*
X4724603Y7219492D01*
X4722723Y7214006D01*
X4722012Y7207707D01*
X4722012Y7087666D01*
X4722723Y7081367D01*
X4724603Y7075881D01*
X4727702Y7071004D01*
X4731766Y7066889D01*
X4736693Y7063841D01*
X4742129Y7061911D01*
X4748479Y7061200D01*
X4965496Y7061200D01*
X4971846Y7061911D01*
X4977282Y7063841D01*
X4982210Y7066889D01*
X4986477Y7071156D01*
X4989779Y7073392D01*
X4993640Y7074153D01*
X4997551Y7073392D01*
X5000853Y7071156D01*
X5176062Y6895947D01*
X5178298Y6892645D01*
X5179060Y6888784D01*
X5179060Y5118201D01*
X5179872Y5109718D01*
X5182209Y5102047D01*
X5185968Y5094986D01*
X5191353Y5088432D01*
X5369560Y4910124D01*
X5371896Y4906518D01*
X5372506Y4902250D01*
X5371287Y4898136D01*
X5368493Y4894884D01*
X5364581Y4893056D01*
X5360263Y4893005D01*
X5356352Y4894783D01*
X5350103Y4899355D01*
X5335524Y4907788D01*
X5320080Y4914544D01*
X5304028Y4919573D01*
X5287467Y4922824D01*
X5270703Y4924196D01*
X5253837Y4923739D01*
X5237175Y4921453D01*
X5220817Y4917287D01*
X5205069Y4911394D01*
X5190032Y4903774D01*
X5175910Y4894580D01*
X5162905Y4883861D01*
X5151170Y4871770D01*
X5140807Y4858512D01*
X5132019Y4844135D01*
X5124805Y4828895D01*
X5119370Y4812995D01*
X5115661Y4796536D01*
X5113832Y4779772D01*
X5113832Y4766005D01*
X5112816Y4761687D01*
X5110124Y4758182D01*
X5106111Y4756150D01*
X5101691Y4756048D01*
X5097576Y4757877D01*
X5094681Y4761230D01*
X5093919Y4762703D01*
X5088483Y4769256D01*
X4673803Y5183987D01*
X4671618Y5187289D01*
X4670806Y5191150D01*
X4670806Y5748832D01*
X4671618Y5752693D01*
X4673803Y5755995D01*
X4716068Y5798261D01*
X4719370Y5800445D01*
X4723231Y5801207D01*
X4727143Y5800445D01*
X4730445Y5798261D01*
X4731766Y5796889D01*
X4736693Y5793841D01*
X4742129Y5791911D01*
X4748479Y5791200D01*
X4965496Y5791200D01*
X4971846Y5791911D01*
X4977282Y5793841D01*
X4982210Y5796889D01*
X4986274Y5801004D01*
X4989372Y5805881D01*
X4991252Y5811367D01*
X4992014Y5817666D01*
X4992014Y5937707D01*
X4991252Y5944006D01*
X4989372Y5949492D01*
X4986274Y5954369D01*
X4982210Y5958484D01*
X4977282Y5961532D01*
X4971846Y5963462D01*
X4965496Y5964174D01*
X4748479Y5964174D01*
X4742129Y5963462D01*
X4736693Y5961532D01*
X4731766Y5958484D01*
X4727702Y5954369D01*
X4724603Y5949492D01*
X4722723Y5944006D01*
X4722012Y5937707D01*
X4722012Y5921502D01*
X4721352Y5917946D01*
X4719472Y5914796D01*
X4714900Y5911646D01*
X4708347Y5906211D01*
X4601362Y5799226D01*
X4595926Y5792673D01*
X4592167Y5785612D01*
X4589830Y5777941D01*
X4589018Y5769457D01*
X4589018Y5170525D01*
X4589830Y5162042D01*
X4592167Y5154371D01*
X4595926Y5147310D01*
X4601362Y5140756D01*
X4902606Y4839462D01*
X4904892Y4835906D01*
X4905552Y4831638D01*
X4904384Y4827524D01*
X4901590Y4824272D01*
X4897729Y4822393D01*
X4893462Y4822342D01*
X4886147Y4823764D01*
X4869383Y4825136D01*
X4852517Y4824679D01*
X4835855Y4822393D01*
X4819497Y4818227D01*
X4803749Y4812334D01*
X4788712Y4804714D01*
X4774590Y4795520D01*
X4761585Y4784801D01*
X4749850Y4772710D01*
X4739487Y4759452D01*
X4730699Y4745075D01*
X4723485Y4729835D01*
X4718050Y4713935D01*
X4714341Y4697476D01*
X4712512Y4680712D01*
X4712512Y4663897D01*
X4714341Y4647133D01*
X4718050Y4630724D01*
X4723485Y4614773D01*
X4730699Y4599533D01*
X4739487Y4585208D01*
X4749850Y4571898D01*
X4761585Y4559808D01*
X4774590Y4549140D01*
X4788712Y4539894D01*
X4803749Y4532274D01*
X4819497Y4526381D01*
X4835855Y4522266D01*
X4852517Y4519930D01*
X4869383Y4519472D01*
X4886147Y4520844D01*
X4902708Y4524095D01*
X4918760Y4529124D01*
X4934204Y4535881D01*
X4948783Y4544314D01*
X4962347Y4554270D01*
X4974742Y4565700D01*
X4985816Y4578400D01*
X4995418Y4592269D01*
X4999939Y4600600D01*
X5002834Y4603953D01*
X5006898Y4605731D01*
X5011369Y4605629D01*
X5015331Y4603597D01*
X5018074Y4600092D01*
X5019040Y4595774D01*
X5019040Y3323539D01*
X5018227Y3319627D01*
X5016042Y3316325D01*
X4945684Y3246069D01*
X4942332Y3243884D01*
X4938369Y3243122D01*
X4934458Y3243986D01*
X4918760Y3250844D01*
X4902708Y3255873D01*
X4886147Y3259124D01*
X4869383Y3260496D01*
X4852517Y3260039D01*
X4835855Y3257753D01*
X4819497Y3253587D01*
X4803749Y3247694D01*
X4788712Y3240074D01*
X4774590Y3230880D01*
X4761585Y3220161D01*
X4749850Y3208070D01*
X4739487Y3194812D01*
X4730699Y3180435D01*
X4723485Y3165195D01*
X4718050Y3149295D01*
X4714341Y3132836D01*
X4712512Y3116072D01*
X4712512Y3099257D01*
X4714341Y3082493D01*
X4718050Y3066084D01*
X4723485Y3050133D01*
X4730699Y3034893D01*
X4739487Y3020568D01*
X4749850Y3007258D01*
X4761585Y2995168D01*
X4774590Y2984500D01*
X4788712Y2975254D01*
X4803749Y2967634D01*
X4819497Y2961741D01*
X4835855Y2957626D01*
X4852517Y2955290D01*
G37*
G36*
X1226616Y3287572D02*
G01*
X1243431Y3288944D01*
X1259941Y3292195D01*
X1276045Y3297224D01*
X1291437Y3303981D01*
X1306068Y3312414D01*
X1319631Y3322370D01*
X1332026Y3333800D01*
X1343101Y3346500D01*
X1352651Y3360369D01*
X1360678Y3375151D01*
X1367028Y3390747D01*
X1371600Y3406952D01*
X1374394Y3423615D01*
X1375308Y3440429D01*
X1374394Y3457244D01*
X1371600Y3473856D01*
X1367028Y3490061D01*
X1360678Y3505657D01*
X1352651Y3520490D01*
X1343101Y3534308D01*
X1332026Y3547008D01*
X1319631Y3558438D01*
X1306068Y3568395D01*
X1291437Y3576828D01*
X1276045Y3583584D01*
X1259941Y3588613D01*
X1243431Y3591864D01*
X1226616Y3593236D01*
X1209802Y3592779D01*
X1193088Y3590493D01*
X1176782Y3586327D01*
X1160983Y3580434D01*
X1145997Y3572814D01*
X1131874Y3563620D01*
X1118870Y3552901D01*
X1107135Y3540810D01*
X1096772Y3527551D01*
X1087983Y3513175D01*
X1080770Y3497935D01*
X1075283Y3482035D01*
X1071626Y3465576D01*
X1069746Y3448812D01*
X1069746Y3431997D01*
X1071626Y3415233D01*
X1075283Y3398824D01*
X1080770Y3382873D01*
X1087983Y3367633D01*
X1096772Y3353308D01*
X1107135Y3339998D01*
X1118870Y3327908D01*
X1131874Y3317240D01*
X1145997Y3307994D01*
X1160983Y3300374D01*
X1176782Y3294481D01*
X1193088Y3290366D01*
X1209802Y3288029D01*
G37*
G36*
X7826603Y3287572D02*
G01*
X7843418Y3288944D01*
X7859928Y3292195D01*
X7876031Y3297224D01*
X7891424Y3303981D01*
X7906054Y3312414D01*
X7919618Y3322370D01*
X7932013Y3333800D01*
X7943088Y3346500D01*
X7952638Y3360369D01*
X7960664Y3375151D01*
X7967014Y3390747D01*
X7971586Y3406952D01*
X7974380Y3423615D01*
X7975295Y3440429D01*
X7974380Y3457244D01*
X7971586Y3473856D01*
X7967014Y3490061D01*
X7960664Y3505657D01*
X7952638Y3520490D01*
X7943088Y3534308D01*
X7932013Y3547008D01*
X7919618Y3558438D01*
X7906054Y3568395D01*
X7891424Y3576828D01*
X7876031Y3583584D01*
X7859928Y3588613D01*
X7843418Y3591864D01*
X7826603Y3593236D01*
X7809788Y3592779D01*
X7793075Y3590493D01*
X7776768Y3586327D01*
X7760970Y3580434D01*
X7745984Y3572814D01*
X7731861Y3563620D01*
X7718856Y3552901D01*
X7707122Y3540810D01*
X7696758Y3527551D01*
X7687970Y3513175D01*
X7680756Y3497935D01*
X7675270Y3482035D01*
X7671612Y3465576D01*
X7669733Y3448812D01*
X7669733Y3431997D01*
X7671612Y3415233D01*
X7675270Y3398824D01*
X7680756Y3382873D01*
X7687970Y3367633D01*
X7696758Y3353308D01*
X7707122Y3339998D01*
X7718856Y3327908D01*
X7731861Y3317240D01*
X7745984Y3307994D01*
X7760970Y3300374D01*
X7776768Y3294481D01*
X7793075Y3290366D01*
X7809788Y3288029D01*
G37*
G36*
X5806643Y3287572D02*
G01*
X5823407Y3288944D01*
X5839968Y3292195D01*
X5856020Y3297224D01*
X5871464Y3303981D01*
X5886043Y3312414D01*
X5899607Y3322370D01*
X5912002Y3333800D01*
X5923076Y3346500D01*
X5932678Y3360369D01*
X5940704Y3375151D01*
X5947003Y3390747D01*
X5951626Y3406952D01*
X5954369Y3423615D01*
X5955284Y3440429D01*
X5954369Y3457244D01*
X5951626Y3473856D01*
X5947003Y3490061D01*
X5940704Y3505657D01*
X5932678Y3520490D01*
X5923076Y3534308D01*
X5912002Y3547008D01*
X5899607Y3558438D01*
X5886043Y3568395D01*
X5871464Y3576828D01*
X5856020Y3583584D01*
X5839968Y3588613D01*
X5823407Y3591864D01*
X5806643Y3593236D01*
X5789777Y3592779D01*
X5773115Y3590493D01*
X5756757Y3586327D01*
X5741009Y3580434D01*
X5725972Y3572814D01*
X5711850Y3563620D01*
X5698845Y3552901D01*
X5687110Y3540810D01*
X5676747Y3527551D01*
X5667959Y3513175D01*
X5660745Y3497935D01*
X5655310Y3482035D01*
X5651601Y3465576D01*
X5649772Y3448812D01*
X5649772Y3431997D01*
X5651601Y3415233D01*
X5655310Y3398824D01*
X5660745Y3382873D01*
X5667959Y3367633D01*
X5676747Y3353308D01*
X5687110Y3339998D01*
X5698845Y3327908D01*
X5711850Y3317240D01*
X5725972Y3307994D01*
X5741009Y3300374D01*
X5756757Y3294481D01*
X5773115Y3290366D01*
X5789777Y3288029D01*
G37*
G36*
X3266643Y3287572D02*
G01*
X3283407Y3288944D01*
X3299968Y3292195D01*
X3316020Y3297224D01*
X3331464Y3303981D01*
X3346043Y3312414D01*
X3359607Y3322370D01*
X3372002Y3333800D01*
X3383076Y3346500D01*
X3392678Y3360369D01*
X3400704Y3375151D01*
X3407003Y3390747D01*
X3411626Y3406952D01*
X3414369Y3423615D01*
X3415334Y3440429D01*
X3414369Y3457244D01*
X3411626Y3473856D01*
X3407003Y3490061D01*
X3400704Y3505657D01*
X3392678Y3520490D01*
X3383076Y3534308D01*
X3372002Y3547008D01*
X3359607Y3558438D01*
X3346043Y3568395D01*
X3331464Y3576828D01*
X3316020Y3583584D01*
X3299968Y3588613D01*
X3283407Y3591864D01*
X3266643Y3593236D01*
X3249777Y3592779D01*
X3233115Y3590493D01*
X3216757Y3586327D01*
X3201009Y3580434D01*
X3185972Y3572814D01*
X3171850Y3563620D01*
X3158845Y3552901D01*
X3147110Y3540810D01*
X3136798Y3527551D01*
X3127959Y3513175D01*
X3120745Y3497935D01*
X3115310Y3482035D01*
X3111601Y3465576D01*
X3109772Y3448812D01*
X3109772Y3431997D01*
X3111601Y3415233D01*
X3115310Y3398824D01*
X3120745Y3382873D01*
X3127959Y3367633D01*
X3136798Y3353308D01*
X3147110Y3339998D01*
X3158845Y3327908D01*
X3171850Y3317240D01*
X3185972Y3307994D01*
X3201009Y3300374D01*
X3216757Y3294481D01*
X3233115Y3290366D01*
X3249777Y3288029D01*
G37*
G36*
X2161743Y3287572D02*
G01*
X2178507Y3288944D01*
X2195068Y3292195D01*
X2211120Y3297224D01*
X2226564Y3303981D01*
X2241143Y3312414D01*
X2254707Y3322370D01*
X2267102Y3333800D01*
X2278176Y3346500D01*
X2287778Y3360369D01*
X2295804Y3375151D01*
X2302103Y3390747D01*
X2306726Y3406952D01*
X2309469Y3423615D01*
X2310434Y3440429D01*
X2309469Y3457244D01*
X2306726Y3473856D01*
X2302103Y3490061D01*
X2295804Y3505657D01*
X2287778Y3520490D01*
X2278176Y3534308D01*
X2267102Y3547008D01*
X2254707Y3558438D01*
X2241143Y3568395D01*
X2226564Y3576828D01*
X2211120Y3583584D01*
X2195068Y3588613D01*
X2178507Y3591864D01*
X2161743Y3593236D01*
X2144877Y3592779D01*
X2128215Y3590493D01*
X2111857Y3586327D01*
X2096109Y3580434D01*
X2081072Y3572814D01*
X2066950Y3563620D01*
X2053945Y3552901D01*
X2042210Y3540810D01*
X2031898Y3527551D01*
X2023059Y3513175D01*
X2015845Y3497935D01*
X2010410Y3482035D01*
X2006701Y3465576D01*
X2004872Y3448812D01*
X2004872Y3431997D01*
X2006701Y3415233D01*
X2010410Y3398824D01*
X2015845Y3382873D01*
X2023059Y3367633D01*
X2031898Y3353308D01*
X2042210Y3339998D01*
X2053945Y3327908D01*
X2066950Y3317240D01*
X2081072Y3307994D01*
X2096109Y3300374D01*
X2111857Y3294481D01*
X2128215Y3290366D01*
X2144877Y3288029D01*
G37*
G36*
X121716Y3287572D02*
G01*
X138531Y3288944D01*
X155041Y3292195D01*
X171145Y3297224D01*
X186537Y3303981D01*
X201168Y3312414D01*
X214731Y3322370D01*
X227126Y3333800D01*
X238201Y3346500D01*
X247751Y3360369D01*
X255778Y3375151D01*
X262128Y3390747D01*
X266700Y3406952D01*
X269494Y3423615D01*
X270408Y3440429D01*
X269494Y3457244D01*
X266700Y3473856D01*
X262128Y3490061D01*
X255778Y3505657D01*
X247751Y3520490D01*
X238201Y3534308D01*
X227126Y3547008D01*
X214731Y3558438D01*
X201168Y3568395D01*
X186537Y3576828D01*
X171145Y3583584D01*
X155041Y3588613D01*
X138531Y3591864D01*
X121716Y3593236D01*
X104902Y3592779D01*
X88188Y3590493D01*
X71882Y3586327D01*
X56083Y3580434D01*
X41097Y3572814D01*
X26974Y3563620D01*
X13970Y3552901D01*
X2235Y3540810D01*
X-8128Y3527551D01*
X-16916Y3513175D01*
X-24130Y3497935D01*
X-29616Y3482035D01*
X-33274Y3465576D01*
X-35153Y3448812D01*
X-35153Y3431997D01*
X-33274Y3415233D01*
X-29616Y3398824D01*
X-24130Y3382873D01*
X-16916Y3367633D01*
X-8128Y3353308D01*
X2235Y3339998D01*
X13970Y3327908D01*
X26974Y3317240D01*
X41097Y3307994D01*
X56083Y3300374D01*
X71882Y3294481D01*
X88188Y3290366D01*
X104902Y3288029D01*
G37*
G36*
X4701743Y3287572D02*
G01*
X4718507Y3288944D01*
X4735068Y3292195D01*
X4751120Y3297224D01*
X4766564Y3303981D01*
X4781143Y3312414D01*
X4794707Y3322370D01*
X4807102Y3333800D01*
X4818176Y3346500D01*
X4827778Y3360369D01*
X4835804Y3375151D01*
X4842103Y3390747D01*
X4846726Y3406952D01*
X4849469Y3423615D01*
X4850384Y3440429D01*
X4849469Y3457244D01*
X4846726Y3473856D01*
X4842103Y3490061D01*
X4835804Y3505657D01*
X4827778Y3520490D01*
X4818176Y3534308D01*
X4807102Y3547008D01*
X4794707Y3558438D01*
X4781143Y3568395D01*
X4766564Y3576828D01*
X4751120Y3583584D01*
X4735068Y3588613D01*
X4718507Y3591864D01*
X4701743Y3593236D01*
X4684877Y3592779D01*
X4668215Y3590493D01*
X4651857Y3586327D01*
X4636109Y3580434D01*
X4628845Y3576777D01*
X4624781Y3575659D01*
X4620615Y3576320D01*
X4617059Y3578656D01*
X4493971Y3701897D01*
X4491736Y3705199D01*
X4490974Y3709060D01*
X4490974Y7268768D01*
X4491736Y7272629D01*
X4493971Y7275931D01*
X4703826Y7486040D01*
X4707128Y7488224D01*
X4711039Y7489037D01*
X4716018Y7489037D01*
X4720183Y7488123D01*
X4723638Y7485532D01*
X4725720Y7481773D01*
X4726076Y7477506D01*
X4722723Y7468006D01*
X4722012Y7461707D01*
X4722012Y7341666D01*
X4722723Y7335367D01*
X4724603Y7329881D01*
X4727702Y7325004D01*
X4731766Y7320889D01*
X4736693Y7317841D01*
X4742129Y7315911D01*
X4748479Y7315200D01*
X4965496Y7315200D01*
X4971846Y7315911D01*
X4977282Y7317841D01*
X4982210Y7320889D01*
X4986274Y7325004D01*
X4989372Y7329881D01*
X4991252Y7335367D01*
X4992014Y7341666D01*
X4992014Y7461707D01*
X4991252Y7468006D01*
X4987899Y7477506D01*
X4988255Y7481773D01*
X4990338Y7485532D01*
X4993792Y7488123D01*
X4997958Y7489037D01*
X5469585Y7489037D01*
X5473446Y7488224D01*
X5476748Y7486040D01*
X5482793Y7479995D01*
X5484926Y7476896D01*
X5485790Y7473188D01*
X5484723Y7468006D01*
X5484012Y7461707D01*
X5484012Y7341666D01*
X5484723Y7335367D01*
X5486603Y7329881D01*
X5489702Y7325004D01*
X5493766Y7320889D01*
X5498693Y7317841D01*
X5504129Y7315911D01*
X5510479Y7315200D01*
X5727496Y7315200D01*
X5733846Y7315911D01*
X5739282Y7317841D01*
X5744210Y7320889D01*
X5748274Y7325004D01*
X5751372Y7329881D01*
X5753252Y7335367D01*
X5754014Y7341666D01*
X5754014Y7461707D01*
X5753252Y7468006D01*
X5751372Y7473492D01*
X5748274Y7478369D01*
X5744210Y7482484D01*
X5739282Y7485532D01*
X5733846Y7487462D01*
X5727496Y7488174D01*
X5594553Y7488174D01*
X5590641Y7488936D01*
X5587339Y7491120D01*
X5519978Y7558481D01*
X5513425Y7563916D01*
X5506364Y7567675D01*
X5498693Y7570012D01*
X5490210Y7570825D01*
X4690364Y7570825D01*
X4681880Y7570012D01*
X4674209Y7567675D01*
X4667148Y7563916D01*
X4660595Y7558481D01*
X4421479Y7319162D01*
X4416094Y7312609D01*
X4412335Y7305548D01*
X4409998Y7297877D01*
X4409186Y7289393D01*
X4409186Y3688435D01*
X4409998Y3680002D01*
X4412335Y3672332D01*
X4416094Y3665220D01*
X4421479Y3658666D01*
X4559198Y3520795D01*
X4561484Y3517341D01*
X4562195Y3513277D01*
X4561230Y3509264D01*
X4555845Y3497935D01*
X4550410Y3482035D01*
X4546701Y3465576D01*
X4544872Y3448812D01*
X4544872Y3431997D01*
X4546701Y3415233D01*
X4550410Y3398824D01*
X4555845Y3382873D01*
X4563059Y3367633D01*
X4571847Y3353308D01*
X4582210Y3339998D01*
X4593945Y3327908D01*
X4606950Y3317240D01*
X4621072Y3307994D01*
X4636109Y3300374D01*
X4651857Y3294481D01*
X4668215Y3290366D01*
X4684877Y3288029D01*
G37*
G36*
X6721703Y3287572D02*
G01*
X6738518Y3288944D01*
X6755028Y3292195D01*
X6771131Y3297224D01*
X6786524Y3303981D01*
X6801154Y3312414D01*
X6814718Y3322370D01*
X6827113Y3333800D01*
X6838188Y3346500D01*
X6847738Y3360369D01*
X6855764Y3375151D01*
X6862114Y3390747D01*
X6866686Y3406952D01*
X6869480Y3423615D01*
X6870395Y3440429D01*
X6869480Y3457244D01*
X6866686Y3473856D01*
X6862114Y3490061D01*
X6855764Y3505657D01*
X6847738Y3520490D01*
X6838188Y3534308D01*
X6827113Y3547008D01*
X6814718Y3558438D01*
X6801154Y3568395D01*
X6786524Y3576828D01*
X6771131Y3583584D01*
X6755028Y3588613D01*
X6738518Y3591864D01*
X6721703Y3593236D01*
X6704888Y3592779D01*
X6688175Y3590493D01*
X6671868Y3586327D01*
X6656070Y3580434D01*
X6648805Y3576726D01*
X6644741Y3575659D01*
X6640575Y3576320D01*
X6637020Y3578606D01*
X6473901Y3741775D01*
X6471716Y3745077D01*
X6470904Y3748938D01*
X6470904Y7498943D01*
X6471716Y7502804D01*
X6473901Y7506106D01*
X6477203Y7508290D01*
X6481064Y7509103D01*
X7494219Y7509103D01*
X7498080Y7508290D01*
X7501381Y7506106D01*
X7527493Y7479995D01*
X7529626Y7476896D01*
X7530490Y7473188D01*
X7529423Y7468006D01*
X7528712Y7461707D01*
X7528712Y7341666D01*
X7529423Y7335367D01*
X7531303Y7329881D01*
X7534402Y7325004D01*
X7538466Y7320889D01*
X7543393Y7317841D01*
X7548829Y7315911D01*
X7555179Y7315200D01*
X7772196Y7315200D01*
X7778546Y7315911D01*
X7783982Y7317841D01*
X7788909Y7320889D01*
X7792974Y7325004D01*
X7796072Y7329881D01*
X7797952Y7335367D01*
X7798714Y7341666D01*
X7798714Y7461707D01*
X7797952Y7468006D01*
X7796072Y7473492D01*
X7792974Y7478369D01*
X7788909Y7482484D01*
X7783982Y7485532D01*
X7778546Y7487462D01*
X7772196Y7488174D01*
X7639253Y7488174D01*
X7635341Y7488936D01*
X7632039Y7491120D01*
X7544612Y7578547D01*
X7538059Y7583982D01*
X7530998Y7587742D01*
X7523327Y7590078D01*
X7514844Y7590891D01*
X6430518Y7590891D01*
X6422034Y7590078D01*
X6414363Y7587742D01*
X6407302Y7583982D01*
X6401104Y7578902D01*
X6396024Y7572705D01*
X6392265Y7565644D01*
X6389928Y7557973D01*
X6389116Y7549489D01*
X6389116Y3728313D01*
X6389928Y3719829D01*
X6392265Y3712159D01*
X6396024Y3705098D01*
X6401460Y3698544D01*
X6579209Y3520795D01*
X6581444Y3517341D01*
X6582156Y3513277D01*
X6581190Y3509264D01*
X6575856Y3497935D01*
X6570370Y3482035D01*
X6566712Y3465576D01*
X6564833Y3448812D01*
X6564833Y3431997D01*
X6566712Y3415233D01*
X6570370Y3398824D01*
X6575856Y3382873D01*
X6583070Y3367633D01*
X6591858Y3353308D01*
X6602222Y3339998D01*
X6613956Y3327908D01*
X6626961Y3317240D01*
X6641084Y3307994D01*
X6656070Y3300374D01*
X6671868Y3294481D01*
X6688175Y3290366D01*
X6704888Y3288029D01*
G37*
G36*
X5819343Y3737152D02*
G01*
X5836107Y3738524D01*
X5852668Y3741775D01*
X5868720Y3746804D01*
X5884164Y3753561D01*
X5898743Y3761994D01*
X5912307Y3771950D01*
X5924702Y3783380D01*
X5935776Y3796080D01*
X5945378Y3809949D01*
X5953404Y3824732D01*
X5959703Y3840327D01*
X5964326Y3856532D01*
X5967069Y3873195D01*
X5967984Y3890010D01*
X5967069Y3906824D01*
X5964326Y3923436D01*
X5959703Y3939641D01*
X5953404Y3955237D01*
X5945378Y3970070D01*
X5935776Y3983888D01*
X5924702Y3996588D01*
X5912307Y4008018D01*
X5898743Y4017975D01*
X5884164Y4026408D01*
X5868720Y4033164D01*
X5852668Y4038193D01*
X5836107Y4041444D01*
X5819343Y4042816D01*
X5802477Y4042359D01*
X5785815Y4040073D01*
X5769457Y4035907D01*
X5753709Y4030014D01*
X5738672Y4022394D01*
X5724550Y4013200D01*
X5711545Y4002481D01*
X5699810Y3990390D01*
X5689447Y3977132D01*
X5680659Y3962755D01*
X5673445Y3947515D01*
X5668010Y3931615D01*
X5664301Y3915156D01*
X5662472Y3898392D01*
X5662472Y3881577D01*
X5664301Y3864813D01*
X5668010Y3848404D01*
X5673445Y3832453D01*
X5680659Y3817213D01*
X5689447Y3802887D01*
X5699810Y3789578D01*
X5711545Y3777487D01*
X5724550Y3766820D01*
X5738672Y3757574D01*
X5753709Y3749954D01*
X5769457Y3744061D01*
X5785815Y3739946D01*
X5802477Y3737610D01*
G37*
G36*
X3279343Y3737152D02*
G01*
X3296107Y3738524D01*
X3312668Y3741775D01*
X3328720Y3746804D01*
X3344164Y3753561D01*
X3358743Y3761994D01*
X3372307Y3771950D01*
X3384702Y3783380D01*
X3395776Y3796080D01*
X3405378Y3809949D01*
X3413404Y3824732D01*
X3419703Y3840327D01*
X3424326Y3856532D01*
X3427069Y3873195D01*
X3428034Y3890010D01*
X3427069Y3906824D01*
X3424326Y3923436D01*
X3419703Y3939641D01*
X3413404Y3955237D01*
X3405378Y3970070D01*
X3395776Y3983888D01*
X3384702Y3996588D01*
X3372307Y4008018D01*
X3358743Y4017975D01*
X3344164Y4026408D01*
X3328720Y4033164D01*
X3312668Y4038193D01*
X3296107Y4041444D01*
X3279343Y4042816D01*
X3262477Y4042359D01*
X3245815Y4040073D01*
X3229457Y4035907D01*
X3213709Y4030014D01*
X3198672Y4022394D01*
X3184550Y4013200D01*
X3171545Y4002481D01*
X3159810Y3990390D01*
X3149498Y3977132D01*
X3140659Y3962755D01*
X3133445Y3947515D01*
X3128010Y3931615D01*
X3124301Y3915156D01*
X3122472Y3898392D01*
X3122472Y3881577D01*
X3124301Y3864813D01*
X3128010Y3848404D01*
X3133445Y3832453D01*
X3140659Y3817213D01*
X3149498Y3802887D01*
X3159810Y3789578D01*
X3171545Y3777487D01*
X3184550Y3766820D01*
X3198672Y3757574D01*
X3213709Y3749954D01*
X3229457Y3744061D01*
X3245815Y3739946D01*
X3262477Y3737610D01*
G37*
G36*
X1239316Y3737152D02*
G01*
X1256131Y3738524D01*
X1272641Y3741775D01*
X1288745Y3746804D01*
X1304137Y3753561D01*
X1318768Y3761994D01*
X1332331Y3771950D01*
X1344726Y3783380D01*
X1355801Y3796080D01*
X1365351Y3809949D01*
X1373378Y3824732D01*
X1379728Y3840327D01*
X1384300Y3856532D01*
X1387094Y3873195D01*
X1388008Y3890010D01*
X1387094Y3906824D01*
X1384300Y3923436D01*
X1379728Y3939641D01*
X1373378Y3955237D01*
X1365351Y3970070D01*
X1355801Y3983888D01*
X1344726Y3996588D01*
X1332331Y4008018D01*
X1318768Y4017975D01*
X1304137Y4026408D01*
X1288745Y4033164D01*
X1272641Y4038193D01*
X1256131Y4041444D01*
X1239316Y4042816D01*
X1222502Y4042359D01*
X1205788Y4040073D01*
X1189482Y4035907D01*
X1173683Y4030014D01*
X1158697Y4022394D01*
X1144574Y4013200D01*
X1131570Y4002481D01*
X1119835Y3990390D01*
X1109472Y3977132D01*
X1100683Y3962755D01*
X1093470Y3947515D01*
X1087983Y3931615D01*
X1084326Y3915156D01*
X1082446Y3898392D01*
X1082446Y3881577D01*
X1084326Y3864813D01*
X1087983Y3848404D01*
X1093470Y3832453D01*
X1100683Y3817213D01*
X1109472Y3802887D01*
X1119835Y3789578D01*
X1131570Y3777487D01*
X1144574Y3766820D01*
X1158697Y3757574D01*
X1173683Y3749954D01*
X1189482Y3744061D01*
X1205788Y3739946D01*
X1222502Y3737610D01*
G37*
G36*
X7839303Y3737152D02*
G01*
X7856118Y3738524D01*
X7872628Y3741775D01*
X7888731Y3746804D01*
X7904124Y3753561D01*
X7918754Y3761994D01*
X7932318Y3771950D01*
X7944713Y3783380D01*
X7955788Y3796080D01*
X7965338Y3809949D01*
X7973364Y3824732D01*
X7979714Y3840327D01*
X7984286Y3856532D01*
X7987080Y3873195D01*
X7987995Y3890010D01*
X7987080Y3906824D01*
X7984286Y3923436D01*
X7979714Y3939641D01*
X7973364Y3955237D01*
X7965338Y3970070D01*
X7955788Y3983888D01*
X7944713Y3996588D01*
X7932318Y4008018D01*
X7918754Y4017975D01*
X7904124Y4026408D01*
X7888731Y4033164D01*
X7872628Y4038193D01*
X7856118Y4041444D01*
X7839303Y4042816D01*
X7822488Y4042359D01*
X7805775Y4040073D01*
X7789468Y4035907D01*
X7773670Y4030014D01*
X7758684Y4022394D01*
X7744561Y4013200D01*
X7731556Y4002481D01*
X7719822Y3990390D01*
X7709458Y3977132D01*
X7700670Y3962755D01*
X7693456Y3947515D01*
X7687970Y3931615D01*
X7684312Y3915156D01*
X7682433Y3898392D01*
X7682433Y3881577D01*
X7684312Y3864813D01*
X7687970Y3848404D01*
X7693456Y3832453D01*
X7700670Y3817213D01*
X7709458Y3802887D01*
X7719822Y3789578D01*
X7731556Y3777487D01*
X7744561Y3766820D01*
X7758684Y3757574D01*
X7773670Y3749954D01*
X7789468Y3744061D01*
X7805775Y3739946D01*
X7822488Y3737610D01*
G37*
G36*
X2149043Y3737152D02*
G01*
X2165807Y3738524D01*
X2182368Y3741775D01*
X2198420Y3746804D01*
X2213864Y3753561D01*
X2228443Y3761994D01*
X2242007Y3771950D01*
X2254402Y3783380D01*
X2265476Y3796080D01*
X2275078Y3809949D01*
X2283104Y3824732D01*
X2289403Y3840327D01*
X2294026Y3856532D01*
X2296769Y3873195D01*
X2297734Y3890010D01*
X2296769Y3906824D01*
X2294026Y3923436D01*
X2289403Y3939641D01*
X2283104Y3955237D01*
X2275078Y3970070D01*
X2265476Y3983888D01*
X2254402Y3996588D01*
X2242007Y4008018D01*
X2228443Y4017975D01*
X2213864Y4026408D01*
X2198420Y4033164D01*
X2182368Y4038193D01*
X2165807Y4041444D01*
X2149043Y4042816D01*
X2132177Y4042359D01*
X2115515Y4040073D01*
X2099157Y4035907D01*
X2083409Y4030014D01*
X2068372Y4022394D01*
X2054250Y4013200D01*
X2041245Y4002481D01*
X2029510Y3990390D01*
X2019198Y3977132D01*
X2010359Y3962755D01*
X2003145Y3947515D01*
X1997710Y3931615D01*
X1994001Y3915156D01*
X1992172Y3898392D01*
X1992172Y3881577D01*
X1994001Y3864813D01*
X1997710Y3848404D01*
X2003145Y3832453D01*
X2010359Y3817213D01*
X2019198Y3802887D01*
X2029510Y3789578D01*
X2041245Y3777487D01*
X2054250Y3766820D01*
X2068372Y3757574D01*
X2083409Y3749954D01*
X2099157Y3744061D01*
X2115515Y3739946D01*
X2132177Y3737610D01*
G37*
G36*
X109016Y3737152D02*
G01*
X125831Y3738524D01*
X142341Y3741775D01*
X158445Y3746804D01*
X173837Y3753561D01*
X188468Y3761994D01*
X202031Y3771950D01*
X214426Y3783380D01*
X225501Y3796080D01*
X235051Y3809949D01*
X243078Y3824732D01*
X249428Y3840327D01*
X254000Y3856532D01*
X256794Y3873195D01*
X257708Y3890010D01*
X256794Y3906824D01*
X254000Y3923436D01*
X249428Y3939641D01*
X243078Y3955237D01*
X235051Y3970070D01*
X225501Y3983888D01*
X214426Y3996588D01*
X202031Y4008018D01*
X188468Y4017975D01*
X173837Y4026408D01*
X158445Y4033164D01*
X142341Y4038193D01*
X125831Y4041444D01*
X109016Y4042816D01*
X92202Y4042359D01*
X75488Y4040073D01*
X59182Y4035907D01*
X43383Y4030014D01*
X28397Y4022394D01*
X14274Y4013200D01*
X1270Y4002481D01*
X-10464Y3990390D01*
X-20828Y3977132D01*
X-29616Y3962755D01*
X-36830Y3947515D01*
X-42316Y3931615D01*
X-45974Y3915156D01*
X-47853Y3898392D01*
X-47853Y3881577D01*
X-45974Y3864813D01*
X-42316Y3848404D01*
X-36830Y3832453D01*
X-29616Y3817213D01*
X-20828Y3802887D01*
X-10464Y3789578D01*
X1270Y3777487D01*
X14274Y3766820D01*
X28397Y3757574D01*
X43383Y3749954D01*
X59182Y3744061D01*
X75488Y3739946D01*
X92202Y3737610D01*
G37*
G36*
X6709003Y3737152D02*
G01*
X6725818Y3738524D01*
X6742328Y3741775D01*
X6758431Y3746804D01*
X6773824Y3753561D01*
X6788454Y3761994D01*
X6802018Y3771950D01*
X6814413Y3783380D01*
X6825488Y3796080D01*
X6835038Y3809949D01*
X6843064Y3824732D01*
X6849414Y3840327D01*
X6853986Y3856532D01*
X6856780Y3873195D01*
X6857695Y3890010D01*
X6856780Y3906824D01*
X6853986Y3923436D01*
X6849414Y3939641D01*
X6843064Y3955237D01*
X6835038Y3970070D01*
X6825488Y3983888D01*
X6814413Y3996588D01*
X6802018Y4008018D01*
X6788454Y4017975D01*
X6773824Y4026408D01*
X6758431Y4033164D01*
X6742328Y4038193D01*
X6725818Y4041444D01*
X6709003Y4042816D01*
X6692188Y4042359D01*
X6675475Y4040073D01*
X6659168Y4035907D01*
X6643370Y4030014D01*
X6628384Y4022394D01*
X6614261Y4013200D01*
X6601256Y4002481D01*
X6589522Y3990390D01*
X6579158Y3977132D01*
X6570370Y3962755D01*
X6563156Y3947515D01*
X6557670Y3931615D01*
X6554012Y3915156D01*
X6552133Y3898392D01*
X6552133Y3881577D01*
X6554012Y3864813D01*
X6557670Y3848404D01*
X6563156Y3832453D01*
X6570370Y3817213D01*
X6579158Y3802887D01*
X6589522Y3789578D01*
X6601256Y3777487D01*
X6614261Y3766820D01*
X6628384Y3757574D01*
X6643370Y3749954D01*
X6659168Y3744061D01*
X6675475Y3739946D01*
X6692188Y3737610D01*
G37*
G36*
X4689043Y3737152D02*
G01*
X4705807Y3738524D01*
X4722368Y3741775D01*
X4738420Y3746804D01*
X4753864Y3753561D01*
X4768443Y3761994D01*
X4782007Y3771950D01*
X4794402Y3783380D01*
X4805476Y3796080D01*
X4815078Y3809949D01*
X4823104Y3824732D01*
X4829403Y3840327D01*
X4834026Y3856532D01*
X4836769Y3873195D01*
X4837684Y3890010D01*
X4836769Y3906824D01*
X4834026Y3923436D01*
X4829403Y3939641D01*
X4823104Y3955237D01*
X4815078Y3970070D01*
X4805476Y3983888D01*
X4794402Y3996588D01*
X4782007Y4008018D01*
X4768443Y4017975D01*
X4753864Y4026408D01*
X4738420Y4033164D01*
X4722368Y4038193D01*
X4705807Y4041444D01*
X4689043Y4042816D01*
X4672177Y4042359D01*
X4655515Y4040073D01*
X4639157Y4035907D01*
X4623409Y4030014D01*
X4608372Y4022394D01*
X4594250Y4013200D01*
X4581245Y4002481D01*
X4569510Y3990390D01*
X4559147Y3977132D01*
X4550359Y3962755D01*
X4543145Y3947515D01*
X4537710Y3931615D01*
X4534001Y3915156D01*
X4532172Y3898392D01*
X4532172Y3881577D01*
X4534001Y3864813D01*
X4537710Y3848404D01*
X4543145Y3832453D01*
X4550359Y3817213D01*
X4559147Y3802887D01*
X4569510Y3789578D01*
X4581245Y3777487D01*
X4594250Y3766820D01*
X4608372Y3757574D01*
X4623409Y3749954D01*
X4639157Y3744061D01*
X4655515Y3739946D01*
X4672177Y3737610D01*
G37*
G36*
X1226616Y4186732D02*
G01*
X1243431Y4188104D01*
X1259941Y4191355D01*
X1276045Y4196384D01*
X1291437Y4203141D01*
X1306068Y4211574D01*
X1319631Y4221530D01*
X1332026Y4232960D01*
X1343101Y4245660D01*
X1352651Y4259529D01*
X1360678Y4274312D01*
X1367028Y4289907D01*
X1371600Y4306112D01*
X1374394Y4322775D01*
X1375308Y4339590D01*
X1374394Y4356404D01*
X1371600Y4373016D01*
X1367028Y4389221D01*
X1360678Y4404817D01*
X1352651Y4419650D01*
X1343101Y4433468D01*
X1332026Y4446168D01*
X1319631Y4457598D01*
X1306068Y4467555D01*
X1291437Y4475988D01*
X1276045Y4482744D01*
X1259941Y4487773D01*
X1243431Y4491024D01*
X1226616Y4492396D01*
X1209802Y4491939D01*
X1193088Y4489653D01*
X1176782Y4485487D01*
X1160983Y4479594D01*
X1145997Y4471974D01*
X1131874Y4462780D01*
X1118870Y4452061D01*
X1107135Y4439970D01*
X1096772Y4426712D01*
X1087983Y4412335D01*
X1080770Y4397095D01*
X1075283Y4381195D01*
X1071626Y4364736D01*
X1069746Y4347972D01*
X1069746Y4331157D01*
X1071626Y4314393D01*
X1075283Y4297984D01*
X1080770Y4282033D01*
X1087983Y4266793D01*
X1096772Y4252468D01*
X1107135Y4239158D01*
X1118870Y4227068D01*
X1131874Y4216400D01*
X1145997Y4207154D01*
X1160983Y4199534D01*
X1176782Y4193641D01*
X1193088Y4189526D01*
X1209802Y4187190D01*
G37*
G36*
X7826603Y4186732D02*
G01*
X7843418Y4188104D01*
X7859928Y4191355D01*
X7876031Y4196384D01*
X7891424Y4203141D01*
X7906054Y4211574D01*
X7919618Y4221530D01*
X7932013Y4232960D01*
X7943088Y4245660D01*
X7952638Y4259529D01*
X7960664Y4274312D01*
X7967014Y4289907D01*
X7971586Y4306112D01*
X7974380Y4322775D01*
X7975295Y4339590D01*
X7974380Y4356404D01*
X7971586Y4373016D01*
X7967014Y4389221D01*
X7960664Y4404817D01*
X7952638Y4419650D01*
X7943088Y4433468D01*
X7932013Y4446168D01*
X7919618Y4457598D01*
X7906054Y4467555D01*
X7891424Y4475988D01*
X7876031Y4482744D01*
X7859928Y4487773D01*
X7843418Y4491024D01*
X7826603Y4492396D01*
X7809788Y4491939D01*
X7793075Y4489653D01*
X7776768Y4485487D01*
X7760970Y4479594D01*
X7745984Y4471974D01*
X7731861Y4462780D01*
X7718856Y4452061D01*
X7707122Y4439970D01*
X7696758Y4426712D01*
X7687970Y4412335D01*
X7680756Y4397095D01*
X7675270Y4381195D01*
X7671612Y4364736D01*
X7669733Y4347972D01*
X7669733Y4331157D01*
X7671612Y4314393D01*
X7675270Y4297984D01*
X7680756Y4282033D01*
X7687970Y4266793D01*
X7696758Y4252468D01*
X7707122Y4239158D01*
X7718856Y4227068D01*
X7731861Y4216400D01*
X7745984Y4207154D01*
X7760970Y4199534D01*
X7776768Y4193641D01*
X7793075Y4189526D01*
X7809788Y4187190D01*
G37*
G36*
X5806643Y4186732D02*
G01*
X5823407Y4188104D01*
X5839968Y4191355D01*
X5856020Y4196384D01*
X5871464Y4203141D01*
X5886043Y4211574D01*
X5899607Y4221530D01*
X5912002Y4232960D01*
X5923076Y4245660D01*
X5932678Y4259529D01*
X5940704Y4274312D01*
X5947003Y4289907D01*
X5951626Y4306112D01*
X5954369Y4322775D01*
X5955284Y4339590D01*
X5954369Y4356404D01*
X5951626Y4373016D01*
X5947003Y4389221D01*
X5940704Y4404817D01*
X5932678Y4419650D01*
X5923076Y4433468D01*
X5912002Y4446168D01*
X5899607Y4457598D01*
X5886043Y4467555D01*
X5871464Y4475988D01*
X5856020Y4482744D01*
X5839968Y4487773D01*
X5823407Y4491024D01*
X5806643Y4492396D01*
X5789777Y4491939D01*
X5773115Y4489653D01*
X5756757Y4485487D01*
X5741009Y4479594D01*
X5725972Y4471974D01*
X5711850Y4462780D01*
X5698845Y4452061D01*
X5687110Y4439970D01*
X5676747Y4426712D01*
X5667959Y4412335D01*
X5660745Y4397095D01*
X5655310Y4381195D01*
X5651601Y4364736D01*
X5649772Y4347972D01*
X5649772Y4331157D01*
X5651601Y4314393D01*
X5655310Y4297984D01*
X5660745Y4282033D01*
X5667959Y4266793D01*
X5676747Y4252468D01*
X5687110Y4239158D01*
X5698845Y4227068D01*
X5711850Y4216400D01*
X5725972Y4207154D01*
X5741009Y4199534D01*
X5756757Y4193641D01*
X5773115Y4189526D01*
X5789777Y4187190D01*
G37*
G36*
X3266643Y4186732D02*
G01*
X3283407Y4188104D01*
X3299968Y4191355D01*
X3316020Y4196384D01*
X3331464Y4203141D01*
X3346043Y4211574D01*
X3359607Y4221530D01*
X3372002Y4232960D01*
X3383076Y4245660D01*
X3392678Y4259529D01*
X3400704Y4274312D01*
X3407003Y4289907D01*
X3411626Y4306112D01*
X3414369Y4322775D01*
X3415334Y4339590D01*
X3414369Y4356404D01*
X3411626Y4373016D01*
X3407003Y4389221D01*
X3400704Y4404817D01*
X3392678Y4419650D01*
X3383076Y4433468D01*
X3372002Y4446168D01*
X3359607Y4457598D01*
X3346043Y4467555D01*
X3331464Y4475988D01*
X3316020Y4482744D01*
X3299968Y4487773D01*
X3283407Y4491024D01*
X3266643Y4492396D01*
X3249777Y4491939D01*
X3233115Y4489653D01*
X3216757Y4485487D01*
X3201009Y4479594D01*
X3185972Y4471974D01*
X3171850Y4462780D01*
X3158845Y4452061D01*
X3147110Y4439970D01*
X3136798Y4426712D01*
X3127959Y4412335D01*
X3120745Y4397095D01*
X3115310Y4381195D01*
X3111601Y4364736D01*
X3109772Y4347972D01*
X3109772Y4331157D01*
X3111601Y4314393D01*
X3115310Y4297984D01*
X3120745Y4282033D01*
X3127959Y4266793D01*
X3136798Y4252468D01*
X3147110Y4239158D01*
X3158845Y4227068D01*
X3171850Y4216400D01*
X3185972Y4207154D01*
X3201009Y4199534D01*
X3216757Y4193641D01*
X3233115Y4189526D01*
X3249777Y4187190D01*
G37*
G36*
X6721703Y4186732D02*
G01*
X6738518Y4188104D01*
X6755028Y4191355D01*
X6771131Y4196384D01*
X6786524Y4203141D01*
X6801154Y4211574D01*
X6814718Y4221530D01*
X6827113Y4232960D01*
X6838188Y4245660D01*
X6847738Y4259529D01*
X6855764Y4274312D01*
X6862114Y4289907D01*
X6866686Y4306112D01*
X6869480Y4322775D01*
X6870395Y4339590D01*
X6869480Y4356404D01*
X6866686Y4373016D01*
X6862114Y4389221D01*
X6855764Y4404817D01*
X6847738Y4419650D01*
X6838188Y4433468D01*
X6827113Y4446168D01*
X6814718Y4457598D01*
X6801154Y4467555D01*
X6786524Y4475988D01*
X6771131Y4482744D01*
X6755028Y4487773D01*
X6738518Y4491024D01*
X6721703Y4492396D01*
X6704888Y4491939D01*
X6688175Y4489653D01*
X6671868Y4485487D01*
X6656070Y4479594D01*
X6641084Y4471974D01*
X6626961Y4462780D01*
X6613956Y4452061D01*
X6602222Y4439970D01*
X6591858Y4426712D01*
X6583070Y4412335D01*
X6575856Y4397095D01*
X6570370Y4381195D01*
X6566712Y4364736D01*
X6564833Y4347972D01*
X6564833Y4331157D01*
X6566712Y4314393D01*
X6570370Y4297984D01*
X6575856Y4282033D01*
X6583070Y4266793D01*
X6591858Y4252468D01*
X6602222Y4239158D01*
X6613956Y4227068D01*
X6626961Y4216400D01*
X6641084Y4207154D01*
X6656070Y4199534D01*
X6671868Y4193641D01*
X6688175Y4189526D01*
X6704888Y4187190D01*
G37*
G36*
X4701743Y4186732D02*
G01*
X4718507Y4188104D01*
X4735068Y4191355D01*
X4751120Y4196384D01*
X4766564Y4203141D01*
X4781143Y4211574D01*
X4794707Y4221530D01*
X4807102Y4232960D01*
X4818176Y4245660D01*
X4827778Y4259529D01*
X4835804Y4274312D01*
X4842103Y4289907D01*
X4846726Y4306112D01*
X4849469Y4322775D01*
X4850384Y4339590D01*
X4849469Y4356404D01*
X4846726Y4373016D01*
X4842103Y4389221D01*
X4835804Y4404817D01*
X4827778Y4419650D01*
X4818176Y4433468D01*
X4807102Y4446168D01*
X4794707Y4457598D01*
X4781143Y4467555D01*
X4766564Y4475988D01*
X4751120Y4482744D01*
X4735068Y4487773D01*
X4718507Y4491024D01*
X4701743Y4492396D01*
X4684877Y4491939D01*
X4668215Y4489653D01*
X4651857Y4485487D01*
X4636109Y4479594D01*
X4621072Y4471974D01*
X4606950Y4462780D01*
X4593945Y4452061D01*
X4582210Y4439970D01*
X4571847Y4426712D01*
X4563059Y4412335D01*
X4555845Y4397095D01*
X4550410Y4381195D01*
X4546701Y4364736D01*
X4544872Y4347972D01*
X4544872Y4331157D01*
X4546701Y4314393D01*
X4550410Y4297984D01*
X4555845Y4282033D01*
X4563059Y4266793D01*
X4571847Y4252468D01*
X4582210Y4239158D01*
X4593945Y4227068D01*
X4606950Y4216400D01*
X4621072Y4207154D01*
X4636109Y4199534D01*
X4651857Y4193641D01*
X4668215Y4189526D01*
X4684877Y4187190D01*
G37*
G36*
X121716Y4186732D02*
G01*
X138531Y4188104D01*
X155041Y4191355D01*
X171145Y4196384D01*
X186537Y4203141D01*
X201168Y4211574D01*
X214731Y4221530D01*
X227126Y4232960D01*
X238201Y4245660D01*
X247751Y4259529D01*
X255778Y4274312D01*
X262128Y4289907D01*
X266700Y4306112D01*
X269494Y4322775D01*
X270408Y4339590D01*
X269494Y4356404D01*
X266700Y4373016D01*
X262128Y4389221D01*
X255778Y4404817D01*
X247751Y4419650D01*
X238201Y4433468D01*
X227126Y4446168D01*
X214731Y4457598D01*
X201168Y4467555D01*
X186537Y4475988D01*
X171145Y4482744D01*
X155041Y4487773D01*
X138531Y4491024D01*
X121716Y4492396D01*
X104902Y4491939D01*
X88188Y4489653D01*
X77825Y4487011D01*
X74371Y4486757D01*
X71018Y4487672D01*
X68173Y4489653D01*
X-6146Y4563973D01*
X-8331Y4567275D01*
X-9144Y4571136D01*
X-9144Y6238798D01*
X-8331Y6242659D01*
X-6146Y6245961D01*
X52832Y6304940D01*
X56134Y6307175D01*
X60045Y6307937D01*
X63906Y6307175D01*
X72186Y6301841D01*
X77622Y6299911D01*
X83972Y6299200D01*
X300990Y6299200D01*
X307340Y6299911D01*
X312775Y6301841D01*
X317703Y6304889D01*
X321767Y6309004D01*
X324866Y6313881D01*
X326745Y6319367D01*
X327507Y6325666D01*
X327507Y6445707D01*
X326745Y6452006D01*
X324866Y6457492D01*
X321767Y6462369D01*
X317703Y6466484D01*
X312775Y6469532D01*
X307340Y6471462D01*
X300990Y6472174D01*
X83972Y6472174D01*
X77622Y6471462D01*
X72186Y6469532D01*
X67259Y6466484D01*
X63195Y6462369D01*
X60096Y6457492D01*
X58216Y6452006D01*
X57505Y6445707D01*
X57505Y6428130D01*
X56489Y6423761D01*
X53746Y6420256D01*
X46431Y6414211D01*
X-78587Y6289192D01*
X-84023Y6282639D01*
X-87782Y6275578D01*
X-90119Y6267907D01*
X-90932Y6259423D01*
X-90932Y4550511D01*
X-90119Y4542028D01*
X-87782Y4534357D01*
X-84023Y4527296D01*
X-78587Y4520742D01*
X-4165Y4446270D01*
X-2082Y4443272D01*
X-1219Y4439716D01*
X-1625Y4436110D01*
X-3352Y4432858D01*
X-8128Y4426712D01*
X-16916Y4412335D01*
X-24130Y4397095D01*
X-29616Y4381195D01*
X-33274Y4364736D01*
X-35153Y4347972D01*
X-35153Y4331157D01*
X-33274Y4314393D01*
X-29616Y4297984D01*
X-24130Y4282033D01*
X-16916Y4266793D01*
X-8128Y4252468D01*
X2235Y4239158D01*
X13970Y4227068D01*
X26974Y4216400D01*
X41097Y4207154D01*
X56083Y4199534D01*
X71882Y4193641D01*
X88188Y4189526D01*
X104902Y4187190D01*
G37*
G36*
X2161743Y4186732D02*
G01*
X2178507Y4188104D01*
X2195068Y4191355D01*
X2211120Y4196384D01*
X2226564Y4203141D01*
X2241143Y4211574D01*
X2254707Y4221530D01*
X2267102Y4232960D01*
X2278176Y4245660D01*
X2287778Y4259529D01*
X2295804Y4274312D01*
X2302103Y4289907D01*
X2306726Y4306112D01*
X2309469Y4322775D01*
X2310434Y4339590D01*
X2309469Y4356404D01*
X2306726Y4373016D01*
X2302103Y4389221D01*
X2295804Y4404817D01*
X2287778Y4419650D01*
X2278176Y4433468D01*
X2267102Y4446168D01*
X2254707Y4457598D01*
X2241143Y4467555D01*
X2226564Y4475988D01*
X2211120Y4482744D01*
X2195068Y4487773D01*
X2178507Y4491024D01*
X2161743Y4492396D01*
X2144877Y4491939D01*
X2128215Y4489653D01*
X2111857Y4485487D01*
X2095550Y4479290D01*
X2091537Y4478223D01*
X2087473Y4478832D01*
X2083968Y4480966D01*
X2081631Y4484319D01*
X2080768Y4488383D01*
X2080768Y6168694D01*
X2081580Y6172555D01*
X2083765Y6175857D01*
X2214168Y6306261D01*
X2217470Y6308445D01*
X2221331Y6309207D01*
X2225243Y6308445D01*
X2228545Y6306261D01*
X2229866Y6304889D01*
X2234793Y6301841D01*
X2240229Y6299911D01*
X2246579Y6299200D01*
X2463596Y6299200D01*
X2469946Y6299911D01*
X2475382Y6301841D01*
X2480310Y6304889D01*
X2484374Y6309004D01*
X2487472Y6313881D01*
X2489352Y6319367D01*
X2490114Y6325666D01*
X2490114Y6445707D01*
X2489352Y6452006D01*
X2487472Y6457492D01*
X2484374Y6462369D01*
X2480310Y6466484D01*
X2475382Y6469532D01*
X2469946Y6471462D01*
X2463596Y6472174D01*
X2246579Y6472174D01*
X2240229Y6471462D01*
X2234793Y6469532D01*
X2229866Y6466484D01*
X2225802Y6462369D01*
X2222703Y6457492D01*
X2220823Y6452006D01*
X2220112Y6445707D01*
X2220112Y6429502D01*
X2219452Y6425946D01*
X2217572Y6422796D01*
X2213000Y6419646D01*
X2206447Y6414211D01*
X2011324Y6219088D01*
X2005888Y6212535D01*
X2002129Y6205474D01*
X1999792Y6197803D01*
X1998980Y6189319D01*
X1998980Y4457547D01*
X1999792Y4449064D01*
X2002129Y4441393D01*
X2005888Y4434332D01*
X2011273Y4427778D01*
X2019147Y4419904D01*
X2021433Y4416450D01*
X2022144Y4412386D01*
X2021179Y4408373D01*
X2015845Y4397095D01*
X2010410Y4381195D01*
X2006701Y4364736D01*
X2004872Y4347972D01*
X2004872Y4331157D01*
X2006701Y4314393D01*
X2010410Y4297984D01*
X2015845Y4282033D01*
X2023059Y4266793D01*
X2031898Y4252468D01*
X2042210Y4239158D01*
X2053945Y4227068D01*
X2066950Y4216400D01*
X2081072Y4207154D01*
X2096109Y4199534D01*
X2111857Y4193641D01*
X2128215Y4189526D01*
X2144877Y4187190D01*
G37*
G36*
X1089456Y4519472D02*
G01*
X1106271Y4520844D01*
X1122781Y4524095D01*
X1138885Y4529124D01*
X1154277Y4535881D01*
X1168908Y4544314D01*
X1182471Y4554270D01*
X1194866Y4565700D01*
X1205941Y4578400D01*
X1215491Y4592269D01*
X1223518Y4607052D01*
X1229868Y4622647D01*
X1234440Y4638852D01*
X1237234Y4655515D01*
X1238148Y4672330D01*
X1237234Y4689144D01*
X1234440Y4705756D01*
X1229868Y4721961D01*
X1223518Y4737557D01*
X1215491Y4752390D01*
X1205941Y4766208D01*
X1194866Y4778908D01*
X1182471Y4790338D01*
X1168908Y4800295D01*
X1154277Y4808728D01*
X1138885Y4815484D01*
X1122781Y4820513D01*
X1106271Y4823764D01*
X1089456Y4825136D01*
X1072642Y4824679D01*
X1055928Y4822393D01*
X1039621Y4818227D01*
X1023823Y4812334D01*
X1008837Y4804714D01*
X994714Y4795520D01*
X981710Y4784801D01*
X969975Y4772710D01*
X959612Y4759452D01*
X950823Y4745075D01*
X943610Y4729835D01*
X938123Y4713935D01*
X934466Y4697476D01*
X932586Y4680712D01*
X932586Y4663897D01*
X934466Y4647133D01*
X938123Y4630724D01*
X943610Y4614773D01*
X950823Y4599533D01*
X959612Y4585208D01*
X969975Y4571898D01*
X981710Y4559808D01*
X994714Y4549140D01*
X1008837Y4539894D01*
X1023823Y4532274D01*
X1039621Y4526381D01*
X1055928Y4522266D01*
X1072642Y4519930D01*
G37*
G36*
X3129483Y4519472D02*
G01*
X3146247Y4520844D01*
X3162808Y4524095D01*
X3178860Y4529124D01*
X3194304Y4535881D01*
X3208883Y4544314D01*
X3222447Y4554270D01*
X3234842Y4565700D01*
X3245916Y4578400D01*
X3255517Y4592269D01*
X3263544Y4607052D01*
X3269843Y4622647D01*
X3274466Y4638852D01*
X3277209Y4655515D01*
X3278174Y4672330D01*
X3277209Y4689144D01*
X3274466Y4705756D01*
X3269843Y4721961D01*
X3263544Y4737557D01*
X3255517Y4752390D01*
X3245916Y4766208D01*
X3234842Y4778908D01*
X3222447Y4790338D01*
X3208883Y4800295D01*
X3194304Y4808728D01*
X3178860Y4815484D01*
X3162808Y4820513D01*
X3146247Y4823764D01*
X3129483Y4825136D01*
X3112617Y4824679D01*
X3095955Y4822393D01*
X3079597Y4818227D01*
X3063849Y4812334D01*
X3048812Y4804714D01*
X3034690Y4795520D01*
X3021685Y4784801D01*
X3009950Y4772710D01*
X2999638Y4759452D01*
X2990799Y4745075D01*
X2983585Y4729835D01*
X2978150Y4713935D01*
X2974441Y4697476D01*
X2972612Y4680712D01*
X2972612Y4663897D01*
X2974441Y4647133D01*
X2978150Y4630724D01*
X2983585Y4614773D01*
X2990799Y4599533D01*
X2999638Y4585208D01*
X3009950Y4571898D01*
X3021685Y4559808D01*
X3034690Y4549140D01*
X3048812Y4539894D01*
X3063849Y4532274D01*
X3079597Y4526381D01*
X3095955Y4522266D01*
X3112617Y4519930D01*
G37*
G36*
X2329383Y4519472D02*
G01*
X2346147Y4520844D01*
X2362708Y4524095D01*
X2378760Y4529124D01*
X2394204Y4535881D01*
X2408783Y4544314D01*
X2422347Y4554270D01*
X2434742Y4565700D01*
X2445816Y4578400D01*
X2455418Y4592269D01*
X2463444Y4607052D01*
X2469743Y4622647D01*
X2474366Y4638852D01*
X2477109Y4655515D01*
X2478074Y4672330D01*
X2477109Y4689144D01*
X2474366Y4705756D01*
X2469743Y4721961D01*
X2463444Y4737557D01*
X2455418Y4752390D01*
X2445816Y4766208D01*
X2434742Y4778908D01*
X2422347Y4790338D01*
X2408783Y4800295D01*
X2394204Y4808728D01*
X2378760Y4815484D01*
X2362708Y4820513D01*
X2346147Y4823764D01*
X2329383Y4825136D01*
X2312517Y4824679D01*
X2295855Y4822393D01*
X2279497Y4818227D01*
X2263749Y4812334D01*
X2248712Y4804714D01*
X2234590Y4795520D01*
X2221585Y4784801D01*
X2209850Y4772710D01*
X2199538Y4759452D01*
X2190699Y4745075D01*
X2183485Y4729835D01*
X2178050Y4713935D01*
X2174341Y4697476D01*
X2172512Y4680712D01*
X2172512Y4663897D01*
X2174341Y4647133D01*
X2178050Y4630724D01*
X2183485Y4614773D01*
X2190699Y4599533D01*
X2199538Y4585208D01*
X2209850Y4571898D01*
X2221585Y4559808D01*
X2234590Y4549140D01*
X2248712Y4539894D01*
X2263749Y4532274D01*
X2279497Y4526381D01*
X2295855Y4522266D01*
X2312517Y4519930D01*
G37*
G36*
X289356Y4519472D02*
G01*
X306171Y4520844D01*
X322681Y4524095D01*
X338785Y4529124D01*
X354177Y4535881D01*
X368808Y4544314D01*
X382371Y4554270D01*
X394766Y4565700D01*
X405841Y4578400D01*
X415391Y4592269D01*
X423418Y4607052D01*
X429768Y4622647D01*
X434340Y4638852D01*
X437134Y4655515D01*
X438048Y4672330D01*
X437134Y4689144D01*
X434340Y4705756D01*
X429768Y4721961D01*
X423418Y4737557D01*
X415391Y4752390D01*
X405841Y4766208D01*
X394766Y4778908D01*
X382371Y4790338D01*
X368808Y4800295D01*
X354177Y4808728D01*
X338785Y4815484D01*
X322681Y4820513D01*
X306171Y4823764D01*
X289356Y4825136D01*
X272542Y4824679D01*
X255828Y4822393D01*
X239521Y4818227D01*
X223723Y4812334D01*
X208737Y4804714D01*
X194614Y4795520D01*
X181610Y4784801D01*
X169875Y4772710D01*
X159512Y4759452D01*
X150723Y4745075D01*
X143510Y4729835D01*
X138023Y4713935D01*
X134366Y4697476D01*
X132486Y4680712D01*
X132486Y4663897D01*
X134366Y4647133D01*
X138023Y4630724D01*
X143510Y4614773D01*
X150723Y4599533D01*
X159512Y4585208D01*
X169875Y4571898D01*
X181610Y4559808D01*
X194614Y4549140D01*
X208737Y4539894D01*
X223723Y4532274D01*
X239521Y4526381D01*
X255828Y4522266D01*
X272542Y4519930D01*
G37*
G36*
X2730703Y4618532D02*
G01*
X2747467Y4619904D01*
X2764028Y4623155D01*
X2780080Y4628184D01*
X2795524Y4634941D01*
X2810103Y4643374D01*
X2823667Y4653330D01*
X2836062Y4664760D01*
X2847136Y4677460D01*
X2856738Y4691329D01*
X2864764Y4706112D01*
X2871063Y4721707D01*
X2875686Y4737912D01*
X2878429Y4754575D01*
X2879394Y4771390D01*
X2878429Y4788204D01*
X2875686Y4804816D01*
X2871063Y4821021D01*
X2864764Y4836617D01*
X2856738Y4851450D01*
X2847136Y4865268D01*
X2836062Y4877968D01*
X2823667Y4889398D01*
X2810103Y4899355D01*
X2795524Y4907788D01*
X2780080Y4914544D01*
X2764028Y4919573D01*
X2747467Y4922824D01*
X2730703Y4924196D01*
X2713837Y4923739D01*
X2697175Y4921453D01*
X2680817Y4917287D01*
X2665069Y4911394D01*
X2650032Y4903774D01*
X2635910Y4894580D01*
X2622905Y4883861D01*
X2611170Y4871770D01*
X2600858Y4858512D01*
X2592019Y4844135D01*
X2584805Y4828895D01*
X2579370Y4812995D01*
X2575661Y4796536D01*
X2573832Y4779772D01*
X2573832Y4762957D01*
X2575661Y4746193D01*
X2579370Y4729784D01*
X2584805Y4713833D01*
X2592019Y4698593D01*
X2600858Y4684268D01*
X2611170Y4670958D01*
X2622905Y4658868D01*
X2635910Y4648200D01*
X2650032Y4638954D01*
X2665069Y4631334D01*
X2680817Y4625441D01*
X2697175Y4621326D01*
X2713837Y4618990D01*
G37*
G36*
X690676Y4618532D02*
G01*
X707491Y4619904D01*
X724001Y4623155D01*
X740105Y4628184D01*
X755497Y4634941D01*
X770128Y4643374D01*
X783691Y4653330D01*
X796086Y4664760D01*
X807161Y4677460D01*
X816711Y4691329D01*
X824737Y4706112D01*
X831087Y4721707D01*
X835660Y4737912D01*
X838453Y4754575D01*
X839368Y4771390D01*
X838453Y4788204D01*
X835660Y4804816D01*
X831087Y4821021D01*
X824737Y4836617D01*
X816711Y4851450D01*
X807161Y4865268D01*
X796086Y4877968D01*
X783691Y4889398D01*
X770128Y4899355D01*
X755497Y4907788D01*
X740105Y4914544D01*
X724001Y4919573D01*
X707491Y4922824D01*
X690676Y4924196D01*
X673862Y4923739D01*
X657148Y4921453D01*
X640842Y4917287D01*
X625043Y4911394D01*
X610057Y4903774D01*
X595934Y4894580D01*
X582930Y4883861D01*
X571195Y4871770D01*
X560832Y4858512D01*
X552043Y4844135D01*
X544830Y4828895D01*
X539343Y4812995D01*
X535686Y4796536D01*
X533806Y4779772D01*
X533806Y4762957D01*
X535686Y4746193D01*
X539343Y4729784D01*
X544830Y4713833D01*
X552043Y4698593D01*
X560832Y4684268D01*
X571195Y4670958D01*
X582930Y4658868D01*
X595934Y4648200D01*
X610057Y4638954D01*
X625043Y4631334D01*
X640842Y4625441D01*
X657148Y4621326D01*
X673862Y4618990D01*
G37*
G36*
X3008579Y5537200D02*
G01*
X3225596Y5537200D01*
X3231946Y5537911D01*
X3237382Y5539841D01*
X3242310Y5542889D01*
X3246374Y5547004D01*
X3249472Y5551881D01*
X3251352Y5557367D01*
X3252114Y5563666D01*
X3252114Y5683707D01*
X3251352Y5690006D01*
X3249472Y5695492D01*
X3246374Y5700369D01*
X3242310Y5704484D01*
X3237382Y5707532D01*
X3231946Y5709462D01*
X3225596Y5710174D01*
X3008579Y5710174D01*
X3002229Y5709462D01*
X2996793Y5707532D01*
X2991866Y5704484D01*
X2987802Y5700369D01*
X2984703Y5695492D01*
X2982823Y5690006D01*
X2982112Y5683707D01*
X2982112Y5563666D01*
X2982823Y5557367D01*
X2984703Y5551881D01*
X2987802Y5547004D01*
X2991866Y5542889D01*
X2996793Y5539841D01*
X3002229Y5537911D01*
G37*
G36*
X2246579Y5537200D02*
G01*
X2463596Y5537200D01*
X2469946Y5537911D01*
X2475382Y5539841D01*
X2480310Y5542889D01*
X2484374Y5547004D01*
X2487472Y5551881D01*
X2489352Y5557367D01*
X2490114Y5563666D01*
X2490114Y5683707D01*
X2489352Y5690006D01*
X2487472Y5695492D01*
X2484374Y5700369D01*
X2480310Y5704484D01*
X2475382Y5707532D01*
X2469946Y5709462D01*
X2463596Y5710174D01*
X2246579Y5710174D01*
X2240229Y5709462D01*
X2234793Y5707532D01*
X2229866Y5704484D01*
X2225802Y5700369D01*
X2222703Y5695492D01*
X2220823Y5690006D01*
X2220112Y5683707D01*
X2220112Y5563666D01*
X2220823Y5557367D01*
X2222703Y5551881D01*
X2225802Y5547004D01*
X2229866Y5542889D01*
X2234793Y5539841D01*
X2240229Y5537911D01*
G37*
G36*
X6793179Y5537200D02*
G01*
X7010196Y5537200D01*
X7016546Y5537911D01*
X7021982Y5539841D01*
X7026909Y5542889D01*
X7030974Y5547004D01*
X7034072Y5551881D01*
X7035952Y5557367D01*
X7036714Y5563666D01*
X7036714Y5683707D01*
X7035952Y5690006D01*
X7034072Y5695492D01*
X7030974Y5700369D01*
X7026909Y5704484D01*
X7021982Y5707532D01*
X7016546Y5709462D01*
X7010196Y5710174D01*
X6793179Y5710174D01*
X6786829Y5709462D01*
X6781393Y5707532D01*
X6776466Y5704484D01*
X6772402Y5700369D01*
X6769303Y5695492D01*
X6767423Y5690006D01*
X6766712Y5683707D01*
X6766712Y5563666D01*
X6767423Y5557367D01*
X6769303Y5551881D01*
X6772402Y5547004D01*
X6776466Y5542889D01*
X6781393Y5539841D01*
X6786829Y5537911D01*
G37*
G36*
X4748479Y5537200D02*
G01*
X4965496Y5537200D01*
X4971846Y5537911D01*
X4977282Y5539841D01*
X4982210Y5542889D01*
X4986274Y5547004D01*
X4989372Y5551881D01*
X4991252Y5557367D01*
X4992014Y5563666D01*
X4992014Y5683707D01*
X4991252Y5690006D01*
X4989372Y5695492D01*
X4986274Y5700369D01*
X4982210Y5704484D01*
X4977282Y5707532D01*
X4971846Y5709462D01*
X4965496Y5710174D01*
X4748479Y5710174D01*
X4742129Y5709462D01*
X4736693Y5707532D01*
X4731766Y5704484D01*
X4727702Y5700369D01*
X4724603Y5695492D01*
X4722723Y5690006D01*
X4722012Y5683707D01*
X4722012Y5563666D01*
X4722723Y5557367D01*
X4724603Y5551881D01*
X4727702Y5547004D01*
X4731766Y5542889D01*
X4736693Y5539841D01*
X4742129Y5537911D01*
G37*
G36*
X83972Y5537200D02*
G01*
X300990Y5537200D01*
X307340Y5537911D01*
X312775Y5539841D01*
X317703Y5542889D01*
X321767Y5547004D01*
X324866Y5551881D01*
X326745Y5557367D01*
X327507Y5563666D01*
X327507Y5683707D01*
X326745Y5690006D01*
X324866Y5695492D01*
X321767Y5700369D01*
X317703Y5704484D01*
X312775Y5707532D01*
X307340Y5709462D01*
X300990Y5710174D01*
X83972Y5710174D01*
X77622Y5709462D01*
X72186Y5707532D01*
X67259Y5704484D01*
X63195Y5700369D01*
X60096Y5695492D01*
X58216Y5690006D01*
X57505Y5683707D01*
X57505Y5563666D01*
X58216Y5557367D01*
X60096Y5551881D01*
X63195Y5547004D01*
X67259Y5542889D01*
X72186Y5539841D01*
X77622Y5537911D01*
G37*
G36*
X845972Y5537200D02*
G01*
X1062990Y5537200D01*
X1069340Y5537911D01*
X1074775Y5539841D01*
X1079703Y5542889D01*
X1083767Y5547004D01*
X1086866Y5551881D01*
X1088745Y5557367D01*
X1089507Y5563666D01*
X1089507Y5683707D01*
X1088745Y5690006D01*
X1086866Y5695492D01*
X1083767Y5700369D01*
X1079703Y5704484D01*
X1074775Y5707532D01*
X1069340Y5709462D01*
X1062990Y5710174D01*
X845972Y5710174D01*
X839622Y5709462D01*
X834186Y5707532D01*
X829259Y5704484D01*
X825195Y5700369D01*
X822096Y5695492D01*
X820216Y5690006D01*
X819505Y5683707D01*
X819505Y5563666D01*
X820216Y5557367D01*
X822096Y5551881D01*
X825195Y5547004D01*
X829259Y5542889D01*
X834186Y5539841D01*
X839622Y5537911D01*
G37*
G36*
X7555179Y5537200D02*
G01*
X7772196Y5537200D01*
X7778546Y5537911D01*
X7783982Y5539841D01*
X7788909Y5542889D01*
X7792974Y5547004D01*
X7796072Y5551881D01*
X7797952Y5557367D01*
X7798714Y5563666D01*
X7798714Y5683707D01*
X7797952Y5690006D01*
X7796072Y5695492D01*
X7792974Y5700369D01*
X7788909Y5704484D01*
X7783982Y5707532D01*
X7778546Y5709462D01*
X7772196Y5710174D01*
X7555179Y5710174D01*
X7548829Y5709462D01*
X7543393Y5707532D01*
X7538466Y5704484D01*
X7534402Y5700369D01*
X7531303Y5695492D01*
X7529423Y5690006D01*
X7528712Y5683707D01*
X7528712Y5563666D01*
X7529423Y5557367D01*
X7531303Y5551881D01*
X7534402Y5547004D01*
X7538466Y5542889D01*
X7543393Y5539841D01*
X7548829Y5537911D01*
G37*
G36*
X5510479Y5537200D02*
G01*
X5727496Y5537200D01*
X5733846Y5537911D01*
X5739282Y5539841D01*
X5744210Y5542889D01*
X5748274Y5547004D01*
X5751372Y5551881D01*
X5753252Y5557367D01*
X5754014Y5563666D01*
X5754014Y5683707D01*
X5753252Y5690006D01*
X5751372Y5695492D01*
X5748274Y5700369D01*
X5744210Y5704484D01*
X5739282Y5707532D01*
X5733846Y5709462D01*
X5727496Y5710174D01*
X5510479Y5710174D01*
X5504129Y5709462D01*
X5498693Y5707532D01*
X5493766Y5704484D01*
X5489702Y5700369D01*
X5486603Y5695492D01*
X5484723Y5690006D01*
X5484012Y5683707D01*
X5484012Y5563666D01*
X5484723Y5557367D01*
X5486603Y5551881D01*
X5489702Y5547004D01*
X5493766Y5542889D01*
X5498693Y5539841D01*
X5504129Y5537911D01*
G37*
G36*
X7555179Y5791200D02*
G01*
X7772196Y5791200D01*
X7778546Y5791911D01*
X7783982Y5793841D01*
X7788909Y5796889D01*
X7792974Y5801004D01*
X7796072Y5805881D01*
X7797952Y5811367D01*
X7798714Y5817666D01*
X7798714Y5937707D01*
X7797952Y5944006D01*
X7796072Y5949492D01*
X7792974Y5954369D01*
X7788909Y5958484D01*
X7783982Y5961532D01*
X7778546Y5963462D01*
X7772196Y5964174D01*
X7555179Y5964174D01*
X7548829Y5963462D01*
X7543393Y5961532D01*
X7538466Y5958484D01*
X7534402Y5954369D01*
X7531303Y5949492D01*
X7529423Y5944006D01*
X7528712Y5937707D01*
X7528712Y5817666D01*
X7529423Y5811367D01*
X7531303Y5805881D01*
X7534402Y5801004D01*
X7538466Y5796889D01*
X7543393Y5793841D01*
X7548829Y5791911D01*
G37*
G36*
X2246579Y5791200D02*
G01*
X2463596Y5791200D01*
X2469946Y5791911D01*
X2475382Y5793841D01*
X2480310Y5796889D01*
X2484374Y5801004D01*
X2487472Y5805881D01*
X2489352Y5811367D01*
X2490114Y5817666D01*
X2490114Y5937707D01*
X2489352Y5944006D01*
X2487472Y5949492D01*
X2484374Y5954369D01*
X2480310Y5958484D01*
X2475382Y5961532D01*
X2469946Y5963462D01*
X2463596Y5964174D01*
X2246579Y5964174D01*
X2240229Y5963462D01*
X2234793Y5961532D01*
X2229866Y5958484D01*
X2225802Y5954369D01*
X2222703Y5949492D01*
X2220823Y5944006D01*
X2220112Y5937707D01*
X2220112Y5817666D01*
X2220823Y5811367D01*
X2222703Y5805881D01*
X2225802Y5801004D01*
X2229866Y5796889D01*
X2234793Y5793841D01*
X2240229Y5791911D01*
G37*
G36*
X3008579Y5791200D02*
G01*
X3225596Y5791200D01*
X3231946Y5791911D01*
X3237382Y5793841D01*
X3242310Y5796889D01*
X3246374Y5801004D01*
X3249472Y5805881D01*
X3251352Y5811367D01*
X3252114Y5817666D01*
X3252114Y5937707D01*
X3251352Y5944006D01*
X3249472Y5949492D01*
X3246374Y5954369D01*
X3242310Y5958484D01*
X3237382Y5961532D01*
X3231946Y5963462D01*
X3225596Y5964174D01*
X3008579Y5964174D01*
X3002229Y5963462D01*
X2996793Y5961532D01*
X2991866Y5958484D01*
X2987802Y5954369D01*
X2984703Y5949492D01*
X2982823Y5944006D01*
X2982112Y5937707D01*
X2982112Y5817666D01*
X2982823Y5811367D01*
X2984703Y5805881D01*
X2987802Y5801004D01*
X2991866Y5796889D01*
X2996793Y5793841D01*
X3002229Y5791911D01*
G37*
G36*
X845972Y5791200D02*
G01*
X1062990Y5791200D01*
X1069340Y5791911D01*
X1074775Y5793841D01*
X1079703Y5796889D01*
X1083767Y5801004D01*
X1086866Y5805881D01*
X1088745Y5811367D01*
X1089507Y5817666D01*
X1089507Y5937707D01*
X1088745Y5944006D01*
X1086866Y5949492D01*
X1083767Y5954369D01*
X1079703Y5958484D01*
X1074775Y5961532D01*
X1069340Y5963462D01*
X1062990Y5964174D01*
X845972Y5964174D01*
X839622Y5963462D01*
X834186Y5961532D01*
X829259Y5958484D01*
X825195Y5954369D01*
X822096Y5949492D01*
X820216Y5944006D01*
X819505Y5937707D01*
X819505Y5817666D01*
X820216Y5811367D01*
X822096Y5805881D01*
X825195Y5801004D01*
X829259Y5796889D01*
X834186Y5793841D01*
X839622Y5791911D01*
G37*
G36*
X5510479Y5791200D02*
G01*
X5727496Y5791200D01*
X5733846Y5791911D01*
X5739282Y5793841D01*
X5744210Y5796889D01*
X5748274Y5801004D01*
X5751372Y5805881D01*
X5753252Y5811367D01*
X5754014Y5817666D01*
X5754014Y5937707D01*
X5753252Y5944006D01*
X5751372Y5949492D01*
X5748274Y5954369D01*
X5744210Y5958484D01*
X5739282Y5961532D01*
X5733846Y5963462D01*
X5727496Y5964174D01*
X5510479Y5964174D01*
X5504129Y5963462D01*
X5498693Y5961532D01*
X5493766Y5958484D01*
X5489702Y5954369D01*
X5486603Y5949492D01*
X5484723Y5944006D01*
X5484012Y5937707D01*
X5484012Y5817666D01*
X5484723Y5811367D01*
X5486603Y5805881D01*
X5489702Y5801004D01*
X5493766Y5796889D01*
X5498693Y5793841D01*
X5504129Y5791911D01*
G37*
G36*
X83972Y5791200D02*
G01*
X300990Y5791200D01*
X307340Y5791911D01*
X312775Y5793841D01*
X317703Y5796889D01*
X321767Y5801004D01*
X324866Y5805881D01*
X326745Y5811367D01*
X327507Y5817666D01*
X327507Y5937707D01*
X326745Y5944006D01*
X324866Y5949492D01*
X321767Y5954369D01*
X317703Y5958484D01*
X312775Y5961532D01*
X307340Y5963462D01*
X300990Y5964174D01*
X83972Y5964174D01*
X77622Y5963462D01*
X72186Y5961532D01*
X67259Y5958484D01*
X63195Y5954369D01*
X60096Y5949492D01*
X58216Y5944006D01*
X57505Y5937707D01*
X57505Y5817666D01*
X58216Y5811367D01*
X60096Y5805881D01*
X63195Y5801004D01*
X67259Y5796889D01*
X72186Y5793841D01*
X77622Y5791911D01*
G37*
G36*
X4748479Y6045200D02*
G01*
X4965496Y6045200D01*
X4971846Y6045911D01*
X4977282Y6047841D01*
X4982210Y6050889D01*
X4986274Y6055004D01*
X4989372Y6059881D01*
X4991252Y6065367D01*
X4992014Y6071666D01*
X4992014Y6191707D01*
X4991252Y6198006D01*
X4989372Y6203492D01*
X4986274Y6208369D01*
X4982210Y6212484D01*
X4977282Y6215532D01*
X4971846Y6217462D01*
X4965496Y6218174D01*
X4748479Y6218174D01*
X4742129Y6217462D01*
X4736693Y6215532D01*
X4731766Y6212484D01*
X4727702Y6208369D01*
X4724603Y6203492D01*
X4722723Y6198006D01*
X4722012Y6191707D01*
X4722012Y6071666D01*
X4722723Y6065367D01*
X4724603Y6059881D01*
X4727702Y6055004D01*
X4731766Y6050889D01*
X4736693Y6047841D01*
X4742129Y6045911D01*
G37*
G36*
X2246579Y6045200D02*
G01*
X2463596Y6045200D01*
X2469946Y6045911D01*
X2475382Y6047841D01*
X2480310Y6050889D01*
X2484374Y6055004D01*
X2487472Y6059881D01*
X2489352Y6065367D01*
X2490114Y6071666D01*
X2490114Y6191707D01*
X2489352Y6198006D01*
X2487472Y6203492D01*
X2484374Y6208369D01*
X2480310Y6212484D01*
X2475382Y6215532D01*
X2469946Y6217462D01*
X2463596Y6218174D01*
X2246579Y6218174D01*
X2240229Y6217462D01*
X2234793Y6215532D01*
X2229866Y6212484D01*
X2225802Y6208369D01*
X2222703Y6203492D01*
X2220823Y6198006D01*
X2220112Y6191707D01*
X2220112Y6071666D01*
X2220823Y6065367D01*
X2222703Y6059881D01*
X2225802Y6055004D01*
X2229866Y6050889D01*
X2234793Y6047841D01*
X2240229Y6045911D01*
G37*
G36*
X6793179Y6045200D02*
G01*
X7010196Y6045200D01*
X7016546Y6045911D01*
X7021982Y6047841D01*
X7026909Y6050889D01*
X7030974Y6055004D01*
X7034072Y6059881D01*
X7035952Y6065367D01*
X7036714Y6071666D01*
X7036714Y6191707D01*
X7035952Y6198006D01*
X7034072Y6203492D01*
X7030974Y6208369D01*
X7026909Y6212484D01*
X7021982Y6215532D01*
X7016546Y6217462D01*
X7010196Y6218174D01*
X6793179Y6218174D01*
X6786829Y6217462D01*
X6781393Y6215532D01*
X6776466Y6212484D01*
X6772402Y6208369D01*
X6769303Y6203492D01*
X6767423Y6198006D01*
X6766712Y6191707D01*
X6766712Y6071666D01*
X6767423Y6065367D01*
X6769303Y6059881D01*
X6772402Y6055004D01*
X6776466Y6050889D01*
X6781393Y6047841D01*
X6786829Y6045911D01*
G37*
G36*
X7555179Y6045200D02*
G01*
X7772196Y6045200D01*
X7778546Y6045911D01*
X7783982Y6047841D01*
X7788909Y6050889D01*
X7792974Y6055004D01*
X7796072Y6059881D01*
X7797952Y6065367D01*
X7798714Y6071666D01*
X7798714Y6191707D01*
X7797952Y6198006D01*
X7796072Y6203492D01*
X7792974Y6208369D01*
X7788909Y6212484D01*
X7783982Y6215532D01*
X7778546Y6217462D01*
X7772196Y6218174D01*
X7555179Y6218174D01*
X7548829Y6217462D01*
X7543393Y6215532D01*
X7538466Y6212484D01*
X7534402Y6208369D01*
X7531303Y6203492D01*
X7529423Y6198006D01*
X7528712Y6191707D01*
X7528712Y6071666D01*
X7529423Y6065367D01*
X7531303Y6059881D01*
X7534402Y6055004D01*
X7538466Y6050889D01*
X7543393Y6047841D01*
X7548829Y6045911D01*
G37*
G36*
X845972Y6045200D02*
G01*
X1062990Y6045200D01*
X1069340Y6045911D01*
X1074775Y6047841D01*
X1079703Y6050889D01*
X1083767Y6055004D01*
X1086866Y6059881D01*
X1088745Y6065367D01*
X1089507Y6071666D01*
X1089507Y6191707D01*
X1088745Y6198006D01*
X1086866Y6203492D01*
X1083767Y6208369D01*
X1079703Y6212484D01*
X1074775Y6215532D01*
X1069340Y6217462D01*
X1062990Y6218174D01*
X845972Y6218174D01*
X839622Y6217462D01*
X834186Y6215532D01*
X829259Y6212484D01*
X825195Y6208369D01*
X822096Y6203492D01*
X820216Y6198006D01*
X819505Y6191707D01*
X819505Y6071666D01*
X820216Y6065367D01*
X822096Y6059881D01*
X825195Y6055004D01*
X829259Y6050889D01*
X834186Y6047841D01*
X839622Y6045911D01*
G37*
G36*
X3008579Y6045200D02*
G01*
X3225596Y6045200D01*
X3231946Y6045911D01*
X3237382Y6047841D01*
X3242310Y6050889D01*
X3246374Y6055004D01*
X3249472Y6059881D01*
X3251352Y6065367D01*
X3252114Y6071666D01*
X3252114Y6191707D01*
X3251352Y6198006D01*
X3249472Y6203492D01*
X3246374Y6208369D01*
X3242310Y6212484D01*
X3237382Y6215532D01*
X3231946Y6217462D01*
X3225596Y6218174D01*
X3008579Y6218174D01*
X3002229Y6217462D01*
X2996793Y6215532D01*
X2991866Y6212484D01*
X2987802Y6208369D01*
X2984703Y6203492D01*
X2982823Y6198006D01*
X2982112Y6191707D01*
X2982112Y6071666D01*
X2982823Y6065367D01*
X2984703Y6059881D01*
X2987802Y6055004D01*
X2991866Y6050889D01*
X2996793Y6047841D01*
X3002229Y6045911D01*
G37*
G36*
X83972Y6045200D02*
G01*
X300990Y6045200D01*
X307340Y6045911D01*
X312775Y6047841D01*
X317703Y6050889D01*
X321767Y6055004D01*
X324866Y6059881D01*
X326745Y6065367D01*
X327507Y6071666D01*
X327507Y6191707D01*
X326745Y6198006D01*
X324866Y6203492D01*
X321767Y6208369D01*
X317703Y6212484D01*
X312775Y6215532D01*
X307340Y6217462D01*
X300990Y6218174D01*
X83972Y6218174D01*
X77622Y6217462D01*
X72186Y6215532D01*
X67259Y6212484D01*
X63195Y6208369D01*
X60096Y6203492D01*
X58216Y6198006D01*
X57505Y6191707D01*
X57505Y6071666D01*
X58216Y6065367D01*
X60096Y6059881D01*
X63195Y6055004D01*
X67259Y6050889D01*
X72186Y6047841D01*
X77622Y6045911D01*
G37*
G36*
X5510479Y6045200D02*
G01*
X5727496Y6045200D01*
X5733846Y6045911D01*
X5739282Y6047841D01*
X5744210Y6050889D01*
X5748274Y6055004D01*
X5751372Y6059881D01*
X5753252Y6065367D01*
X5754014Y6071666D01*
X5754014Y6191707D01*
X5753252Y6198006D01*
X5751372Y6203492D01*
X5748274Y6208369D01*
X5744210Y6212484D01*
X5739282Y6215532D01*
X5733846Y6217462D01*
X5727496Y6218174D01*
X5510479Y6218174D01*
X5504129Y6217462D01*
X5498693Y6215532D01*
X5493766Y6212484D01*
X5489702Y6208369D01*
X5486603Y6203492D01*
X5484723Y6198006D01*
X5484012Y6191707D01*
X5484012Y6071666D01*
X5484723Y6065367D01*
X5486603Y6059881D01*
X5489702Y6055004D01*
X5493766Y6050889D01*
X5498693Y6047841D01*
X5504129Y6045911D01*
G37*
G36*
X4748479Y6299200D02*
G01*
X4965496Y6299200D01*
X4971846Y6299911D01*
X4977282Y6301841D01*
X4982210Y6304889D01*
X4986274Y6309004D01*
X4989372Y6313881D01*
X4991252Y6319367D01*
X4992014Y6325666D01*
X4992014Y6445707D01*
X4991252Y6452006D01*
X4989372Y6457492D01*
X4986274Y6462369D01*
X4982210Y6466484D01*
X4977282Y6469532D01*
X4971846Y6471462D01*
X4965496Y6472174D01*
X4748479Y6472174D01*
X4742129Y6471462D01*
X4736693Y6469532D01*
X4731766Y6466484D01*
X4727702Y6462369D01*
X4724603Y6457492D01*
X4722723Y6452006D01*
X4722012Y6445707D01*
X4722012Y6325666D01*
X4722723Y6319367D01*
X4724603Y6313881D01*
X4727702Y6309004D01*
X4731766Y6304889D01*
X4736693Y6301841D01*
X4742129Y6299911D01*
G37*
G36*
X6793179Y6299200D02*
G01*
X7010196Y6299200D01*
X7016546Y6299911D01*
X7021982Y6301841D01*
X7026909Y6304889D01*
X7030974Y6309004D01*
X7034072Y6313881D01*
X7035952Y6319367D01*
X7036714Y6325666D01*
X7036714Y6445707D01*
X7035952Y6452006D01*
X7034072Y6457492D01*
X7030974Y6462369D01*
X7026909Y6466484D01*
X7021982Y6469532D01*
X7016546Y6471462D01*
X7010196Y6472174D01*
X6793179Y6472174D01*
X6786829Y6471462D01*
X6781393Y6469532D01*
X6776466Y6466484D01*
X6772402Y6462369D01*
X6769303Y6457492D01*
X6767423Y6452006D01*
X6766712Y6445707D01*
X6766712Y6325666D01*
X6767423Y6319367D01*
X6769303Y6313881D01*
X6772402Y6309004D01*
X6776466Y6304889D01*
X6781393Y6301841D01*
X6786829Y6299911D01*
G37*
G36*
X5510479Y6299200D02*
G01*
X5727496Y6299200D01*
X5733846Y6299911D01*
X5739282Y6301841D01*
X5744210Y6304889D01*
X5748274Y6309004D01*
X5751372Y6313881D01*
X5753252Y6319367D01*
X5754014Y6325666D01*
X5754014Y6445707D01*
X5753252Y6452006D01*
X5751372Y6457492D01*
X5748274Y6462369D01*
X5744210Y6466484D01*
X5739282Y6469532D01*
X5733846Y6471462D01*
X5727496Y6472174D01*
X5510479Y6472174D01*
X5504129Y6471462D01*
X5498693Y6469532D01*
X5493766Y6466484D01*
X5489702Y6462369D01*
X5486603Y6457492D01*
X5484723Y6452006D01*
X5484012Y6445707D01*
X5484012Y6325666D01*
X5484723Y6319367D01*
X5486603Y6313881D01*
X5489702Y6309004D01*
X5493766Y6304889D01*
X5498693Y6301841D01*
X5504129Y6299911D01*
G37*
G36*
X7555179Y6299200D02*
G01*
X7772196Y6299200D01*
X7778546Y6299911D01*
X7783982Y6301841D01*
X7788909Y6304889D01*
X7792974Y6309004D01*
X7796072Y6313881D01*
X7797952Y6319367D01*
X7798714Y6325666D01*
X7798714Y6445707D01*
X7797952Y6452006D01*
X7796072Y6457492D01*
X7792974Y6462369D01*
X7788909Y6466484D01*
X7783982Y6469532D01*
X7778546Y6471462D01*
X7772196Y6472174D01*
X7555179Y6472174D01*
X7548829Y6471462D01*
X7543393Y6469532D01*
X7538466Y6466484D01*
X7534402Y6462369D01*
X7531303Y6457492D01*
X7529423Y6452006D01*
X7528712Y6445707D01*
X7528712Y6325666D01*
X7529423Y6319367D01*
X7531303Y6313881D01*
X7534402Y6309004D01*
X7538466Y6304889D01*
X7543393Y6301841D01*
X7548829Y6299911D01*
G37*
G36*
X845972Y6299200D02*
G01*
X1062990Y6299200D01*
X1069340Y6299911D01*
X1074775Y6301841D01*
X1079703Y6304889D01*
X1083767Y6309004D01*
X1086866Y6313881D01*
X1088745Y6319367D01*
X1089507Y6325666D01*
X1089507Y6445707D01*
X1088745Y6452006D01*
X1086866Y6457492D01*
X1083767Y6462369D01*
X1079703Y6466484D01*
X1074775Y6469532D01*
X1069340Y6471462D01*
X1062990Y6472174D01*
X845972Y6472174D01*
X839622Y6471462D01*
X834186Y6469532D01*
X829259Y6466484D01*
X825195Y6462369D01*
X822096Y6457492D01*
X820216Y6452006D01*
X819505Y6445707D01*
X819505Y6325666D01*
X820216Y6319367D01*
X822096Y6313881D01*
X825195Y6309004D01*
X829259Y6304889D01*
X834186Y6301841D01*
X839622Y6299911D01*
G37*
G36*
X3008579Y6299200D02*
G01*
X3225596Y6299200D01*
X3231946Y6299911D01*
X3237382Y6301841D01*
X3242310Y6304889D01*
X3246374Y6309004D01*
X3249472Y6313881D01*
X3251352Y6319367D01*
X3252114Y6325666D01*
X3252114Y6445707D01*
X3251352Y6452006D01*
X3249472Y6457492D01*
X3246374Y6462369D01*
X3242310Y6466484D01*
X3237382Y6469532D01*
X3231946Y6471462D01*
X3225596Y6472174D01*
X3008579Y6472174D01*
X3002229Y6471462D01*
X2996793Y6469532D01*
X2991866Y6466484D01*
X2987802Y6462369D01*
X2984703Y6457492D01*
X2982823Y6452006D01*
X2982112Y6445707D01*
X2982112Y6325666D01*
X2982823Y6319367D01*
X2984703Y6313881D01*
X2987802Y6309004D01*
X2991866Y6304889D01*
X2996793Y6301841D01*
X3002229Y6299911D01*
G37*
G36*
X3008579Y6807200D02*
G01*
X3225596Y6807200D01*
X3231946Y6807911D01*
X3237382Y6809841D01*
X3242310Y6812889D01*
X3246374Y6817004D01*
X3249472Y6821881D01*
X3251352Y6827367D01*
X3252114Y6833666D01*
X3252114Y6953707D01*
X3251352Y6960006D01*
X3249472Y6965492D01*
X3246374Y6970369D01*
X3242310Y6974484D01*
X3237382Y6977532D01*
X3231946Y6979462D01*
X3225596Y6980174D01*
X3008579Y6980174D01*
X3002229Y6979462D01*
X2996793Y6977532D01*
X2991866Y6974484D01*
X2987802Y6970369D01*
X2984703Y6965492D01*
X2982823Y6960006D01*
X2982112Y6953707D01*
X2982112Y6833666D01*
X2982823Y6827367D01*
X2984703Y6821881D01*
X2987802Y6817004D01*
X2991866Y6812889D01*
X2996793Y6809841D01*
X3002229Y6807911D01*
G37*
G36*
X4748479Y6807200D02*
G01*
X4965496Y6807200D01*
X4971846Y6807911D01*
X4977282Y6809841D01*
X4982210Y6812889D01*
X4986274Y6817004D01*
X4989372Y6821881D01*
X4991252Y6827367D01*
X4992014Y6833666D01*
X4992014Y6953707D01*
X4991252Y6960006D01*
X4989372Y6965492D01*
X4986274Y6970369D01*
X4982210Y6974484D01*
X4977282Y6977532D01*
X4971846Y6979462D01*
X4965496Y6980174D01*
X4748479Y6980174D01*
X4742129Y6979462D01*
X4736693Y6977532D01*
X4731766Y6974484D01*
X4727702Y6970369D01*
X4724603Y6965492D01*
X4722723Y6960006D01*
X4722012Y6953707D01*
X4722012Y6833666D01*
X4722723Y6827367D01*
X4724603Y6821881D01*
X4727702Y6817004D01*
X4731766Y6812889D01*
X4736693Y6809841D01*
X4742129Y6807911D01*
G37*
G36*
X5510479Y6807200D02*
G01*
X5727496Y6807200D01*
X5733846Y6807911D01*
X5739282Y6809841D01*
X5744210Y6812889D01*
X5748274Y6817004D01*
X5751372Y6821881D01*
X5753252Y6827367D01*
X5754014Y6833666D01*
X5754014Y6953707D01*
X5753252Y6960006D01*
X5751372Y6965492D01*
X5748274Y6970369D01*
X5744210Y6974484D01*
X5739282Y6977532D01*
X5733846Y6979462D01*
X5727496Y6980174D01*
X5510479Y6980174D01*
X5504129Y6979462D01*
X5498693Y6977532D01*
X5493766Y6974484D01*
X5489702Y6970369D01*
X5486603Y6965492D01*
X5484723Y6960006D01*
X5484012Y6953707D01*
X5484012Y6833666D01*
X5484723Y6827367D01*
X5486603Y6821881D01*
X5489702Y6817004D01*
X5493766Y6812889D01*
X5498693Y6809841D01*
X5504129Y6807911D01*
G37*
G36*
X2246579Y6807200D02*
G01*
X2463596Y6807200D01*
X2469946Y6807911D01*
X2475382Y6809841D01*
X2480310Y6812889D01*
X2484374Y6817004D01*
X2487472Y6821881D01*
X2489352Y6827367D01*
X2490114Y6833666D01*
X2490114Y6953707D01*
X2489352Y6960006D01*
X2487472Y6965492D01*
X2484374Y6970369D01*
X2480310Y6974484D01*
X2475382Y6977532D01*
X2469946Y6979462D01*
X2463596Y6980174D01*
X2246579Y6980174D01*
X2240229Y6979462D01*
X2234793Y6977532D01*
X2229866Y6974484D01*
X2225802Y6970369D01*
X2222703Y6965492D01*
X2220823Y6960006D01*
X2220112Y6953707D01*
X2220112Y6833666D01*
X2220823Y6827367D01*
X2222703Y6821881D01*
X2225802Y6817004D01*
X2229866Y6812889D01*
X2234793Y6809841D01*
X2240229Y6807911D01*
G37*
G36*
X6793179Y6807200D02*
G01*
X7010196Y6807200D01*
X7016546Y6807911D01*
X7021982Y6809841D01*
X7026909Y6812889D01*
X7030974Y6817004D01*
X7034072Y6821881D01*
X7035952Y6827367D01*
X7036714Y6833666D01*
X7036714Y6953707D01*
X7035952Y6960006D01*
X7034072Y6965492D01*
X7030974Y6970369D01*
X7026909Y6974484D01*
X7021982Y6977532D01*
X7016546Y6979462D01*
X7010196Y6980174D01*
X6793179Y6980174D01*
X6786829Y6979462D01*
X6781393Y6977532D01*
X6776466Y6974484D01*
X6772402Y6970369D01*
X6769303Y6965492D01*
X6767423Y6960006D01*
X6766712Y6953707D01*
X6766712Y6833666D01*
X6767423Y6827367D01*
X6769303Y6821881D01*
X6772402Y6817004D01*
X6776466Y6812889D01*
X6781393Y6809841D01*
X6786829Y6807911D01*
G37*
G36*
X83972Y6807200D02*
G01*
X300990Y6807200D01*
X307340Y6807911D01*
X312775Y6809841D01*
X317703Y6812889D01*
X321767Y6817004D01*
X324866Y6821881D01*
X326745Y6827367D01*
X327507Y6833666D01*
X327507Y6953707D01*
X326745Y6960006D01*
X324866Y6965492D01*
X321767Y6970369D01*
X317703Y6974484D01*
X312775Y6977532D01*
X307340Y6979462D01*
X300990Y6980174D01*
X83972Y6980174D01*
X77622Y6979462D01*
X72186Y6977532D01*
X67259Y6974484D01*
X63195Y6970369D01*
X60096Y6965492D01*
X58216Y6960006D01*
X57505Y6953707D01*
X57505Y6833666D01*
X58216Y6827367D01*
X60096Y6821881D01*
X63195Y6817004D01*
X67259Y6812889D01*
X72186Y6809841D01*
X77622Y6807911D01*
G37*
G36*
X7555179Y6807200D02*
G01*
X7772196Y6807200D01*
X7778546Y6807911D01*
X7783982Y6809841D01*
X7788909Y6812889D01*
X7792974Y6817004D01*
X7796072Y6821881D01*
X7797952Y6827367D01*
X7798714Y6833666D01*
X7798714Y6953707D01*
X7797952Y6960006D01*
X7796072Y6965492D01*
X7792974Y6970369D01*
X7788909Y6974484D01*
X7783982Y6977532D01*
X7778546Y6979462D01*
X7772196Y6980174D01*
X7555179Y6980174D01*
X7548829Y6979462D01*
X7543393Y6977532D01*
X7538466Y6974484D01*
X7534402Y6970369D01*
X7531303Y6965492D01*
X7529423Y6960006D01*
X7528712Y6953707D01*
X7528712Y6833666D01*
X7529423Y6827367D01*
X7531303Y6821881D01*
X7534402Y6817004D01*
X7538466Y6812889D01*
X7543393Y6809841D01*
X7548829Y6807911D01*
G37*
G36*
X845972Y6807200D02*
G01*
X1062990Y6807200D01*
X1069340Y6807911D01*
X1074775Y6809841D01*
X1079703Y6812889D01*
X1083767Y6817004D01*
X1086866Y6821881D01*
X1088745Y6827367D01*
X1089507Y6833666D01*
X1089507Y6953707D01*
X1088745Y6960006D01*
X1086866Y6965492D01*
X1083767Y6970369D01*
X1079703Y6974484D01*
X1074775Y6977532D01*
X1069340Y6979462D01*
X1062990Y6980174D01*
X845972Y6980174D01*
X839622Y6979462D01*
X834186Y6977532D01*
X829259Y6974484D01*
X825195Y6970369D01*
X822096Y6965492D01*
X820216Y6960006D01*
X819505Y6953707D01*
X819505Y6833666D01*
X820216Y6827367D01*
X822096Y6821881D01*
X825195Y6817004D01*
X829259Y6812889D01*
X834186Y6809841D01*
X839622Y6807911D01*
G37*
G36*
X3008579Y7061200D02*
G01*
X3225596Y7061200D01*
X3231946Y7061911D01*
X3237382Y7063841D01*
X3242310Y7066889D01*
X3246374Y7071004D01*
X3249472Y7075881D01*
X3251352Y7081367D01*
X3252114Y7087666D01*
X3252114Y7207707D01*
X3251352Y7214006D01*
X3249472Y7219492D01*
X3246374Y7224369D01*
X3242310Y7228484D01*
X3237382Y7231532D01*
X3231946Y7233462D01*
X3225596Y7234174D01*
X3008579Y7234174D01*
X3002229Y7233462D01*
X2996793Y7231532D01*
X2991866Y7228484D01*
X2987802Y7224369D01*
X2984703Y7219492D01*
X2982823Y7214006D01*
X2982112Y7207707D01*
X2982112Y7087666D01*
X2982823Y7081367D01*
X2984703Y7075881D01*
X2987802Y7071004D01*
X2991866Y7066889D01*
X2996793Y7063841D01*
X3002229Y7061911D01*
G37*
G36*
X5510479Y7061200D02*
G01*
X5727496Y7061200D01*
X5733846Y7061911D01*
X5739282Y7063841D01*
X5744210Y7066889D01*
X5748274Y7071004D01*
X5751372Y7075881D01*
X5753252Y7081367D01*
X5754014Y7087666D01*
X5754014Y7207707D01*
X5753252Y7214006D01*
X5751372Y7219492D01*
X5748274Y7224369D01*
X5744210Y7228484D01*
X5739282Y7231532D01*
X5733846Y7233462D01*
X5727496Y7234174D01*
X5510479Y7234174D01*
X5504129Y7233462D01*
X5498693Y7231532D01*
X5493766Y7228484D01*
X5489702Y7224369D01*
X5486603Y7219492D01*
X5484723Y7214006D01*
X5484012Y7207707D01*
X5484012Y7087666D01*
X5484723Y7081367D01*
X5486603Y7075881D01*
X5489702Y7071004D01*
X5493766Y7066889D01*
X5498693Y7063841D01*
X5504129Y7061911D01*
G37*
G36*
X2246579Y7061200D02*
G01*
X2463596Y7061200D01*
X2469946Y7061911D01*
X2475382Y7063841D01*
X2480310Y7066889D01*
X2484374Y7071004D01*
X2487472Y7075881D01*
X2489352Y7081367D01*
X2490114Y7087666D01*
X2490114Y7207707D01*
X2489352Y7214006D01*
X2487472Y7219492D01*
X2484374Y7224369D01*
X2480310Y7228484D01*
X2475382Y7231532D01*
X2469946Y7233462D01*
X2463596Y7234174D01*
X2246579Y7234174D01*
X2240229Y7233462D01*
X2234793Y7231532D01*
X2229866Y7228484D01*
X2225802Y7224369D01*
X2222703Y7219492D01*
X2220823Y7214006D01*
X2220112Y7207707D01*
X2220112Y7087666D01*
X2220823Y7081367D01*
X2222703Y7075881D01*
X2225802Y7071004D01*
X2229866Y7066889D01*
X2234793Y7063841D01*
X2240229Y7061911D01*
G37*
G36*
X845972Y7061200D02*
G01*
X1062990Y7061200D01*
X1069340Y7061911D01*
X1074775Y7063841D01*
X1079703Y7066889D01*
X1083767Y7071004D01*
X1086866Y7075881D01*
X1088745Y7081367D01*
X1089507Y7087666D01*
X1089507Y7207707D01*
X1088745Y7214006D01*
X1086866Y7219492D01*
X1083767Y7224369D01*
X1079703Y7228484D01*
X1074775Y7231532D01*
X1069340Y7233462D01*
X1062990Y7234174D01*
X845972Y7234174D01*
X839622Y7233462D01*
X834186Y7231532D01*
X829259Y7228484D01*
X825195Y7224369D01*
X822096Y7219492D01*
X820216Y7214006D01*
X819505Y7207707D01*
X819505Y7087666D01*
X820216Y7081367D01*
X822096Y7075881D01*
X825195Y7071004D01*
X829259Y7066889D01*
X834186Y7063841D01*
X839622Y7061911D01*
G37*
G36*
X7555179Y7061200D02*
G01*
X7772196Y7061200D01*
X7778546Y7061911D01*
X7783982Y7063841D01*
X7788909Y7066889D01*
X7792974Y7071004D01*
X7796072Y7075881D01*
X7797952Y7081367D01*
X7798714Y7087666D01*
X7798714Y7207707D01*
X7797952Y7214006D01*
X7796072Y7219492D01*
X7792974Y7224369D01*
X7788909Y7228484D01*
X7783982Y7231532D01*
X7778546Y7233462D01*
X7772196Y7234174D01*
X7555179Y7234174D01*
X7548829Y7233462D01*
X7543393Y7231532D01*
X7538466Y7228484D01*
X7534402Y7224369D01*
X7531303Y7219492D01*
X7529423Y7214006D01*
X7528712Y7207707D01*
X7528712Y7087666D01*
X7529423Y7081367D01*
X7531303Y7075881D01*
X7534402Y7071004D01*
X7538466Y7066889D01*
X7543393Y7063841D01*
X7548829Y7061911D01*
G37*
G36*
X83972Y7061200D02*
G01*
X300990Y7061200D01*
X307340Y7061911D01*
X312775Y7063841D01*
X317703Y7066889D01*
X321767Y7071004D01*
X324866Y7075881D01*
X326745Y7081367D01*
X327507Y7087666D01*
X327507Y7207707D01*
X326745Y7214006D01*
X324866Y7219492D01*
X321767Y7224369D01*
X317703Y7228484D01*
X312775Y7231532D01*
X307340Y7233462D01*
X300990Y7234174D01*
X83972Y7234174D01*
X77622Y7233462D01*
X72186Y7231532D01*
X67259Y7228484D01*
X63195Y7224369D01*
X60096Y7219492D01*
X58216Y7214006D01*
X57505Y7207707D01*
X57505Y7087666D01*
X58216Y7081367D01*
X60096Y7075881D01*
X63195Y7071004D01*
X67259Y7066889D01*
X72186Y7063841D01*
X77622Y7061911D01*
G37*
G36*
X3008579Y7315200D02*
G01*
X3225596Y7315200D01*
X3231946Y7315911D01*
X3237382Y7317841D01*
X3242310Y7320889D01*
X3246374Y7325004D01*
X3249472Y7329881D01*
X3251352Y7335367D01*
X3252114Y7341666D01*
X3252114Y7461707D01*
X3251352Y7468006D01*
X3249472Y7473492D01*
X3246374Y7478369D01*
X3242310Y7482484D01*
X3237382Y7485532D01*
X3231946Y7487462D01*
X3225596Y7488174D01*
X3008579Y7488174D01*
X3002229Y7487462D01*
X2996793Y7485532D01*
X2991866Y7482484D01*
X2987802Y7478369D01*
X2984703Y7473492D01*
X2982823Y7468006D01*
X2982112Y7461707D01*
X2982112Y7341666D01*
X2982823Y7335367D01*
X2984703Y7329881D01*
X2987802Y7325004D01*
X2991866Y7320889D01*
X2996793Y7317841D01*
X3002229Y7315911D01*
G37*
G36*
X6793179Y7315200D02*
G01*
X7010196Y7315200D01*
X7016546Y7315911D01*
X7021982Y7317841D01*
X7026909Y7320889D01*
X7030974Y7325004D01*
X7034072Y7329881D01*
X7035952Y7335367D01*
X7036714Y7341666D01*
X7036714Y7461707D01*
X7035952Y7468006D01*
X7034072Y7473492D01*
X7030974Y7478369D01*
X7026909Y7482484D01*
X7021982Y7485532D01*
X7016546Y7487462D01*
X7010196Y7488174D01*
X6793179Y7488174D01*
X6786829Y7487462D01*
X6781393Y7485532D01*
X6776466Y7482484D01*
X6772402Y7478369D01*
X6769303Y7473492D01*
X6767423Y7468006D01*
X6766712Y7461707D01*
X6766712Y7341666D01*
X6767423Y7335367D01*
X6769303Y7329881D01*
X6772402Y7325004D01*
X6776466Y7320889D01*
X6781393Y7317841D01*
X6786829Y7315911D01*
G37*
G36*
X2246579Y7315200D02*
G01*
X2463596Y7315200D01*
X2469946Y7315911D01*
X2475382Y7317841D01*
X2480310Y7320889D01*
X2484374Y7325004D01*
X2487472Y7329881D01*
X2489352Y7335367D01*
X2490114Y7341666D01*
X2490114Y7461707D01*
X2489352Y7468006D01*
X2487472Y7473492D01*
X2484374Y7478369D01*
X2480310Y7482484D01*
X2475382Y7485532D01*
X2469946Y7487462D01*
X2463596Y7488174D01*
X2246579Y7488174D01*
X2240229Y7487462D01*
X2234793Y7485532D01*
X2229866Y7482484D01*
X2225802Y7478369D01*
X2222703Y7473492D01*
X2220823Y7468006D01*
X2220112Y7461707D01*
X2220112Y7341666D01*
X2220823Y7335367D01*
X2222703Y7329881D01*
X2225802Y7325004D01*
X2229866Y7320889D01*
X2234793Y7317841D01*
X2240229Y7315911D01*
G37*
G36*
X845972Y7315200D02*
G01*
X1062990Y7315200D01*
X1069340Y7315911D01*
X1074775Y7317841D01*
X1079703Y7320889D01*
X1083767Y7325004D01*
X1086866Y7329881D01*
X1088745Y7335367D01*
X1089507Y7341666D01*
X1089507Y7461707D01*
X1088745Y7468006D01*
X1086866Y7473492D01*
X1083767Y7478369D01*
X1079703Y7482484D01*
X1074775Y7485532D01*
X1069340Y7487462D01*
X1062990Y7488174D01*
X845972Y7488174D01*
X839622Y7487462D01*
X834186Y7485532D01*
X829259Y7482484D01*
X825195Y7478369D01*
X822096Y7473492D01*
X820216Y7468006D01*
X819505Y7461707D01*
X819505Y7341666D01*
X820216Y7335367D01*
X822096Y7329881D01*
X825195Y7325004D01*
X829259Y7320889D01*
X834186Y7317841D01*
X839622Y7315911D01*
G37*
G36*
X83972Y7315200D02*
G01*
X300990Y7315200D01*
X307340Y7315911D01*
X312775Y7317841D01*
X317703Y7320889D01*
X321767Y7325004D01*
X324866Y7329881D01*
X326745Y7335367D01*
X327507Y7341666D01*
X327507Y7461707D01*
X326745Y7468006D01*
X324866Y7473492D01*
X321767Y7478369D01*
X317703Y7482484D01*
X312775Y7485532D01*
X307340Y7487462D01*
X300990Y7488174D01*
X83972Y7488174D01*
X77622Y7487462D01*
X72186Y7485532D01*
X67259Y7482484D01*
X63195Y7478369D01*
X60096Y7473492D01*
X58216Y7468006D01*
X57505Y7461707D01*
X57505Y7341666D01*
X58216Y7335367D01*
X60096Y7329881D01*
X63195Y7325004D01*
X67259Y7320889D01*
X72186Y7317841D01*
X77622Y7315911D01*
G37*
G36*
X6299Y7674152D02*
G01*
X31495Y7675625D01*
X56540Y7679029D01*
X81229Y7684363D01*
X105460Y7691628D01*
X129032Y7700721D01*
X151841Y7711643D01*
X173736Y7724241D01*
X194564Y7738567D01*
X214223Y7754416D01*
X232613Y7771790D01*
X249631Y7790484D01*
X265074Y7810449D01*
X278993Y7831581D01*
X291185Y7853730D01*
X301650Y7876692D01*
X310286Y7900466D01*
X317093Y7924800D01*
X321919Y7949590D01*
X324866Y7974736D01*
X325831Y7999984D01*
X324866Y8025231D01*
X321919Y8050326D01*
X317093Y8075117D01*
X310286Y8099501D01*
X301650Y8123224D01*
X291185Y8146237D01*
X278993Y8168386D01*
X265074Y8189468D01*
X249631Y8209432D01*
X232613Y8228177D01*
X214223Y8245500D01*
X194564Y8261400D01*
X173736Y8275675D01*
X151841Y8288324D01*
X129032Y8299196D01*
X105460Y8308340D01*
X81229Y8315553D01*
X56540Y8320938D01*
X31495Y8324342D01*
X6299Y8325815D01*
X-18999Y8325307D01*
X-44145Y8322868D01*
X-69037Y8318500D01*
X-93522Y8312200D01*
X-117449Y8304022D01*
X-140614Y8293963D01*
X-163017Y8282228D01*
X-184353Y8268716D01*
X-204673Y8253628D01*
X-223672Y8237016D01*
X-241401Y8218982D01*
X-257657Y8199628D01*
X-272338Y8179053D01*
X-285394Y8157413D01*
X-296722Y8134807D01*
X-306273Y8111439D01*
X-313994Y8087359D01*
X-319836Y8062772D01*
X-323748Y8037830D01*
X-325678Y8012633D01*
X-325678Y7987334D01*
X-323748Y7962138D01*
X-319836Y7937144D01*
X-313994Y7912557D01*
X-306273Y7888528D01*
X-296722Y7865109D01*
X-285394Y7842503D01*
X-272338Y7820863D01*
X-257657Y7800340D01*
X-241401Y7780985D01*
X-223672Y7762900D01*
X-204673Y7746288D01*
X-184353Y7731201D01*
X-163017Y7717739D01*
X-140614Y7705953D01*
X-117449Y7695946D01*
X-93522Y7687767D01*
X-69037Y7681468D01*
X-44145Y7677048D01*
X-18999Y7674609D01*
G37*
G36*
X8006283Y7674152D02*
G01*
X8031530Y7675625D01*
X8056524Y7679029D01*
X8081264Y7684363D01*
X8105444Y7691628D01*
X8129016Y7700721D01*
X8151825Y7711643D01*
X8173720Y7724292D01*
X8194548Y7738567D01*
X8214258Y7754416D01*
X8232648Y7771790D01*
X8249615Y7790484D01*
X8265109Y7810500D01*
X8278977Y7831581D01*
X8291169Y7853730D01*
X8301634Y7876743D01*
X8310270Y7900466D01*
X8317077Y7924850D01*
X8321954Y7949641D01*
X8324900Y7974736D01*
X8325866Y7999984D01*
X8324900Y8025231D01*
X8321954Y8050326D01*
X8317077Y8075117D01*
X8310270Y8099501D01*
X8301634Y8123224D01*
X8291169Y8146237D01*
X8278977Y8168386D01*
X8265109Y8189468D01*
X8249615Y8209483D01*
X8232648Y8228177D01*
X8214258Y8245551D01*
X8194548Y8261400D01*
X8173720Y8275675D01*
X8151825Y8288324D01*
X8129016Y8299246D01*
X8105444Y8308340D01*
X8081264Y8315604D01*
X8056524Y8320938D01*
X8031530Y8324342D01*
X8006283Y8325815D01*
X7980984Y8325307D01*
X7955838Y8322868D01*
X7930946Y8318500D01*
X7906512Y8312200D01*
X7882585Y8304022D01*
X7859369Y8294014D01*
X7837017Y8282228D01*
X7815630Y8268766D01*
X7795361Y8253628D01*
X7776311Y8237016D01*
X7758633Y8218982D01*
X7742377Y8199628D01*
X7727696Y8179053D01*
X7714589Y8157413D01*
X7703261Y8134858D01*
X7693710Y8111439D01*
X7685989Y8087359D01*
X7680147Y8062772D01*
X7676235Y8037830D01*
X7674305Y8012633D01*
X7674305Y7987334D01*
X7676235Y7962138D01*
X7680147Y7937195D01*
X7685989Y7912608D01*
X7693710Y7888528D01*
X7703261Y7865109D01*
X7714589Y7842554D01*
X7727696Y7820914D01*
X7742377Y7800340D01*
X7758633Y7780985D01*
X7776311Y7762951D01*
X7795361Y7746339D01*
X7815630Y7731201D01*
X7837017Y7717739D01*
X7859369Y7705953D01*
X7882585Y7695946D01*
X7906512Y7687767D01*
X7930946Y7681468D01*
X7955838Y7677099D01*
X7980984Y7674660D01*
G37*
G36*
X2095550Y8139074D02*
G01*
X2244394Y8139074D01*
X2250694Y8139785D01*
X2256180Y8141716D01*
X2261057Y8144764D01*
X2265172Y8148878D01*
X2268270Y8153755D01*
X2270150Y8159242D01*
X2270861Y8165541D01*
X2270861Y8314385D01*
X2270150Y8320735D01*
X2268270Y8326170D01*
X2265172Y8331098D01*
X2261057Y8335162D01*
X2256180Y8338261D01*
X2250694Y8340191D01*
X2244394Y8340902D01*
X2095550Y8340902D01*
X2089200Y8340191D01*
X2083765Y8338261D01*
X2078888Y8335162D01*
X2074773Y8331098D01*
X2071674Y8326170D01*
X2069795Y8320735D01*
X2069084Y8314385D01*
X2069084Y8165541D01*
X2069795Y8159242D01*
X2071674Y8153755D01*
X2074773Y8148878D01*
X2078888Y8144764D01*
X2083765Y8141716D01*
X2089200Y8139785D01*
G37*
G36*
X4198620Y8139175D02*
G01*
X4212082Y8139582D01*
X4225340Y8141868D01*
X4238244Y8145830D01*
X4250436Y8151520D01*
X4261815Y8158784D01*
X4272076Y8167471D01*
X4281119Y8177479D01*
X4288790Y8188553D01*
X4294835Y8200593D01*
X4299254Y8213344D01*
X4301947Y8226552D01*
X4302861Y8239963D01*
X4301947Y8253425D01*
X4299254Y8266633D01*
X4294835Y8279384D01*
X4288790Y8291372D01*
X4281119Y8302498D01*
X4272076Y8312505D01*
X4261815Y8321192D01*
X4250436Y8328456D01*
X4238244Y8334095D01*
X4225340Y8338108D01*
X4212082Y8340344D01*
X4198620Y8340801D01*
X4185208Y8339429D01*
X4172102Y8336330D01*
X4159504Y8331504D01*
X4147667Y8325002D01*
X4136847Y8317026D01*
X4127144Y8307628D01*
X4118813Y8297062D01*
X4111955Y8285480D01*
X4106672Y8273084D01*
X4103115Y8260080D01*
X4101337Y8246719D01*
X4101337Y8233257D01*
X4103115Y8219897D01*
X4106672Y8206892D01*
X4111955Y8194497D01*
X4118813Y8182864D01*
X4127144Y8172297D01*
X4136847Y8162950D01*
X4147667Y8154924D01*
X4159504Y8148472D01*
X4172102Y8143646D01*
X4185208Y8140496D01*
G37*
G36*
X3944620Y8139175D02*
G01*
X3958082Y8139582D01*
X3971340Y8141868D01*
X3984244Y8145830D01*
X3996436Y8151520D01*
X4007815Y8158784D01*
X4018076Y8167471D01*
X4027119Y8177479D01*
X4034790Y8188553D01*
X4040835Y8200593D01*
X4045254Y8213344D01*
X4047947Y8226552D01*
X4048861Y8239963D01*
X4047947Y8253425D01*
X4045254Y8266633D01*
X4040835Y8279384D01*
X4034790Y8291372D01*
X4027119Y8302498D01*
X4018076Y8312505D01*
X4007815Y8321192D01*
X3996436Y8328456D01*
X3984244Y8334095D01*
X3971340Y8338108D01*
X3958082Y8340344D01*
X3944620Y8340801D01*
X3931208Y8339429D01*
X3918102Y8336330D01*
X3905504Y8331504D01*
X3893667Y8325002D01*
X3882847Y8317026D01*
X3873144Y8307628D01*
X3864813Y8297062D01*
X3857955Y8285480D01*
X3852672Y8273084D01*
X3849115Y8260080D01*
X3847337Y8246719D01*
X3847337Y8233257D01*
X3849115Y8219897D01*
X3852672Y8206892D01*
X3857955Y8194497D01*
X3864813Y8182864D01*
X3873144Y8172297D01*
X3882847Y8162950D01*
X3893667Y8154924D01*
X3905504Y8148472D01*
X3918102Y8143646D01*
X3931208Y8140496D01*
G37*
G36*
X4452620Y8139175D02*
G01*
X4466082Y8139582D01*
X4479340Y8141868D01*
X4492244Y8145830D01*
X4504436Y8151520D01*
X4515815Y8158784D01*
X4526076Y8167471D01*
X4535119Y8177479D01*
X4542790Y8188553D01*
X4548835Y8200593D01*
X4553254Y8213344D01*
X4555947Y8226552D01*
X4556861Y8239963D01*
X4555947Y8253425D01*
X4553254Y8266633D01*
X4548835Y8279384D01*
X4542790Y8291372D01*
X4535119Y8302498D01*
X4526076Y8312505D01*
X4515815Y8321192D01*
X4504436Y8328456D01*
X4492244Y8334095D01*
X4479340Y8338108D01*
X4466082Y8340344D01*
X4452620Y8340801D01*
X4439208Y8339429D01*
X4426102Y8336330D01*
X4413504Y8331504D01*
X4401667Y8325002D01*
X4390847Y8317026D01*
X4381144Y8307628D01*
X4372813Y8297062D01*
X4365955Y8285480D01*
X4360672Y8273084D01*
X4357116Y8260080D01*
X4355338Y8246719D01*
X4355338Y8233257D01*
X4357116Y8219897D01*
X4360672Y8206892D01*
X4365955Y8194497D01*
X4372813Y8182864D01*
X4381144Y8172297D01*
X4390847Y8162950D01*
X4401667Y8154924D01*
X4413504Y8148472D01*
X4426102Y8143646D01*
X4439208Y8140496D01*
G37*
G36*
X3690620Y8139175D02*
G01*
X3704082Y8139582D01*
X3717340Y8141868D01*
X3730244Y8145830D01*
X3742436Y8151520D01*
X3753815Y8158784D01*
X3764076Y8167471D01*
X3773119Y8177479D01*
X3780790Y8188553D01*
X3786835Y8200593D01*
X3791254Y8213344D01*
X3793947Y8226552D01*
X3794861Y8239963D01*
X3793947Y8253425D01*
X3791254Y8266633D01*
X3786835Y8279384D01*
X3780790Y8291372D01*
X3773119Y8302498D01*
X3764076Y8312505D01*
X3753815Y8321192D01*
X3742436Y8328456D01*
X3730244Y8334095D01*
X3717340Y8338108D01*
X3704082Y8340344D01*
X3690620Y8340801D01*
X3677208Y8339429D01*
X3664102Y8336330D01*
X3651504Y8331504D01*
X3639667Y8325002D01*
X3628847Y8317026D01*
X3619144Y8307628D01*
X3610813Y8297062D01*
X3603955Y8285480D01*
X3598672Y8273084D01*
X3595115Y8260080D01*
X3593337Y8246719D01*
X3593337Y8233257D01*
X3595115Y8219897D01*
X3598672Y8206892D01*
X3603955Y8194497D01*
X3610813Y8182864D01*
X3619144Y8172297D01*
X3628847Y8162950D01*
X3639667Y8154924D01*
X3651504Y8148472D01*
X3664102Y8143646D01*
X3677208Y8140496D01*
G37*
G36*
X4706620Y8139175D02*
G01*
X4720082Y8139582D01*
X4733340Y8141868D01*
X4746244Y8145830D01*
X4758436Y8151520D01*
X4769815Y8158784D01*
X4780076Y8167471D01*
X4789119Y8177479D01*
X4796790Y8188553D01*
X4802835Y8200593D01*
X4807254Y8213344D01*
X4809947Y8226552D01*
X4810861Y8239963D01*
X4809947Y8253425D01*
X4807254Y8266633D01*
X4802835Y8279384D01*
X4796790Y8291372D01*
X4789119Y8302498D01*
X4780076Y8312505D01*
X4769815Y8321192D01*
X4758436Y8328456D01*
X4746244Y8334095D01*
X4733340Y8338108D01*
X4720082Y8340344D01*
X4706620Y8340801D01*
X4693208Y8339429D01*
X4680102Y8336330D01*
X4667504Y8331504D01*
X4655667Y8325002D01*
X4644847Y8317026D01*
X4635144Y8307628D01*
X4626813Y8297062D01*
X4619955Y8285480D01*
X4614672Y8273084D01*
X4611116Y8260080D01*
X4609338Y8246719D01*
X4609338Y8233257D01*
X4611116Y8219897D01*
X4614672Y8206892D01*
X4619955Y8194497D01*
X4626813Y8182864D01*
X4635144Y8172297D01*
X4644847Y8162950D01*
X4655667Y8154924D01*
X4667504Y8148472D01*
X4680102Y8143646D01*
X4693208Y8140496D01*
G37*
G36*
X3436620Y8139175D02*
G01*
X3450082Y8139582D01*
X3463340Y8141868D01*
X3476244Y8145830D01*
X3488436Y8151520D01*
X3499815Y8158784D01*
X3510076Y8167471D01*
X3519119Y8177479D01*
X3526790Y8188553D01*
X3532835Y8200593D01*
X3537254Y8213344D01*
X3539947Y8226552D01*
X3540861Y8239963D01*
X3539947Y8253425D01*
X3537254Y8266633D01*
X3532835Y8279384D01*
X3526790Y8291372D01*
X3519119Y8302498D01*
X3510076Y8312505D01*
X3499815Y8321192D01*
X3488436Y8328456D01*
X3476244Y8334095D01*
X3463340Y8338108D01*
X3450082Y8340344D01*
X3436620Y8340801D01*
X3423208Y8339429D01*
X3410102Y8336330D01*
X3397504Y8331504D01*
X3385667Y8325002D01*
X3374847Y8317026D01*
X3365144Y8307628D01*
X3356813Y8297062D01*
X3349955Y8285480D01*
X3344672Y8273084D01*
X3341115Y8260080D01*
X3339337Y8246719D01*
X3339337Y8233257D01*
X3341115Y8219897D01*
X3344672Y8206892D01*
X3349955Y8194497D01*
X3356813Y8182864D01*
X3365144Y8172297D01*
X3374847Y8162950D01*
X3385667Y8154924D01*
X3397504Y8148472D01*
X3410102Y8143646D01*
X3423208Y8140496D01*
G37*
G36*
X4960620Y8139175D02*
G01*
X4974082Y8139582D01*
X4987340Y8141868D01*
X5000244Y8145830D01*
X5012436Y8151520D01*
X5023815Y8158784D01*
X5034076Y8167471D01*
X5043119Y8177479D01*
X5050790Y8188553D01*
X5056835Y8200593D01*
X5061254Y8213344D01*
X5063947Y8226552D01*
X5064861Y8239963D01*
X5063947Y8253425D01*
X5061254Y8266633D01*
X5056835Y8279384D01*
X5050790Y8291372D01*
X5043119Y8302498D01*
X5034076Y8312505D01*
X5023815Y8321192D01*
X5012436Y8328456D01*
X5000244Y8334095D01*
X4987340Y8338108D01*
X4974082Y8340344D01*
X4960620Y8340801D01*
X4947208Y8339429D01*
X4934102Y8336330D01*
X4921504Y8331504D01*
X4909667Y8325002D01*
X4898847Y8317026D01*
X4889144Y8307628D01*
X4880813Y8297062D01*
X4873955Y8285480D01*
X4868672Y8273084D01*
X4865116Y8260080D01*
X4863338Y8246719D01*
X4863338Y8233257D01*
X4865116Y8219897D01*
X4868672Y8206892D01*
X4873955Y8194497D01*
X4880813Y8182864D01*
X4889144Y8172297D01*
X4898847Y8162950D01*
X4909667Y8154924D01*
X4921504Y8148472D01*
X4934102Y8143646D01*
X4947208Y8140496D01*
G37*
G36*
X3182620Y8139175D02*
G01*
X3196082Y8139582D01*
X3209340Y8141868D01*
X3222244Y8145830D01*
X3234436Y8151520D01*
X3245815Y8158784D01*
X3256076Y8167471D01*
X3265119Y8177479D01*
X3272790Y8188553D01*
X3278835Y8200593D01*
X3283254Y8213344D01*
X3285947Y8226552D01*
X3286861Y8239963D01*
X3285947Y8253425D01*
X3283254Y8266633D01*
X3278835Y8279384D01*
X3272790Y8291372D01*
X3265119Y8302498D01*
X3256076Y8312505D01*
X3245815Y8321192D01*
X3234436Y8328456D01*
X3222244Y8334095D01*
X3209340Y8338108D01*
X3196082Y8340344D01*
X3182620Y8340801D01*
X3169208Y8339429D01*
X3156102Y8336330D01*
X3143504Y8331504D01*
X3131667Y8325002D01*
X3120847Y8317026D01*
X3111144Y8307628D01*
X3102813Y8297062D01*
X3095955Y8285480D01*
X3090672Y8273084D01*
X3087116Y8260080D01*
X3085338Y8246719D01*
X3085338Y8233257D01*
X3087116Y8219897D01*
X3090672Y8206892D01*
X3095955Y8194497D01*
X3102813Y8182864D01*
X3111144Y8172297D01*
X3120847Y8162950D01*
X3131667Y8154924D01*
X3143504Y8148472D01*
X3156102Y8143646D01*
X3169208Y8140496D01*
G37*
G36*
X5214620Y8139175D02*
G01*
X5228082Y8139582D01*
X5241340Y8141868D01*
X5254244Y8145830D01*
X5266436Y8151520D01*
X5277815Y8158784D01*
X5288076Y8167471D01*
X5297119Y8177479D01*
X5304790Y8188553D01*
X5310835Y8200593D01*
X5315254Y8213344D01*
X5317947Y8226552D01*
X5318861Y8239963D01*
X5317947Y8253425D01*
X5315254Y8266633D01*
X5310835Y8279384D01*
X5304790Y8291372D01*
X5297119Y8302498D01*
X5288076Y8312505D01*
X5277815Y8321192D01*
X5266436Y8328456D01*
X5254244Y8334095D01*
X5241340Y8338108D01*
X5228082Y8340344D01*
X5214620Y8340801D01*
X5201208Y8339429D01*
X5188102Y8336330D01*
X5175504Y8331504D01*
X5163667Y8325002D01*
X5152847Y8317026D01*
X5143144Y8307628D01*
X5134813Y8297062D01*
X5127955Y8285480D01*
X5122672Y8273084D01*
X5119116Y8260080D01*
X5117338Y8246719D01*
X5117338Y8233257D01*
X5119116Y8219897D01*
X5122672Y8206892D01*
X5127955Y8194497D01*
X5134813Y8182864D01*
X5143144Y8172297D01*
X5152847Y8162950D01*
X5163667Y8154924D01*
X5175504Y8148472D01*
X5188102Y8143646D01*
X5201208Y8140496D01*
G37*
G36*
X2928620Y8139175D02*
G01*
X2942082Y8139582D01*
X2955340Y8141868D01*
X2968244Y8145830D01*
X2980436Y8151520D01*
X2991815Y8158784D01*
X3002076Y8167471D01*
X3011119Y8177479D01*
X3018790Y8188553D01*
X3024835Y8200593D01*
X3029254Y8213344D01*
X3031947Y8226552D01*
X3032861Y8239963D01*
X3031947Y8253425D01*
X3029254Y8266633D01*
X3024835Y8279384D01*
X3018790Y8291372D01*
X3011119Y8302498D01*
X3002076Y8312505D01*
X2991815Y8321192D01*
X2980436Y8328456D01*
X2968244Y8334095D01*
X2955340Y8338108D01*
X2942082Y8340344D01*
X2928620Y8340801D01*
X2915208Y8339429D01*
X2902102Y8336330D01*
X2889504Y8331504D01*
X2877667Y8325002D01*
X2866847Y8317026D01*
X2857144Y8307628D01*
X2848813Y8297062D01*
X2841955Y8285480D01*
X2836672Y8273084D01*
X2833116Y8260080D01*
X2831338Y8246719D01*
X2831338Y8233257D01*
X2833116Y8219897D01*
X2836672Y8206892D01*
X2841955Y8194497D01*
X2848813Y8182864D01*
X2857144Y8172297D01*
X2866847Y8162950D01*
X2877667Y8154924D01*
X2889504Y8148472D01*
X2902102Y8143646D01*
X2915208Y8140496D01*
G37*
G36*
X5468620Y8139175D02*
G01*
X5482082Y8139582D01*
X5495340Y8141868D01*
X5508244Y8145830D01*
X5520436Y8151520D01*
X5531815Y8158784D01*
X5542076Y8167471D01*
X5551119Y8177479D01*
X5558790Y8188553D01*
X5564835Y8200593D01*
X5569254Y8213344D01*
X5571947Y8226552D01*
X5572861Y8239963D01*
X5571947Y8253425D01*
X5569254Y8266633D01*
X5564835Y8279384D01*
X5558790Y8291372D01*
X5551119Y8302498D01*
X5542076Y8312505D01*
X5531815Y8321192D01*
X5520436Y8328456D01*
X5508244Y8334095D01*
X5495340Y8338108D01*
X5482082Y8340344D01*
X5468620Y8340801D01*
X5455208Y8339429D01*
X5442102Y8336330D01*
X5429504Y8331504D01*
X5417667Y8325002D01*
X5406847Y8317026D01*
X5397144Y8307628D01*
X5388813Y8297062D01*
X5381955Y8285480D01*
X5376672Y8273084D01*
X5373116Y8260080D01*
X5371338Y8246719D01*
X5371338Y8233257D01*
X5373116Y8219897D01*
X5376672Y8206892D01*
X5381955Y8194497D01*
X5388813Y8182864D01*
X5397144Y8172297D01*
X5406847Y8162950D01*
X5417667Y8154924D01*
X5429504Y8148472D01*
X5442102Y8143646D01*
X5455208Y8140496D01*
G37*
G36*
X2674620Y8139175D02*
G01*
X2688082Y8139582D01*
X2701340Y8141868D01*
X2714244Y8145830D01*
X2726436Y8151520D01*
X2737815Y8158784D01*
X2748076Y8167471D01*
X2757119Y8177479D01*
X2764790Y8188553D01*
X2770835Y8200593D01*
X2775254Y8213344D01*
X2777947Y8226552D01*
X2778861Y8239963D01*
X2777947Y8253425D01*
X2775254Y8266633D01*
X2770835Y8279384D01*
X2764790Y8291372D01*
X2757119Y8302498D01*
X2748076Y8312505D01*
X2737815Y8321192D01*
X2726436Y8328456D01*
X2714244Y8334095D01*
X2701340Y8338108D01*
X2688082Y8340344D01*
X2674620Y8340801D01*
X2661208Y8339429D01*
X2648102Y8336330D01*
X2635504Y8331504D01*
X2623667Y8325002D01*
X2612847Y8317026D01*
X2603144Y8307628D01*
X2594813Y8297062D01*
X2587955Y8285480D01*
X2582672Y8273084D01*
X2579116Y8260080D01*
X2577338Y8246719D01*
X2577338Y8233257D01*
X2579116Y8219897D01*
X2582672Y8206892D01*
X2587955Y8194497D01*
X2594813Y8182864D01*
X2603144Y8172297D01*
X2612847Y8162950D01*
X2623667Y8154924D01*
X2635504Y8148472D01*
X2648102Y8143646D01*
X2661208Y8140496D01*
G37*
G36*
X5722620Y8139175D02*
G01*
X5736082Y8139582D01*
X5749340Y8141868D01*
X5762244Y8145830D01*
X5774436Y8151520D01*
X5785815Y8158784D01*
X5796076Y8167471D01*
X5805119Y8177479D01*
X5812790Y8188553D01*
X5818835Y8200593D01*
X5823254Y8213344D01*
X5825947Y8226552D01*
X5826861Y8239963D01*
X5825947Y8253425D01*
X5823254Y8266633D01*
X5818835Y8279384D01*
X5812790Y8291372D01*
X5805119Y8302498D01*
X5796076Y8312505D01*
X5785815Y8321192D01*
X5774436Y8328456D01*
X5762244Y8334095D01*
X5749340Y8338108D01*
X5736082Y8340344D01*
X5722620Y8340801D01*
X5709208Y8339429D01*
X5696102Y8336330D01*
X5683504Y8331504D01*
X5671667Y8325002D01*
X5660847Y8317026D01*
X5651144Y8307628D01*
X5642813Y8297062D01*
X5635955Y8285480D01*
X5630672Y8273084D01*
X5627116Y8260080D01*
X5625338Y8246719D01*
X5625338Y8233257D01*
X5627116Y8219897D01*
X5630672Y8206892D01*
X5635955Y8194497D01*
X5642813Y8182864D01*
X5651144Y8172297D01*
X5660847Y8162950D01*
X5671667Y8154924D01*
X5683504Y8148472D01*
X5696102Y8143646D01*
X5709208Y8140496D01*
G37*
G36*
X2420620Y8139175D02*
G01*
X2434082Y8139582D01*
X2447340Y8141868D01*
X2460244Y8145830D01*
X2472436Y8151520D01*
X2483815Y8158784D01*
X2494076Y8167471D01*
X2503119Y8177479D01*
X2510790Y8188553D01*
X2516835Y8200593D01*
X2521254Y8213344D01*
X2523947Y8226552D01*
X2524861Y8239963D01*
X2523947Y8253425D01*
X2521254Y8266633D01*
X2516835Y8279384D01*
X2510790Y8291372D01*
X2503119Y8302498D01*
X2494076Y8312505D01*
X2483815Y8321192D01*
X2472436Y8328456D01*
X2460244Y8334095D01*
X2447340Y8338108D01*
X2434082Y8340344D01*
X2420620Y8340801D01*
X2407208Y8339429D01*
X2394102Y8336330D01*
X2381504Y8331504D01*
X2369667Y8325002D01*
X2358847Y8317026D01*
X2349144Y8307628D01*
X2340813Y8297062D01*
X2333955Y8285480D01*
X2328672Y8273084D01*
X2325116Y8260080D01*
X2323338Y8246719D01*
X2323338Y8233257D01*
X2325116Y8219897D01*
X2328672Y8206892D01*
X2333955Y8194497D01*
X2340813Y8182864D01*
X2349144Y8172297D01*
X2358847Y8162950D01*
X2369667Y8154924D01*
X2381504Y8148472D01*
X2394102Y8143646D01*
X2407208Y8140496D01*
G37*
G36*
X5976620Y8139175D02*
G01*
X5990082Y8139582D01*
X6003340Y8141868D01*
X6016244Y8145830D01*
X6028436Y8151520D01*
X6039815Y8158784D01*
X6050076Y8167471D01*
X6059119Y8177479D01*
X6066790Y8188553D01*
X6072835Y8200593D01*
X6077254Y8213344D01*
X6079947Y8226552D01*
X6080861Y8239963D01*
X6079947Y8253425D01*
X6077254Y8266633D01*
X6072835Y8279384D01*
X6066790Y8291372D01*
X6059119Y8302498D01*
X6050076Y8312505D01*
X6039815Y8321192D01*
X6028436Y8328456D01*
X6016244Y8334095D01*
X6003340Y8338108D01*
X5990082Y8340344D01*
X5976620Y8340801D01*
X5963208Y8339429D01*
X5950102Y8336330D01*
X5937504Y8331504D01*
X5925667Y8325002D01*
X5914847Y8317026D01*
X5905144Y8307628D01*
X5896813Y8297062D01*
X5889955Y8285480D01*
X5884672Y8273084D01*
X5881116Y8260080D01*
X5879338Y8246719D01*
X5879338Y8233257D01*
X5881116Y8219897D01*
X5884672Y8206892D01*
X5889955Y8194497D01*
X5896813Y8182864D01*
X5905144Y8172297D01*
X5914847Y8162950D01*
X5925667Y8154924D01*
X5937504Y8148472D01*
X5950102Y8143646D01*
X5963208Y8140496D01*
G37*

%LPD*%
G36*
X1380134Y719988D02*
G01*
X1376222Y720750D01*
X1372971Y722985D01*
X1370736Y726287D01*
X1369974Y730148D01*
X1369974Y1285798D01*
X1370736Y1289659D01*
X1372971Y1292961D01*
X1667002Y1587042D01*
X1670304Y1589227D01*
X1674164Y1589989D01*
X2379827Y1589989D01*
X2383688Y1589227D01*
X2386990Y1587042D01*
X2389174Y1583740D01*
X2389987Y1579829D01*
X2390089Y1570329D01*
X2390698Y1570685D01*
X2407005Y1587042D01*
X2410307Y1589227D01*
X2414168Y1589989D01*
X3319830Y1589989D01*
X3323691Y1589227D01*
X3326993Y1587042D01*
X3329178Y1583740D01*
X3329990Y1579829D01*
X3329990Y1284224D01*
X3329178Y1280312D01*
X3326993Y1277010D01*
X3182924Y1132992D01*
X3179622Y1130757D01*
X3175762Y1129995D01*
X2934157Y1129995D01*
X2930296Y1130757D01*
X2926994Y1132992D01*
X2852928Y1207008D01*
X2850743Y1210310D01*
X2849981Y1214221D01*
X2849981Y1278991D01*
X2848965Y1280007D01*
X2359050Y1280007D01*
X2356662Y1280261D01*
X2351176Y1282750D01*
X2341930Y1285544D01*
X2332380Y1286814D01*
X2322728Y1286357D01*
X2313330Y1284325D01*
X2304288Y1280718D01*
X2300528Y1280007D01*
X2260955Y1280007D01*
X2259279Y1279296D01*
X1702968Y722985D01*
X1699666Y720750D01*
X1695754Y719988D01*
G37*

%LPD*%
D10*
X6717555Y3440282D02*
G01*
X6430027Y3727810D01*
X6430027Y7550002D01*
X7515369Y7550002D01*
X7663705Y7401666D01*
D11*
X3240041Y1289918D02*
G01*
X3279919Y1330050D01*
X3279919Y2650088D01*
X3320051Y2689966D01*
X8070105Y2689966D01*
X8070105Y6369918D01*
X7800357Y6639666D01*
X7663705Y6639666D01*
D10*
X7685295Y4672182D02*
G01*
X7240033Y5117698D01*
X7240033Y6939894D01*
X7032261Y7147666D01*
X6901705Y7147666D01*
X6885195Y3107796D02*
G01*
X7080013Y3302360D01*
X7080013Y4760066D01*
X6679963Y5160116D01*
X6679963Y5779876D01*
X6777753Y5877666D01*
X6901705Y5877666D01*
X192549Y6385666D02*
G01*
X75709Y6385666D01*
X-50020Y6259936D01*
X-50020Y4550008D01*
X117619Y4382368D01*
X117619Y4339696D01*
D11*
X5619005Y6639666D02*
G01*
X5740163Y6639666D01*
X6249941Y6130142D01*
X6249941Y2710032D01*
D10*
X4697493Y3440282D02*
G01*
X4450097Y3687932D01*
X4450097Y7289906D01*
X4689873Y7529936D01*
X5490735Y7529936D01*
X5619005Y7401666D01*
X4865133Y3107796D02*
G01*
X5059951Y3302360D01*
X5059951Y4740000D01*
X4629929Y5170022D01*
X4629929Y5769970D01*
X4737625Y5877666D01*
X4857005Y5877666D01*
X5665233Y4672182D02*
G01*
X5219971Y5117698D01*
X5219971Y6909922D01*
X4982227Y7147666D01*
X4857005Y7147666D01*
D11*
X3117105Y6639666D02*
G01*
X3250201Y6639666D01*
X3999755Y5890112D01*
X3999755Y2689966D01*
D10*
X2157493Y4339696D02*
G01*
X2039891Y4457044D01*
X2039891Y6189832D01*
X2235725Y6385666D01*
X2355105Y6385666D01*
D11*
X1444769Y1100688D02*
G01*
X1689879Y1345798D01*
X1689879Y5990188D01*
X1040401Y6639666D01*
X954549Y6639666D01*
X7599951Y309986D02*
G01*
X7489969Y200004D01*
X3360183Y200004D01*
X2330213Y1229974D01*
X7699976Y760003D02*
G01*
X7599977Y660003D01*
X7599977Y310004D01*
D12*
G01*
X8209983Y2159995D03*
G01*
X1700001Y-119999D03*
G01*
X980013Y-119999D03*
D13*
G01*
X686503Y4771369D03*
G01*
X1235143Y3889989D03*
G01*
X1222443Y4339569D03*
G01*
X686503Y3008609D03*
G01*
X1222443Y3440409D03*
G01*
X1085283Y3107669D03*
G01*
X1085283Y4672309D03*
G01*
X285183Y4672309D03*
G01*
X117543Y4339569D03*
G01*
X104843Y3889989D03*
G01*
X117543Y3440409D03*
G01*
X285183Y3107669D03*
G01*
X2726504Y4771369D03*
G01*
X3275144Y3889989D03*
G01*
X3262444Y4339569D03*
G01*
X2726504Y3008609D03*
G01*
X3262444Y3440409D03*
G01*
X3125284Y3107669D03*
G01*
X3125284Y4672309D03*
G01*
X2325184Y4672309D03*
G01*
X2157544Y4339569D03*
G01*
X2144844Y3889989D03*
G01*
X2157544Y3440409D03*
G01*
X2325184Y3107669D03*
G01*
X5266504Y4771369D03*
G01*
X5815144Y3889989D03*
G01*
X5802444Y4339569D03*
G01*
X5266504Y3008609D03*
G01*
X5802444Y3440409D03*
G01*
X5665284Y3107669D03*
G01*
X5665284Y4672309D03*
G01*
X4865184Y4672309D03*
G01*
X4697544Y4339569D03*
G01*
X4684844Y3889989D03*
G01*
X4697544Y3440409D03*
G01*
X4865184Y3107669D03*
G01*
X7286490Y4771369D03*
G01*
X7835130Y3889989D03*
G01*
X7822430Y4339569D03*
G01*
X7286490Y3008609D03*
G01*
X7822430Y3440409D03*
G01*
X7685270Y3107669D03*
G01*
X7685270Y4672309D03*
G01*
X6885170Y4672309D03*
G01*
X6717530Y4339569D03*
G01*
X6704830Y3889989D03*
G01*
X6717530Y3440409D03*
G01*
X6885170Y3107669D03*
D14*
G01*
X-204985Y2140005D03*
G01*
X964989Y2140005D03*
D15*
G01*
X680001Y2140005D03*
G01*
X380001Y2140005D03*
G01*
X80002Y2140005D03*
D16*
G01*
X2169990Y8239993D03*
D17*
G01*
X2423990Y8239993D03*
G01*
X2677990Y8239993D03*
G01*
X2931990Y8239993D03*
G01*
X3185990Y8239993D03*
G01*
X3439990Y8239993D03*
G01*
X3693990Y8239993D03*
G01*
X3947990Y8239993D03*
G01*
X4201990Y8239993D03*
G01*
X4455990Y8239993D03*
G01*
X4709990Y8239993D03*
G01*
X4963990Y8239993D03*
G01*
X5217990Y8239993D03*
G01*
X5471990Y8239993D03*
G01*
X5725990Y8239993D03*
G01*
X5979990Y8239993D03*
D18*
G01*
X192498Y5623692D03*
G01*
X192498Y5877692D03*
G01*
X192498Y6131692D03*
G01*
X192498Y6385692D03*
G01*
X192498Y6639692D03*
G01*
X192498Y6893692D03*
G01*
X192498Y7147692D03*
G01*
X192498Y7401692D03*
G01*
X954498Y7401692D03*
G01*
X954498Y7147692D03*
G01*
X954498Y6893692D03*
G01*
X954498Y6639692D03*
G01*
X954498Y6385692D03*
G01*
X954498Y6131692D03*
G01*
X954498Y5877692D03*
G01*
X954498Y5623692D03*
G01*
X2355105Y5623692D03*
G01*
X2355105Y5877692D03*
G01*
X2355105Y6131692D03*
G01*
X2355105Y6385692D03*
G01*
X2355105Y6639692D03*
G01*
X2355105Y6893692D03*
G01*
X2355105Y7147692D03*
G01*
X2355105Y7401692D03*
G01*
X3117105Y7401692D03*
G01*
X3117105Y7147692D03*
G01*
X3117105Y6893692D03*
G01*
X3117105Y6639692D03*
G01*
X3117105Y6385692D03*
G01*
X3117105Y6131692D03*
G01*
X3117105Y5877692D03*
G01*
X3117105Y5623692D03*
G01*
X4857005Y5623692D03*
G01*
X4857005Y5877692D03*
G01*
X4857005Y6131692D03*
G01*
X4857005Y6385692D03*
G01*
X4857005Y6639692D03*
G01*
X4857005Y6893692D03*
G01*
X4857005Y7147692D03*
G01*
X4857005Y7401692D03*
G01*
X5619005Y7401692D03*
G01*
X5619005Y7147692D03*
G01*
X5619005Y6893692D03*
G01*
X5619005Y6639692D03*
G01*
X5619005Y6385692D03*
G01*
X5619005Y6131692D03*
G01*
X5619005Y5877692D03*
G01*
X5619005Y5623692D03*
G01*
X6901705Y5623692D03*
G01*
X6901705Y5877692D03*
G01*
X6901705Y6131692D03*
G01*
X6901705Y6385692D03*
G01*
X6901705Y6639692D03*
G01*
X6901705Y6893692D03*
G01*
X6901705Y7147692D03*
G01*
X6901705Y7401692D03*
G01*
X7663705Y7401692D03*
G01*
X7663705Y7147692D03*
G01*
X7663705Y6893692D03*
G01*
X7663705Y6639692D03*
G01*
X7663705Y6385692D03*
G01*
X7663705Y6131692D03*
G01*
X7663705Y5877692D03*
G01*
X7663705Y5623692D03*
D19*
G01*
X-93809Y560837D03*
G01*
X-93809Y1424818D03*
G01*
X286199Y560837D03*
G01*
X286199Y1424818D03*
D20*
G01*
X7999976Y5D03*
D21*
G01*
X7999976Y241305D03*
G01*
X7999976Y-228594D03*
G01*
X8241276Y5D03*
G01*
X7758676Y5D03*
G01*
X8165076Y165105D03*
G01*
X7822176Y165105D03*
G01*
X7822176Y-165094D03*
G01*
X8165076Y-165094D03*
D20*
G01*
X-7Y5D03*
D21*
G01*
X-7Y241305D03*
G01*
X-7Y-228594D03*
G01*
X241292Y5D03*
G01*
X-241307Y5D03*
G01*
X165092Y165105D03*
G01*
X-177807Y165105D03*
G01*
X-177807Y-165094D03*
G01*
X165092Y-165094D03*
D20*
G01*
X-7Y7999963D03*
D21*
G01*
X-7Y8241263D03*
G01*
X-7Y7771363D03*
G01*
X241292Y7999963D03*
G01*
X-241307Y7999963D03*
G01*
X165092Y8165063D03*
G01*
X-177807Y8165063D03*
G01*
X-177807Y7834863D03*
G01*
X165092Y7834863D03*
D20*
G01*
X7999976Y7999989D03*
D21*
G01*
X7999976Y8241289D03*
G01*
X7999976Y7771389D03*
G01*
X8241276Y7999989D03*
G01*
X7758676Y7999989D03*
G01*
X8165076Y8165089D03*
G01*
X7822176Y8165089D03*
G01*
X7822176Y7834889D03*
G01*
X8165076Y7834889D03*
D22*
G01*
X1444718Y1100612D03*
G01*
X1444718Y1000612D03*
G01*
X1444718Y900612D03*
G01*
X2329985Y1229974D03*
G01*
X2999986Y1419992D03*
G01*
X3159980Y1219992D03*
G01*
X3239990Y1289994D03*
G01*
X7699976Y759998D03*
G01*
X880000Y280014D03*
G01*
X980000Y280014D03*
G01*
X1080000Y280014D03*
G01*
X899990Y1700001D03*
G01*
X999990Y1700001D03*
G01*
X1099990Y1700001D03*
G01*
X4499983Y2080011D03*
G01*
X4629980Y2080011D03*
G01*
X7609984Y2289992D03*
G01*
X7879986Y2289992D03*
G01*
X7879986Y519993D03*
G01*
X7179988Y-29992D03*
G01*
X7179988Y-150007D03*
G01*
X4099984Y389996D03*
G01*
X4179994Y389996D03*
G01*
X4260004Y389996D03*
G01*
X4339988Y389996D03*
G01*
X4419998Y389996D03*
M02*
