G04 Layer: TopLayer*
G04 EasyEDA v6.5.34, 2023-09-21 21:59:44*
G04 1037e3338c1a49738aad6bad4f376bef,8e72fd04a6c14d66a7e837eb9aaabff2,10*
G04 Gerber Generator version 0.2*
G04 Scale: 100 percent, Rotated: No, Reflected: No *
G04 Dimensions in millimeters *
G04 leading zeros omitted , absolute positions ,4 integer and 5 decimal *
%FSLAX45Y45*%
%MOMM*%

%AMMACRO1*21,1,$1,$2,0,0,$3*%
%ADD10C,0.5000*%
%ADD11C,0.7000*%
%ADD12C,0.3000*%
%ADD13C,0.2540*%
%ADD14MACRO1,1.728X1.485X90.0000*%
%ADD15MACRO1,1.728X1.485X0.0000*%
%ADD16R,1.7280X1.4850*%
%ADD17MACRO1,1.728X1.485X-90.0000*%
%ADD18R,1.7201X1.1199*%
%ADD19R,3.4300X1.7900*%
%ADD20R,6.0000X6.5000*%
%ADD21R,1.6000X3.0000*%
%ADD22MACRO1,1.6002X3.0023X0.0000*%
%ADD23MACRO1,1.701X1.2075X0.0000*%
%ADD24R,1.7010X1.2075*%
%ADD25MACRO1,1.701X1.2075X90.0000*%
%ADD26R,1.6000X1.6000*%
%ADD27R,1.5000X1.1999*%
%ADD28O,1.620012X0.2800096*%
%ADD29R,1.8300X2.1000*%
%ADD30R,1.6000X3.5000*%
%ADD31MACRO1,2.7X1.635X0.0000*%
%ADD32R,2.7000X1.6350*%
%ADD33R,1.0000X0.8000*%
%ADD34R,1.0000X0.7000*%
%ADD35C,1.5240*%
%ADD36C,2.5400*%
%ADD37O,1.499997X2.7999944*%
%ADD38C,2.0000*%
%ADD39R,1.4999X1.4999*%
%ADD40C,1.4999*%
%ADD41R,2.1819X1.2116*%
%ADD42O,1.8999962X1.0999978000000001*%
%ADD43C,6.0000*%
%ADD44C,0.6100*%
%ADD45C,0.6200*%
%ADD46C,0.0137*%

%LPD*%
G36*
X7530134Y2020011D02*
G01*
X7526223Y2020773D01*
X7522921Y2022957D01*
X7520736Y2026259D01*
X7519974Y2030171D01*
X7519974Y2329840D01*
X7520736Y2333701D01*
X7522921Y2337003D01*
X7526223Y2339238D01*
X7530134Y2340000D01*
X7959801Y2340000D01*
X7963662Y2339238D01*
X7966964Y2337003D01*
X7969199Y2333701D01*
X7969961Y2329840D01*
X7969961Y2030171D01*
X7969199Y2026259D01*
X7966964Y2022957D01*
X7963662Y2020773D01*
X7959801Y2020011D01*
G37*

%LPD*%
G36*
X6470142Y1760016D02*
G01*
X6466230Y1760778D01*
X6462928Y1762963D01*
X6460744Y1766265D01*
X6459982Y1770176D01*
X6459982Y2115769D01*
X6460744Y2119680D01*
X6462928Y2122982D01*
X6516979Y2177034D01*
X6520281Y2179218D01*
X6524193Y2179980D01*
X7329779Y2179980D01*
X7333691Y2179218D01*
X7336993Y2177034D01*
X7339177Y2173732D01*
X7339939Y2169820D01*
X7339939Y1997049D01*
X7339228Y1993290D01*
X7337196Y1990089D01*
X7334097Y1987854D01*
X7330389Y1986889D01*
X7325055Y1986584D01*
X7309866Y1983892D01*
X7295184Y1979371D01*
X7281062Y1973072D01*
X7269022Y1965960D01*
X7215936Y1930654D01*
X7129576Y1888947D01*
X7124039Y1887067D01*
X7109968Y1880768D01*
X7096810Y1872792D01*
X7084669Y1863293D01*
X7073798Y1852422D01*
X7064298Y1840280D01*
X7056323Y1827123D01*
X7050024Y1813102D01*
X7045452Y1798370D01*
X7042658Y1783232D01*
X7041845Y1769567D01*
X7040880Y1765858D01*
X7038644Y1762760D01*
X7035444Y1760728D01*
X7031685Y1760016D01*
G37*

%LPD*%
G36*
X4446016Y1740001D02*
G01*
X4442155Y1740763D01*
X4438853Y1742948D01*
X4436668Y1746250D01*
X4435856Y1750161D01*
X4435856Y1969516D01*
X4435398Y1974748D01*
X4433620Y1980387D01*
X4430725Y1985365D01*
X4426407Y1990039D01*
X4423511Y1992528D01*
X4420870Y1995982D01*
X4419955Y2000199D01*
X4419955Y2119833D01*
X4420717Y2123744D01*
X4422952Y2126996D01*
X4426254Y2129231D01*
X4430115Y2129993D01*
X4769815Y2129993D01*
X4773676Y2129231D01*
X4776978Y2126996D01*
X4779213Y2123744D01*
X4779975Y2119833D01*
X4779975Y1750161D01*
X4779213Y1746250D01*
X4776978Y1742948D01*
X4773676Y1740763D01*
X4769815Y1740001D01*
G37*

%LPD*%
G36*
X7479436Y1359357D02*
G01*
X7475575Y1360170D01*
X7472273Y1362354D01*
X7448245Y1386382D01*
X7446009Y1389684D01*
X7445248Y1393596D01*
X7445248Y1524101D01*
X7444282Y1539798D01*
X7441539Y1554937D01*
X7436967Y1569618D01*
X7430617Y1583690D01*
X7422642Y1596847D01*
X7413142Y1608988D01*
X7402271Y1619859D01*
X7390180Y1629359D01*
X7376972Y1637334D01*
X7362952Y1643634D01*
X7348270Y1648206D01*
X7333081Y1651000D01*
X7317435Y1651965D01*
X7197293Y1651965D01*
X7188098Y1651406D01*
X7183881Y1652016D01*
X7180275Y1654352D01*
X7178192Y1656384D01*
X7176008Y1659686D01*
X7175246Y1663598D01*
X7175246Y1763014D01*
X7175957Y1766722D01*
X7177938Y1769922D01*
X7180986Y1772157D01*
X7280249Y1820214D01*
X7337399Y1858264D01*
X7340092Y1859534D01*
X7343038Y1859991D01*
X7515250Y1859381D01*
X7961020Y1859381D01*
X7964931Y1858619D01*
X7968234Y1856384D01*
X7972247Y1852371D01*
X7974482Y1849069D01*
X7975244Y1845157D01*
X7975244Y1439519D01*
X7974482Y1435658D01*
X7972247Y1432356D01*
X7968945Y1430172D01*
X7965084Y1429359D01*
X7806232Y1429359D01*
X7804505Y1428699D01*
X7798206Y1422349D01*
X7794904Y1420164D01*
X7791043Y1419402D01*
X7676235Y1419402D01*
X7674508Y1418691D01*
X7618222Y1362354D01*
X7614920Y1360170D01*
X7611008Y1359357D01*
G37*

%LPD*%
G36*
X2877769Y1251153D02*
G01*
X2873552Y1251610D01*
X2869946Y1253744D01*
X2867456Y1257147D01*
X2866593Y1261262D01*
X2866593Y1427734D01*
X2867355Y1431645D01*
X2869590Y1434947D01*
X2916682Y1482039D01*
X2917393Y1483766D01*
X2917393Y1717192D01*
X2918155Y1721053D01*
X2920390Y1724355D01*
X2926486Y1730451D01*
X2929737Y1732635D01*
X2933598Y1733448D01*
X3088335Y1734057D01*
X3092246Y1733296D01*
X3095548Y1731060D01*
X3097784Y1727758D01*
X3098546Y1723898D01*
X3098546Y1337310D01*
X3097834Y1333601D01*
X3095802Y1330401D01*
X3027172Y1256741D01*
X3023870Y1254404D01*
X3019907Y1253540D01*
X2946857Y1252423D01*
X2937611Y1251407D01*
X2880461Y1251407D01*
G37*

%LPD*%
G36*
X3048965Y1152398D02*
G01*
X3044698Y1153312D01*
X3041243Y1155954D01*
X3039160Y1159814D01*
X3038906Y1164183D01*
X3040532Y1168247D01*
X3043682Y1171244D01*
X3047796Y1172667D01*
X3050895Y1173022D01*
X3058617Y1175512D01*
X3065475Y1179322D01*
X3072587Y1185468D01*
X3199536Y1321714D01*
X3204718Y1328521D01*
X3208223Y1335684D01*
X3210052Y1342440D01*
X3212033Y1346352D01*
X3215538Y1349044D01*
X3219856Y1350010D01*
X3299815Y1350010D01*
X3303676Y1349248D01*
X3306978Y1347012D01*
X3309213Y1343710D01*
X3309975Y1339850D01*
X3309975Y1254150D01*
X3309213Y1250289D01*
X3307029Y1247038D01*
X3216859Y1155446D01*
X3213557Y1153210D01*
X3209645Y1152398D01*
G37*

%LPD*%
G36*
X2873095Y1150670D02*
G01*
X2868828Y1151178D01*
X2865170Y1153363D01*
X2862681Y1156868D01*
X2861970Y1162507D01*
X2862935Y1166520D01*
X2865374Y1169822D01*
X2868980Y1171854D01*
X2873095Y1172311D01*
X2880258Y1171600D01*
X2884322Y1170330D01*
X2887472Y1167485D01*
X2889199Y1163624D01*
X2889199Y1159357D01*
X2887472Y1155496D01*
X2884322Y1152702D01*
X2880258Y1151382D01*
G37*

%LPD*%
G36*
X3096564Y1055471D02*
G01*
X3093516Y1055573D01*
X3090672Y1056589D01*
X3088233Y1058367D01*
X3058515Y1088136D01*
X3053740Y1091895D01*
X3048508Y1094435D01*
X3043021Y1095705D01*
X3036011Y1095908D01*
X3031540Y1097076D01*
X3027019Y1100582D01*
X3025190Y1104544D01*
X3025241Y1108913D01*
X3027070Y1112875D01*
X3030423Y1115720D01*
X3034639Y1116838D01*
X3213303Y1125169D01*
X3218180Y1125829D01*
X3223768Y1127760D01*
X3228898Y1131011D01*
X3231235Y1133094D01*
X3328263Y1231646D01*
X3332022Y1236421D01*
X3334461Y1241653D01*
X3335731Y1247343D01*
X3335883Y1250238D01*
X3335883Y1316736D01*
X3336645Y1320647D01*
X3338880Y1323949D01*
X3342182Y1326184D01*
X3448151Y1369263D01*
X3451961Y1369974D01*
X3593998Y1369974D01*
X3598062Y1369161D01*
X3601465Y1366723D01*
X3603599Y1363116D01*
X3604107Y1358646D01*
X3612946Y1066393D01*
X3612286Y1062380D01*
X3610101Y1058976D01*
X3606749Y1056690D01*
X3602786Y1055878D01*
X3100527Y1055878D01*
G37*

%LPD*%
G36*
X2640126Y709980D02*
G01*
X2636215Y710742D01*
X2632964Y712978D01*
X2630728Y716280D01*
X2629966Y720140D01*
X2629966Y844550D01*
X2630525Y847801D01*
X2632049Y850747D01*
X2634488Y852982D01*
X2660243Y870203D01*
X2790037Y970026D01*
X2830220Y1000252D01*
X2849321Y1019302D01*
X2850337Y1020927D01*
X2867406Y1063599D01*
X2869590Y1066952D01*
X2872892Y1069187D01*
X2876854Y1070000D01*
X3035757Y1070000D01*
X3039668Y1069238D01*
X3042970Y1067003D01*
X3071266Y1038707D01*
X3073044Y1036269D01*
X3074060Y1033424D01*
X3074060Y736041D01*
X3073298Y732180D01*
X3071114Y728878D01*
X3067812Y726694D01*
X3063900Y725881D01*
X2900527Y725881D01*
X2894228Y725170D01*
X2888742Y723290D01*
X2883865Y720191D01*
X2879750Y716127D01*
X2876651Y712216D01*
X2873654Y710539D01*
X2870301Y709980D01*
G37*

%LPD*%
G36*
X4110126Y499973D02*
G01*
X4106265Y500786D01*
X4102963Y502970D01*
X4100728Y506272D01*
X4099966Y510133D01*
X4099966Y1388973D01*
X4099255Y1390700D01*
X4090670Y1399286D01*
X4088942Y1399997D01*
X3474161Y1399997D01*
X3470300Y1400759D01*
X3466998Y1402994D01*
X3462934Y1407007D01*
X3460750Y1410309D01*
X3459987Y1414221D01*
X3459987Y1615795D01*
X3460750Y1619656D01*
X3462934Y1622958D01*
X3469284Y1629308D01*
X3469944Y1630984D01*
X3469944Y2249982D01*
X3470706Y2253843D01*
X3472891Y2257145D01*
X3476142Y2259330D01*
X3479952Y2260142D01*
X4056126Y2269947D01*
X4059732Y2269337D01*
X4062882Y2267508D01*
X4406442Y1973021D01*
X4409033Y1969566D01*
X4409948Y1965248D01*
X4409948Y1958644D01*
X4409541Y1955850D01*
X4408373Y1953260D01*
X4404664Y1947418D01*
X4402785Y1941931D01*
X4402074Y1935632D01*
X4402074Y1757781D01*
X4402785Y1751431D01*
X4404664Y1745996D01*
X4408424Y1740103D01*
X4409592Y1737461D01*
X4409948Y1734667D01*
X4409948Y1708657D01*
X4409541Y1705864D01*
X4408373Y1703273D01*
X4404664Y1697380D01*
X4402785Y1691944D01*
X4402074Y1685594D01*
X4402074Y1507744D01*
X4402785Y1501444D01*
X4404664Y1495958D01*
X4408424Y1490065D01*
X4409541Y1487474D01*
X4409948Y1484680D01*
X4409948Y1451000D01*
X4410913Y1449984D01*
X4760112Y1440281D01*
X4763871Y1439418D01*
X4767072Y1437182D01*
X4769205Y1433931D01*
X4769967Y1430121D01*
X4769967Y519887D01*
X4769205Y516026D01*
X4767072Y512775D01*
X4763922Y510590D01*
X4760112Y509727D01*
X4430115Y499973D01*
G37*

%LPD*%
G36*
X7770114Y449986D02*
G01*
X7766253Y450748D01*
X7762951Y452983D01*
X7760716Y456285D01*
X7759953Y460146D01*
X7759953Y729843D01*
X7760716Y733704D01*
X7762951Y737006D01*
X7766253Y739241D01*
X7770114Y740003D01*
X7999780Y740003D01*
X8003692Y739241D01*
X8006994Y737006D01*
X8009178Y733704D01*
X8009940Y729843D01*
X8009940Y460146D01*
X8009178Y456285D01*
X8006994Y452983D01*
X8003692Y450748D01*
X7999780Y449986D01*
G37*

%LPD*%
G36*
X2914192Y420014D02*
G01*
X2910281Y420776D01*
X2906979Y422960D01*
X2902915Y427024D01*
X2900730Y430326D01*
X2899968Y434187D01*
X2899968Y681431D01*
X2900730Y685292D01*
X2902966Y688594D01*
X2906268Y690829D01*
X2910128Y691591D01*
X3074466Y691591D01*
X3080766Y692302D01*
X3086252Y694182D01*
X3092094Y697890D01*
X3095447Y699262D01*
X3099816Y700125D01*
X3099968Y701040D01*
X3100070Y710590D01*
X3100933Y718058D01*
X3100933Y837641D01*
X3099968Y846378D01*
X3099968Y1019810D01*
X3100730Y1023721D01*
X3102965Y1027023D01*
X3106267Y1029208D01*
X3110128Y1029969D01*
X3638905Y1029969D01*
X3639921Y1030986D01*
X3639210Y1054963D01*
X3639769Y1058621D01*
X3641344Y1063142D01*
X3642055Y1069441D01*
X3642055Y1350568D01*
X3642817Y1354378D01*
X3644900Y1357630D01*
X3648100Y1359865D01*
X3651859Y1360728D01*
X3919778Y1369974D01*
X4059783Y1369974D01*
X4063695Y1369212D01*
X4066997Y1367028D01*
X4069181Y1363726D01*
X4069943Y1359814D01*
X4069994Y870305D01*
X4069079Y866190D01*
X4066590Y862736D01*
X4062882Y860653D01*
X4058665Y860247D01*
X4052773Y860907D01*
X3893921Y860907D01*
X3885336Y859993D01*
X3870960Y859993D01*
X3869994Y858977D01*
X3869994Y847699D01*
X3869385Y844346D01*
X3868165Y840740D01*
X3867454Y834440D01*
X3867454Y490169D01*
X3866642Y486257D01*
X3864457Y482955D01*
X3861155Y480771D01*
X3857294Y480009D01*
X3340608Y480009D01*
X3339388Y479856D01*
X3139440Y429920D01*
X3069234Y420014D01*
G37*

%LPD*%
G36*
X6930136Y-249986D02*
G01*
X6926224Y-249224D01*
X6922922Y-247040D01*
X6920738Y-243738D01*
X6919975Y-239826D01*
X6919975Y19862D01*
X6920738Y23723D01*
X6922922Y27025D01*
X6926224Y29209D01*
X6930136Y30022D01*
X7239812Y30022D01*
X7243673Y29209D01*
X7246975Y27025D01*
X7249210Y23723D01*
X7249972Y19862D01*
X7249972Y-235813D01*
X7249210Y-239674D01*
X7246975Y-242976D01*
X7242911Y-247040D01*
X7239660Y-249224D01*
X7235748Y-249986D01*
G37*

%LPD*%
G36*
X1370228Y-399999D02*
G01*
X1366316Y-399237D01*
X1363014Y-397002D01*
X1360830Y-393649D01*
X1360068Y-389737D01*
X1369974Y649935D01*
X1369974Y709015D01*
X1369263Y710641D01*
X528878Y710641D01*
X525018Y711403D01*
X521716Y713587D01*
X515416Y719886D01*
X513689Y720598D01*
X498906Y720598D01*
X494995Y721410D01*
X491693Y723595D01*
X405384Y809904D01*
X403707Y810615D01*
X287883Y810158D01*
X283972Y810920D01*
X280670Y813104D01*
X278434Y816406D01*
X277672Y820318D01*
X277672Y869848D01*
X278434Y873709D01*
X280670Y877011D01*
X283921Y879195D01*
X287832Y880008D01*
X348996Y880008D01*
X353822Y882446D01*
X359867Y884529D01*
X364744Y887628D01*
X368858Y891743D01*
X371957Y896619D01*
X373837Y902106D01*
X374548Y908405D01*
X374548Y977239D01*
X373837Y983589D01*
X371805Y989482D01*
X371195Y992835D01*
X371805Y996187D01*
X373837Y1002080D01*
X374548Y1008380D01*
X374548Y1077264D01*
X373837Y1083564D01*
X371957Y1089050D01*
X368858Y1093927D01*
X364744Y1098042D01*
X359867Y1101140D01*
X354380Y1103020D01*
X348081Y1103731D01*
X299872Y1103833D01*
X253593Y1109522D01*
X250088Y1110589D01*
X247243Y1112875D01*
X245364Y1116025D01*
X244703Y1119581D01*
X244703Y1160932D01*
X245414Y1164691D01*
X247497Y1167942D01*
X250647Y1170178D01*
X254355Y1171092D01*
X453999Y1180592D01*
X455371Y1180846D01*
X543814Y1210310D01*
X545388Y1211173D01*
X641908Y1288389D01*
X644906Y1290066D01*
X648258Y1290624D01*
X1534515Y1290624D01*
X1537665Y1290015D01*
X1575765Y1290015D01*
X1579626Y1289202D01*
X1582928Y1287018D01*
X1707337Y1162659D01*
X1709369Y1159713D01*
X1710283Y1156258D01*
X1729892Y900988D01*
X1730400Y899515D01*
X2379218Y170840D01*
X2380996Y169976D01*
X4798974Y169976D01*
X4799990Y170992D01*
X4799990Y1429816D01*
X4800752Y1433728D01*
X4802936Y1437030D01*
X4806238Y1439214D01*
X4810150Y1439976D01*
X6805777Y1439976D01*
X6809638Y1439214D01*
X6812940Y1437030D01*
X6826961Y1422958D01*
X6829196Y1419656D01*
X6829958Y1415796D01*
X6829958Y-389839D01*
X6829196Y-393750D01*
X6827012Y-397052D01*
X6823709Y-399237D01*
X6819798Y-399999D01*
G37*

%LPD*%
G36*
X-389839Y-399999D02*
G01*
X-393750Y-399237D01*
X-397052Y-397052D01*
X-399237Y-393750D01*
X-399999Y-389839D01*
X-399999Y740003D01*
X-399237Y743864D01*
X-397103Y747115D01*
X-393852Y749350D01*
X-389686Y750163D01*
X-393649Y750874D01*
X-397002Y753059D01*
X-399237Y756412D01*
X-399999Y760323D01*
X-399999Y1829816D01*
X-399237Y1833727D01*
X-397052Y1837029D01*
X-393750Y1839214D01*
X-389839Y1839975D01*
X669950Y1839975D01*
X1010005Y1842770D01*
X1010005Y1978609D01*
X1010513Y1981911D01*
X1012088Y1984806D01*
X1014526Y1987092D01*
X1026414Y1994966D01*
X1036319Y2003653D01*
X1045006Y2013559D01*
X1052322Y2024532D01*
X1058164Y2036368D01*
X1062431Y2048865D01*
X1064971Y2061819D01*
X1065885Y2075332D01*
X1065885Y2204669D01*
X1064971Y2218182D01*
X1062431Y2231085D01*
X1058164Y2243582D01*
X1053287Y2253538D01*
X1052220Y2257602D01*
X1052931Y2261717D01*
X1055217Y2265222D01*
X1067003Y2277008D01*
X1070305Y2279192D01*
X1074166Y2280005D01*
X2848051Y2280005D01*
X2851912Y2279192D01*
X2855214Y2277008D01*
X2866999Y2265222D01*
X2869184Y2261920D01*
X2869996Y2258060D01*
X2869996Y1920138D01*
X2869184Y1916277D01*
X2866999Y1912975D01*
X2863697Y1910740D01*
X2859836Y1909978D01*
X2641193Y1909978D01*
X2637332Y1910740D01*
X2634030Y1912975D01*
X2631795Y1916277D01*
X2631033Y1920138D01*
X2631033Y2029561D01*
X2630322Y2035911D01*
X2628442Y2041347D01*
X2625344Y2046274D01*
X2621229Y2050338D01*
X2616352Y2053437D01*
X2610866Y2055368D01*
X2604566Y2056079D01*
X2435606Y2056079D01*
X2429306Y2055368D01*
X2423820Y2053437D01*
X2418943Y2050338D01*
X2414828Y2046274D01*
X2411730Y2041347D01*
X2409850Y2035911D01*
X2409139Y2029561D01*
X2409139Y1935022D01*
X2408377Y1931111D01*
X2406142Y1927809D01*
X2101291Y1622958D01*
X2097989Y1620774D01*
X2094128Y1620012D01*
X1899970Y1620012D01*
X1899970Y1599996D01*
X2025091Y1599996D01*
X2028901Y1599285D01*
X2032152Y1597152D01*
X2034387Y1594053D01*
X2035251Y1590294D01*
X2034692Y1586484D01*
X2033778Y1583842D01*
X2033066Y1577543D01*
X2033066Y1405890D01*
X2033778Y1399540D01*
X2035708Y1394104D01*
X2038756Y1389176D01*
X2042871Y1385112D01*
X2047748Y1382014D01*
X2053183Y1380134D01*
X2056739Y1378000D01*
X2059127Y1374597D01*
X2059990Y1370533D01*
X2059990Y1358849D01*
X2059127Y1354785D01*
X2056739Y1351432D01*
X2053183Y1349298D01*
X2047748Y1347368D01*
X2042871Y1344320D01*
X2038756Y1340205D01*
X2035708Y1335328D01*
X2033778Y1329842D01*
X2033066Y1323543D01*
X2033066Y1151890D01*
X2033778Y1145540D01*
X2035708Y1140104D01*
X2038756Y1135176D01*
X2042871Y1131112D01*
X2047748Y1128014D01*
X2053183Y1126134D01*
X2056739Y1124000D01*
X2059127Y1120597D01*
X2059990Y1116533D01*
X2059990Y1082395D01*
X2059228Y1078484D01*
X2056993Y1075182D01*
X2053996Y1072184D01*
X2050897Y1067257D01*
X2048967Y1061821D01*
X2048256Y1055471D01*
X2048256Y886510D01*
X2048967Y880211D01*
X2050897Y874725D01*
X2053996Y869848D01*
X2058060Y865733D01*
X2062988Y862685D01*
X2068423Y860755D01*
X2074773Y860044D01*
X2197506Y859942D01*
X2200402Y858926D01*
X2202840Y857148D01*
X2209850Y850341D01*
X2210003Y860450D01*
X2210765Y864362D01*
X2212949Y867664D01*
X2215134Y869848D01*
X2218232Y874725D01*
X2220112Y880211D01*
X2220823Y886510D01*
X2220823Y996645D01*
X2221636Y1000556D01*
X2223820Y1003858D01*
X2289911Y1069898D01*
X2293162Y1072083D01*
X2297074Y1072896D01*
X2447137Y1072896D01*
X2450185Y1072388D01*
X2458466Y1071575D01*
X2591460Y1071575D01*
X2599740Y1072388D01*
X2607259Y1074674D01*
X2614930Y1078788D01*
X2617266Y1079703D01*
X2619705Y1080008D01*
X2629001Y1080008D01*
X2629966Y1080973D01*
X2629966Y1098600D01*
X2631084Y1103731D01*
X2631846Y1111504D01*
X2631084Y1119276D01*
X2629966Y1124407D01*
X2629966Y1148588D01*
X2631084Y1153718D01*
X2631846Y1161491D01*
X2631084Y1169263D01*
X2629966Y1174394D01*
X2629966Y1198575D01*
X2631084Y1203706D01*
X2631846Y1211478D01*
X2631084Y1219301D01*
X2629966Y1224432D01*
X2629966Y1232611D01*
X2630373Y1235405D01*
X2632252Y1239215D01*
X2634183Y1244650D01*
X2634894Y1250950D01*
X2634894Y1299819D01*
X2635656Y1303731D01*
X2637891Y1307033D01*
X2641142Y1309217D01*
X2645054Y1309979D01*
X2830525Y1309979D01*
X2834436Y1309217D01*
X2837738Y1307033D01*
X2839923Y1303731D01*
X2840685Y1299819D01*
X2840685Y1267764D01*
X2840126Y1261516D01*
X2840685Y1255572D01*
X2840888Y1249121D01*
X2842158Y1243584D01*
X2844393Y1238910D01*
X2845511Y1235710D01*
X2845511Y1232357D01*
X2844444Y1229207D01*
X2843174Y1226769D01*
X2840888Y1219301D01*
X2840126Y1211478D01*
X2840888Y1203706D01*
X2843377Y1195578D01*
X2843733Y1191717D01*
X2841955Y1186586D01*
X2837992Y1176426D01*
X2836468Y1170533D01*
X2836164Y1167231D01*
X2835808Y1150416D01*
X2836722Y1145082D01*
X2836824Y1142542D01*
X2836265Y1140053D01*
X2834792Y1135735D01*
X2834081Y1129436D01*
X2834081Y1090574D01*
X2834792Y1084224D01*
X2836672Y1078788D01*
X2839262Y1074674D01*
X2840583Y1071575D01*
X2840736Y1067765D01*
X2840075Y1065022D01*
X2828645Y1036472D01*
X2826410Y1033068D01*
X2812389Y1019200D01*
X2774137Y990498D01*
X2667203Y908303D01*
X2620822Y880516D01*
X2619959Y879246D01*
X2618994Y875995D01*
X2617012Y873252D01*
X2609748Y866089D01*
X2606700Y861212D01*
X2604770Y855726D01*
X2604058Y849426D01*
X2604058Y710539D01*
X2604770Y704240D01*
X2606700Y698754D01*
X2611729Y691032D01*
X2612644Y687730D01*
X2612339Y684276D01*
X2610307Y680110D01*
X2626664Y679907D01*
X2634132Y679094D01*
X2805785Y679094D01*
X2814421Y680008D01*
X2825750Y680008D01*
X2829661Y679196D01*
X2832963Y677011D01*
X2836976Y672947D01*
X2839212Y669696D01*
X2839974Y665784D01*
X2839974Y410972D01*
X2840888Y409956D01*
X2877820Y408635D01*
X2881528Y407822D01*
X2884678Y405688D01*
X2888792Y401523D01*
X2893771Y398373D01*
X2901238Y395579D01*
X2907080Y394258D01*
X2910230Y394106D01*
X3069590Y394106D01*
X3074009Y394411D01*
X3113633Y400050D01*
X3120745Y400202D01*
X3127197Y401980D01*
X3143402Y404317D01*
X3146501Y404926D01*
X3341928Y453796D01*
X3344418Y454101D01*
X3869385Y454101D01*
X3875735Y454812D01*
X3881170Y456692D01*
X3886098Y459790D01*
X3890162Y463905D01*
X3893261Y468782D01*
X3895191Y474218D01*
X3895902Y480568D01*
X3895902Y823925D01*
X3896664Y827836D01*
X3898849Y831087D01*
X3902151Y833323D01*
X3906062Y834085D01*
X4059834Y834085D01*
X4063695Y833323D01*
X4066997Y831087D01*
X4069181Y827836D01*
X4069994Y823925D01*
X4069994Y471017D01*
X4070959Y470001D01*
X4763922Y470001D01*
X4767783Y469239D01*
X4771085Y467004D01*
X4773269Y463702D01*
X4774082Y459841D01*
X4774082Y206044D01*
X4773269Y202184D01*
X4771085Y198882D01*
X4767783Y196697D01*
X4763922Y195884D01*
X2396134Y195884D01*
X2392019Y196799D01*
X2388565Y199288D01*
X1757425Y908151D01*
X1755648Y910894D01*
X1754886Y914095D01*
X1735836Y1161440D01*
X1734667Y1167688D01*
X1732381Y1172870D01*
X1727809Y1178763D01*
X1598472Y1308100D01*
X1593748Y1311910D01*
X1588516Y1314450D01*
X1582877Y1315720D01*
X1579676Y1315923D01*
X1550162Y1315923D01*
X1547317Y1316177D01*
X1544574Y1316888D01*
X1539290Y1319987D01*
X699465Y1319885D01*
X686155Y1317244D01*
X684174Y1317040D01*
X666496Y1317040D01*
X661314Y1316532D01*
X645261Y1316532D01*
X638911Y1315821D01*
X633476Y1313891D01*
X628091Y1310538D01*
X618947Y1303172D01*
X615035Y1301242D01*
X611327Y1300327D01*
X608990Y1299006D01*
X589686Y1279804D01*
X540156Y1240129D01*
X537768Y1238758D01*
X535127Y1237996D01*
X400659Y1220063D01*
X251002Y1220012D01*
X249986Y1218996D01*
X249986Y1212697D01*
X249123Y1208633D01*
X246735Y1205280D01*
X243179Y1203147D01*
X237439Y1201115D01*
X232562Y1198016D01*
X228447Y1193952D01*
X225348Y1189024D01*
X224028Y1186027D01*
X221386Y1181811D01*
X219506Y1176375D01*
X218795Y1170025D01*
X218795Y1110894D01*
X219456Y1104798D01*
X221284Y1099515D01*
X223723Y1095400D01*
X225145Y1091234D01*
X224586Y1086866D01*
X223469Y1083564D01*
X222758Y1077264D01*
X222758Y1008380D01*
X223469Y1002080D01*
X225501Y996187D01*
X226110Y992835D01*
X225501Y989482D01*
X223469Y983589D01*
X222758Y977239D01*
X222758Y908405D01*
X223469Y902106D01*
X225247Y896975D01*
X225806Y893571D01*
X225196Y890168D01*
X222758Y883361D01*
X222046Y877112D01*
X222046Y813511D01*
X223418Y802132D01*
X225348Y796594D01*
X228447Y791718D01*
X232562Y787603D01*
X237439Y784555D01*
X243179Y782523D01*
X246735Y780389D01*
X249123Y777036D01*
X249986Y772972D01*
X249986Y769975D01*
X249224Y766165D01*
X247040Y762863D01*
X243840Y760679D01*
X240334Y759917D01*
X414477Y759968D01*
X418338Y759206D01*
X421640Y757021D01*
X476148Y702513D01*
X480923Y698703D01*
X486156Y696163D01*
X491642Y694893D01*
X500126Y694690D01*
X503682Y693978D01*
X506780Y691997D01*
X510895Y688695D01*
X516128Y686155D01*
X521766Y684885D01*
X524967Y684733D01*
X638098Y684733D01*
X641451Y684123D01*
X647446Y682040D01*
X653796Y681329D01*
X922629Y681329D01*
X928928Y682040D01*
X934974Y684123D01*
X938326Y684733D01*
X1044498Y684733D01*
X1047851Y684123D01*
X1053846Y682040D01*
X1060196Y681329D01*
X1329029Y681329D01*
X1332788Y681736D01*
X1337005Y681329D01*
X1340662Y679246D01*
X1343202Y675792D01*
X1344066Y671626D01*
X1344066Y650087D01*
X1334160Y-389940D01*
X1333347Y-393801D01*
X1331163Y-397052D01*
X1327861Y-399237D01*
X1324000Y-399999D01*
G37*

%LPC*%
G36*
X6299Y-325831D02*
G01*
X31495Y-324358D01*
X56540Y-320954D01*
X81280Y-315620D01*
X105460Y-308356D01*
X129032Y-299262D01*
X151841Y-288340D01*
X173736Y-275691D01*
X194564Y-261416D01*
X214274Y-245567D01*
X232664Y-228193D01*
X249631Y-209499D01*
X265125Y-189534D01*
X278993Y-168402D01*
X291185Y-146253D01*
X301650Y-123240D01*
X310286Y-99517D01*
X317093Y-75184D01*
X321970Y-50342D01*
X324866Y-25247D01*
X325882Y0D01*
X324866Y25247D01*
X321970Y50342D01*
X317093Y75133D01*
X310286Y99517D01*
X301650Y123240D01*
X291185Y146253D01*
X278993Y168402D01*
X265125Y189484D01*
X249631Y209499D01*
X232664Y228193D01*
X214274Y245516D01*
X194564Y261416D01*
X173736Y275691D01*
X151841Y288340D01*
X129032Y299262D01*
X105460Y308356D01*
X81280Y315569D01*
X56540Y320954D01*
X31495Y324358D01*
X6299Y325831D01*
X-18999Y325323D01*
X-44145Y322884D01*
X-69037Y318516D01*
X-93522Y312216D01*
X-117398Y304038D01*
X-140614Y294030D01*
X-162966Y282244D01*
X-184353Y268732D01*
X-204622Y253644D01*
X-223672Y237032D01*
X-241350Y218998D01*
X-257606Y199644D01*
X-272338Y179070D01*
X-285394Y157429D01*
X-296722Y134874D01*
X-306273Y111455D01*
X-313994Y87376D01*
X-319836Y62788D01*
X-323748Y37846D01*
X-325678Y12649D01*
X-325678Y-12649D01*
X-323748Y-37846D01*
X-319836Y-62788D01*
X-313994Y-87426D01*
X-306273Y-111455D01*
X-296722Y-134874D01*
X-285394Y-157429D01*
X-272338Y-179070D01*
X-257606Y-199644D01*
X-241350Y-218998D01*
X-223672Y-237032D01*
X-204622Y-253695D01*
X-184353Y-268782D01*
X-162966Y-282244D01*
X-140614Y-294030D01*
X-117398Y-304038D01*
X-93522Y-312216D01*
X-69037Y-318516D01*
X-44145Y-322884D01*
X-18999Y-325374D01*
G37*
G36*
X246532Y479907D02*
G01*
X325780Y479907D01*
X337667Y480771D01*
X348945Y483209D01*
X359765Y487273D01*
X369874Y492810D01*
X379120Y499719D01*
X387299Y507847D01*
X394208Y517093D01*
X399745Y527253D01*
X403758Y538073D01*
X406196Y549351D01*
X407060Y560832D01*
X406196Y572363D01*
X403758Y583641D01*
X399745Y594461D01*
X394208Y604570D01*
X387299Y613816D01*
X379120Y621944D01*
X369874Y628904D01*
X359765Y634390D01*
X348945Y638454D01*
X337667Y640892D01*
X325780Y641756D01*
X246532Y641756D01*
X234645Y640892D01*
X223367Y638454D01*
X212547Y634390D01*
X202438Y628904D01*
X193192Y621944D01*
X185013Y613816D01*
X178104Y604570D01*
X172567Y594461D01*
X168554Y583641D01*
X166116Y572363D01*
X165252Y560832D01*
X166116Y549351D01*
X168554Y538073D01*
X172567Y527253D01*
X178104Y517093D01*
X185013Y507847D01*
X193192Y499719D01*
X202438Y492810D01*
X212547Y487273D01*
X223367Y483209D01*
X234645Y480771D01*
G37*
G36*
X-133502Y479907D02*
G01*
X-54203Y479907D01*
X-42316Y480771D01*
X-31038Y483209D01*
X-20269Y487273D01*
X-10109Y492810D01*
X-863Y499719D01*
X7264Y507847D01*
X14173Y517093D01*
X19710Y527253D01*
X23774Y538073D01*
X26212Y549351D01*
X27025Y560832D01*
X26212Y572363D01*
X23774Y583641D01*
X19710Y594461D01*
X14173Y604570D01*
X7264Y613816D01*
X-863Y621944D01*
X-10109Y628904D01*
X-20269Y634390D01*
X-31038Y638454D01*
X-42316Y640892D01*
X-54203Y641756D01*
X-133502Y641756D01*
X-145338Y640892D01*
X-156616Y638454D01*
X-167436Y634390D01*
X-177596Y628904D01*
X-186791Y621944D01*
X-194970Y613816D01*
X-201879Y604570D01*
X-207416Y594461D01*
X-211429Y583641D01*
X-213918Y572363D01*
X-214731Y560832D01*
X-213918Y549351D01*
X-211429Y538073D01*
X-207416Y527253D01*
X-201879Y517093D01*
X-194970Y507847D01*
X-186791Y499719D01*
X-177596Y492810D01*
X-167436Y487273D01*
X-156616Y483209D01*
X-145338Y480771D01*
G37*
G36*
X-133502Y1343914D02*
G01*
X-54203Y1343914D01*
X-42316Y1344777D01*
X-31038Y1347216D01*
X-20269Y1351280D01*
X-10109Y1356766D01*
X-863Y1363726D01*
X7264Y1371854D01*
X14173Y1381099D01*
X19710Y1391208D01*
X23774Y1402029D01*
X26212Y1413306D01*
X27025Y1424838D01*
X26212Y1436319D01*
X23774Y1447596D01*
X19710Y1458417D01*
X14173Y1468577D01*
X7264Y1477822D01*
X-863Y1485950D01*
X-10109Y1492859D01*
X-20269Y1498396D01*
X-31038Y1502460D01*
X-42316Y1504899D01*
X-54203Y1505762D01*
X-133502Y1505762D01*
X-145338Y1504899D01*
X-156616Y1502460D01*
X-167436Y1498396D01*
X-177596Y1492859D01*
X-186791Y1485950D01*
X-194970Y1477822D01*
X-201879Y1468577D01*
X-207416Y1458417D01*
X-211429Y1447596D01*
X-213918Y1436319D01*
X-214731Y1424838D01*
X-213918Y1413306D01*
X-211429Y1402029D01*
X-207416Y1391208D01*
X-201879Y1381099D01*
X-194970Y1371854D01*
X-186791Y1363726D01*
X-177596Y1356766D01*
X-167436Y1351280D01*
X-156616Y1347216D01*
X-145338Y1344777D01*
G37*
G36*
X246532Y1343914D02*
G01*
X325780Y1343914D01*
X337667Y1344777D01*
X348945Y1347216D01*
X359765Y1351280D01*
X369874Y1356766D01*
X379120Y1363726D01*
X387299Y1371854D01*
X394208Y1381099D01*
X399745Y1391208D01*
X403758Y1402029D01*
X406196Y1413306D01*
X407060Y1424838D01*
X406196Y1436319D01*
X403758Y1447596D01*
X399745Y1458417D01*
X394208Y1468577D01*
X387299Y1477822D01*
X379120Y1485950D01*
X369874Y1492859D01*
X359765Y1498396D01*
X348945Y1502460D01*
X337667Y1504899D01*
X325780Y1505762D01*
X246532Y1505762D01*
X234645Y1504899D01*
X223367Y1502460D01*
X212547Y1498396D01*
X202438Y1492859D01*
X193192Y1485950D01*
X185013Y1477822D01*
X178104Y1468577D01*
X172567Y1458417D01*
X168554Y1447596D01*
X166116Y1436319D01*
X165252Y1424838D01*
X166116Y1413306D01*
X168554Y1402029D01*
X172567Y1391208D01*
X178104Y1381099D01*
X185013Y1371854D01*
X193192Y1363726D01*
X202438Y1356766D01*
X212547Y1351280D01*
X223367Y1347216D01*
X234645Y1344777D01*
G37*

%LPD*%
G36*
X2431186Y1745691D02*
G01*
X2431186Y1263091D01*
X2443886Y1250391D01*
X2608986Y1250391D01*
X2608986Y1567891D01*
X2634386Y1593291D01*
X2850286Y1593291D01*
X2850286Y1745691D01*
G37*
D10*
X5989972Y2512128D02*
G01*
X3589977Y2512115D01*
D11*
X7875247Y967252D02*
G01*
X7699976Y791982D01*
X7699976Y760003D01*
X7560256Y959375D02*
G01*
X7568133Y967249D01*
X7875239Y967249D01*
X7257379Y1439390D02*
G01*
X7230254Y1412265D01*
X7230254Y1059388D01*
D10*
X7885193Y1191620D02*
G01*
X7981459Y1191620D01*
X8210059Y1419966D01*
X8210059Y2160122D01*
X8210059Y2160122D02*
G01*
X8210059Y2369926D01*
X8067819Y2512166D01*
X7990095Y2512166D01*
X3589977Y2512115D02*
G01*
X1439994Y2512115D01*
D12*
X7822455Y4339696D02*
G01*
X7890019Y4407006D01*
X7890019Y5529940D01*
X7796293Y5623666D01*
X7663705Y5623666D01*
X7835155Y3890116D02*
G01*
X8000001Y4054962D01*
X8000001Y5669894D01*
X7792229Y5877666D01*
X7663705Y5877666D01*
X5217939Y8239866D02*
G01*
X5608083Y7849976D01*
X6830077Y7849976D01*
X7229873Y7449926D01*
X7229873Y6430116D01*
X7528323Y6131666D01*
X7663705Y6131666D01*
X5471939Y8239866D02*
G01*
X5772167Y7939892D01*
X6839983Y7939892D01*
X7309883Y7469992D01*
X7309883Y6610202D01*
X7534165Y6385666D01*
X7663705Y6385666D01*
X5725939Y8239866D02*
G01*
X5935997Y8030062D01*
X6839983Y8030316D01*
X7400053Y7469992D01*
X7400053Y7019904D01*
X7526291Y6893666D01*
X7663705Y6893666D01*
X5979988Y8239983D02*
G01*
X6749986Y8239983D01*
X7469985Y7519984D01*
X7469985Y7341407D01*
X7663705Y7147686D01*
X7822430Y3440409D02*
G01*
X7099978Y4162861D01*
X7099978Y4699995D01*
X6901705Y4898268D01*
X6901705Y5623686D01*
X6885195Y4672182D02*
G01*
X6709935Y4847442D01*
X6709935Y6060038D01*
X6781563Y6131666D01*
X6901705Y6131666D01*
X6717555Y4339696D02*
G01*
X6629925Y4427072D01*
X6629925Y6250030D01*
X6765815Y6385666D01*
X6901705Y6385666D01*
X7286515Y4771496D02*
G01*
X7139957Y4917800D01*
X7139957Y6779874D01*
X7026165Y6893666D01*
X6901705Y6893666D01*
X6704855Y3890116D02*
G01*
X6540009Y4054962D01*
X6540009Y7170018D01*
X6771657Y7401666D01*
X6901705Y7401666D01*
X2931939Y8239866D02*
G01*
X2352057Y7659984D01*
X2190005Y7659984D01*
X1439943Y6909922D01*
X1439943Y6479900D01*
X1091709Y6131666D01*
X954549Y6131666D01*
X1235219Y3890116D02*
G01*
X1400065Y4054708D01*
X1400065Y5559912D01*
X1082311Y5877666D01*
X954549Y5877666D01*
X4963939Y8239866D02*
G01*
X5379991Y7824068D01*
X5379991Y7259934D01*
X5492259Y7147666D01*
X5619005Y7147666D01*
X4709939Y8239866D02*
G01*
X5309887Y7639918D01*
X5309887Y7080102D01*
X5496323Y6893666D01*
X5619005Y6893666D01*
X4455939Y8239866D02*
G01*
X5249943Y7446116D01*
X5249943Y6620108D01*
X5483877Y6385666D01*
X5619005Y6385666D01*
X5802393Y4339696D02*
G01*
X5849891Y4387194D01*
X5849891Y5510128D01*
X5736353Y5623666D01*
X5619005Y5623666D01*
X5815093Y3890116D02*
G01*
X5970033Y4044802D01*
X5970033Y5659988D01*
X5752355Y5877666D01*
X5619005Y5877666D01*
X4201939Y8239866D02*
G01*
X4280171Y8239866D01*
X5180093Y7340198D01*
X5180093Y6439768D01*
X5488195Y6131666D01*
X5619005Y6131666D01*
X5802444Y3440409D02*
G01*
X5802444Y3507534D01*
X4669983Y4639995D01*
X4669983Y4849995D01*
X4857005Y5037018D01*
X4857005Y5623686D01*
X4865133Y4672182D02*
G01*
X5029979Y4837028D01*
X5029979Y6060038D01*
X4958351Y6131666D01*
X4857005Y6131666D01*
X4697493Y4339696D02*
G01*
X4599957Y4437232D01*
X4599957Y6269842D01*
X4715781Y6385666D01*
X4857005Y6385666D01*
X5266453Y4771496D02*
G01*
X5119895Y4917800D01*
X5119895Y6749902D01*
X4976385Y6893666D01*
X4857005Y6893666D01*
X4684793Y3890116D02*
G01*
X4530107Y4044802D01*
X4530107Y7190084D01*
X4741689Y7401666D01*
X4857005Y7401666D01*
X3185939Y8239866D02*
G01*
X3299985Y8126074D01*
X3299985Y7229962D01*
X3217689Y7147666D01*
X3117105Y7147666D01*
X3439939Y8239866D02*
G01*
X3439939Y7110074D01*
X3223785Y6893666D01*
X3117105Y6893666D01*
X3947939Y8239866D02*
G01*
X3947939Y6877918D01*
X3201687Y6131666D01*
X3117105Y6131666D01*
X3693939Y8239866D02*
G01*
X3693939Y6863948D01*
X3215657Y6385666D01*
X3117105Y6385666D01*
X3275093Y3890116D02*
G01*
X3439939Y4054708D01*
X3439939Y5680054D01*
X3242327Y5877666D01*
X3117105Y5877666D01*
X3262393Y4339696D02*
G01*
X3299985Y4377034D01*
X3299985Y5623666D01*
X3117105Y5623666D01*
X3262444Y3440409D02*
G01*
X3262444Y3507539D01*
X2129988Y4639995D01*
X2129988Y4899995D01*
X2355105Y5125112D01*
X2355105Y5623686D01*
X2355105Y5877666D02*
G01*
X1979947Y5877666D01*
X1979947Y4209902D01*
X2089929Y4099920D01*
X2260363Y4099920D01*
X2325133Y4035150D01*
X2325133Y3107796D01*
X2325133Y4672182D02*
G01*
X2549923Y4896972D01*
X2549923Y6131666D01*
X2355105Y6131666D01*
X2726453Y4771496D02*
G01*
X2720103Y4777846D01*
X2720103Y6650080D01*
X2476263Y6893666D01*
X2355105Y6893666D01*
X3125233Y4672182D02*
G01*
X2879869Y4917546D01*
X2879869Y6750156D01*
X2482359Y7147666D01*
X2355105Y7147666D01*
X2677939Y8239866D02*
G01*
X2609867Y8239866D01*
X1190007Y6820006D01*
X1190007Y6385666D01*
X954549Y6385666D01*
X2423939Y8239866D02*
G01*
X1077739Y6893666D01*
X954549Y6893666D01*
X2169939Y8239866D02*
G01*
X2169939Y8221832D01*
X1081803Y7147666D01*
X954549Y7147666D01*
X2144793Y3890116D02*
G01*
X1910097Y4124812D01*
X1910097Y7081626D01*
X2233185Y7402174D01*
X2355105Y7401666D01*
X2157493Y3440282D02*
G01*
X1839993Y3757782D01*
X1839993Y7170018D01*
X2210071Y7540096D01*
X2978929Y7540096D01*
X3117105Y7401666D01*
X104919Y3890116D02*
G01*
X-150096Y4144878D01*
X-150096Y7169002D01*
X80535Y7401158D01*
X192549Y7401666D01*
X1222519Y3440282D02*
G01*
X350029Y4312772D01*
X350029Y4380082D01*
X29989Y4700122D01*
X29989Y5490062D01*
X164101Y5623666D01*
X192549Y5623666D01*
X285259Y3107796D02*
G01*
X285259Y4004924D01*
X199915Y4090014D01*
X80027Y4090014D01*
X-70086Y4239874D01*
X-70086Y5709010D01*
X96029Y5877158D01*
X192549Y5877666D01*
X1222519Y4339696D02*
G01*
X1260111Y4377034D01*
X1260111Y5459836D01*
X1096281Y5623666D01*
X954549Y5623666D01*
X954549Y7401666D02*
G01*
X826279Y7529936D01*
X-50020Y7529936D01*
X-219946Y7360010D01*
X-219946Y3769974D01*
X109491Y3440282D01*
X117619Y3440282D01*
D10*
X2133363Y1491594D02*
G01*
X2133363Y1583034D01*
X2520205Y1969876D01*
D12*
X3015505Y1969876D02*
G01*
X3015505Y2174600D01*
X2860057Y2330048D01*
X789957Y2330048D01*
X679975Y2220066D01*
X679975Y2140056D01*
D10*
X7989968Y2512110D02*
G01*
X5989972Y2512128D01*
D12*
X2946999Y1111496D02*
G01*
X3428786Y1111496D01*
X3536177Y1218887D01*
X2946999Y1161508D02*
G01*
X3101492Y1161508D01*
X3159986Y1220002D01*
X2947001Y1211496D02*
G01*
X3042315Y1212956D01*
X3169983Y1349992D01*
X3169983Y1349992D02*
G01*
X3169983Y1815203D01*
X3015399Y1969787D01*
X2329985Y1229987D02*
G01*
X2348476Y1211496D01*
X2524998Y1211496D01*
D13*
X2524998Y1161506D02*
G01*
X2209457Y1161506D01*
X2133257Y1237706D01*
X2134572Y971006D02*
G01*
X2275067Y1111493D01*
X2524998Y1111493D01*
D10*
X1439994Y2807873D02*
G01*
X1385084Y2807873D01*
X1085281Y3107677D01*
X3589977Y2807873D02*
G01*
X3425080Y2807873D01*
X3125276Y3107677D01*
X5989972Y2807886D02*
G01*
X5965063Y2807886D01*
X5665271Y3107677D01*
X7989968Y2807868D02*
G01*
X7985076Y2807868D01*
X7685267Y3107677D01*
D12*
X285259Y4672182D02*
G01*
X400067Y4786990D01*
X400067Y6049878D01*
X318279Y6131666D01*
X192549Y6131666D01*
X686579Y4771496D02*
G01*
X510049Y4948026D01*
X510049Y6893666D01*
X192549Y6893666D01*
X1085359Y4672182D02*
G01*
X620031Y5137510D01*
X620031Y6879950D01*
X352315Y7147666D01*
X192549Y7147666D01*
D14*
G01*
X2133252Y1237708D03*
G01*
X1814751Y1237708D03*
D15*
G01*
X2761401Y1675358D03*
D16*
G01*
X2761404Y1993854D03*
D14*
G01*
X2133252Y1491708D03*
G01*
X1814751Y1491708D03*
D15*
G01*
X2719981Y779246D03*
D16*
G01*
X2719976Y460735D03*
D15*
G01*
X7885254Y1780136D03*
D16*
G01*
X7885244Y2098629D03*
D15*
G01*
X7605255Y1780136D03*
D16*
G01*
X7605260Y2098629D03*
D17*
G01*
X6680728Y-99994D03*
G01*
X6999229Y-99994D03*
D18*
G01*
X7255248Y1711888D03*
G01*
X7255248Y2126874D03*
D19*
G01*
X4599475Y1846712D03*
G01*
X4599475Y596701D03*
G01*
X4599475Y1596699D03*
G01*
X4599475Y1346713D03*
G01*
X4599475Y1096700D03*
G01*
X4599475Y846714D03*
G01*
X6630484Y1846712D03*
G01*
X6630484Y1596699D03*
G01*
X6630484Y1346713D03*
G01*
X6630484Y1096700D03*
G01*
X6630484Y846714D03*
G01*
X6630484Y596701D03*
D20*
G01*
X3764678Y1942317D03*
D21*
G01*
X3536180Y1218900D03*
D22*
G01*
X3993205Y1219535D03*
D23*
G01*
X1439989Y2512123D03*
D24*
G01*
X1439994Y2807873D03*
D23*
G01*
X2520101Y1674032D03*
D24*
G01*
X2520104Y1969775D03*
D25*
G01*
X7553131Y1439387D03*
G01*
X7257379Y1439387D03*
D26*
G01*
X7230254Y1059388D03*
D27*
G01*
X7560251Y1159388D03*
G01*
X7560251Y959388D03*
D23*
G01*
X2989981Y777872D03*
D24*
G01*
X2989978Y482122D03*
D25*
G01*
X2134577Y971008D03*
G01*
X1838825Y971008D03*
D23*
G01*
X3589985Y2512123D03*
D24*
G01*
X3589977Y2807873D03*
D23*
G01*
X7885254Y1191511D03*
D24*
G01*
X7885244Y1487251D03*
D23*
G01*
X3015401Y1674032D03*
D24*
G01*
X3015404Y1969775D03*
D23*
G01*
X5989980Y2512123D03*
D24*
G01*
X5989972Y2807873D03*
D23*
G01*
X7989976Y2512123D03*
D24*
G01*
X7989968Y2807873D03*
D23*
G01*
X7875254Y967265D03*
D24*
G01*
X7875262Y671504D03*
D28*
G01*
X2525006Y1261496D03*
G01*
X2525006Y1211483D03*
G01*
X2525006Y1161496D03*
G01*
X2525006Y1111483D03*
G01*
X2525006Y1061496D03*
G01*
X2947001Y1261496D03*
G01*
X2947001Y1211483D03*
G01*
X2947001Y1161496D03*
G01*
X2947001Y1111483D03*
G01*
X2947001Y1061496D03*
D29*
G01*
X2736004Y1161496D03*
D30*
G01*
X3426604Y659998D03*
G01*
X3973365Y659998D03*
D31*
G01*
X800917Y1209387D03*
D32*
G01*
X800930Y1512879D03*
D31*
G01*
X1181917Y1209387D03*
D32*
G01*
X1181930Y1512879D03*
D31*
G01*
X788217Y788987D03*
D32*
G01*
X788230Y485475D03*
D31*
G01*
X1194617Y788987D03*
D32*
G01*
X1194630Y485475D03*
D33*
G01*
X298670Y1262816D03*
D34*
G01*
X298670Y1142827D03*
G01*
X298670Y1042827D03*
G01*
X298670Y942827D03*
G01*
X298670Y842827D03*
D33*
G01*
X298670Y722838D03*
G36*
X247972Y877676D02*
G01*
X251782Y877676D01*
X251782Y812906D01*
X247972Y812906D01*
G37*
D35*
G01*
X8209983Y2159995D03*
G01*
X1700001Y-119999D03*
G01*
X980013Y-119999D03*
D36*
G01*
X686503Y4771369D03*
G01*
X1235143Y3889989D03*
G01*
X1222443Y4339569D03*
G01*
X686503Y3008609D03*
G01*
X1222443Y3440409D03*
G01*
X1085283Y3107669D03*
G01*
X1085283Y4672309D03*
G01*
X285183Y4672309D03*
G01*
X117543Y4339569D03*
G01*
X104843Y3889989D03*
G01*
X117543Y3440409D03*
G01*
X285183Y3107669D03*
G01*
X2726504Y4771369D03*
G01*
X3275144Y3889989D03*
G01*
X3262444Y4339569D03*
G01*
X2726504Y3008609D03*
G01*
X3262444Y3440409D03*
G01*
X3125284Y3107669D03*
G01*
X3125284Y4672309D03*
G01*
X2325184Y4672309D03*
G01*
X2157544Y4339569D03*
G01*
X2144844Y3889989D03*
G01*
X2157544Y3440409D03*
G01*
X2325184Y3107669D03*
G01*
X5266504Y4771369D03*
G01*
X5815144Y3889989D03*
G01*
X5802444Y4339569D03*
G01*
X5266504Y3008609D03*
G01*
X5802444Y3440409D03*
G01*
X5665284Y3107669D03*
G01*
X5665284Y4672309D03*
G01*
X4865184Y4672309D03*
G01*
X4697544Y4339569D03*
G01*
X4684844Y3889989D03*
G01*
X4697544Y3440409D03*
G01*
X4865184Y3107669D03*
G01*
X7286490Y4771369D03*
G01*
X7835130Y3889989D03*
G01*
X7822430Y4339569D03*
G01*
X7286490Y3008609D03*
G01*
X7822430Y3440409D03*
G01*
X7685270Y3107669D03*
G01*
X7685270Y4672309D03*
G01*
X6885170Y4672309D03*
G01*
X6717530Y4339569D03*
G01*
X6704830Y3889989D03*
G01*
X6717530Y3440409D03*
G01*
X6885170Y3107669D03*
D37*
G01*
X-204985Y2140005D03*
G01*
X964989Y2140005D03*
D38*
G01*
X680001Y2140005D03*
G01*
X380001Y2140005D03*
G01*
X80002Y2140005D03*
D39*
G01*
X2169990Y8239993D03*
D40*
G01*
X2423990Y8239993D03*
G01*
X2677990Y8239993D03*
G01*
X2931990Y8239993D03*
G01*
X3185990Y8239993D03*
G01*
X3439990Y8239993D03*
G01*
X3693990Y8239993D03*
G01*
X3947990Y8239993D03*
G01*
X4201990Y8239993D03*
G01*
X4455990Y8239993D03*
G01*
X4709990Y8239993D03*
G01*
X4963990Y8239993D03*
G01*
X5217990Y8239993D03*
G01*
X5471990Y8239993D03*
G01*
X5725990Y8239993D03*
G01*
X5979990Y8239993D03*
D41*
G01*
X192498Y5623692D03*
G01*
X192498Y5877692D03*
G01*
X192498Y6131692D03*
G01*
X192498Y6385692D03*
G01*
X192498Y6639692D03*
G01*
X192498Y6893692D03*
G01*
X192498Y7147692D03*
G01*
X192498Y7401692D03*
G01*
X954498Y7401692D03*
G01*
X954498Y7147692D03*
G01*
X954498Y6893692D03*
G01*
X954498Y6639692D03*
G01*
X954498Y6385692D03*
G01*
X954498Y6131692D03*
G01*
X954498Y5877692D03*
G01*
X954498Y5623692D03*
G01*
X2355105Y5623692D03*
G01*
X2355105Y5877692D03*
G01*
X2355105Y6131692D03*
G01*
X2355105Y6385692D03*
G01*
X2355105Y6639692D03*
G01*
X2355105Y6893692D03*
G01*
X2355105Y7147692D03*
G01*
X2355105Y7401692D03*
G01*
X3117105Y7401692D03*
G01*
X3117105Y7147692D03*
G01*
X3117105Y6893692D03*
G01*
X3117105Y6639692D03*
G01*
X3117105Y6385692D03*
G01*
X3117105Y6131692D03*
G01*
X3117105Y5877692D03*
G01*
X3117105Y5623692D03*
G01*
X4857005Y5623692D03*
G01*
X4857005Y5877692D03*
G01*
X4857005Y6131692D03*
G01*
X4857005Y6385692D03*
G01*
X4857005Y6639692D03*
G01*
X4857005Y6893692D03*
G01*
X4857005Y7147692D03*
G01*
X4857005Y7401692D03*
G01*
X5619005Y7401692D03*
G01*
X5619005Y7147692D03*
G01*
X5619005Y6893692D03*
G01*
X5619005Y6639692D03*
G01*
X5619005Y6385692D03*
G01*
X5619005Y6131692D03*
G01*
X5619005Y5877692D03*
G01*
X5619005Y5623692D03*
G01*
X6901705Y5623692D03*
G01*
X6901705Y5877692D03*
G01*
X6901705Y6131692D03*
G01*
X6901705Y6385692D03*
G01*
X6901705Y6639692D03*
G01*
X6901705Y6893692D03*
G01*
X6901705Y7147692D03*
G01*
X6901705Y7401692D03*
G01*
X7663705Y7401692D03*
G01*
X7663705Y7147692D03*
G01*
X7663705Y6893692D03*
G01*
X7663705Y6639692D03*
G01*
X7663705Y6385692D03*
G01*
X7663705Y6131692D03*
G01*
X7663705Y5877692D03*
G01*
X7663705Y5623692D03*
D42*
G01*
X-93809Y560837D03*
G01*
X-93809Y1424818D03*
G01*
X286199Y560837D03*
G01*
X286199Y1424818D03*
D43*
G01*
X7999976Y5D03*
D44*
G01*
X7999976Y241305D03*
G01*
X7999976Y-228594D03*
G01*
X8241276Y5D03*
G01*
X7758676Y5D03*
G01*
X8165076Y165105D03*
G01*
X7822176Y165105D03*
G01*
X7822176Y-165094D03*
G01*
X8165076Y-165094D03*
D43*
G01*
X-7Y5D03*
D44*
G01*
X-7Y241305D03*
G01*
X-7Y-228594D03*
G01*
X241292Y5D03*
G01*
X-241307Y5D03*
G01*
X165092Y165105D03*
G01*
X-177807Y165105D03*
G01*
X-177807Y-165094D03*
G01*
X165092Y-165094D03*
D43*
G01*
X-7Y7999963D03*
D44*
G01*
X-7Y8241263D03*
G01*
X-7Y7771363D03*
G01*
X241292Y7999963D03*
G01*
X-241307Y7999963D03*
G01*
X165092Y8165063D03*
G01*
X-177807Y8165063D03*
G01*
X-177807Y7834863D03*
G01*
X165092Y7834863D03*
D43*
G01*
X7999976Y7999989D03*
D44*
G01*
X7999976Y8241289D03*
G01*
X7999976Y7771389D03*
G01*
X8241276Y7999989D03*
G01*
X7758676Y7999989D03*
G01*
X8165076Y8165089D03*
G01*
X7822176Y8165089D03*
G01*
X7822176Y7834889D03*
G01*
X8165076Y7834889D03*
D45*
G01*
X1444718Y1100612D03*
G01*
X1444718Y1000612D03*
G01*
X1444718Y900612D03*
G01*
X2329985Y1229974D03*
G01*
X2999986Y1419992D03*
G01*
X3159980Y1219992D03*
G01*
X3239990Y1289994D03*
G01*
X7699976Y759998D03*
G01*
X880000Y280014D03*
G01*
X980000Y280014D03*
G01*
X1080000Y280014D03*
G01*
X899990Y1700001D03*
G01*
X999990Y1700001D03*
G01*
X1099990Y1700001D03*
G01*
X4499983Y2080011D03*
G01*
X4629980Y2080011D03*
G01*
X7609984Y2289992D03*
G01*
X7879986Y2289992D03*
G01*
X7879986Y519993D03*
G01*
X7179988Y-29992D03*
G01*
X7179988Y-150007D03*
G01*
X4099984Y389996D03*
G01*
X4179994Y389996D03*
G01*
X4260004Y389996D03*
G01*
X4339988Y389996D03*
G01*
X4419998Y389996D03*
M02*
