M48
METRIC,LZ,000.000
;FILE_FORMAT=3:3
;TYPE=PLATED
;Layer: PTH_Through
;EasyEDA v6.5.42, 2024-06-29 11:35:46
;3b8aa43405674a7c8d552062a6d3ea0b,8e72fd04a6c14d66a7e837eb9aaabff2,10
;Gerber Generator version 0.2
;Holesize 1 = 0.310 mm
T01C0.310
;Holesize 2 = 0.701 mm
T02C0.701
;Holesize 3 = 0.800 mm
T03C0.800
;Holesize 4 = 0.801 mm
T04C0.801
;Holesize 5 = 0.901 mm
T05C0.901
;Holesize 6 = 0.915 mm
T06C0.915
;Holesize 7 = 1.021 mm
T07C1.021
;Holesize 8 = 3.501 mm
T08C3.501
%
G05
G90
T01
X035179Y018923
X030226Y021336
X029337Y020955
X028575Y020320
X024892Y017272
X025527Y016510
X034671Y025019
X037084Y014859
X043180Y016002
X036957Y022352
X010287Y018669
X009779Y011049
X007112Y020955
T02
X002845Y010793G85X003645Y010793
X002845Y019433G85X003645Y019433
X006645Y010793G85X007445Y010793
X006645Y019433G85X007445Y019433
T03
X038481Y022860
X041021Y022860
X043561Y022860
X046101Y022860
X048641Y022860
X051181Y022860
X041021Y057912
X043561Y057912
X046101Y057912
X048641Y057912
T04
X011250Y002667G85X011256Y002667
X013790Y002667G85X013796Y002667
X016330Y002667G85X016336Y002667
X018870Y002667G85X018876Y002667
X021410Y002667G85X021416Y002667
X023950Y002667G85X023956Y002667
X026490Y002667G85X026496Y002667
X029030Y002667G85X029036Y002667
X031570Y002667G85X031576Y002667
X034110Y002667G85X034116Y002667
X036650Y002667G85X036656Y002667
X039190Y002667G85X039196Y002667
X041730Y002667G85X041736Y002667
X044270Y002667G85X044276Y002667
X046810Y002667G85X046816Y002667
X049350Y002667G85X049356Y002667
T05
X023114Y013741
X023114Y008865
T06
X008382Y025527
X010922Y025527
X013462Y025527
X016002Y025527
X018542Y025527
X021082Y025527
T07
X032004Y022860
X003175Y023622
X003175Y026543
T08
X004000Y056000
X004000Y004000
X056000Y004000
X056000Y056000
M30
