G04 Layer: TopPasteMaskLayer*
G04 EasyEDA v6.5.42, 2024-06-29 11:35:46*
G04 3b8aa43405674a7c8d552062a6d3ea0b,8e72fd04a6c14d66a7e837eb9aaabff2,10*
G04 Gerber Generator version 0.2*
G04 Scale: 100 percent, Rotated: No, Reflected: No *
G04 Dimensions in millimeters *
G04 leading zeros omitted , absolute positions ,4 integer and 5 decimal *
%FSLAX45Y45*%
%MOMM*%

%ADD10R,0.8000X0.8000*%
%ADD11R,0.9000X0.8000*%
%ADD12O,0.4500118X1.6500094*%
%ADD13O,1.6500094X0.4500118*%

%LPD*%
G36*
X1417218Y1124508D02*
G01*
X1412189Y1119479D01*
X1412189Y1039520D01*
X1417218Y1034491D01*
X1497177Y1034491D01*
X1502206Y1039520D01*
X1502206Y1062278D01*
X1465224Y1062278D01*
X1465224Y1095298D01*
X1502206Y1095298D01*
X1502206Y1119479D01*
X1497177Y1124508D01*
G37*
G36*
X1577187Y1124508D02*
G01*
X1572209Y1119479D01*
X1572209Y1095298D01*
X1610207Y1095298D01*
X1610207Y1062278D01*
X1572209Y1062278D01*
X1572209Y1039520D01*
X1577187Y1034491D01*
X1656181Y1034491D01*
X1661210Y1039520D01*
X1661210Y1119479D01*
X1656181Y1124508D01*
G37*
G36*
X3960520Y1597710D02*
G01*
X3955491Y1592681D01*
X3955491Y1512722D01*
X3960520Y1507693D01*
X3983278Y1507693D01*
X3983278Y1544726D01*
X4016298Y1544726D01*
X4016298Y1507693D01*
X4040479Y1507693D01*
X4045508Y1512722D01*
X4045508Y1592681D01*
X4040479Y1597710D01*
G37*
G36*
X3960520Y1437690D02*
G01*
X3955491Y1432712D01*
X3955491Y1353718D01*
X3960520Y1348689D01*
X4040479Y1348689D01*
X4045508Y1353718D01*
X4045508Y1432712D01*
X4040479Y1437690D01*
X4016298Y1437690D01*
X4016298Y1399692D01*
X3983278Y1399692D01*
X3983278Y1437690D01*
G37*
G36*
X1536496Y1464411D02*
G01*
X1526489Y1454404D01*
X1526489Y1325880D01*
X1536496Y1315923D01*
X1689303Y1315923D01*
X1699310Y1325880D01*
X1699310Y1454404D01*
X1689303Y1464411D01*
X1652270Y1464411D01*
X1642262Y1454404D01*
X1642262Y1423924D01*
X1632254Y1413916D01*
X1593545Y1413916D01*
X1583537Y1423924D01*
X1583537Y1454404D01*
X1573530Y1464411D01*
G37*
G36*
X1536496Y1782876D02*
G01*
X1526489Y1772920D01*
X1526489Y1644396D01*
X1536496Y1634388D01*
X1573530Y1634388D01*
X1583537Y1644396D01*
X1583537Y1674875D01*
X1593545Y1684883D01*
X1632254Y1684883D01*
X1642262Y1674875D01*
X1642262Y1644396D01*
X1652270Y1634388D01*
X1689303Y1634388D01*
X1699310Y1644396D01*
X1699310Y1772920D01*
X1689303Y1782876D01*
G37*
G36*
X1043381Y1479397D02*
G01*
X1033424Y1469390D01*
X1033424Y1325880D01*
X1043381Y1315923D01*
X1293418Y1315923D01*
X1303426Y1325880D01*
X1303426Y1469390D01*
X1293418Y1479397D01*
X1224280Y1479397D01*
X1214323Y1469390D01*
X1214323Y1433830D01*
X1204315Y1423822D01*
X1132484Y1423822D01*
X1122476Y1433830D01*
X1122476Y1469390D01*
X1112520Y1479397D01*
G37*
G36*
X1043381Y1782876D02*
G01*
X1033424Y1772920D01*
X1033424Y1629410D01*
X1043381Y1619402D01*
X1112520Y1619402D01*
X1122476Y1629410D01*
X1122476Y1664970D01*
X1132484Y1674977D01*
X1204315Y1674977D01*
X1214323Y1664970D01*
X1214323Y1629410D01*
X1224280Y1619402D01*
X1293418Y1619402D01*
X1303426Y1629410D01*
X1303426Y1772920D01*
X1293418Y1782876D01*
G37*
G36*
X664464Y1998268D02*
G01*
X657707Y1997862D01*
X651052Y1996643D01*
X647801Y1995728D01*
X641451Y1993239D01*
X635508Y1990039D01*
X629970Y1986127D01*
X627380Y1983943D01*
X622706Y1979066D01*
X618591Y1973681D01*
X615238Y1967788D01*
X612597Y1961591D01*
X611530Y1958339D01*
X610108Y1951736D01*
X609498Y1944979D01*
X609701Y1938223D01*
X610717Y1931517D01*
X611530Y1928215D01*
X613816Y1921865D01*
X616813Y1915769D01*
X620572Y1910130D01*
X624992Y1905000D01*
X629970Y1900428D01*
X635508Y1896516D01*
X641451Y1893316D01*
X647801Y1890877D01*
X654354Y1889201D01*
X661060Y1888388D01*
X744474Y1888286D01*
X751230Y1888693D01*
X754583Y1889201D01*
X761136Y1890877D01*
X767435Y1893316D01*
X773430Y1896516D01*
X778916Y1900428D01*
X783945Y1905000D01*
X788365Y1910130D01*
X792073Y1915769D01*
X795121Y1921865D01*
X797356Y1928215D01*
X798830Y1934870D01*
X799439Y1941575D01*
X799236Y1948383D01*
X798830Y1951736D01*
X797356Y1958339D01*
X795121Y1964740D01*
X792073Y1970786D01*
X788365Y1976424D01*
X783945Y1981555D01*
X778916Y1986127D01*
X773430Y1990039D01*
X770483Y1991766D01*
X764336Y1994560D01*
X761136Y1995728D01*
X754583Y1997354D01*
X747826Y1998167D01*
G37*
G36*
X664464Y1134313D02*
G01*
X657707Y1133906D01*
X654354Y1133398D01*
X647801Y1131722D01*
X641451Y1129284D01*
X635508Y1126083D01*
X629970Y1122172D01*
X624992Y1117600D01*
X620572Y1112469D01*
X616813Y1106830D01*
X613816Y1100734D01*
X611530Y1094384D01*
X610108Y1087729D01*
X609498Y1081024D01*
X609701Y1074216D01*
X610717Y1067562D01*
X611530Y1064260D01*
X613816Y1057859D01*
X616813Y1051814D01*
X620572Y1046175D01*
X624992Y1041044D01*
X627380Y1038656D01*
X632663Y1034440D01*
X638454Y1030833D01*
X644601Y1028039D01*
X647801Y1026871D01*
X654354Y1025245D01*
X661060Y1024432D01*
X744474Y1024331D01*
X751230Y1024737D01*
X757885Y1025956D01*
X761136Y1026871D01*
X767435Y1029360D01*
X770483Y1030833D01*
X776224Y1034440D01*
X781507Y1038656D01*
X786231Y1043533D01*
X790295Y1048918D01*
X793699Y1054811D01*
X796340Y1061008D01*
X798169Y1067562D01*
X798830Y1070864D01*
X799439Y1077620D01*
X799236Y1084376D01*
X798169Y1091082D01*
X796340Y1097584D01*
X793699Y1103833D01*
X790295Y1109675D01*
X786231Y1115110D01*
X781507Y1119936D01*
X776224Y1124204D01*
X770483Y1127760D01*
X764336Y1130604D01*
X757885Y1132636D01*
X754583Y1133398D01*
X747826Y1134211D01*
G37*
G36*
X284429Y1998268D02*
G01*
X277672Y1997862D01*
X271018Y1996643D01*
X267766Y1995728D01*
X261467Y1993239D01*
X258419Y1991766D01*
X252679Y1988159D01*
X247396Y1983943D01*
X242671Y1979066D01*
X238607Y1973681D01*
X235204Y1967788D01*
X232562Y1961591D01*
X230733Y1955038D01*
X230073Y1951736D01*
X229463Y1944979D01*
X229666Y1938223D01*
X230733Y1931517D01*
X232562Y1925015D01*
X235204Y1918766D01*
X238607Y1912924D01*
X242671Y1907489D01*
X247396Y1902663D01*
X252679Y1898396D01*
X258419Y1894839D01*
X264566Y1891995D01*
X271018Y1889963D01*
X274320Y1889201D01*
X281076Y1888388D01*
X364439Y1888286D01*
X371195Y1888693D01*
X374548Y1889201D01*
X381101Y1890877D01*
X387451Y1893316D01*
X393395Y1896516D01*
X398932Y1900428D01*
X403910Y1905000D01*
X408330Y1910130D01*
X412089Y1915769D01*
X415086Y1921865D01*
X417372Y1928215D01*
X418795Y1934870D01*
X419404Y1941575D01*
X419201Y1948383D01*
X418185Y1955038D01*
X417372Y1958339D01*
X415086Y1964740D01*
X412089Y1970786D01*
X408330Y1976424D01*
X403910Y1981555D01*
X401523Y1983943D01*
X396240Y1988159D01*
X390448Y1991766D01*
X384302Y1994560D01*
X381101Y1995728D01*
X374548Y1997354D01*
X367842Y1998167D01*
G37*
G36*
X284429Y1134313D02*
G01*
X277672Y1133906D01*
X274320Y1133398D01*
X267766Y1131722D01*
X261467Y1129284D01*
X255473Y1126083D01*
X249986Y1122172D01*
X244957Y1117600D01*
X240538Y1112469D01*
X236829Y1106830D01*
X233781Y1100734D01*
X231546Y1094384D01*
X230073Y1087729D01*
X229463Y1081024D01*
X229666Y1074216D01*
X230073Y1070864D01*
X231546Y1064260D01*
X233781Y1057859D01*
X236829Y1051814D01*
X240538Y1046175D01*
X244957Y1041044D01*
X249986Y1036472D01*
X255473Y1032560D01*
X258419Y1030833D01*
X264566Y1028039D01*
X267766Y1026871D01*
X274320Y1025245D01*
X281076Y1024432D01*
X364439Y1024331D01*
X371195Y1024737D01*
X377850Y1025956D01*
X381101Y1026871D01*
X387451Y1029360D01*
X393395Y1032560D01*
X398932Y1036472D01*
X401523Y1038656D01*
X406196Y1043533D01*
X410311Y1048918D01*
X413664Y1054811D01*
X416306Y1061008D01*
X417372Y1064260D01*
X418795Y1070864D01*
X419404Y1077620D01*
X419201Y1084376D01*
X418185Y1091082D01*
X417372Y1094384D01*
X415086Y1100734D01*
X412089Y1106830D01*
X408330Y1112469D01*
X403910Y1117600D01*
X398932Y1122172D01*
X393395Y1126083D01*
X387451Y1129284D01*
X381101Y1131722D01*
X374548Y1133398D01*
X367842Y1134211D01*
G37*
G36*
X666953Y1821281D02*
G01*
X666953Y1741271D01*
X766978Y1741271D01*
X766978Y1821281D01*
G37*
G36*
X666953Y1696313D02*
G01*
X666953Y1626311D01*
X766978Y1626311D01*
X766978Y1696313D01*
G37*
G36*
X666953Y1596288D02*
G01*
X666953Y1526286D01*
X766978Y1526286D01*
X766978Y1596288D01*
G37*
G36*
X666953Y1496314D02*
G01*
X666953Y1426311D01*
X766978Y1426311D01*
X766978Y1496314D01*
G37*
G36*
X666953Y1396288D02*
G01*
X666953Y1326286D01*
X766978Y1326286D01*
X766978Y1396288D01*
G37*
G36*
X666953Y1281328D02*
G01*
X666953Y1201318D01*
X766978Y1201318D01*
X766978Y1281328D01*
G37*
D10*
G01*
X4191000Y1393266D03*
G01*
X4191000Y1553159D03*
G01*
X1273733Y1079500D03*
G01*
X1113840Y1079500D03*
D11*
G01*
X1968500Y984402D03*
G01*
X1968500Y844397D03*
G01*
X1968500Y1276197D03*
G01*
X1968500Y1416202D03*
D12*
G01*
X2856890Y1885950D03*
G01*
X2936900Y1885950D03*
G01*
X3016910Y1885950D03*
G01*
X3096895Y1885950D03*
G01*
X3176904Y1885950D03*
G01*
X3256889Y1885950D03*
G01*
X3336899Y1885950D03*
G01*
X3416909Y1885950D03*
D13*
G01*
X3573779Y1727809D03*
G01*
X3573779Y1647799D03*
G01*
X3573779Y1567789D03*
G01*
X3573779Y1487804D03*
G01*
X3573779Y1407795D03*
G01*
X3573779Y1327810D03*
G01*
X3573779Y1247800D03*
G01*
X3573779Y1167790D03*
D12*
G01*
X3416909Y1009650D03*
G01*
X3336899Y1009650D03*
G01*
X3256889Y1009650D03*
G01*
X3176904Y1009650D03*
G01*
X3096895Y1009650D03*
G01*
X3016910Y1009650D03*
G01*
X2936900Y1009650D03*
G01*
X2856890Y1009650D03*
D13*
G01*
X2700020Y1167790D03*
G01*
X2700020Y1247800D03*
G01*
X2700020Y1327810D03*
G01*
X2700020Y1407795D03*
G01*
X2700020Y1487804D03*
G01*
X2700020Y1567789D03*
G01*
X2700020Y1647799D03*
G01*
X2700020Y1727809D03*
M02*
