G04 Layer: TopSolderMaskLayer*
G04 EasyEDA v6.5.42, 2024-06-29 11:35:46*
G04 3b8aa43405674a7c8d552062a6d3ea0b,8e72fd04a6c14d66a7e837eb9aaabff2,10*
G04 Gerber Generator version 0.2*
G04 Scale: 100 percent, Rotated: No, Reflected: No *
G04 Dimensions in millimeters *
G04 leading zeros omitted , absolute positions ,4 integer and 5 decimal *
%FSLAX45Y45*%
%MOMM*%

%AMMACRO1*1,1,$1,$2,$3*1,1,$1,$4,$5*1,1,$1,0-$2,0-$3*1,1,$1,0-$4,0-$5*20,1,$1,$2,$3,$4,$5,0*20,1,$1,$4,$5,0-$2,0-$3,0*20,1,$1,0-$2,0-$3,0-$4,0-$5,0*20,1,$1,0-$4,0-$5,$2,$3,0*4,1,4,$2,$3,$4,$5,0-$2,0-$3,0-$4,0-$5,$2,$3,0*%
%ADD10C,1.7272*%
%ADD11MACRO1,0.2032X0.75X0.75X0.75X-0.75*%
%ADD12C,1.7032*%
%ADD13MACRO1,0.1016X0.4032X0.432X0.4032X-0.432*%
%ADD14MACRO1,0.1016X-0.4032X0.432X-0.4032X-0.432*%
%ADD15R,0.9656X0.9081*%
%ADD16MACRO1,0.1016X-0.4X0.4X0.4X0.4*%
%ADD17R,0.9016X0.9016*%
%ADD18C,1.6256*%
%ADD19C,1.9032*%
%ADD20MACRO1,0.1016X-0.864X0.7425X0.864X0.7425*%
%ADD21MACRO1,0.1016X-0.864X-0.7425X0.864X-0.7425*%
%ADD22MACRO1,0.1016X-0.7499X0.7499X0.7499X0.7499*%
%ADD23C,1.6015*%
%ADD24MACRO1,0.1016X-1.35X0.8175X1.35X0.8175*%
%ADD25MACRO1,0.1016X-1.35X-0.8175X1.35X-0.8175*%
%ADD26MACRO1,0.1016X0.5X0.4X0.5X-0.4*%
%ADD27MACRO1,0.1016X0.5X0.35X0.5X-0.35*%
%ADD28O,2.0015962000000003X1.2015978000000003*%
%ADD29R,1.0016X0.9016*%
%ADD30MACRO1,0.1016X0.45X0.4X0.45X-0.4*%
%ADD31O,0.5516118X1.7516094000000002*%
%ADD32O,1.7516094000000002X0.5516118*%
%ADD33C,6.2032*%

%LPD*%
D10*
G01*
X3200400Y2286000D03*
D11*
G01*
X2311398Y1374138D03*
D12*
G01*
X2311400Y886460D03*
D13*
G01*
X1461375Y1079500D03*
D14*
G01*
X1612024Y1079500D03*
D15*
G01*
X4000500Y1548536D03*
G01*
X4000500Y1397863D03*
D16*
G01*
X4191010Y1393256D03*
G01*
X4190994Y1553156D03*
D17*
G01*
X1273733Y1079500D03*
G01*
X1113840Y1079500D03*
D10*
G01*
X317500Y2362200D03*
G01*
X317500Y2654300D03*
D18*
G01*
X838200Y2552700D03*
G01*
X1092200Y2552700D03*
G01*
X1346200Y2552700D03*
G01*
X1600200Y2552700D03*
G01*
X1854200Y2552700D03*
G01*
X2108200Y2552700D03*
D19*
G01*
X3848100Y2286000D03*
G01*
X4102100Y2286000D03*
G01*
X4356100Y2286000D03*
G01*
X4610100Y2286000D03*
G01*
X4864100Y2286000D03*
G01*
X5118100Y2286000D03*
G01*
X4102100Y5791200D03*
G01*
X4356100Y5791200D03*
G01*
X4610100Y5791200D03*
G01*
X4864100Y5791200D03*
D20*
G01*
X1612900Y1390149D03*
D21*
G01*
X1612900Y1708650D03*
D22*
G01*
X1125296Y266700D03*
D23*
G01*
X1379296Y266700D03*
G01*
X1633296Y266700D03*
G01*
X1887296Y266700D03*
G01*
X2141296Y266700D03*
G01*
X2395296Y266700D03*
G01*
X2649296Y266700D03*
G01*
X2903296Y266700D03*
G01*
X3157296Y266700D03*
G01*
X3411296Y266700D03*
G01*
X3665296Y266700D03*
G01*
X3919296Y266700D03*
G01*
X4173296Y266700D03*
G01*
X4427296Y266700D03*
G01*
X4681296Y266700D03*
G01*
X4935296Y266700D03*
D24*
G01*
X1168400Y1397650D03*
D25*
G01*
X1168400Y1701149D03*
D26*
G01*
X716953Y1781289D03*
D27*
G01*
X716953Y1661298D03*
G01*
X716953Y1561298D03*
G01*
X716953Y1461298D03*
G01*
X716953Y1361299D03*
D26*
G01*
X716953Y1241310D03*
D28*
G01*
X324459Y1079296D03*
G01*
X324459Y1943277D03*
G01*
X704469Y1079296D03*
G01*
X704469Y1943277D03*
D29*
G01*
X1968500Y984402D03*
G01*
X1968500Y844397D03*
D30*
G01*
X1968500Y1276200D03*
G01*
X1968500Y1416199D03*
D31*
G01*
X2856890Y1885950D03*
G01*
X2936900Y1885950D03*
G01*
X3016910Y1885950D03*
G01*
X3096895Y1885950D03*
G01*
X3176904Y1885950D03*
G01*
X3256889Y1885950D03*
G01*
X3336899Y1885950D03*
G01*
X3416909Y1885950D03*
D32*
G01*
X3573779Y1727809D03*
G01*
X3573779Y1647799D03*
G01*
X3573779Y1567789D03*
G01*
X3573779Y1487804D03*
G01*
X3573779Y1407795D03*
G01*
X3573779Y1327810D03*
G01*
X3573779Y1247800D03*
G01*
X3573779Y1167790D03*
D31*
G01*
X3416909Y1009650D03*
G01*
X3336899Y1009650D03*
G01*
X3256889Y1009650D03*
G01*
X3176904Y1009650D03*
G01*
X3096895Y1009650D03*
G01*
X3016910Y1009650D03*
G01*
X2936900Y1009650D03*
G01*
X2856890Y1009650D03*
D32*
G01*
X2700020Y1167790D03*
G01*
X2700020Y1247800D03*
G01*
X2700020Y1327810D03*
G01*
X2700020Y1407795D03*
G01*
X2700020Y1487804D03*
G01*
X2700020Y1567789D03*
G01*
X2700020Y1647799D03*
G01*
X2700020Y1727809D03*
D33*
G01*
X399999Y5599988D03*
G01*
X399999Y399999D03*
G01*
X5599988Y399999D03*
G01*
X5599988Y5599988D03*
M02*
