G04 Layer: TopSilkscreenLayer*
G04 EasyEDA v6.5.42, 2024-06-29 11:35:46*
G04 3b8aa43405674a7c8d552062a6d3ea0b,8e72fd04a6c14d66a7e837eb9aaabff2,10*
G04 Gerber Generator version 0.2*
G04 Scale: 100 percent, Rotated: No, Reflected: No *
G04 Dimensions in millimeters *
G04 leading zeros omitted , absolute positions ,4 integer and 5 decimal *
%FSLAX45Y45*%
%MOMM*%

%ADD10C,0.2032*%
%ADD11C,0.1524*%
%ADD12C,0.2540*%
%ADD13C,0.1500*%
%ADD14C,0.1501*%
%ADD15C,0.2500*%
%ADD16C,0.3000*%
%ADD17C,0.4000*%
%ADD18C,0.0169*%

%LPD*%
G36*
X1022096Y5918809D02*
G01*
X1013307Y5918708D01*
X995324Y5917793D01*
X992987Y5917336D01*
X985062Y5916777D01*
X967790Y5913983D01*
X950010Y5909767D01*
X948436Y5909056D01*
X947267Y5909005D01*
X945286Y5908040D01*
X944168Y5908040D01*
X935634Y5905246D01*
X923391Y5900775D01*
X921969Y5900013D01*
X921359Y5900013D01*
X905103Y5892393D01*
X890219Y5884519D01*
X876198Y5875680D01*
X862736Y5866130D01*
X849172Y5855055D01*
X839927Y5846368D01*
X833272Y5839612D01*
X825804Y5831586D01*
X815746Y5819343D01*
X808634Y5809386D01*
X802995Y5801055D01*
X797001Y5791454D01*
X789990Y5778550D01*
X783793Y5765393D01*
X779373Y5754725D01*
X775665Y5745022D01*
X775309Y5743244D01*
X771499Y5731002D01*
X768451Y5718657D01*
X768451Y5717641D01*
X767689Y5715304D01*
X765454Y5702604D01*
X765454Y5701233D01*
X764489Y5695950D01*
X762965Y5678932D01*
X762457Y5678779D01*
X762457Y5648807D01*
X762965Y5648655D01*
X763473Y5638901D01*
X765962Y5619394D01*
X768451Y5607253D01*
X768451Y5606034D01*
X774903Y5582361D01*
X777087Y5576519D01*
X777494Y5575858D01*
X777494Y5575096D01*
X781507Y5564581D01*
X789482Y5547512D01*
X789482Y5547156D01*
X799287Y5529935D01*
X810514Y5513171D01*
X823772Y5496052D01*
X839165Y5479491D01*
X852678Y5466994D01*
X866394Y5456072D01*
X884682Y5443677D01*
X901242Y5434533D01*
X920546Y5425592D01*
X921156Y5425592D01*
X922731Y5424830D01*
X931265Y5421579D01*
X931722Y5421579D01*
X936752Y5419598D01*
X941019Y5418836D01*
X943965Y5418836D01*
X948232Y5419852D01*
X951280Y5421884D01*
X953008Y5424068D01*
X954430Y5426557D01*
X955446Y5431434D01*
X954786Y5478881D01*
X954125Y5479288D01*
X951534Y5478678D01*
X937514Y5477002D01*
X925220Y5477002D01*
X914247Y5477865D01*
X912469Y5478373D01*
X907338Y5478881D01*
X898956Y5480812D01*
X897382Y5481624D01*
X896721Y5481624D01*
X894689Y5482590D01*
X893927Y5482640D01*
X893470Y5483047D01*
X888136Y5485841D01*
X883310Y5489194D01*
X878281Y5493512D01*
X873861Y5498998D01*
X870559Y5504637D01*
X870559Y5505094D01*
X867054Y5513171D01*
X861212Y5525058D01*
X852678Y5537047D01*
X847140Y5542584D01*
X843330Y5545429D01*
X838657Y5548122D01*
X835406Y5551017D01*
X832510Y5554014D01*
X832510Y5554421D01*
X830529Y5557316D01*
X830529Y5559653D01*
X832510Y5561431D01*
X835914Y5562498D01*
X842670Y5562752D01*
X848817Y5561634D01*
X853998Y5559704D01*
X854557Y5559704D01*
X864158Y5554370D01*
X869696Y5550204D01*
X874674Y5545328D01*
X877214Y5542381D01*
X885952Y5529072D01*
X890016Y5524042D01*
X895502Y5518810D01*
X899617Y5515610D01*
X906221Y5511901D01*
X907491Y5511596D01*
X908710Y5510936D01*
X912164Y5509666D01*
X913282Y5509666D01*
X916482Y5508599D01*
X931367Y5508650D01*
X934719Y5509158D01*
X935024Y5509361D01*
X940155Y5509920D01*
X947826Y5511901D01*
X949248Y5512663D01*
X949858Y5512663D01*
X955497Y5515051D01*
X956614Y5519267D01*
X956665Y5520537D01*
X958087Y5526532D01*
X960882Y5534050D01*
X964996Y5541314D01*
X971448Y5548934D01*
X971194Y5549696D01*
X969010Y5549696D01*
X965504Y5550458D01*
X960374Y5550916D01*
X958545Y5551424D01*
X953516Y5551932D01*
X952042Y5552440D01*
X935786Y5555996D01*
X934161Y5556707D01*
X932992Y5556707D01*
X931671Y5557418D01*
X929995Y5557774D01*
X922680Y5560720D01*
X922070Y5560720D01*
X909472Y5566816D01*
X899718Y5572607D01*
X892048Y5578144D01*
X888237Y5581599D01*
X882954Y5586831D01*
X878789Y5591860D01*
X875080Y5597093D01*
X869848Y5606186D01*
X865581Y5615889D01*
X865581Y5616295D01*
X864819Y5617870D01*
X861568Y5627624D01*
X858570Y5639155D01*
X858570Y5640425D01*
X856792Y5649823D01*
X856284Y5656783D01*
X855776Y5659170D01*
X855268Y5676087D01*
X855776Y5688228D01*
X856284Y5689955D01*
X856589Y5694222D01*
X859637Y5706719D01*
X860552Y5709056D01*
X860552Y5709970D01*
X861517Y5711952D01*
X861568Y5712764D01*
X866292Y5723128D01*
X870762Y5730748D01*
X875182Y5736996D01*
X881329Y5744260D01*
X881329Y5745734D01*
X880567Y5747004D01*
X880567Y5748020D01*
X879906Y5749239D01*
X878636Y5753506D01*
X876808Y5761786D01*
X876300Y5767019D01*
X875893Y5776671D01*
X876300Y5779058D01*
X876604Y5785561D01*
X877569Y5789625D01*
X877569Y5791250D01*
X879551Y5798820D01*
X879551Y5799683D01*
X880567Y5802528D01*
X880567Y5803544D01*
X881532Y5805576D01*
X881583Y5806440D01*
X882599Y5808421D01*
X882599Y5809234D01*
X883513Y5811316D01*
X883716Y5812282D01*
X884936Y5812891D01*
X889558Y5813501D01*
X897229Y5812891D01*
X900176Y5811926D01*
X901242Y5811926D01*
X904951Y5810910D01*
X907135Y5809945D01*
X907999Y5809945D01*
X909980Y5808980D01*
X910844Y5808929D01*
X924814Y5802934D01*
X926236Y5802477D01*
X940714Y5795162D01*
X948842Y5789930D01*
X949096Y5789930D01*
X953262Y5787085D01*
X955090Y5786475D01*
X974547Y5790895D01*
X987044Y5792927D01*
X1005586Y5794806D01*
X1031849Y5794806D01*
X1047750Y5793181D01*
X1062888Y5790895D01*
X1082344Y5786475D01*
X1084122Y5787085D01*
X1094638Y5793892D01*
X1108506Y5801410D01*
X1126286Y5809081D01*
X1131519Y5810961D01*
X1132179Y5810961D01*
X1135176Y5811926D01*
X1139698Y5812942D01*
X1147724Y5813704D01*
X1150975Y5812942D01*
X1152550Y5812942D01*
X1153820Y5811418D01*
X1153820Y5810402D01*
X1154684Y5808827D01*
X1156817Y5802731D01*
X1156817Y5801817D01*
X1158951Y5794146D01*
X1160678Y5785561D01*
X1161389Y5772556D01*
X1160627Y5761634D01*
X1158798Y5753506D01*
X1157478Y5749239D01*
X1156868Y5748020D01*
X1156817Y5747004D01*
X1156106Y5745734D01*
X1156106Y5744260D01*
X1158138Y5742025D01*
X1163116Y5735828D01*
X1167333Y5729732D01*
X1170635Y5723839D01*
X1175867Y5712917D01*
X1175867Y5711952D01*
X1176832Y5709970D01*
X1176883Y5709056D01*
X1178306Y5704992D01*
X1180642Y5695289D01*
X1181100Y5690463D01*
X1181811Y5685942D01*
X1182116Y5674461D01*
X1181608Y5659170D01*
X1181150Y5656783D01*
X1180642Y5649772D01*
X1177848Y5634888D01*
X1175664Y5626658D01*
X1173632Y5620613D01*
X1171854Y5616041D01*
X1171854Y5615533D01*
X1167231Y5605627D01*
X1162761Y5597601D01*
X1157630Y5590590D01*
X1151585Y5583986D01*
X1146962Y5579821D01*
X1138174Y5573064D01*
X1131671Y5569000D01*
X1119682Y5562955D01*
X1112926Y5559958D01*
X1100429Y5555742D01*
X1089660Y5553456D01*
X1088136Y5552948D01*
X1081633Y5551728D01*
X1065936Y5549544D01*
X1065682Y5548884D01*
X1069898Y5544566D01*
X1071422Y5542534D01*
X1075639Y5535676D01*
X1077772Y5531205D01*
X1077772Y5530545D01*
X1078738Y5528564D01*
X1078788Y5527395D01*
X1079449Y5525770D01*
X1081278Y5517540D01*
X1082344Y5508040D01*
X1082649Y5428183D01*
X1084834Y5423662D01*
X1086967Y5421376D01*
X1089304Y5419801D01*
X1093774Y5418836D01*
X1096314Y5418836D01*
X1100886Y5419648D01*
X1102766Y5420563D01*
X1103426Y5420563D01*
X1105408Y5421528D01*
X1106170Y5421579D01*
X1108151Y5422544D01*
X1108760Y5422595D01*
X1116228Y5425592D01*
X1116787Y5425592D01*
X1136192Y5434533D01*
X1155954Y5445810D01*
X1169212Y5454700D01*
X1184605Y5466842D01*
X1201013Y5482285D01*
X1213612Y5496052D01*
X1226921Y5513171D01*
X1238097Y5529935D01*
X1247952Y5547156D01*
X1247952Y5547512D01*
X1255928Y5564428D01*
X1255928Y5565089D01*
X1256690Y5566460D01*
X1259941Y5575249D01*
X1259941Y5575858D01*
X1260906Y5577840D01*
X1260957Y5578500D01*
X1262481Y5582361D01*
X1266444Y5596128D01*
X1268933Y5606034D01*
X1268933Y5607253D01*
X1269898Y5611114D01*
X1271473Y5619394D01*
X1273962Y5639155D01*
X1274419Y5649163D01*
X1274978Y5649315D01*
X1274978Y5678779D01*
X1274470Y5678932D01*
X1272946Y5695950D01*
X1271930Y5701233D01*
X1271930Y5702604D01*
X1269746Y5715304D01*
X1268933Y5717641D01*
X1268933Y5718657D01*
X1265936Y5731002D01*
X1262481Y5742228D01*
X1258671Y5752998D01*
X1255928Y5759856D01*
X1255928Y5760415D01*
X1248562Y5776163D01*
X1239723Y5792470D01*
X1231696Y5805322D01*
X1223416Y5816955D01*
X1209751Y5833618D01*
X1197762Y5846114D01*
X1188262Y5855055D01*
X1173530Y5866892D01*
X1162964Y5874512D01*
X1147978Y5884011D01*
X1137716Y5889599D01*
X1127709Y5894628D01*
X1116076Y5900013D01*
X1115415Y5900013D01*
X1114044Y5900775D01*
X1104900Y5904128D01*
X1093216Y5908040D01*
X1092149Y5908040D01*
X1090168Y5909005D01*
X1088999Y5909056D01*
X1087424Y5909767D01*
X1069644Y5913983D01*
X1052372Y5916777D01*
X1044397Y5917336D01*
X1042111Y5917793D01*
G37*
D10*
X1426519Y5703763D02*
G01*
X1426519Y5546791D01*
X1435663Y5519105D01*
X1454205Y5509961D01*
X1472493Y5509961D01*
X1398579Y5639247D02*
G01*
X1463349Y5639247D01*
X1579681Y5639247D02*
G01*
X1561139Y5629849D01*
X1542851Y5611561D01*
X1533453Y5583875D01*
X1533453Y5565333D01*
X1542851Y5537647D01*
X1561139Y5519105D01*
X1579681Y5509961D01*
X1607367Y5509961D01*
X1625909Y5519105D01*
X1644451Y5537647D01*
X1653595Y5565333D01*
X1653595Y5583875D01*
X1644451Y5611561D01*
X1625909Y5629849D01*
X1607367Y5639247D01*
X1579681Y5639247D01*
X1714555Y5703763D02*
G01*
X1714555Y5509961D01*
X1807011Y5639247D02*
G01*
X1714555Y5546791D01*
X1751639Y5583875D02*
G01*
X1816155Y5509961D01*
X1987859Y5639247D02*
G01*
X1987859Y5491419D01*
X1978715Y5463733D01*
X1969571Y5454589D01*
X1951029Y5445191D01*
X1923343Y5445191D01*
X1904801Y5454589D01*
X1987859Y5611561D02*
G01*
X1969571Y5629849D01*
X1951029Y5639247D01*
X1923343Y5639247D01*
X1904801Y5629849D01*
X1886259Y5611561D01*
X1877115Y5583875D01*
X1877115Y5565333D01*
X1886259Y5537647D01*
X1904801Y5519105D01*
X1923343Y5509961D01*
X1951029Y5509961D01*
X1969571Y5519105D01*
X1987859Y5537647D01*
X2095047Y5639247D02*
G01*
X2076759Y5629849D01*
X2058217Y5611561D01*
X2048819Y5583875D01*
X2048819Y5565333D01*
X2058217Y5537647D01*
X2076759Y5519105D01*
X2095047Y5509961D01*
X2122733Y5509961D01*
X2141275Y5519105D01*
X2159817Y5537647D01*
X2168961Y5565333D01*
X2168961Y5583875D01*
X2159817Y5611561D01*
X2141275Y5629849D01*
X2122733Y5639247D01*
X2095047Y5639247D01*
X2331521Y5639247D02*
G01*
X2229921Y5509961D01*
X2229921Y5639247D02*
G01*
X2331521Y5639247D01*
X2229921Y5509961D02*
G01*
X2331521Y5509961D01*
X2466395Y5703763D02*
G01*
X2447853Y5703763D01*
X2429565Y5694619D01*
X2420167Y5666933D01*
X2420167Y5509961D01*
X2392481Y5639247D02*
G01*
X2457251Y5639247D01*
X2527355Y5639247D02*
G01*
X2527355Y5546791D01*
X2536499Y5519105D01*
X2555041Y5509961D01*
X2582727Y5509961D01*
X2601269Y5519105D01*
X2628955Y5546791D01*
X2628955Y5639247D02*
G01*
X2628955Y5509961D01*
X2689915Y5639247D02*
G01*
X2689915Y5509961D01*
X2689915Y5583875D02*
G01*
X2699059Y5611561D01*
X2717601Y5629849D01*
X2736143Y5639247D01*
X2763829Y5639247D01*
X2824789Y5703763D02*
G01*
X2824789Y5509961D01*
X2917245Y5639247D02*
G01*
X2824789Y5546791D01*
X2861619Y5583875D02*
G01*
X2926389Y5509961D01*
X3098093Y5639247D02*
G01*
X3098093Y5509961D01*
X3098093Y5611561D02*
G01*
X3079805Y5629849D01*
X3061263Y5639247D01*
X3033577Y5639247D01*
X3015035Y5629849D01*
X2996493Y5611561D01*
X2987349Y5583875D01*
X2987349Y5565333D01*
X2996493Y5537647D01*
X3015035Y5519105D01*
X3033577Y5509961D01*
X3061263Y5509961D01*
X3079805Y5519105D01*
X3098093Y5537647D01*
X3159053Y5639247D02*
G01*
X3159053Y5509961D01*
X3159053Y5602163D02*
G01*
X3186739Y5629849D01*
X3205281Y5639247D01*
X3232967Y5639247D01*
X3251509Y5629849D01*
X3260653Y5602163D01*
X3260653Y5509961D01*
D11*
X1083056Y547115D02*
G01*
X1041400Y438150D01*
X1083056Y547115D02*
G01*
X1124458Y438150D01*
X1056894Y474471D02*
G01*
X1108963Y474471D01*
X1158747Y526287D02*
G01*
X1169162Y531621D01*
X1184910Y547115D01*
X1184910Y438150D01*
X1308100Y547115D02*
G01*
X1308100Y438150D01*
X1308100Y547115D02*
G01*
X1354836Y547115D01*
X1370329Y542036D01*
X1375663Y536702D01*
X1380744Y526287D01*
X1380744Y515873D01*
X1375663Y505460D01*
X1370329Y500379D01*
X1354836Y495300D01*
X1308100Y495300D02*
G01*
X1354836Y495300D01*
X1370329Y489965D01*
X1375663Y484886D01*
X1380744Y474471D01*
X1380744Y458723D01*
X1375663Y448310D01*
X1370329Y443229D01*
X1354836Y438150D01*
X1308100Y438150D01*
X1415034Y526287D02*
G01*
X1425447Y531621D01*
X1441196Y547115D01*
X1441196Y438150D01*
X1652778Y521207D02*
G01*
X1647444Y531621D01*
X1637029Y542036D01*
X1626870Y547115D01*
X1606042Y547115D01*
X1595628Y542036D01*
X1585213Y531621D01*
X1579879Y521207D01*
X1574800Y505460D01*
X1574800Y479552D01*
X1579879Y464057D01*
X1585213Y453644D01*
X1595628Y443229D01*
X1606042Y438150D01*
X1626870Y438150D01*
X1637029Y443229D01*
X1647444Y453644D01*
X1652778Y464057D01*
X1687068Y526287D02*
G01*
X1697481Y531621D01*
X1712976Y547115D01*
X1712976Y438150D01*
X1828800Y547115D02*
G01*
X1828800Y438150D01*
X1828800Y547115D02*
G01*
X1865122Y547115D01*
X1880870Y542036D01*
X1891029Y531621D01*
X1896363Y521207D01*
X1901444Y505460D01*
X1901444Y479552D01*
X1896363Y464057D01*
X1891029Y453644D01*
X1880870Y443229D01*
X1865122Y438150D01*
X1828800Y438150D01*
X1935734Y526287D02*
G01*
X1946147Y531621D01*
X1961896Y547115D01*
X1961896Y438150D01*
X2111756Y547115D02*
G01*
X2070100Y438150D01*
X2111756Y547115D02*
G01*
X2153158Y438150D01*
X2085594Y474471D02*
G01*
X2137663Y474471D01*
X2192781Y521207D02*
G01*
X2192781Y526287D01*
X2197862Y536702D01*
X2203196Y542036D01*
X2213610Y547115D01*
X2234184Y547115D01*
X2244597Y542036D01*
X2249931Y536702D01*
X2255012Y526287D01*
X2255012Y515873D01*
X2249931Y505460D01*
X2239518Y489965D01*
X2187447Y438150D01*
X2260346Y438150D01*
X2336800Y547115D02*
G01*
X2336800Y438150D01*
X2336800Y547115D02*
G01*
X2383536Y547115D01*
X2399029Y542036D01*
X2404363Y536702D01*
X2409444Y526287D01*
X2409444Y515873D01*
X2404363Y505460D01*
X2399029Y500379D01*
X2383536Y495300D01*
X2336800Y495300D02*
G01*
X2383536Y495300D01*
X2399029Y489965D01*
X2404363Y484886D01*
X2409444Y474471D01*
X2409444Y458723D01*
X2404363Y448310D01*
X2399029Y443229D01*
X2383536Y438150D01*
X2336800Y438150D01*
X2449068Y521207D02*
G01*
X2449068Y526287D01*
X2454147Y536702D01*
X2459481Y542036D01*
X2469896Y547115D01*
X2490470Y547115D01*
X2500884Y542036D01*
X2506218Y536702D01*
X2511297Y526287D01*
X2511297Y515873D01*
X2506218Y505460D01*
X2495804Y489965D01*
X2443734Y438150D01*
X2516631Y438150D01*
X2681478Y521207D02*
G01*
X2676144Y531621D01*
X2665729Y542036D01*
X2655570Y547115D01*
X2634742Y547115D01*
X2624328Y542036D01*
X2613913Y531621D01*
X2608579Y521207D01*
X2603500Y505460D01*
X2603500Y479552D01*
X2608579Y464057D01*
X2613913Y453644D01*
X2624328Y443229D01*
X2634742Y438150D01*
X2655570Y438150D01*
X2665729Y443229D01*
X2676144Y453644D01*
X2681478Y464057D01*
X2720847Y521207D02*
G01*
X2720847Y526287D01*
X2726181Y536702D01*
X2731262Y542036D01*
X2741676Y547115D01*
X2762504Y547115D01*
X2772918Y542036D01*
X2777997Y536702D01*
X2783331Y526287D01*
X2783331Y515873D01*
X2777997Y505460D01*
X2767584Y489965D01*
X2715768Y438150D01*
X2788412Y438150D01*
X2857500Y547115D02*
G01*
X2857500Y438150D01*
X2857500Y547115D02*
G01*
X2893822Y547115D01*
X2909570Y542036D01*
X2919729Y531621D01*
X2925063Y521207D01*
X2930144Y505460D01*
X2930144Y479552D01*
X2925063Y464057D01*
X2919729Y453644D01*
X2909570Y443229D01*
X2893822Y438150D01*
X2857500Y438150D01*
X2969768Y521207D02*
G01*
X2969768Y526287D01*
X2974847Y536702D01*
X2980181Y542036D01*
X2990596Y547115D01*
X3011170Y547115D01*
X3021584Y542036D01*
X3026918Y536702D01*
X3031997Y526287D01*
X3031997Y515873D01*
X3026918Y505460D01*
X3016504Y489965D01*
X2964434Y438150D01*
X3037331Y438150D01*
X3127756Y547115D02*
G01*
X3086100Y438150D01*
X3127756Y547115D02*
G01*
X3169158Y438150D01*
X3101594Y474471D02*
G01*
X3153663Y474471D01*
X3213862Y547115D02*
G01*
X3271012Y547115D01*
X3239770Y505460D01*
X3255518Y505460D01*
X3265931Y500379D01*
X3271012Y495300D01*
X3276346Y479552D01*
X3276346Y469137D01*
X3271012Y453644D01*
X3260597Y443229D01*
X3245104Y438150D01*
X3229610Y438150D01*
X3213862Y443229D01*
X3208781Y448310D01*
X3203447Y458723D01*
X3352800Y547115D02*
G01*
X3352800Y438150D01*
X3352800Y547115D02*
G01*
X3399536Y547115D01*
X3415029Y542036D01*
X3420363Y536702D01*
X3425444Y526287D01*
X3425444Y515873D01*
X3420363Y505460D01*
X3415029Y500379D01*
X3399536Y495300D01*
X3352800Y495300D02*
G01*
X3399536Y495300D01*
X3415029Y489965D01*
X3420363Y484886D01*
X3425444Y474471D01*
X3425444Y458723D01*
X3420363Y448310D01*
X3415029Y443229D01*
X3399536Y438150D01*
X3352800Y438150D01*
X3470147Y547115D02*
G01*
X3527297Y547115D01*
X3496310Y505460D01*
X3511804Y505460D01*
X3522218Y500379D01*
X3527297Y495300D01*
X3532631Y479552D01*
X3532631Y469137D01*
X3527297Y453644D01*
X3516884Y443229D01*
X3501390Y438150D01*
X3485896Y438150D01*
X3470147Y443229D01*
X3465068Y448310D01*
X3459734Y458723D01*
X3697478Y521207D02*
G01*
X3692144Y531621D01*
X3681729Y542036D01*
X3671570Y547115D01*
X3650742Y547115D01*
X3640328Y542036D01*
X3629913Y531621D01*
X3624579Y521207D01*
X3619500Y505460D01*
X3619500Y479552D01*
X3624579Y464057D01*
X3629913Y453644D01*
X3640328Y443229D01*
X3650742Y438150D01*
X3671570Y438150D01*
X3681729Y443229D01*
X3692144Y453644D01*
X3697478Y464057D01*
X3742181Y547115D02*
G01*
X3799331Y547115D01*
X3768090Y505460D01*
X3783584Y505460D01*
X3793997Y500379D01*
X3799331Y495300D01*
X3804412Y479552D01*
X3804412Y469137D01*
X3799331Y453644D01*
X3788918Y443229D01*
X3773170Y438150D01*
X3757676Y438150D01*
X3742181Y443229D01*
X3736847Y448310D01*
X3731768Y458723D01*
X3873500Y547115D02*
G01*
X3873500Y438150D01*
X3873500Y547115D02*
G01*
X3909822Y547115D01*
X3925570Y542036D01*
X3935729Y531621D01*
X3941063Y521207D01*
X3946144Y505460D01*
X3946144Y479552D01*
X3941063Y464057D01*
X3935729Y453644D01*
X3925570Y443229D01*
X3909822Y438150D01*
X3873500Y438150D01*
X3990847Y547115D02*
G01*
X4047997Y547115D01*
X4017010Y505460D01*
X4032504Y505460D01*
X4042918Y500379D01*
X4047997Y495300D01*
X4053331Y479552D01*
X4053331Y469137D01*
X4047997Y453644D01*
X4037584Y443229D01*
X4022090Y438150D01*
X4006596Y438150D01*
X3990847Y443229D01*
X3985768Y448310D01*
X3980434Y458723D01*
X4143756Y547115D02*
G01*
X4102100Y438150D01*
X4143756Y547115D02*
G01*
X4185158Y438150D01*
X4117594Y474471D02*
G01*
X4169663Y474471D01*
X4271518Y547115D02*
G01*
X4219447Y474471D01*
X4297426Y474471D01*
X4271518Y547115D02*
G01*
X4271518Y438150D01*
X4368800Y547115D02*
G01*
X4368800Y438150D01*
X4368800Y547115D02*
G01*
X4415536Y547115D01*
X4431029Y542036D01*
X4436363Y536702D01*
X4441444Y526287D01*
X4441444Y515873D01*
X4436363Y505460D01*
X4431029Y500379D01*
X4415536Y495300D01*
X4368800Y495300D02*
G01*
X4415536Y495300D01*
X4431029Y489965D01*
X4436363Y484886D01*
X4441444Y474471D01*
X4441444Y458723D01*
X4436363Y448310D01*
X4431029Y443229D01*
X4415536Y438150D01*
X4368800Y438150D01*
X4527804Y547115D02*
G01*
X4475734Y474471D01*
X4553712Y474471D01*
X4527804Y547115D02*
G01*
X4527804Y438150D01*
X4713478Y521207D02*
G01*
X4708144Y531621D01*
X4697729Y542036D01*
X4687570Y547115D01*
X4666742Y547115D01*
X4656328Y542036D01*
X4645913Y531621D01*
X4640579Y521207D01*
X4635500Y505460D01*
X4635500Y479552D01*
X4640579Y464057D01*
X4645913Y453644D01*
X4656328Y443229D01*
X4666742Y438150D01*
X4687570Y438150D01*
X4697729Y443229D01*
X4708144Y453644D01*
X4713478Y464057D01*
X4799584Y547115D02*
G01*
X4747768Y474471D01*
X4825746Y474471D01*
X4799584Y547115D02*
G01*
X4799584Y438150D01*
X4889500Y547115D02*
G01*
X4889500Y438150D01*
X4889500Y547115D02*
G01*
X4925822Y547115D01*
X4941570Y542036D01*
X4951729Y531621D01*
X4957063Y521207D01*
X4962144Y505460D01*
X4962144Y479552D01*
X4957063Y464057D01*
X4951729Y453644D01*
X4941570Y443229D01*
X4925822Y438150D01*
X4889500Y438150D01*
X5048504Y547115D02*
G01*
X4996434Y474471D01*
X5074412Y474471D01*
X5048504Y547115D02*
G01*
X5048504Y438150D01*
X4375150Y683513D02*
G01*
X4368800Y689863D01*
X4359402Y692912D01*
X4346702Y692912D01*
X4337050Y689863D01*
X4330700Y683513D01*
X4330700Y676910D01*
X4334002Y670560D01*
X4337050Y667512D01*
X4343400Y664210D01*
X4362450Y657860D01*
X4368800Y654812D01*
X4372102Y651510D01*
X4375150Y645160D01*
X4375150Y635762D01*
X4368800Y629412D01*
X4359402Y626110D01*
X4346702Y626110D01*
X4337050Y629412D01*
X4330700Y635762D01*
X4443984Y676910D02*
G01*
X4440681Y683513D01*
X4434331Y689863D01*
X4427981Y692912D01*
X4415281Y692912D01*
X4408931Y689863D01*
X4402581Y683513D01*
X4399534Y676910D01*
X4396231Y667512D01*
X4396231Y651510D01*
X4399534Y642112D01*
X4402581Y635762D01*
X4408931Y629412D01*
X4415281Y626110D01*
X4427981Y626110D01*
X4434331Y629412D01*
X4440681Y635762D01*
X4443984Y642112D01*
X4465065Y692912D02*
G01*
X4465065Y626110D01*
X4509515Y692912D02*
G01*
X4465065Y648462D01*
X4480813Y664210D02*
G01*
X4509515Y626110D01*
X4076700Y692912D02*
G01*
X4076700Y626110D01*
X4076700Y692912D02*
G01*
X4102100Y626110D01*
X4127500Y692912D02*
G01*
X4102100Y626110D01*
X4127500Y692912D02*
G01*
X4127500Y626110D01*
X4148581Y692912D02*
G01*
X4148581Y626110D01*
X4214113Y683513D02*
G01*
X4207763Y689863D01*
X4198365Y692912D01*
X4185412Y692912D01*
X4176013Y689863D01*
X4169663Y683513D01*
X4169663Y676910D01*
X4172712Y670560D01*
X4176013Y667512D01*
X4182363Y664210D01*
X4201413Y657860D01*
X4207763Y654812D01*
X4211065Y651510D01*
X4214113Y645160D01*
X4214113Y635762D01*
X4207763Y629412D01*
X4198365Y626110D01*
X4185412Y626110D01*
X4176013Y629412D01*
X4169663Y635762D01*
X4254246Y692912D02*
G01*
X4247896Y689863D01*
X4241546Y683513D01*
X4238244Y676910D01*
X4235196Y667512D01*
X4235196Y651510D01*
X4238244Y642112D01*
X4241546Y635762D01*
X4247896Y629412D01*
X4254246Y626110D01*
X4266946Y626110D01*
X4273296Y629412D01*
X4279646Y635762D01*
X4282947Y642112D01*
X4285996Y651510D01*
X4285996Y667512D01*
X4282947Y676910D01*
X4279646Y683513D01*
X4273296Y689863D01*
X4266946Y692912D01*
X4254246Y692912D01*
X3797300Y692912D02*
G01*
X3797300Y626110D01*
X3797300Y692912D02*
G01*
X3822700Y626110D01*
X3848100Y692912D02*
G01*
X3822700Y626110D01*
X3848100Y692912D02*
G01*
X3848100Y626110D01*
X3888231Y692912D02*
G01*
X3881881Y689863D01*
X3875531Y683513D01*
X3872484Y676910D01*
X3869181Y667512D01*
X3869181Y651510D01*
X3872484Y642112D01*
X3875531Y635762D01*
X3881881Y629412D01*
X3888231Y626110D01*
X3900931Y626110D01*
X3907281Y629412D01*
X3913631Y635762D01*
X3916934Y642112D01*
X3920236Y651510D01*
X3920236Y667512D01*
X3916934Y676910D01*
X3913631Y683513D01*
X3907281Y689863D01*
X3900931Y692912D01*
X3888231Y692912D01*
X3985768Y683513D02*
G01*
X3979418Y689863D01*
X3969765Y692912D01*
X3957065Y692912D01*
X3947413Y689863D01*
X3941063Y683513D01*
X3941063Y676910D01*
X3944365Y670560D01*
X3947413Y667512D01*
X3953763Y664210D01*
X3972813Y657860D01*
X3979418Y654812D01*
X3982465Y651510D01*
X3985768Y645160D01*
X3985768Y635762D01*
X3979418Y629412D01*
X3969765Y626110D01*
X3957065Y626110D01*
X3947413Y629412D01*
X3941063Y635762D01*
X4006596Y692912D02*
G01*
X4006596Y626110D01*
X3124200Y2566415D02*
G01*
X3124200Y2457450D01*
X3124200Y2566415D02*
G01*
X3170936Y2566415D01*
X3186429Y2561336D01*
X3191763Y2556002D01*
X3196844Y2545587D01*
X3196844Y2535173D01*
X3191763Y2524760D01*
X3186429Y2519679D01*
X3170936Y2514600D01*
X3124200Y2514600D01*
X3160522Y2514600D02*
G01*
X3196844Y2457450D01*
X3304031Y2550921D02*
G01*
X3293618Y2561336D01*
X3277870Y2566415D01*
X3257296Y2566415D01*
X3241547Y2561336D01*
X3231134Y2550921D01*
X3231134Y2540507D01*
X3236468Y2530094D01*
X3241547Y2524760D01*
X3251962Y2519679D01*
X3283204Y2509265D01*
X3293618Y2504186D01*
X3298697Y2498852D01*
X3304031Y2488437D01*
X3304031Y2472944D01*
X3293618Y2462529D01*
X3277870Y2457450D01*
X3257296Y2457450D01*
X3241547Y2462529D01*
X3231134Y2472944D01*
X2259584Y1739900D02*
G01*
X2368550Y1812544D01*
X2259584Y1812544D02*
G01*
X2368550Y1739900D01*
X2285492Y1852168D02*
G01*
X2280412Y1852168D01*
X2269997Y1857247D01*
X2264663Y1862581D01*
X2259584Y1872995D01*
X2259584Y1893570D01*
X2264663Y1903984D01*
X2269997Y1909318D01*
X2280412Y1914397D01*
X2290826Y1914397D01*
X2301240Y1909318D01*
X2316734Y1898904D01*
X2368550Y1846834D01*
X2368550Y1919731D01*
X1472184Y838200D02*
G01*
X1581150Y838200D01*
X1472184Y838200D02*
G01*
X1472184Y884936D01*
X1477263Y900429D01*
X1482597Y905763D01*
X1493012Y910844D01*
X1503426Y910844D01*
X1513840Y905763D01*
X1518920Y900429D01*
X1524000Y884936D01*
X1524000Y838200D01*
X1524000Y874521D02*
G01*
X1581150Y910844D01*
X1493012Y945134D02*
G01*
X1487678Y955547D01*
X1472184Y971295D01*
X1581150Y971295D01*
X3948684Y1651000D02*
G01*
X4057650Y1651000D01*
X3948684Y1651000D02*
G01*
X3948684Y1697736D01*
X3953763Y1713229D01*
X3959097Y1718563D01*
X3969512Y1723644D01*
X3979926Y1723644D01*
X3990340Y1718563D01*
X3995420Y1713229D01*
X4000500Y1697736D01*
X4000500Y1651000D01*
X4000500Y1687321D02*
G01*
X4057650Y1723644D01*
X3974592Y1763268D02*
G01*
X3969512Y1763268D01*
X3959097Y1768347D01*
X3953763Y1773681D01*
X3948684Y1784095D01*
X3948684Y1804670D01*
X3953763Y1815084D01*
X3959097Y1820418D01*
X3969512Y1825497D01*
X3979926Y1825497D01*
X3990340Y1820418D01*
X4005834Y1810004D01*
X4057650Y1757934D01*
X4057650Y1830831D01*
X4139196Y1663687D02*
G01*
X4217174Y1663687D01*
X4232668Y1668767D01*
X4243082Y1679181D01*
X4248162Y1694929D01*
X4248162Y1705343D01*
X4243082Y1720837D01*
X4232668Y1731251D01*
X4217174Y1736331D01*
X4139196Y1736331D01*
X4160024Y1770621D02*
G01*
X4154690Y1781035D01*
X4139196Y1796783D01*
X4248162Y1796783D01*
X1141971Y787387D02*
G01*
X1219949Y787387D01*
X1235443Y792467D01*
X1245857Y802881D01*
X1250937Y818629D01*
X1250937Y829043D01*
X1245857Y844537D01*
X1235443Y854951D01*
X1219949Y860031D01*
X1141971Y860031D01*
X1141971Y967219D02*
G01*
X1250937Y915149D01*
X1141971Y894321D02*
G01*
X1141971Y967219D01*
X230378Y2172207D02*
G01*
X225044Y2182621D01*
X214629Y2193036D01*
X204470Y2198115D01*
X183642Y2198115D01*
X173228Y2193036D01*
X162813Y2182621D01*
X157479Y2172207D01*
X152400Y2156460D01*
X152400Y2130552D01*
X157479Y2115057D01*
X162813Y2104644D01*
X173228Y2094229D01*
X183642Y2089150D01*
X204470Y2089150D01*
X214629Y2094229D01*
X225044Y2104644D01*
X230378Y2115057D01*
X230378Y2130552D01*
X204470Y2130552D02*
G01*
X230378Y2130552D01*
X264668Y2198115D02*
G01*
X264668Y2089150D01*
X264668Y2198115D02*
G01*
X337312Y2089150D01*
X337312Y2198115D02*
G01*
X337312Y2089150D01*
X371602Y2198115D02*
G01*
X371602Y2089150D01*
X371602Y2198115D02*
G01*
X407924Y2198115D01*
X423672Y2193036D01*
X434086Y2182621D01*
X439165Y2172207D01*
X444500Y2156460D01*
X444500Y2130552D01*
X439165Y2115057D01*
X434086Y2104644D01*
X423672Y2094229D01*
X407924Y2089150D01*
X371602Y2089150D01*
X303529Y2934715D02*
G01*
X251713Y2934715D01*
X246379Y2887979D01*
X251713Y2893060D01*
X267208Y2898394D01*
X282956Y2898394D01*
X298450Y2893060D01*
X308863Y2882900D01*
X313944Y2867152D01*
X313944Y2856737D01*
X308863Y2841244D01*
X298450Y2830829D01*
X282956Y2825750D01*
X267208Y2825750D01*
X251713Y2830829D01*
X246379Y2835910D01*
X241300Y2846323D01*
X348234Y2934715D02*
G01*
X389890Y2825750D01*
X431546Y2934715D02*
G01*
X389890Y2825750D01*
D10*
X2260600Y3020821D02*
G01*
X2260600Y3214623D01*
X2260600Y3020821D02*
G01*
X2186686Y3214623D01*
X2112772Y3020821D02*
G01*
X2186686Y3214623D01*
X2112772Y3020821D02*
G01*
X2112772Y3214623D01*
X1922526Y3048507D02*
G01*
X1941068Y3029965D01*
X1968754Y3020821D01*
X2005584Y3020821D01*
X2033270Y3029965D01*
X2051812Y3048507D01*
X2051812Y3067050D01*
X2042668Y3085337D01*
X2033270Y3094736D01*
X2014981Y3103879D01*
X1959610Y3122421D01*
X1941068Y3131565D01*
X1931670Y3140710D01*
X1922526Y3159252D01*
X1922526Y3186937D01*
X1941068Y3205479D01*
X1968754Y3214623D01*
X2005584Y3214623D01*
X2033270Y3205479D01*
X2051812Y3186937D01*
X1861565Y3020821D02*
G01*
X1861565Y3214623D01*
X1861565Y3020821D02*
G01*
X1741424Y3020821D01*
X1861565Y3113023D02*
G01*
X1787652Y3113023D01*
X2413000Y3363721D02*
G01*
X2413000Y3557523D01*
X2413000Y3363721D02*
G01*
X2329942Y3363721D01*
X2302256Y3372865D01*
X2292858Y3382010D01*
X2283713Y3400552D01*
X2283713Y3419094D01*
X2292858Y3437636D01*
X2302256Y3446779D01*
X2329942Y3455923D01*
X2413000Y3455923D01*
X2348229Y3455923D02*
G01*
X2283713Y3557523D01*
X2222754Y3483610D02*
G01*
X2112010Y3483610D01*
X2112010Y3465321D01*
X2121154Y3446779D01*
X2130297Y3437636D01*
X2148840Y3428237D01*
X2176526Y3428237D01*
X2195068Y3437636D01*
X2213610Y3455923D01*
X2222754Y3483610D01*
X2222754Y3502152D01*
X2213610Y3529837D01*
X2195068Y3548379D01*
X2176526Y3557523D01*
X2148840Y3557523D01*
X2130297Y3548379D01*
X2112010Y3529837D01*
X1940052Y3455923D02*
G01*
X1958594Y3437636D01*
X1977136Y3428237D01*
X2004822Y3428237D01*
X2023110Y3437636D01*
X2041652Y3455923D01*
X2051050Y3483610D01*
X2051050Y3502152D01*
X2041652Y3529837D01*
X2023110Y3548379D01*
X2004822Y3557523D01*
X1977136Y3557523D01*
X1958594Y3548379D01*
X1940052Y3529837D01*
X1879092Y3483610D02*
G01*
X1768347Y3483610D01*
X1768347Y3465321D01*
X1777492Y3446779D01*
X1786890Y3437636D01*
X1805178Y3428237D01*
X1832863Y3428237D01*
X1851406Y3437636D01*
X1869947Y3455923D01*
X1879092Y3483610D01*
X1879092Y3502152D01*
X1869947Y3529837D01*
X1851406Y3548379D01*
X1832863Y3557523D01*
X1805178Y3557523D01*
X1786890Y3548379D01*
X1768347Y3529837D01*
X1707388Y3363721D02*
G01*
X1697990Y3372865D01*
X1688846Y3363721D01*
X1697990Y3354323D01*
X1707388Y3363721D01*
X1697990Y3428237D02*
G01*
X1697990Y3557523D01*
X1627886Y3428237D02*
G01*
X1572513Y3557523D01*
X1517142Y3428237D02*
G01*
X1572513Y3557523D01*
X1456181Y3483610D02*
G01*
X1345184Y3483610D01*
X1345184Y3465321D01*
X1354581Y3446779D01*
X1363726Y3437636D01*
X1382268Y3428237D01*
X1409954Y3428237D01*
X1428496Y3437636D01*
X1446784Y3455923D01*
X1456181Y3483610D01*
X1456181Y3502152D01*
X1446784Y3529837D01*
X1428496Y3548379D01*
X1409954Y3557523D01*
X1382268Y3557523D01*
X1363726Y3548379D01*
X1345184Y3529837D01*
X1284224Y3428237D02*
G01*
X1284224Y3557523D01*
X1284224Y3483610D02*
G01*
X1275079Y3455923D01*
X1256538Y3437636D01*
X1238250Y3428237D01*
X1210310Y3428237D01*
D11*
X1574292Y1932178D02*
G01*
X1563878Y1926844D01*
X1553463Y1916429D01*
X1548384Y1906270D01*
X1548384Y1885442D01*
X1553463Y1875028D01*
X1563878Y1864613D01*
X1574292Y1859279D01*
X1590040Y1854200D01*
X1615947Y1854200D01*
X1631442Y1859279D01*
X1641856Y1864613D01*
X1652270Y1875028D01*
X1657350Y1885442D01*
X1657350Y1906270D01*
X1652270Y1916429D01*
X1641856Y1926844D01*
X1631442Y1932178D01*
X1548384Y2018284D02*
G01*
X1621028Y1966468D01*
X1621028Y2044445D01*
X1548384Y2018284D02*
G01*
X1657350Y2018284D01*
X1116584Y1854200D02*
G01*
X1194562Y1854200D01*
X1210056Y1859279D01*
X1220470Y1869694D01*
X1225550Y1885442D01*
X1225550Y1895855D01*
X1220470Y1911350D01*
X1210056Y1921763D01*
X1194562Y1926844D01*
X1116584Y1926844D01*
X1116584Y2023618D02*
G01*
X1116584Y1971547D01*
X1163320Y1966468D01*
X1158240Y1971547D01*
X1152906Y1987295D01*
X1152906Y2002789D01*
X1158240Y2018284D01*
X1168400Y2028697D01*
X1184147Y2034031D01*
X1194562Y2034031D01*
X1210056Y2028697D01*
X1220470Y2018284D01*
X1225550Y2002789D01*
X1225550Y1987295D01*
X1220470Y1971547D01*
X1215390Y1966468D01*
X1204976Y1961134D01*
X1758124Y845751D02*
G01*
X1747710Y840417D01*
X1737296Y830003D01*
X1732216Y819843D01*
X1732216Y799015D01*
X1737296Y788601D01*
X1747710Y778187D01*
X1758124Y772853D01*
X1773872Y767773D01*
X1799780Y767773D01*
X1815274Y772853D01*
X1825688Y778187D01*
X1836102Y788601D01*
X1841182Y799015D01*
X1841182Y819843D01*
X1836102Y830003D01*
X1825688Y840417D01*
X1815274Y845751D01*
X1753044Y880041D02*
G01*
X1747710Y890455D01*
X1732216Y905949D01*
X1841182Y905949D01*
X1758124Y945573D02*
G01*
X1753044Y945573D01*
X1742630Y950653D01*
X1737296Y955733D01*
X1732216Y966147D01*
X1732216Y986975D01*
X1737296Y997389D01*
X1742630Y1002723D01*
X1753044Y1007803D01*
X1763458Y1007803D01*
X1773872Y1002723D01*
X1789366Y992309D01*
X1841182Y940239D01*
X1841182Y1012883D01*
X1929917Y1594230D02*
G01*
X1919503Y1588896D01*
X1909089Y1578482D01*
X1904009Y1568322D01*
X1904009Y1547495D01*
X1909089Y1537080D01*
X1919503Y1526667D01*
X1929917Y1521332D01*
X1945665Y1516253D01*
X1971573Y1516253D01*
X1987067Y1521332D01*
X1997481Y1526667D01*
X2007895Y1537080D01*
X2012975Y1547495D01*
X2012975Y1568322D01*
X2007895Y1578482D01*
X1997481Y1588896D01*
X1987067Y1594230D01*
X1924837Y1628520D02*
G01*
X1919503Y1638935D01*
X1904009Y1654429D01*
X2012975Y1654429D01*
X1904009Y1699132D02*
G01*
X1904009Y1756282D01*
X1945665Y1725040D01*
X1945665Y1740788D01*
X1950745Y1751203D01*
X1955825Y1756282D01*
X1971573Y1761362D01*
X1981987Y1761362D01*
X1997481Y1756282D01*
X2007895Y1745869D01*
X2012975Y1730375D01*
X2012975Y1714627D01*
X2007895Y1699132D01*
X2002815Y1694053D01*
X1992401Y1688719D01*
X2653284Y1892300D02*
G01*
X2731262Y1892300D01*
X2746756Y1897379D01*
X2757170Y1907794D01*
X2762250Y1923542D01*
X2762250Y1933955D01*
X2757170Y1949450D01*
X2746756Y1959863D01*
X2731262Y1964944D01*
X2653284Y1964944D01*
X2653284Y2009647D02*
G01*
X2653284Y2066797D01*
X2694940Y2035810D01*
X2694940Y2051304D01*
X2700020Y2061718D01*
X2705100Y2066797D01*
X2720847Y2072131D01*
X2731262Y2072131D01*
X2746756Y2066797D01*
X2757170Y2056384D01*
X2762250Y2040889D01*
X2762250Y2025395D01*
X2757170Y2009647D01*
X2752090Y2004568D01*
X2741676Y1999234D01*
D12*
X3124200Y2413000D02*
G01*
X3073400Y2362200D01*
X3073400Y2286000D01*
X3327400Y2286000D02*
G01*
X3327400Y2362200D01*
X3276600Y2413000D01*
X3073400Y2286000D02*
G01*
X3073400Y2209800D01*
X3124200Y2159000D01*
X3327400Y2286000D02*
G01*
X3327400Y2209800D01*
X3276600Y2159000D01*
X2184400Y787400D02*
G01*
X2184400Y1473200D01*
X2108200Y787400D02*
G01*
X2108200Y1473200D01*
X2438400Y1473200D02*
G01*
X2438400Y787400D01*
X2514600Y1473200D02*
G01*
X2514600Y787400D01*
X2374900Y1155700D02*
G01*
X2247900Y1155700D01*
X2247900Y1155700D02*
G01*
X2247900Y1104900D01*
X2247900Y1104900D02*
G01*
X2374900Y1104900D01*
X2374900Y1104900D02*
G01*
X2374900Y1155700D01*
X2374900Y1193800D02*
G01*
X2311400Y1193800D01*
X2311400Y1193800D02*
G01*
X2247900Y1193800D01*
X2311400Y1193800D02*
G01*
X2311400Y1231900D01*
X2374900Y1066800D02*
G01*
X2311400Y1066800D01*
X2311400Y1066800D02*
G01*
X2247900Y1066800D01*
X2311400Y1066800D02*
G01*
X2311400Y1028700D01*
D11*
X1494078Y1145560D02*
G01*
X1398191Y1145560D01*
X1398191Y1013439D01*
X1494078Y1013439D01*
X1579321Y1145560D02*
G01*
X1675208Y1145560D01*
X1675208Y1013439D01*
X1579321Y1013439D01*
X4066560Y1515821D02*
G01*
X4066560Y1611708D01*
X3934439Y1611708D01*
X3934439Y1515821D01*
X4066560Y1430578D02*
G01*
X4066560Y1334691D01*
X3934439Y1334691D01*
X3934439Y1430578D01*
D13*
X4158648Y1451157D02*
G01*
X4158648Y1452153D01*
X4191652Y1485158D01*
X4226651Y1451157D02*
G01*
X4225653Y1451157D01*
X4191652Y1485158D01*
X4226651Y1451157D02*
G01*
X4158648Y1451157D01*
X4266658Y1449153D02*
G01*
X4266658Y1334152D01*
X4116646Y1449153D02*
G01*
X4116646Y1334152D01*
X4266648Y1334152D02*
G01*
X4118655Y1334152D01*
X4116415Y1487154D02*
G01*
X4116415Y1592165D01*
X4156422Y1622160D02*
G01*
X4146420Y1622160D01*
X4116415Y1592165D01*
X4226417Y1622160D02*
G01*
X4156422Y1622160D01*
X4226417Y1622160D02*
G01*
X4236432Y1622160D01*
X4266427Y1592165D01*
X4266427Y1487154D02*
G01*
X4266427Y1592165D01*
X4191652Y1451157D02*
G01*
X4191652Y1485158D01*
X1215842Y1047148D02*
G01*
X1214846Y1047148D01*
X1181841Y1080152D01*
X1215842Y1115151D02*
G01*
X1215842Y1114153D01*
X1181841Y1080152D01*
X1215842Y1115151D02*
G01*
X1215842Y1047148D01*
X1217846Y1155158D02*
G01*
X1332847Y1155158D01*
X1217846Y1005146D02*
G01*
X1332847Y1005146D01*
X1332847Y1155148D02*
G01*
X1332847Y1007155D01*
X1179845Y1004915D02*
G01*
X1074834Y1004915D01*
X1044839Y1044922D02*
G01*
X1044839Y1034920D01*
X1074834Y1004915D01*
X1044839Y1114917D02*
G01*
X1044839Y1044922D01*
X1044839Y1114917D02*
G01*
X1044839Y1124932D01*
X1074834Y1154927D01*
X1179845Y1154927D02*
G01*
X1074834Y1154927D01*
X1215842Y1080152D02*
G01*
X1181841Y1080152D01*
D12*
X241300Y2489200D02*
G01*
X190500Y2438400D01*
X190500Y2362200D01*
X444500Y2362200D02*
G01*
X444500Y2438400D01*
X393700Y2489200D01*
X190500Y2362200D02*
G01*
X190500Y2286000D01*
X241300Y2235200D01*
X444500Y2362200D02*
G01*
X444500Y2286000D01*
X393700Y2235200D01*
X241300Y2781300D02*
G01*
X190500Y2730500D01*
X190500Y2654300D01*
X444500Y2654300D02*
G01*
X444500Y2730500D01*
X393700Y2781300D01*
X190500Y2654300D02*
G01*
X190500Y2578100D01*
X241300Y2527300D01*
X444500Y2654300D02*
G01*
X444500Y2578100D01*
X393700Y2527300D01*
X660400Y2400300D02*
G01*
X660400Y4500295D01*
X3060395Y4500295D01*
X3060395Y2400300D01*
X660400Y2400300D01*
X3383102Y2138603D02*
G01*
X3383102Y5938596D01*
X5583097Y5938596D01*
X5583097Y2138603D01*
X3383102Y2138603D01*
X4864100Y3175000D02*
G01*
X4864100Y2997200D01*
X4102100Y2997200D01*
X4102100Y3175000D01*
D11*
X1722160Y1308280D02*
G01*
X1722160Y1456778D01*
X1503639Y1456778D02*
G01*
X1503639Y1308280D01*
X1518879Y1293040D02*
G01*
X1706920Y1293040D01*
X1722160Y1790519D02*
G01*
X1722160Y1642021D01*
X1503639Y1642021D02*
G01*
X1503639Y1790519D01*
X1518879Y1805759D02*
G01*
X1706920Y1805759D01*
D14*
X970305Y396697D02*
G01*
X5090287Y396697D01*
X5090287Y136702D01*
X970305Y136702D01*
X970305Y396697D01*
D11*
X1025779Y1293040D02*
G01*
X1311021Y1293040D01*
X1326261Y1308280D02*
G01*
X1326261Y1471780D01*
X1010538Y1471780D02*
G01*
X1010538Y1308280D01*
X1326261Y1790519D02*
G01*
X1326261Y1627019D01*
X1010538Y1627019D02*
G01*
X1010538Y1790519D01*
X1025779Y1805759D02*
G01*
X1311021Y1805759D01*
D15*
X744451Y1178387D02*
G01*
X744451Y1157223D01*
X744451Y1865376D02*
G01*
X744451Y1844212D01*
X584451Y1961299D02*
G01*
X588660Y1961299D01*
X584451Y1961299D02*
G01*
X440220Y1961299D01*
X444451Y1061300D02*
G01*
X589460Y1061300D01*
X204330Y1961375D02*
G01*
X206616Y1961375D01*
X64376Y1961375D01*
X64376Y1061199D01*
X204330Y1061199D01*
X604451Y1551302D02*
G01*
X624451Y1551302D01*
X564451Y1411302D02*
G01*
X604451Y1411302D01*
X604451Y1471302D01*
X624451Y1471302D01*
X564451Y1611302D02*
G01*
X604451Y1611302D01*
X604451Y1551302D01*
X564451Y1612303D02*
G01*
X564451Y1410301D01*
D12*
X181127Y1793067D02*
G01*
X431317Y1743283D01*
X431317Y1613235D01*
X181127Y1563197D01*
X181127Y1612727D01*
X391185Y1652605D01*
X391185Y1705437D01*
X181127Y1745569D01*
X181127Y1793067D01*
X311175Y1763095D02*
G01*
X311175Y1723217D01*
X311205Y1633159D02*
G01*
X311205Y1593159D01*
X311713Y1305481D02*
G01*
X311713Y1265481D01*
X311683Y1435417D02*
G01*
X311683Y1395539D01*
X181635Y1465389D02*
G01*
X431825Y1415605D01*
X431825Y1285557D01*
X181635Y1235519D01*
X181635Y1285049D01*
X391693Y1324927D01*
X391693Y1377759D01*
X181635Y1417891D01*
X181635Y1465389D01*
X1928522Y1053401D02*
G01*
X2008525Y1053401D01*
X1897537Y942426D02*
G01*
X1897537Y1022423D01*
X2039503Y942426D02*
G01*
X2039503Y1022423D01*
X1896955Y884836D02*
G01*
X1896955Y804837D01*
X1927938Y773854D02*
G01*
X2007936Y773854D01*
X2038916Y884836D02*
G01*
X2038916Y804837D01*
X2008477Y1207198D02*
G01*
X1928474Y1207198D01*
X2039462Y1318173D02*
G01*
X2039462Y1238176D01*
X1897496Y1318173D02*
G01*
X1897496Y1238176D01*
X2040044Y1375763D02*
G01*
X2040044Y1455762D01*
X2009061Y1486745D02*
G01*
X1929063Y1486745D01*
X1898083Y1375763D02*
G01*
X1898083Y1455762D01*
X3431895Y1744065D02*
G01*
X2841904Y1744065D01*
X2841904Y1154074D01*
X3431895Y1154074D01*
X3431895Y1744065D01*
G75*
G01*
X2425700Y1641208D02*
G02*
X2514610Y1473200I-114290J-168012D01*
G75*
G01*
X2514600Y787400D02*
G02*
X2425700Y619392I-203200J-3D01*
G75*
G01*
X2184400Y787400D02*
G03*
X2197100Y732041I127000J-1D01*
G75*
G01*
X2438400Y787400D02*
G02*
X2425700Y732041I-127000J-1D01*
G75*
G01*
X2108200Y787400D02*
G03*
X2197110Y619402I203200J14D01*
G75*
G01*
X2197100Y1641208D02*
G03*
X2108200Y1473200I114300J-168005D01*
G75*
G01*
X2197100Y1528559D02*
G03*
X2184400Y1473200I114300J-55358D01*
G75*
G01*
X2425700Y1528559D02*
G02*
X2438400Y1473200I-114300J-55358D01*
G75*
G01*
X2197100Y732041D02*
G03*
X2425700Y732041I114300J55358D01*
G75*
G01*
X2197100Y619392D02*
G03*
X2425700Y619392I114300J168005D01*
G75*
G01*
X2197100Y1528559D02*
G02*
X2425700Y1528559I114300J-55358D01*
G75*
G01*
X2197100Y1641208D02*
G02*
X2425700Y1641208I114300J-168005D01*
D11*
G75*
G01*
X1503639Y1308280D02*
G03*
X1518879Y1293040I15240J0D01*
G75*
G01*
X1706921Y1293040D02*
G03*
X1722161Y1308280I0J15240D01*
G75*
G01*
X1503639Y1790520D02*
G02*
X1518879Y1805760I15240J0D01*
G75*
G01*
X1706921Y1805760D02*
G02*
X1722161Y1790520I0J-15240D01*
G75*
G01*
X1010539Y1308280D02*
G03*
X1025779Y1293040I15240J0D01*
G75*
G01*
X1311021Y1293040D02*
G03*
X1326261Y1308280I0J15240D01*
G75*
G01*
X1010539Y1790520D02*
G02*
X1025779Y1805760I15240J0D01*
G75*
G01*
X1311021Y1805760D02*
G02*
X1326261Y1790520I0J-15240D01*
D12*
G75*
G01*
X1927939Y773849D02*
G02*
X1896956Y804832I0J30983D01*
G75*
G01*
X2038922Y804832D02*
G02*
X2007936Y773849I-30983J0D01*
G75*
G01*
X1897537Y1022419D02*
G02*
X1928523Y1053401I30983J0D01*
G75*
G01*
X2008520Y1053401D02*
G02*
X2039503Y1022419I0J-30982D01*
G75*
G01*
X2009061Y1486751D02*
G02*
X2040044Y1455768I0J-30983D01*
G75*
G01*
X1898078Y1455768D02*
G02*
X1929064Y1486751I30983J0D01*
G75*
G01*
X2039463Y1238181D02*
G02*
X2008477Y1207199I-30983J0D01*
G75*
G01*
X1928480Y1207199D02*
G02*
X1897497Y1238181I0J30982D01*
D16*
G75*
G01*
X2730500Y1823720D02*
G03*
X2730500Y1823466I-15001J-127D01*
D17*
G75*
G01*
X2937002Y1669034D02*
G03*
X2937002Y1668780I-20000J-127D01*
D12*
G75*
G01
X861416Y2298700D02*
G03X861416Y2298700I-35916J0D01*
G75*
G01
X5494299Y4127500D02*
G03X5494299Y4127500I-1023899J0D01*
M02*
