G04 Layer: BottomLayer*
G04 EasyEDA v6.5.42, 2024-06-29 11:35:46*
G04 3b8aa43405674a7c8d552062a6d3ea0b,8e72fd04a6c14d66a7e837eb9aaabff2,10*
G04 Gerber Generator version 0.2*
G04 Scale: 100 percent, Rotated: No, Reflected: No *
G04 Dimensions in millimeters *
G04 leading zeros omitted , absolute positions ,4 integer and 5 decimal *
%FSLAX45Y45*%
%MOMM*%

%ADD10C,0.2540*%
%ADD11C,0.5000*%
%ADD12C,1.5240*%
%ADD13R,1.5000X1.5000*%
%ADD14C,1.5000*%
%ADD15C,1.7000*%
%ADD16R,1.4999X1.4999*%
%ADD17C,1.4999*%
%ADD18O,1.8999962X1.0999978000000001*%
%ADD19C,6.0000*%
%ADD20C,0.6200*%

%LPD*%
D10*
X3517900Y1892300D02*
G01*
X3390900Y1892300D01*
X3073400Y2209800D01*
X2197100Y2209800D01*
X1854200Y2552700D01*
X2552700Y1651000D02*
G01*
X2603500Y1600200D01*
X2603500Y698500D01*
X2171700Y266700D01*
X2141296Y266700D01*
X2933700Y2095500D02*
G01*
X2501900Y2095500D01*
X2006600Y1600200D01*
X2006600Y1117600D01*
X1379296Y490296D01*
X1379296Y266700D01*
X2857500Y2032000D02*
G01*
X2666994Y2032000D01*
X2108194Y1473200D01*
X2108194Y1028700D01*
X1633296Y553796D01*
X1633296Y266700D01*
X2489200Y1727200D02*
G01*
X2489200Y868603D01*
X1887296Y266700D01*
D11*
X3467100Y2501900D02*
G01*
X3886200Y2501900D01*
X4102100Y2286000D01*
X3708400Y1485900D02*
G01*
X4203700Y1485900D01*
X4318000Y1600200D01*
X3695700Y2235200D02*
G01*
X3695700Y1498600D01*
X3708400Y1485900D01*
X1028700Y1866900D02*
G01*
X1028700Y1155700D01*
X977900Y1104900D01*
X711200Y2095500D02*
G01*
X800100Y2095500D01*
X1028700Y1866900D01*
D10*
X3022600Y2133600D02*
G01*
X2997200Y2159000D01*
X2451100Y2159000D01*
X1879600Y1587500D01*
X1879600Y1358900D01*
X1125296Y604596D01*
X1125296Y266700D01*
D12*
G01*
X3200400Y2286000D03*
D13*
G01*
X2311400Y1374139D03*
D14*
G01*
X2311400Y886460D03*
D12*
G01*
X317500Y2362200D03*
G01*
X317500Y2654300D03*
G01*
X838200Y2552700D03*
G01*
X1092200Y2552700D03*
G01*
X1346200Y2552700D03*
G01*
X1600200Y2552700D03*
G01*
X1854200Y2552700D03*
G01*
X2108200Y2552700D03*
D15*
G01*
X3848100Y2286000D03*
G01*
X4102100Y2286000D03*
G01*
X4356100Y2286000D03*
G01*
X4610100Y2286000D03*
G01*
X4864100Y2286000D03*
G01*
X5118100Y2286000D03*
G01*
X4102100Y5791200D03*
G01*
X4356100Y5791200D03*
G01*
X4610100Y5791200D03*
G01*
X4864100Y5791200D03*
D16*
G01*
X1125296Y266700D03*
D17*
G01*
X1379296Y266700D03*
G01*
X1633296Y266700D03*
G01*
X1887296Y266700D03*
G01*
X2141296Y266700D03*
G01*
X2395296Y266700D03*
G01*
X2649296Y266700D03*
G01*
X2903296Y266700D03*
G01*
X3157296Y266700D03*
G01*
X3411296Y266700D03*
G01*
X3665296Y266700D03*
G01*
X3919296Y266700D03*
G01*
X4173296Y266700D03*
G01*
X4427296Y266700D03*
G01*
X4681296Y266700D03*
G01*
X4935296Y266700D03*
D18*
G01*
X324459Y1079296D03*
G01*
X324459Y1943277D03*
G01*
X704469Y1079296D03*
G01*
X704469Y1943277D03*
D19*
G01*
X399999Y5599988D03*
G01*
X399999Y399999D03*
G01*
X5599988Y399999D03*
G01*
X5599988Y5599988D03*
D20*
G01*
X3517900Y1892300D03*
G01*
X3022600Y2133600D03*
G01*
X2933700Y2095500D03*
G01*
X2857500Y2032000D03*
G01*
X2489200Y1727200D03*
G01*
X2552700Y1651000D03*
G01*
X3467100Y2501900D03*
G01*
X3708400Y1485900D03*
G01*
X4318000Y1600200D03*
G01*
X3695700Y2235200D03*
G01*
X1028700Y1866900D03*
G01*
X977900Y1104900D03*
G01*
X711200Y2095500D03*
M02*
