G04 Layer: BottomSilkscreenLayer*
G04 EasyEDA v6.5.42, 2024-06-29 11:35:46*
G04 3b8aa43405674a7c8d552062a6d3ea0b,8e72fd04a6c14d66a7e837eb9aaabff2,10*
G04 Gerber Generator version 0.2*
G04 Scale: 100 percent, Rotated: No, Reflected: No *
G04 Dimensions in millimeters *
G04 leading zeros omitted , absolute positions ,4 integer and 5 decimal *
%FSLAX45Y45*%
%MOMM*%

%ADD10C,0.2032*%
%ADD11C,0.1500*%

%LPD*%
G36*
X3291230Y4087164D02*
G01*
X3285490Y4086758D01*
X3280003Y4085488D01*
X3274771Y4083507D01*
X3269894Y4080764D01*
X3265373Y4077309D01*
X3261258Y4073296D01*
X3257702Y4068622D01*
X3254654Y4063492D01*
X3252165Y4057802D01*
X3250336Y4051706D01*
X3249218Y4045254D01*
X3248812Y4038396D01*
X3256940Y4038396D01*
X3257296Y4044289D01*
X3258261Y4049826D01*
X3259785Y4055008D01*
X3261867Y4059732D01*
X3264408Y4064050D01*
X3267354Y4067911D01*
X3270707Y4071264D01*
X3274364Y4074058D01*
X3278276Y4076293D01*
X3282442Y4077970D01*
X3286810Y4078986D01*
X3291230Y4079290D01*
X3297224Y4078833D01*
X3302812Y4077411D01*
X3308146Y4075125D01*
X3313023Y4071924D01*
X3317544Y4067911D01*
X3321608Y4063034D01*
X3325215Y4057345D01*
X3329533Y4048404D01*
X3330854Y4046169D01*
X3332632Y4044594D01*
X3334918Y4043984D01*
X3337153Y4044594D01*
X3338880Y4046169D01*
X3340252Y4048404D01*
X3344468Y4057345D01*
X3348177Y4063034D01*
X3352292Y4067911D01*
X3356813Y4071924D01*
X3361740Y4075125D01*
X3367024Y4077411D01*
X3372662Y4078833D01*
X3378606Y4079290D01*
X3383076Y4078986D01*
X3387445Y4077970D01*
X3391611Y4076293D01*
X3395522Y4074058D01*
X3399180Y4071264D01*
X3402533Y4067911D01*
X3405479Y4064050D01*
X3408019Y4059732D01*
X3410102Y4055008D01*
X3411626Y4049826D01*
X3412591Y4044289D01*
X3412896Y4038396D01*
X3412439Y4031691D01*
X3411118Y4025290D01*
X3409035Y4019143D01*
X3406292Y4013301D01*
X3403041Y4007764D01*
X3399383Y4002481D01*
X3395421Y3997502D01*
X3386988Y3988358D01*
X3368649Y3970578D01*
X3357067Y3958183D01*
X3346907Y3946245D01*
X3338525Y3935577D01*
X3335121Y3930853D01*
X3334410Y3930954D01*
X3327298Y3940708D01*
X3317951Y3952240D01*
X3306978Y3964635D01*
X3294786Y3976928D01*
X3286963Y3984345D01*
X3278581Y3992879D01*
X3274415Y3997553D01*
X3270453Y4002532D01*
X3266795Y4007815D01*
X3263544Y4013352D01*
X3260852Y4019143D01*
X3258769Y4025290D01*
X3257448Y4031691D01*
X3256940Y4038396D01*
X3248812Y4038396D01*
X3249320Y4030979D01*
X3250692Y4023918D01*
X3252876Y4017213D01*
X3255721Y4010863D01*
X3259124Y4004868D01*
X3262934Y3999229D01*
X3267049Y3993896D01*
X3275838Y3984193D01*
X3293160Y3967276D01*
X3302558Y3957574D01*
X3311499Y3947566D01*
X3319729Y3937711D01*
X3326790Y3928516D01*
X3334664Y3916984D01*
X3335121Y3916984D01*
X3337356Y3920591D01*
X3342995Y3928516D01*
X3350107Y3937711D01*
X3358286Y3947566D01*
X3367227Y3957574D01*
X3376523Y3967276D01*
X3393897Y3984193D01*
X3402685Y3993896D01*
X3406800Y3999229D01*
X3410610Y4004868D01*
X3413963Y4010863D01*
X3416757Y4017213D01*
X3418941Y4023918D01*
X3420313Y4030979D01*
X3420770Y4038396D01*
X3420414Y4045254D01*
X3419297Y4051706D01*
X3417468Y4057802D01*
X3415029Y4063492D01*
X3412032Y4068622D01*
X3408476Y4073296D01*
X3404412Y4077309D01*
X3399942Y4080764D01*
X3395065Y4083507D01*
X3389884Y4085488D01*
X3384346Y4086758D01*
X3378606Y4087164D01*
X3373221Y4086860D01*
X3367582Y4085793D01*
X3361842Y4083913D01*
X3356051Y4080967D01*
X3350412Y4076954D01*
X3344926Y4071620D01*
X3339846Y4064965D01*
X3334918Y4056126D01*
X3334410Y4056684D01*
X3329940Y4064965D01*
X3324910Y4071620D01*
X3319526Y4076954D01*
X3313887Y4080967D01*
X3308096Y4083913D01*
X3302304Y4085793D01*
X3296665Y4086860D01*
G37*
G36*
X2681376Y4087164D02*
G01*
X2675636Y4086758D01*
X2670149Y4085488D01*
X2664968Y4083507D01*
X2660091Y4080764D01*
X2655620Y4077309D01*
X2651556Y4073296D01*
X2648000Y4068622D01*
X2644952Y4063492D01*
X2642514Y4057802D01*
X2640736Y4051706D01*
X2639618Y4045254D01*
X2639212Y4038396D01*
X2647086Y4038396D01*
X2647442Y4044289D01*
X2648407Y4049826D01*
X2649931Y4055008D01*
X2652014Y4059732D01*
X2654554Y4064050D01*
X2657500Y4067911D01*
X2660853Y4071264D01*
X2664510Y4074058D01*
X2668422Y4076293D01*
X2672588Y4077970D01*
X2676956Y4078986D01*
X2681376Y4079290D01*
X2687370Y4078833D01*
X2692958Y4077411D01*
X2698292Y4075125D01*
X2703220Y4071924D01*
X2707741Y4067911D01*
X2711856Y4063034D01*
X2715514Y4057345D01*
X2719781Y4048404D01*
X2721152Y4046169D01*
X2722880Y4044594D01*
X2725064Y4043984D01*
X2727401Y4044594D01*
X2729128Y4046169D01*
X2730500Y4048404D01*
X2734818Y4057345D01*
X2738424Y4063034D01*
X2742488Y4067911D01*
X2747010Y4071924D01*
X2751886Y4075125D01*
X2757170Y4077411D01*
X2762808Y4078833D01*
X2768752Y4079290D01*
X2773222Y4078986D01*
X2777591Y4077970D01*
X2781757Y4076293D01*
X2785668Y4074058D01*
X2789326Y4071264D01*
X2792679Y4067911D01*
X2795625Y4064050D01*
X2798165Y4059732D01*
X2800248Y4055008D01*
X2801772Y4049826D01*
X2802737Y4044289D01*
X2803042Y4038396D01*
X2802585Y4031691D01*
X2801264Y4025290D01*
X2799181Y4019143D01*
X2796489Y4013301D01*
X2793238Y4007764D01*
X2789580Y4002481D01*
X2785618Y3997502D01*
X2777236Y3988358D01*
X2758948Y3970578D01*
X2747264Y3958183D01*
X2737104Y3946245D01*
X2725369Y3930853D01*
X2724912Y3930853D01*
X2713075Y3946347D01*
X2702814Y3958386D01*
X2697124Y3964635D01*
X2684932Y3976928D01*
X2677210Y3984345D01*
X2668828Y3992879D01*
X2664663Y3997553D01*
X2660700Y4002532D01*
X2657043Y4007815D01*
X2653741Y4013352D01*
X2650998Y4019143D01*
X2648915Y4025290D01*
X2647594Y4031691D01*
X2647086Y4038396D01*
X2639212Y4038396D01*
X2639720Y4030979D01*
X2641092Y4023918D01*
X2643225Y4017213D01*
X2646070Y4010863D01*
X2649423Y4004868D01*
X2653233Y3999229D01*
X2657348Y3993896D01*
X2666136Y3984193D01*
X2683510Y3967276D01*
X2692806Y3957574D01*
X2701747Y3947566D01*
X2709926Y3937711D01*
X2717038Y3928516D01*
X2722676Y3920591D01*
X2724912Y3916984D01*
X2725369Y3916984D01*
X2733243Y3928516D01*
X2740304Y3937711D01*
X2748534Y3947566D01*
X2757474Y3957574D01*
X2766872Y3967276D01*
X2784195Y3984193D01*
X2792933Y3993896D01*
X2797098Y3999229D01*
X2800908Y4004868D01*
X2804312Y4010863D01*
X2807157Y4017213D01*
X2809341Y4023918D01*
X2810713Y4030979D01*
X2811170Y4038396D01*
X2810814Y4045254D01*
X2809697Y4051706D01*
X2807868Y4057802D01*
X2805379Y4063492D01*
X2802331Y4068622D01*
X2798724Y4073296D01*
X2794660Y4077309D01*
X2790139Y4080764D01*
X2785262Y4083507D01*
X2780030Y4085488D01*
X2774543Y4086758D01*
X2768752Y4087164D01*
X2763367Y4086860D01*
X2757728Y4085793D01*
X2751988Y4083913D01*
X2746248Y4080967D01*
X2740609Y4076954D01*
X2735224Y4071620D01*
X2730144Y4064965D01*
X2725369Y4056278D01*
X2725115Y4056126D01*
X2720238Y4064965D01*
X2715209Y4071620D01*
X2709773Y4076954D01*
X2704084Y4080967D01*
X2698292Y4083913D01*
X2692450Y4085793D01*
X2686812Y4086860D01*
G37*
G36*
X3008274Y4086402D02*
G01*
X3002737Y4085437D01*
X2998114Y4082745D01*
X2994964Y4078478D01*
X2993796Y4072940D01*
X2994964Y4067352D01*
X2998114Y4062933D01*
X3002737Y4060037D01*
X3008274Y4058970D01*
X3013964Y4060037D01*
X3018434Y4062933D01*
X3021431Y4067352D01*
X3022498Y4072940D01*
X3021431Y4078478D01*
X3018434Y4082745D01*
X3013964Y4085437D01*
G37*
G36*
X3107842Y4073956D02*
G01*
X3100222Y4073651D01*
X3093262Y4072788D01*
X3086912Y4071315D01*
X3081172Y4069283D01*
X3076092Y4066794D01*
X3071723Y4063847D01*
X3067964Y4060444D01*
X3064865Y4056634D01*
X3062478Y4052417D01*
X3060750Y4047896D01*
X3059684Y4043019D01*
X3059395Y4037126D01*
X3079140Y4037126D01*
X3079699Y4044035D01*
X3081324Y4049928D01*
X3084017Y4054754D01*
X3087776Y4058665D01*
X3092704Y4061663D01*
X3098647Y4063695D01*
X3105759Y4064914D01*
X3113938Y4065320D01*
X3129686Y4065320D01*
X3129940Y4006900D01*
X3118256Y4006900D01*
X3108960Y4007358D01*
X3100933Y4008729D01*
X3094177Y4011015D01*
X3088741Y4014215D01*
X3084525Y4018432D01*
X3081528Y4023614D01*
X3079750Y4029862D01*
X3079140Y4037126D01*
X3059395Y4037126D01*
X3059836Y4032148D01*
X3061309Y4026611D01*
X3063900Y4021328D01*
X3067558Y4016451D01*
X3072434Y4012082D01*
X3078530Y4008272D01*
X3085896Y4005173D01*
X3094634Y4002836D01*
X3087471Y4001617D01*
X3080969Y3999941D01*
X3075178Y3997909D01*
X3070098Y3995521D01*
X3065678Y3992727D01*
X3061868Y3989628D01*
X3058718Y3986276D01*
X3056128Y3982618D01*
X3054197Y3978706D01*
X3052826Y3974592D01*
X3052013Y3970274D01*
X3051721Y3965498D01*
X3073044Y3965498D01*
X3073349Y3970629D01*
X3074212Y3975303D01*
X3075635Y3979570D01*
X3077718Y3983380D01*
X3080359Y3986733D01*
X3083661Y3989628D01*
X3087573Y3992118D01*
X3092145Y3994150D01*
X3097377Y3995724D01*
X3103321Y3996842D01*
X3109925Y3997553D01*
X3117240Y3997756D01*
X3129940Y3997756D01*
X3129686Y3934002D01*
X3114954Y3934002D01*
X3108350Y3934256D01*
X3102254Y3934917D01*
X3096768Y3936085D01*
X3091789Y3937660D01*
X3087420Y3939692D01*
X3083661Y3942130D01*
X3080410Y3945026D01*
X3077768Y3948328D01*
X3075736Y3952036D01*
X3074263Y3956151D01*
X3073349Y3960622D01*
X3073044Y3965498D01*
X3051721Y3965498D01*
X3051911Y3961942D01*
X3052521Y3958183D01*
X3053537Y3954475D01*
X3054959Y3950868D01*
X3056839Y3947363D01*
X3059226Y3943959D01*
X3062020Y3940810D01*
X3065322Y3937812D01*
X3069132Y3935120D01*
X3073450Y3932631D01*
X3078276Y3930446D01*
X3083661Y3928618D01*
X3089605Y3927144D01*
X3096107Y3926027D01*
X3103219Y3925366D01*
X3110890Y3925112D01*
X3171596Y3925112D01*
X3171596Y3932732D01*
X3150768Y3935018D01*
X3150412Y3957320D01*
X3150260Y4012793D01*
X3150768Y4064050D01*
X3171596Y4066336D01*
X3171596Y4073956D01*
G37*
G36*
X2924708Y4033570D02*
G01*
X2916224Y4032961D01*
X2908350Y4031183D01*
X2900883Y4028338D01*
X2893466Y4024426D01*
X2894482Y4001820D01*
X2904388Y4001820D01*
X2908706Y4020870D01*
X2912567Y4022598D01*
X2916529Y4023868D01*
X2920593Y4024680D01*
X2924708Y4024934D01*
X2934106Y4023766D01*
X2940862Y4020464D01*
X2944926Y4015333D01*
X2946298Y4008678D01*
X2945231Y4002227D01*
X2941675Y3997147D01*
X2935274Y3992930D01*
X2925724Y3988866D01*
X2917850Y3986072D01*
X2910281Y3983075D01*
X2903880Y3979824D01*
X2898648Y3976319D01*
X2894431Y3972458D01*
X2891282Y3968343D01*
X2889097Y3963924D01*
X2887827Y3959148D01*
X2887370Y3954068D01*
X2887726Y3949852D01*
X2888640Y3945737D01*
X2890164Y3941826D01*
X2892298Y3938168D01*
X2895092Y3934815D01*
X2898394Y3931716D01*
X2902356Y3929024D01*
X2906826Y3926738D01*
X2911906Y3924858D01*
X2917596Y3923487D01*
X2923794Y3922623D01*
X2930550Y3922318D01*
X2939643Y3922877D01*
X2948025Y3924452D01*
X2956052Y3927043D01*
X2964078Y3930700D01*
X2964586Y3955084D01*
X2953918Y3955084D01*
X2949092Y3934510D01*
X2945028Y3932885D01*
X2940659Y3931665D01*
X2935935Y3930954D01*
X2930804Y3930700D01*
X2924708Y3931056D01*
X2919425Y3932021D01*
X2915005Y3933596D01*
X2911449Y3935729D01*
X2908655Y3938371D01*
X2906725Y3941419D01*
X2905556Y3944924D01*
X2905150Y3948734D01*
X2906369Y3955237D01*
X2910078Y3960418D01*
X2916529Y3964889D01*
X2925978Y3969054D01*
X2936138Y3972356D01*
X2942082Y3974795D01*
X2947416Y3977538D01*
X2952089Y3980586D01*
X2956052Y3984040D01*
X2959252Y3987952D01*
X2961640Y3992321D01*
X2963113Y3997198D01*
X2963570Y4002582D01*
X2962960Y4008678D01*
X2961030Y4014419D01*
X2957880Y4019651D01*
X2953512Y4024274D01*
X2947974Y4028135D01*
X2941320Y4031081D01*
X2933547Y4032910D01*
G37*
G36*
X3001416Y4033316D02*
G01*
X2998368Y4031284D01*
X2998876Y4001820D01*
X2998724Y3953560D01*
X2998368Y3934510D01*
X2983128Y3931970D01*
X2983128Y3925112D01*
X3034436Y3925112D01*
X3034436Y3931970D01*
X3017418Y3934510D01*
X3016910Y3971848D01*
X3016961Y3992067D01*
X3017418Y4012996D01*
X3035706Y4014774D01*
X3035706Y4021378D01*
G37*
D10*
X3702204Y5690021D02*
G01*
X3646787Y5560712D01*
X3591369Y5690021D02*
G01*
X3646787Y5560712D01*
X3521171Y5606892D02*
G01*
X3530409Y5597657D01*
X3521171Y5588421D01*
X3511936Y5597657D01*
X3521171Y5606892D01*
X3441740Y5708492D02*
G01*
X3441740Y5717730D01*
X3432502Y5736203D01*
X3423267Y5745439D01*
X3404793Y5754674D01*
X3367849Y5754674D01*
X3349376Y5745439D01*
X3340140Y5736203D01*
X3330902Y5717730D01*
X3330902Y5699257D01*
X3340140Y5680783D01*
X3358611Y5653074D01*
X3450976Y5560712D01*
X3321667Y5560712D01*
X3168342Y5754674D02*
G01*
X3260707Y5625365D01*
X3122160Y5625365D01*
X3168342Y5754674D02*
G01*
X3168342Y5560712D01*
X3005782Y5754674D02*
G01*
X3033491Y5745439D01*
X3051964Y5717730D01*
X3061200Y5671548D01*
X3061200Y5643839D01*
X3051964Y5597657D01*
X3033491Y5569948D01*
X3005782Y5560712D01*
X2987309Y5560712D01*
X2959600Y5569948D01*
X2941129Y5597657D01*
X2931891Y5643839D01*
X2931891Y5671548D01*
X2941129Y5717730D01*
X2959600Y5745439D01*
X2987309Y5754674D01*
X3005782Y5754674D01*
X2760096Y5726965D02*
G01*
X2769331Y5745439D01*
X2797040Y5754674D01*
X2815513Y5754674D01*
X2843222Y5745439D01*
X2861696Y5717730D01*
X2870931Y5671548D01*
X2870931Y5625365D01*
X2861696Y5588421D01*
X2843222Y5569948D01*
X2815513Y5560712D01*
X2806278Y5560712D01*
X2778569Y5569948D01*
X2760096Y5588421D01*
X2750860Y5616130D01*
X2750860Y5625365D01*
X2760096Y5653074D01*
X2778569Y5671548D01*
X2806278Y5680783D01*
X2815513Y5680783D01*
X2843222Y5671548D01*
X2861696Y5653074D01*
X2870931Y5625365D01*
X2680662Y5606892D02*
G01*
X2689900Y5597657D01*
X2680662Y5588421D01*
X2671427Y5597657D01*
X2680662Y5606892D01*
X2610467Y5690021D02*
G01*
X2610467Y5560712D01*
X2610467Y5653074D02*
G01*
X2582758Y5680783D01*
X2564284Y5690021D01*
X2536576Y5690021D01*
X2518102Y5680783D01*
X2508867Y5653074D01*
X2508867Y5560712D01*
X2447907Y5754674D02*
G01*
X2438669Y5745439D01*
X2429433Y5754674D01*
X2438669Y5763912D01*
X2447907Y5754674D01*
X2438669Y5690021D02*
G01*
X2438669Y5560712D01*
X2368473Y5690021D02*
G01*
X2266873Y5560712D01*
X2266873Y5690021D02*
G01*
X2368473Y5560712D01*
X2205913Y5754674D02*
G01*
X2196678Y5745439D01*
X2187440Y5754674D01*
X2196678Y5763912D01*
X2205913Y5754674D01*
X2196678Y5690021D02*
G01*
X2196678Y5560712D01*
X2126480Y5634603D02*
G01*
X2015644Y5634603D01*
X2015644Y5653074D01*
X2024880Y5671548D01*
X2034118Y5680783D01*
X2052589Y5690021D01*
X2080300Y5690021D01*
X2098771Y5680783D01*
X2117244Y5662312D01*
X2126480Y5634603D01*
X2126480Y5616130D01*
X2117244Y5588421D01*
X2098771Y5569948D01*
X2080300Y5560712D01*
X2052589Y5560712D01*
X2034118Y5569948D01*
X2015644Y5588421D01*
X1825376Y5726965D02*
G01*
X1843849Y5745439D01*
X1871558Y5754674D01*
X1908502Y5754674D01*
X1936211Y5745439D01*
X1954684Y5726965D01*
X1954684Y5708492D01*
X1945449Y5690021D01*
X1936211Y5680783D01*
X1917740Y5671548D01*
X1862320Y5653074D01*
X1843849Y5643839D01*
X1834611Y5634603D01*
X1825376Y5616130D01*
X1825376Y5588421D01*
X1843849Y5569948D01*
X1871558Y5560712D01*
X1908502Y5560712D01*
X1936211Y5569948D01*
X1954684Y5588421D01*
X1764416Y5754674D02*
G01*
X1755180Y5745439D01*
X1745942Y5754674D01*
X1755180Y5763912D01*
X1764416Y5754674D01*
X1755180Y5690021D02*
G01*
X1755180Y5560712D01*
X1574147Y5690021D02*
G01*
X1574147Y5542239D01*
X1583382Y5514530D01*
X1592620Y5505292D01*
X1611091Y5496057D01*
X1638800Y5496057D01*
X1657273Y5505292D01*
X1574147Y5662312D02*
G01*
X1592620Y5680783D01*
X1611091Y5690021D01*
X1638800Y5690021D01*
X1657273Y5680783D01*
X1675747Y5662312D01*
X1684982Y5634603D01*
X1684982Y5616130D01*
X1675747Y5588421D01*
X1657273Y5569948D01*
X1638800Y5560712D01*
X1611091Y5560712D01*
X1592620Y5569948D01*
X1574147Y5588421D01*
X1513187Y5690021D02*
G01*
X1513187Y5560712D01*
X1513187Y5653074D02*
G01*
X1485478Y5680783D01*
X1467004Y5690021D01*
X1439296Y5690021D01*
X1420822Y5680783D01*
X1411587Y5653074D01*
X1411587Y5560712D01*
X1239789Y5690021D02*
G01*
X1239789Y5560712D01*
X1239789Y5662312D02*
G01*
X1258262Y5680783D01*
X1276736Y5690021D01*
X1304444Y5690021D01*
X1322918Y5680783D01*
X1341389Y5662312D01*
X1350627Y5634603D01*
X1350627Y5616130D01*
X1341389Y5588421D01*
X1322918Y5569948D01*
X1304444Y5560712D01*
X1276736Y5560712D01*
X1258262Y5569948D01*
X1239789Y5588421D01*
X1178829Y5754674D02*
G01*
X1178829Y5560712D01*
D11*
X5758322Y4125671D02*
G01*
X5816503Y4125671D01*
X5827412Y4129305D01*
X5831047Y4132943D01*
X5834684Y4140215D01*
X5834684Y4147487D01*
X5831047Y4154761D01*
X5827412Y4158396D01*
X5816503Y4162033D01*
X5809231Y4162033D01*
X5758322Y4101670D02*
G01*
X5834684Y4101670D01*
X5834684Y4101670D02*
G01*
X5834684Y4058033D01*
X5776503Y3979489D02*
G01*
X5769231Y3983123D01*
X5761956Y3990398D01*
X5758322Y3997670D01*
X5758322Y4012217D01*
X5761956Y4019489D01*
X5769231Y4026761D01*
X5776503Y4030398D01*
X5787412Y4034033D01*
X5805594Y4034033D01*
X5816503Y4030398D01*
X5823775Y4026761D01*
X5831047Y4019489D01*
X5834684Y4012217D01*
X5834684Y3997670D01*
X5831047Y3990398D01*
X5823775Y3983123D01*
X5816503Y3979489D01*
X5758322Y3919126D02*
G01*
X5816503Y3919126D01*
X5827412Y3922760D01*
X5831047Y3926398D01*
X5834684Y3933670D01*
X5834684Y3940944D01*
X5831047Y3948216D01*
X5827412Y3951851D01*
X5816503Y3955488D01*
X5809231Y3955488D01*
X5758322Y3895125D02*
G01*
X5834684Y3895125D01*
X5834684Y3895125D02*
G01*
X5834684Y3851488D01*
X5776503Y3772943D02*
G01*
X5769231Y3776581D01*
X5761956Y3783853D01*
X5758322Y3791125D01*
X5758322Y3805671D01*
X5761956Y3812943D01*
X5769231Y3820215D01*
X5776503Y3823853D01*
X5787412Y3827487D01*
X5805594Y3827487D01*
X5816503Y3823853D01*
X5823775Y3820215D01*
X5831047Y3812943D01*
X5834684Y3805671D01*
X5834684Y3791125D01*
X5831047Y3783853D01*
X5823775Y3776581D01*
X5816503Y3772943D01*
X5758322Y3712580D02*
G01*
X5816503Y3712580D01*
X5827412Y3716215D01*
X5831047Y3719852D01*
X5834684Y3727124D01*
X5834684Y3734399D01*
X5831047Y3741671D01*
X5827412Y3745306D01*
X5816503Y3748943D01*
X5809231Y3748943D01*
X5758322Y3688580D02*
G01*
X5834684Y3688580D01*
X5834684Y3688580D02*
G01*
X5834684Y3644943D01*
X5776503Y3566398D02*
G01*
X5769231Y3570036D01*
X5761956Y3577308D01*
X5758322Y3584580D01*
X5758322Y3599126D01*
X5761956Y3606398D01*
X5769231Y3613670D01*
X5776503Y3617307D01*
X5787412Y3620945D01*
X5805594Y3620945D01*
X5816503Y3617307D01*
X5823775Y3613670D01*
X5831047Y3606398D01*
X5834684Y3599126D01*
X5834684Y3584580D01*
X5831047Y3577308D01*
X5823775Y3570036D01*
X5816503Y3566398D01*
X5758322Y3506035D02*
G01*
X5816503Y3506035D01*
X5827412Y3509670D01*
X5831047Y3513307D01*
X5834684Y3520579D01*
X5834684Y3527854D01*
X5831047Y3535126D01*
X5827412Y3538763D01*
X5816503Y3542398D01*
X5809231Y3542398D01*
X5758322Y3482035D02*
G01*
X5834684Y3482035D01*
X5834684Y3482035D02*
G01*
X5834684Y3438397D01*
X5776503Y3359853D02*
G01*
X5769231Y3363490D01*
X5761956Y3370762D01*
X5758322Y3378034D01*
X5758322Y3392581D01*
X5761956Y3399853D01*
X5769231Y3407125D01*
X5776503Y3410762D01*
X5787412Y3414400D01*
X5805594Y3414400D01*
X5816503Y3410762D01*
X5823775Y3407125D01*
X5831047Y3399853D01*
X5834684Y3392581D01*
X5834684Y3378034D01*
X5831047Y3370762D01*
X5823775Y3363490D01*
X5816503Y3359853D01*
M02*
